%
M48
M72
T01C0.02000
T02C0.04000
%
T01
X97250Y9154
X90750Y13654
X97250Y19154
X90750Y26154
X97250Y29154
X97250Y39154
X81250Y40154
X77250Y34154
X68750Y35154
X68750Y54154
X68750Y59154
X68750Y64154
X83750Y83154
X83750Y90154
X91750Y85154
X97250Y89154
X90750Y75154
X70750Y100154
X70750Y106154
X78750Y104154
X78750Y110154
X81750Y118154
X81750Y129154
X81750Y135154
X81750Y141154
X85750Y151154
X69250Y157154
X68250Y151154
X68750Y141154
X68750Y135154
X68750Y129154
X55750Y131154
X55750Y125154
X55750Y113154
X49750Y113154
X40250Y109154
X40250Y119154
X38750Y138154
X38750Y144154
X38750Y150154
X55750Y137154
X56750Y96154
X51250Y96154
X45750Y96154
X40250Y89154
X40250Y79154
X40250Y69154
X46750Y59154
X40250Y54154
X50750Y42154
X40250Y29154
X45750Y19154
X40750Y14154
X38750Y9154
X68750Y85154
X92750Y103154
X97250Y109154
T02
X81750Y14154
X81750Y24154
X71750Y24154
X71750Y14154
X61750Y14154
X61750Y24154
X51750Y24154
X51750Y14154
X98250Y129154
X98250Y139154
X98250Y149154
X98250Y159154
M30
