G75*
%MOIN*%
%OFA0B0*%
%FSLAX25Y25*%
%IPPOS*%
%LPD*%
%AMOC8*
5,1,8,0,0,1.08239X$1,22.5*
%
%ADD10C,0.00800*%
%ADD11C,0.00400*%
%ADD12R,0.10000X0.14000*%
%ADD13R,0.14000X0.10000*%
%ADD14C,0.00591*%
%ADD15R,0.03000X0.01800*%
%ADD16C,0.00100*%
%ADD17C,0.00600*%
%ADD18C,0.02200*%
%ADD19C,0.00200*%
%ADD20C,0.01000*%
D10*
X0031348Y0001800D02*
X0106152Y0001800D01*
X0106152Y0167154D01*
X0031348Y0167154D01*
X0031348Y0001800D01*
X0084439Y0036824D02*
X0086250Y0036824D01*
X0087170Y0035603D01*
X0088061Y0036824D02*
X0086250Y0036824D01*
X0086150Y0036763D02*
X0085390Y0035603D01*
X0051309Y0077371D02*
X0051309Y0077961D01*
X0051309Y0077371D02*
X0046191Y0077371D01*
X0046191Y0077961D01*
X0046191Y0091347D02*
X0046191Y0091741D01*
X0051309Y0091741D01*
X0051309Y0091347D01*
X0050144Y0100824D02*
X0046994Y0100824D01*
X0046994Y0102005D01*
X0046994Y0108304D02*
X0046994Y0109485D01*
X0050144Y0109485D01*
X0058026Y0114887D02*
X0058026Y0119217D01*
X0058026Y0114887D02*
X0059600Y0113312D01*
X0065900Y0113312D01*
X0067474Y0114887D01*
X0067474Y0119217D01*
X0070026Y0119217D02*
X0070026Y0114887D01*
X0071600Y0113312D01*
X0077900Y0113312D01*
X0079474Y0114887D01*
X0079474Y0119217D01*
X0079474Y0127091D02*
X0079474Y0132997D01*
X0070026Y0132997D01*
X0070026Y0127091D01*
X0067474Y0127091D02*
X0067474Y0132997D01*
X0058026Y0132997D01*
X0058026Y0127091D01*
X0048396Y0130769D02*
X0042096Y0130769D01*
X0042884Y0135493D02*
X0048396Y0135493D01*
X0048396Y0130769D01*
X0042884Y0135493D02*
X0042884Y0152816D01*
X0048396Y0152816D01*
X0048396Y0157540D01*
X0042096Y0157540D01*
X0043748Y0160200D02*
X0043748Y0163002D01*
X0045150Y0164404D01*
X0046551Y0163002D01*
X0046551Y0160200D01*
X0048352Y0160200D02*
X0051155Y0160200D01*
X0049754Y0160200D02*
X0049754Y0164404D01*
X0048352Y0163002D01*
X0046551Y0162302D02*
X0043748Y0162302D01*
X0031467Y0157540D02*
X0031467Y0130769D01*
X0080150Y0149464D02*
X0080150Y0152845D01*
X0084693Y0154345D02*
X0086807Y0154345D01*
X0091350Y0152845D02*
X0091350Y0149464D01*
D11*
X0087121Y0124074D02*
X0085252Y0124074D01*
X0086187Y0124074D02*
X0086187Y0121272D01*
X0084174Y0121272D02*
X0084174Y0123140D01*
X0083240Y0124074D01*
X0082306Y0123140D01*
X0082306Y0121272D01*
X0081228Y0121739D02*
X0080761Y0121272D01*
X0079359Y0121272D01*
X0079359Y0124074D01*
X0080761Y0124074D01*
X0081228Y0123607D01*
X0081228Y0123140D01*
X0080761Y0122673D01*
X0079359Y0122673D01*
X0080761Y0122673D02*
X0081228Y0122206D01*
X0081228Y0121739D01*
X0082306Y0122673D02*
X0084174Y0122673D01*
X0086789Y0100220D02*
X0088190Y0100220D01*
X0088657Y0099753D01*
X0088657Y0098819D01*
X0088190Y0098351D01*
X0086789Y0098351D01*
X0086789Y0097417D02*
X0086789Y0100220D01*
X0087723Y0098351D02*
X0088657Y0097417D01*
X0089735Y0097884D02*
X0090202Y0097417D01*
X0091136Y0097417D01*
X0091603Y0097884D01*
X0091603Y0098351D01*
X0091136Y0098819D01*
X0090202Y0098819D01*
X0089735Y0099286D01*
X0089735Y0099753D01*
X0090202Y0100220D01*
X0091136Y0100220D01*
X0091603Y0099753D01*
X0092682Y0100220D02*
X0094550Y0100220D01*
X0093616Y0100220D02*
X0093616Y0097417D01*
X0095450Y0094550D02*
X0095450Y0092682D01*
X0096384Y0091748D01*
X0097318Y0092682D01*
X0097318Y0094550D01*
X0098397Y0094083D02*
X0098397Y0092215D01*
X0098864Y0091748D01*
X0099798Y0091748D01*
X0100265Y0092215D01*
X0101343Y0092215D02*
X0101343Y0094083D01*
X0101810Y0094550D01*
X0102744Y0094550D01*
X0103211Y0094083D01*
X0103211Y0092215D02*
X0102744Y0091748D01*
X0101810Y0091748D01*
X0101343Y0092215D01*
X0100265Y0094083D02*
X0099798Y0094550D01*
X0098864Y0094550D01*
X0098397Y0094083D01*
X0098864Y0084550D02*
X0099798Y0084550D01*
X0100265Y0084083D01*
X0100265Y0083616D01*
X0099798Y0083149D01*
X0100265Y0082682D01*
X0100265Y0082215D01*
X0099798Y0081748D01*
X0098864Y0081748D01*
X0098397Y0082215D01*
X0097318Y0081748D02*
X0097318Y0083616D01*
X0096384Y0084550D01*
X0095450Y0083616D01*
X0095450Y0081748D01*
X0095450Y0083149D02*
X0097318Y0083149D01*
X0098397Y0084083D02*
X0098864Y0084550D01*
X0099331Y0083149D02*
X0099798Y0083149D01*
X0099798Y0074550D02*
X0098864Y0074550D01*
X0098397Y0074083D01*
X0097318Y0073616D02*
X0097318Y0071748D01*
X0098397Y0071748D02*
X0100265Y0073616D01*
X0100265Y0074083D01*
X0099798Y0074550D01*
X0097318Y0073616D02*
X0096384Y0074550D01*
X0095450Y0073616D01*
X0095450Y0071748D01*
X0095450Y0073149D02*
X0097318Y0073149D01*
X0098397Y0071748D02*
X0100265Y0071748D01*
X0099331Y0064550D02*
X0099331Y0061748D01*
X0098397Y0061748D02*
X0100265Y0061748D01*
X0098397Y0063616D02*
X0099331Y0064550D01*
X0097318Y0063616D02*
X0097318Y0061748D01*
X0097318Y0063149D02*
X0095450Y0063149D01*
X0095450Y0063616D02*
X0096384Y0064550D01*
X0097318Y0063616D01*
X0095450Y0063616D02*
X0095450Y0061748D01*
X0096384Y0054550D02*
X0097318Y0053616D01*
X0097318Y0051748D01*
X0098397Y0052215D02*
X0100265Y0054083D01*
X0100265Y0052215D01*
X0099798Y0051748D01*
X0098864Y0051748D01*
X0098397Y0052215D01*
X0098397Y0054083D01*
X0098864Y0054550D01*
X0099798Y0054550D01*
X0100265Y0054083D01*
X0097318Y0053149D02*
X0095450Y0053149D01*
X0095450Y0053616D02*
X0096384Y0054550D01*
X0095450Y0053616D02*
X0095450Y0051748D01*
X0096384Y0044550D02*
X0096384Y0041748D01*
X0095450Y0041748D02*
X0097318Y0041748D01*
X0098397Y0042215D02*
X0098864Y0041748D01*
X0099798Y0041748D01*
X0100265Y0042215D01*
X0100265Y0042682D01*
X0099798Y0043149D01*
X0099331Y0043149D01*
X0099798Y0043149D02*
X0100265Y0043616D01*
X0100265Y0044083D01*
X0099798Y0044550D01*
X0098864Y0044550D01*
X0098397Y0044083D01*
X0096384Y0044550D02*
X0095450Y0043616D01*
X0096384Y0034550D02*
X0096384Y0031748D01*
X0095450Y0031748D02*
X0097318Y0031748D01*
X0098397Y0031748D02*
X0100265Y0033616D01*
X0100265Y0034083D01*
X0099798Y0034550D01*
X0098864Y0034550D01*
X0098397Y0034083D01*
X0096384Y0034550D02*
X0095450Y0033616D01*
X0098397Y0031748D02*
X0100265Y0031748D01*
X0099331Y0024550D02*
X0098397Y0023616D01*
X0099331Y0024550D02*
X0099331Y0021748D01*
X0098397Y0021748D02*
X0100265Y0021748D01*
X0097318Y0021748D02*
X0095450Y0021748D01*
X0096384Y0021748D02*
X0096384Y0024550D01*
X0095450Y0023616D01*
X0096384Y0014550D02*
X0095450Y0013616D01*
X0096384Y0014550D02*
X0096384Y0011748D01*
X0095450Y0011748D02*
X0097318Y0011748D01*
X0098397Y0012215D02*
X0100265Y0014083D01*
X0100265Y0012215D01*
X0099798Y0011748D01*
X0098864Y0011748D01*
X0098397Y0012215D01*
X0098397Y0014083D01*
X0098864Y0014550D01*
X0099798Y0014550D01*
X0100265Y0014083D01*
X0093078Y0006269D02*
X0091543Y0006269D01*
X0090776Y0005502D01*
X0090776Y0003967D01*
X0091543Y0003200D01*
X0093078Y0003200D01*
X0093845Y0003967D01*
X0093845Y0005502D01*
X0093078Y0006269D01*
X0089241Y0006269D02*
X0086939Y0006269D01*
X0086172Y0005502D01*
X0086172Y0003967D01*
X0086939Y0003200D01*
X0089241Y0003200D01*
X0089241Y0007804D01*
X0084637Y0005502D02*
X0084637Y0003200D01*
X0082335Y0003200D01*
X0081568Y0003967D01*
X0082335Y0004735D01*
X0084637Y0004735D01*
X0084637Y0005502D02*
X0083870Y0006269D01*
X0082335Y0006269D01*
X0080033Y0006269D02*
X0077731Y0006269D01*
X0076964Y0005502D01*
X0076964Y0003967D01*
X0077731Y0003200D01*
X0080033Y0003200D01*
X0075429Y0003200D02*
X0073128Y0003200D01*
X0072360Y0003967D01*
X0072360Y0005502D01*
X0073128Y0006269D01*
X0075429Y0006269D01*
X0070826Y0005502D02*
X0070826Y0003967D01*
X0070058Y0003200D01*
X0068524Y0003200D01*
X0067756Y0003967D01*
X0067756Y0005502D01*
X0068524Y0006269D01*
X0070058Y0006269D01*
X0070826Y0005502D01*
X0066222Y0006269D02*
X0064687Y0003200D01*
X0063152Y0006269D01*
X0061618Y0005502D02*
X0061618Y0003200D01*
X0059316Y0003200D01*
X0058548Y0003967D01*
X0059316Y0004735D01*
X0061618Y0004735D01*
X0061618Y0005502D02*
X0060850Y0006269D01*
X0059316Y0006269D01*
X0041318Y0021621D02*
X0040851Y0021154D01*
X0039917Y0021154D01*
X0039450Y0021621D01*
X0039450Y0022088D01*
X0039917Y0022556D01*
X0040851Y0022556D01*
X0041318Y0022088D01*
X0041318Y0021621D01*
X0040851Y0022556D02*
X0041318Y0023023D01*
X0041318Y0023490D01*
X0040851Y0023957D01*
X0039917Y0023957D01*
X0039450Y0023490D01*
X0039450Y0023023D01*
X0039917Y0022556D01*
X0039950Y0031154D02*
X0039950Y0031621D01*
X0041818Y0033490D01*
X0041818Y0033957D01*
X0039950Y0033957D01*
X0039917Y0041548D02*
X0039450Y0042015D01*
X0039450Y0042949D01*
X0040851Y0042949D01*
X0041318Y0042482D01*
X0041318Y0042015D01*
X0040851Y0041548D01*
X0039917Y0041548D01*
X0039450Y0042949D02*
X0040384Y0043883D01*
X0041318Y0044350D01*
X0037351Y0051548D02*
X0036417Y0051548D01*
X0035950Y0052015D01*
X0035950Y0052949D02*
X0036884Y0053416D01*
X0037351Y0053416D01*
X0037818Y0052949D01*
X0037818Y0052015D01*
X0037351Y0051548D01*
X0035950Y0052949D02*
X0035950Y0054350D01*
X0037818Y0054350D01*
X0040851Y0061748D02*
X0040851Y0064550D01*
X0039450Y0063149D01*
X0041318Y0063149D01*
X0046547Y0073087D02*
X0047481Y0073087D01*
X0047948Y0073554D01*
X0047948Y0074488D01*
X0047014Y0074488D01*
X0046080Y0075422D02*
X0046080Y0073554D01*
X0046547Y0073087D01*
X0046080Y0075422D02*
X0046547Y0075889D01*
X0047481Y0075889D01*
X0047948Y0075422D01*
X0049026Y0075889D02*
X0049026Y0073087D01*
X0050895Y0073087D02*
X0049026Y0075889D01*
X0050895Y0075889D02*
X0050895Y0073087D01*
X0051973Y0073087D02*
X0053374Y0073087D01*
X0053841Y0073554D01*
X0053841Y0075422D01*
X0053374Y0075889D01*
X0051973Y0075889D01*
X0051973Y0073087D01*
X0041762Y0101748D02*
X0040361Y0101748D01*
X0040361Y0104550D01*
X0041762Y0104550D01*
X0042229Y0104083D01*
X0042229Y0103616D01*
X0041762Y0103149D01*
X0040361Y0103149D01*
X0041762Y0103149D02*
X0042229Y0102682D01*
X0042229Y0102215D01*
X0041762Y0101748D01*
X0039331Y0101748D02*
X0038397Y0101748D01*
X0038864Y0101748D02*
X0038864Y0104550D01*
X0038397Y0104550D02*
X0039331Y0104550D01*
X0037318Y0104550D02*
X0037318Y0102682D01*
X0036384Y0101748D01*
X0035450Y0102682D01*
X0035450Y0104550D01*
X0035450Y0111748D02*
X0035450Y0114550D01*
X0036851Y0114550D01*
X0037318Y0114083D01*
X0037318Y0113149D01*
X0036851Y0112682D01*
X0035450Y0112682D01*
X0036384Y0112682D02*
X0037318Y0111748D01*
X0038397Y0111748D02*
X0040265Y0114550D01*
X0041343Y0114550D02*
X0042277Y0114550D01*
X0041810Y0114550D02*
X0041810Y0111748D01*
X0041343Y0111748D02*
X0042277Y0111748D01*
X0040265Y0111748D02*
X0038397Y0114550D01*
X0039265Y0121748D02*
X0037397Y0124550D01*
X0036318Y0124550D02*
X0034450Y0124550D01*
X0035384Y0124550D02*
X0035384Y0121748D01*
X0037397Y0121748D02*
X0039265Y0124550D01*
X0040343Y0124083D02*
X0040343Y0122215D01*
X0040810Y0121748D01*
X0041744Y0121748D01*
X0042211Y0122215D01*
X0042211Y0124083D01*
X0041744Y0124550D01*
X0040810Y0124550D01*
X0040343Y0124083D01*
X0037351Y0014157D02*
X0036417Y0014157D01*
X0035950Y0013690D01*
X0035950Y0013223D01*
X0036417Y0012756D01*
X0037818Y0012756D01*
X0037818Y0013690D02*
X0037818Y0011821D01*
X0037351Y0011354D01*
X0036417Y0011354D01*
X0035950Y0011821D01*
X0037818Y0013690D02*
X0037351Y0014157D01*
D12*
X0051750Y0012154D03*
X0051750Y0009087D03*
D13*
X0038325Y0069154D03*
X0038325Y0079154D03*
X0038325Y0089154D03*
X0098781Y0109154D03*
X0098781Y0129154D03*
D14*
X0093947Y0122666D02*
X0094734Y0121879D01*
X0093947Y0122666D02*
X0087648Y0122666D01*
D15*
X0073750Y0140154D03*
X0063750Y0140154D03*
X0063750Y0154154D03*
X0073750Y0154154D03*
X0062750Y0105154D03*
X0063750Y0090154D03*
X0073750Y0090154D03*
X0050750Y0035154D03*
D16*
X0076915Y0079344D02*
X0076915Y0080052D01*
X0077092Y0079875D02*
X0076561Y0080405D01*
X0076227Y0080739D02*
X0076935Y0081447D01*
X0077269Y0081113D02*
X0076207Y0080052D01*
X0076227Y0080739D02*
X0075519Y0080739D01*
X0075519Y0081447D01*
X0076227Y0082155D01*
X0075539Y0082135D02*
X0075539Y0082843D01*
X0074832Y0082843D01*
X0074124Y0082135D01*
X0074655Y0082666D02*
X0075362Y0081958D01*
X0075539Y0082135D02*
X0074832Y0081427D01*
X0077269Y0081113D02*
X0077800Y0080582D01*
X0077800Y0080228D01*
X0077446Y0079875D01*
X0077092Y0079875D01*
X0081024Y0112291D02*
X0082025Y0112291D01*
X0082498Y0112291D02*
X0083248Y0112291D01*
X0083499Y0112541D01*
X0083499Y0113542D01*
X0083248Y0113792D01*
X0082498Y0113792D01*
X0082498Y0112291D01*
X0081024Y0112291D02*
X0081024Y0113792D01*
X0083971Y0113542D02*
X0083971Y0112541D01*
X0084221Y0112291D01*
X0084722Y0112291D01*
X0084972Y0112541D01*
X0084972Y0113542D01*
X0084722Y0113792D01*
X0084221Y0113792D01*
X0083971Y0113542D01*
X0043700Y0083678D02*
X0043700Y0082678D01*
X0043700Y0082205D02*
X0043200Y0081705D01*
X0043700Y0081955D02*
X0043700Y0081455D01*
X0043450Y0081204D01*
X0042449Y0081204D01*
X0042199Y0081455D01*
X0042199Y0081955D01*
X0042449Y0082205D01*
X0043450Y0082205D01*
X0043700Y0081955D01*
X0043700Y0083178D02*
X0042199Y0083178D01*
X0042699Y0082678D01*
X0042056Y0100773D02*
X0041055Y0100773D01*
X0040805Y0101023D01*
X0040805Y0101524D01*
X0041055Y0101774D01*
X0042056Y0101774D01*
X0042306Y0101524D01*
X0042306Y0101023D01*
X0042056Y0100773D01*
X0041806Y0101274D02*
X0042306Y0101774D01*
X0042306Y0102246D02*
X0041305Y0103247D01*
X0041055Y0103247D01*
X0040805Y0102997D01*
X0040805Y0102497D01*
X0041055Y0102246D01*
X0042306Y0102246D02*
X0042306Y0103247D01*
D17*
X0067762Y0077681D02*
X0069738Y0077681D01*
X0088265Y0059154D01*
X0068750Y0039639D01*
X0049235Y0059154D01*
X0067762Y0077681D01*
X0067336Y0074428D02*
X0067338Y0074503D01*
X0067344Y0074577D01*
X0067354Y0074651D01*
X0067367Y0074724D01*
X0067385Y0074797D01*
X0067406Y0074868D01*
X0067431Y0074939D01*
X0067460Y0075008D01*
X0067493Y0075075D01*
X0067529Y0075140D01*
X0067568Y0075204D01*
X0067610Y0075265D01*
X0067656Y0075324D01*
X0067705Y0075381D01*
X0067757Y0075434D01*
X0067811Y0075485D01*
X0067868Y0075534D01*
X0067928Y0075578D01*
X0067990Y0075620D01*
X0068054Y0075659D01*
X0068120Y0075694D01*
X0068187Y0075725D01*
X0068257Y0075753D01*
X0068327Y0075777D01*
X0068399Y0075798D01*
X0068472Y0075814D01*
X0068545Y0075827D01*
X0068620Y0075836D01*
X0068694Y0075841D01*
X0068769Y0075842D01*
X0068843Y0075839D01*
X0068918Y0075832D01*
X0068991Y0075821D01*
X0069065Y0075807D01*
X0069137Y0075788D01*
X0069208Y0075766D01*
X0069278Y0075740D01*
X0069347Y0075710D01*
X0069413Y0075677D01*
X0069478Y0075640D01*
X0069541Y0075600D01*
X0069602Y0075556D01*
X0069660Y0075510D01*
X0069716Y0075460D01*
X0069769Y0075408D01*
X0069820Y0075353D01*
X0069867Y0075295D01*
X0069911Y0075235D01*
X0069952Y0075172D01*
X0069990Y0075108D01*
X0070024Y0075042D01*
X0070055Y0074973D01*
X0070082Y0074904D01*
X0070105Y0074833D01*
X0070124Y0074761D01*
X0070140Y0074688D01*
X0070152Y0074614D01*
X0070160Y0074540D01*
X0070164Y0074465D01*
X0070164Y0074391D01*
X0070160Y0074316D01*
X0070152Y0074242D01*
X0070140Y0074168D01*
X0070124Y0074095D01*
X0070105Y0074023D01*
X0070082Y0073952D01*
X0070055Y0073883D01*
X0070024Y0073814D01*
X0069990Y0073748D01*
X0069952Y0073684D01*
X0069911Y0073621D01*
X0069867Y0073561D01*
X0069820Y0073503D01*
X0069769Y0073448D01*
X0069716Y0073396D01*
X0069660Y0073346D01*
X0069602Y0073300D01*
X0069541Y0073256D01*
X0069478Y0073216D01*
X0069413Y0073179D01*
X0069347Y0073146D01*
X0069278Y0073116D01*
X0069208Y0073090D01*
X0069137Y0073068D01*
X0069065Y0073049D01*
X0068991Y0073035D01*
X0068918Y0073024D01*
X0068843Y0073017D01*
X0068769Y0073014D01*
X0068694Y0073015D01*
X0068620Y0073020D01*
X0068545Y0073029D01*
X0068472Y0073042D01*
X0068399Y0073058D01*
X0068327Y0073079D01*
X0068257Y0073103D01*
X0068187Y0073131D01*
X0068120Y0073162D01*
X0068054Y0073197D01*
X0067990Y0073236D01*
X0067928Y0073278D01*
X0067868Y0073322D01*
X0067811Y0073371D01*
X0067757Y0073422D01*
X0067705Y0073475D01*
X0067656Y0073532D01*
X0067610Y0073591D01*
X0067568Y0073652D01*
X0067529Y0073716D01*
X0067493Y0073781D01*
X0067460Y0073848D01*
X0067431Y0073917D01*
X0067406Y0073988D01*
X0067385Y0074059D01*
X0067367Y0074132D01*
X0067354Y0074205D01*
X0067344Y0074279D01*
X0067338Y0074353D01*
X0067336Y0074428D01*
X0082152Y0112556D02*
X0082152Y0115753D01*
X0084348Y0115753D01*
X0091152Y0115753D02*
X0093348Y0115753D01*
X0093348Y0112556D01*
X0084250Y0029154D02*
X0079250Y0029154D01*
X0076750Y0026654D01*
X0074250Y0029154D01*
X0069250Y0029154D01*
X0066750Y0026654D01*
X0064250Y0029154D01*
X0059250Y0029154D01*
X0056750Y0026654D01*
X0054250Y0029154D01*
X0049250Y0029154D01*
X0046750Y0026654D01*
X0046750Y0011654D01*
X0049250Y0009154D01*
X0054250Y0009154D01*
X0056750Y0011654D01*
X0059250Y0009154D01*
X0064250Y0009154D01*
X0066750Y0011654D01*
X0069250Y0009154D01*
X0074250Y0009154D01*
X0076750Y0011654D01*
X0079250Y0009154D01*
X0084250Y0009154D01*
X0086750Y0011654D01*
X0086750Y0026654D01*
X0084250Y0029154D01*
D18*
X0055870Y0154154D02*
X0055630Y0154154D01*
D19*
X0088639Y0138469D02*
X0088639Y0137735D01*
X0089006Y0137368D01*
X0090474Y0137368D01*
X0089006Y0138836D01*
X0090474Y0138836D01*
X0090841Y0138469D01*
X0090841Y0137735D01*
X0090474Y0137368D01*
X0090474Y0136626D02*
X0090841Y0136259D01*
X0090841Y0135525D01*
X0090474Y0135158D01*
X0089740Y0135158D02*
X0089373Y0135892D01*
X0089373Y0136259D01*
X0089740Y0136626D01*
X0090474Y0136626D01*
X0089740Y0135158D02*
X0088639Y0135158D01*
X0088639Y0136626D01*
X0088639Y0138469D02*
X0089006Y0138836D01*
X0089006Y0134416D02*
X0090474Y0132948D01*
X0090841Y0133315D01*
X0090841Y0134049D01*
X0090474Y0134416D01*
X0089006Y0134416D01*
X0088639Y0134049D01*
X0088639Y0133315D01*
X0089006Y0132948D01*
X0090474Y0132948D01*
X0090474Y0132206D02*
X0090107Y0132206D01*
X0089740Y0131839D01*
X0089740Y0130738D01*
X0090474Y0130738D01*
X0090841Y0131105D01*
X0090841Y0131839D01*
X0090474Y0132206D01*
X0089006Y0131472D02*
X0089740Y0130738D01*
X0089006Y0131472D02*
X0088639Y0132206D01*
X0088639Y0129996D02*
X0090474Y0129996D01*
X0090841Y0129629D01*
X0090841Y0128895D01*
X0090474Y0128528D01*
X0088639Y0128528D01*
X0089006Y0127787D02*
X0089740Y0127787D01*
X0090107Y0127420D01*
X0090107Y0126319D01*
X0090841Y0126319D02*
X0088639Y0126319D01*
X0088639Y0127420D01*
X0089006Y0127787D01*
X0088639Y0125577D02*
X0090841Y0125577D01*
X0090841Y0124109D02*
X0088639Y0124109D01*
X0089373Y0124843D01*
X0088639Y0125577D01*
X0064358Y0032162D02*
X0063257Y0031062D01*
X0064725Y0031062D01*
X0064358Y0032162D02*
X0064358Y0029961D01*
X0062515Y0029961D02*
X0061047Y0029961D01*
X0062515Y0031429D01*
X0062515Y0031796D01*
X0062148Y0032162D01*
X0061414Y0032162D01*
X0061047Y0031796D01*
X0060306Y0032162D02*
X0058838Y0032162D01*
X0058838Y0029961D01*
X0058096Y0029961D02*
X0057362Y0030695D01*
X0057729Y0030695D02*
X0056628Y0030695D01*
X0056628Y0029961D02*
X0056628Y0032162D01*
X0057729Y0032162D01*
X0058096Y0031796D01*
X0058096Y0031062D01*
X0057729Y0030695D01*
X0058838Y0031062D02*
X0059572Y0031062D01*
X0055886Y0029961D02*
X0055886Y0032162D01*
X0054418Y0032162D02*
X0055886Y0029961D01*
X0054418Y0029961D02*
X0054418Y0032162D01*
D20*
X0067915Y0046905D02*
X0069585Y0046905D01*
X0080999Y0058319D02*
X0080999Y0059989D01*
X0068159Y0067784D02*
X0068161Y0067832D01*
X0068167Y0067880D01*
X0068177Y0067927D01*
X0068190Y0067973D01*
X0068208Y0068018D01*
X0068228Y0068062D01*
X0068253Y0068104D01*
X0068281Y0068143D01*
X0068311Y0068180D01*
X0068345Y0068214D01*
X0068382Y0068246D01*
X0068420Y0068275D01*
X0068461Y0068300D01*
X0068504Y0068322D01*
X0068549Y0068340D01*
X0068595Y0068354D01*
X0068642Y0068365D01*
X0068690Y0068372D01*
X0068738Y0068375D01*
X0068786Y0068374D01*
X0068834Y0068369D01*
X0068882Y0068360D01*
X0068928Y0068348D01*
X0068973Y0068331D01*
X0069017Y0068311D01*
X0069059Y0068288D01*
X0069099Y0068261D01*
X0069137Y0068231D01*
X0069172Y0068198D01*
X0069204Y0068162D01*
X0069234Y0068124D01*
X0069260Y0068083D01*
X0069282Y0068040D01*
X0069302Y0067996D01*
X0069317Y0067951D01*
X0069329Y0067904D01*
X0069337Y0067856D01*
X0069341Y0067808D01*
X0069341Y0067760D01*
X0069337Y0067712D01*
X0069329Y0067664D01*
X0069317Y0067617D01*
X0069302Y0067572D01*
X0069282Y0067528D01*
X0069260Y0067485D01*
X0069234Y0067444D01*
X0069204Y0067406D01*
X0069172Y0067370D01*
X0069137Y0067337D01*
X0069099Y0067307D01*
X0069059Y0067280D01*
X0069017Y0067257D01*
X0068973Y0067237D01*
X0068928Y0067220D01*
X0068882Y0067208D01*
X0068834Y0067199D01*
X0068786Y0067194D01*
X0068738Y0067193D01*
X0068690Y0067196D01*
X0068642Y0067203D01*
X0068595Y0067214D01*
X0068549Y0067228D01*
X0068504Y0067246D01*
X0068461Y0067268D01*
X0068420Y0067293D01*
X0068382Y0067322D01*
X0068345Y0067354D01*
X0068311Y0067388D01*
X0068281Y0067425D01*
X0068253Y0067464D01*
X0068228Y0067506D01*
X0068208Y0067550D01*
X0068190Y0067595D01*
X0068177Y0067641D01*
X0068167Y0067688D01*
X0068161Y0067736D01*
X0068159Y0067784D01*
X0067915Y0071403D02*
X0069585Y0071403D01*
X0056501Y0059989D02*
X0056501Y0058319D01*
M02*
