%
M48
M72
T01C0.01600
T02C0.02000
T03C0.04000
%
T01
X27937Y40937
X126362Y40937
X224787Y40937
X323213Y40937
X323213Y137394
X224787Y137394
X126362Y137394
X27937Y137394
X27937Y233850
X126362Y233850
X224787Y233850
X323213Y233850
X323213Y330307
X224787Y330307
X126362Y330307
X27937Y330307
T02
X21937Y18969
X21937Y24969
X21937Y30969
X38937Y30969
X52937Y28969
X60937Y28969
X74937Y28969
X86637Y46969
X83937Y54969
X78937Y50969
X72937Y58969
X70937Y64969
X66937Y68969
X62937Y76969
X56937Y76969
X56937Y68969
X54937Y60969
X60937Y60969
X72937Y76969
X84937Y81969
X60937Y104425
X53937Y110425
X52937Y125425
X60937Y125425
X74937Y125425
X86637Y143425
X83937Y151425
X78937Y147425
X72937Y155425
X70937Y161425
X66937Y165425
X62937Y173425
X56937Y173425
X56937Y165425
X54937Y157425
X60937Y157425
X72937Y173425
X84937Y178425
X60937Y200882
X53937Y206882
X52937Y221882
X60937Y221882
X74937Y221882
X86637Y239882
X83937Y247882
X78937Y243882
X72937Y251882
X70937Y257882
X66937Y261882
X62937Y269882
X56937Y269882
X56937Y261882
X54937Y253882
X60937Y253882
X72937Y269882
X84937Y274882
X60937Y297339
X53937Y303339
X52937Y318339
X60937Y318339
X74937Y318339
X86637Y336339
X83937Y344339
X78937Y340339
X72937Y348339
X70937Y354339
X66937Y358339
X62937Y366339
X56937Y366339
X56937Y358339
X54937Y350339
X60937Y350339
X72937Y366339
X84937Y371339
X120362Y320339
X120362Y314339
X120362Y308339
X137362Y320339
X151362Y318339
X159362Y318339
X173362Y318339
X185062Y336339
X182362Y344339
X177362Y340339
X171362Y348339
X169362Y354339
X165362Y358339
X161362Y366339
X155362Y366339
X155362Y358339
X153362Y350339
X159362Y350339
X171362Y366339
X183362Y371339
X141362Y370339
X152362Y303339
X159362Y297339
X141362Y273882
X155362Y269882
X161362Y269882
X165362Y261882
X169362Y257882
X171362Y251882
X177362Y243882
X182362Y247882
X185062Y239882
X173362Y221882
X159362Y221882
X151362Y221882
X120362Y223882
X120362Y217882
X120362Y211882
X137362Y223882
X152362Y206882
X159362Y200882
X141362Y177425
X155362Y173425
X161362Y173425
X165362Y165425
X169362Y161425
X171362Y155425
X177362Y147425
X182362Y151425
X185062Y143425
X173362Y125425
X159362Y125425
X151362Y125425
X120362Y127425
X120362Y121425
X120362Y115425
X137362Y127425
X152362Y110425
X159362Y104425
X141362Y80969
X155362Y76969
X161362Y76969
X165362Y68969
X169362Y64969
X171362Y58969
X177362Y50969
X182362Y54969
X185062Y46969
X173362Y28969
X159362Y28969
X151362Y28969
X120362Y30969
X120362Y24969
X120362Y18969
X137362Y30969
X152362Y13969
X159362Y7969
X159362Y60969
X153362Y60969
X155362Y68969
X171362Y76969
X183362Y81969
X218787Y115425
X218787Y121425
X218787Y127425
X235787Y127425
X249787Y125425
X257787Y125425
X271787Y125425
X283487Y143425
X280787Y151425
X275787Y147425
X269787Y155425
X267787Y161425
X263787Y165425
X259787Y173425
X253787Y173425
X253787Y165425
X251787Y157425
X257787Y157425
X269787Y173425
X281787Y178425
X257787Y200882
X250787Y206882
X249787Y221882
X257787Y221882
X271787Y221882
X283487Y239882
X280787Y247882
X275787Y243882
X269787Y251882
X267787Y257882
X263787Y261882
X259787Y269882
X253787Y269882
X253787Y261882
X251787Y253882
X257787Y253882
X269787Y269882
X281787Y274882
X257787Y297339
X250787Y303339
X249787Y318339
X257787Y318339
X271787Y318339
X283487Y336339
X280787Y344339
X275787Y340339
X269787Y348339
X267787Y354339
X263787Y358339
X259787Y366339
X253787Y366339
X253787Y358339
X251787Y350339
X257787Y350339
X269787Y366339
X281787Y371339
X317213Y320339
X317213Y314339
X317213Y308339
X334213Y320339
X348213Y318339
X356213Y318339
X370213Y318339
X381913Y336339
X379213Y344339
X374213Y340339
X368213Y348339
X366213Y354339
X362213Y358339
X358213Y366339
X352213Y366339
X352213Y358339
X350213Y350339
X356213Y350339
X368213Y366339
X380213Y371339
X338213Y370339
X349213Y303339
X356213Y297339
X338213Y273882
X352213Y269882
X358213Y269882
X362213Y261882
X366213Y257882
X368213Y251882
X374213Y243882
X379213Y247882
X381913Y239882
X370213Y221882
X356213Y221882
X348213Y221882
X317213Y223882
X317213Y217882
X317213Y211882
X334213Y223882
X349213Y206882
X356213Y200882
X338213Y177425
X352213Y173425
X358213Y173425
X362213Y165425
X366213Y161425
X368213Y155425
X374213Y147425
X379213Y151425
X381913Y143425
X370213Y125425
X356213Y125425
X348213Y125425
X317213Y127425
X317213Y121425
X317213Y115425
X334213Y127425
X349213Y110425
X356213Y104425
X338213Y80969
X352213Y76969
X358213Y76969
X362213Y68969
X366213Y64969
X368213Y58969
X374213Y50969
X379213Y54969
X381913Y46969
X370213Y28969
X356213Y28969
X348213Y28969
X317213Y30969
X317213Y24969
X317213Y18969
X334213Y30969
X349213Y13969
X356213Y7969
X356213Y60969
X350213Y60969
X352213Y68969
X368213Y76969
X380213Y81969
X356213Y157425
X350213Y157425
X352213Y165425
X368213Y173425
X380213Y178425
X356213Y253882
X350213Y253882
X352213Y261882
X368213Y269882
X380213Y274882
X239787Y273882
X218787Y308339
X218787Y314339
X218787Y320339
X235787Y320339
X239787Y370339
X183362Y274882
X171362Y269882
X155362Y261882
X153362Y253882
X159362Y253882
X218787Y223882
X218787Y217882
X218787Y211882
X235787Y223882
X239787Y177425
X183362Y178425
X171362Y173425
X155362Y165425
X153362Y157425
X159362Y157425
X239787Y80969
X253787Y76969
X259787Y76969
X263787Y68969
X267787Y64969
X269787Y58969
X275787Y50969
X280787Y54969
X283487Y46969
X271787Y28969
X257787Y28969
X249787Y28969
X218787Y30969
X218787Y24969
X218787Y18969
X235787Y30969
X250787Y13969
X257787Y7969
X257787Y60969
X251787Y60969
X253787Y68969
X269787Y76969
X281787Y81969
X257787Y104425
X250787Y110425
X60937Y7969
X53937Y13969
X42937Y80969
X21937Y115425
X21937Y121425
X21937Y127425
X38937Y127425
X42937Y177425
X21937Y211882
X21937Y217882
X21937Y223882
X38937Y223882
X42937Y273882
X21937Y308339
X21937Y314339
X21937Y320339
X38937Y320339
X42937Y370339
T03
X24937Y8969
X34937Y8969
X44937Y8969
X74937Y8969
X94937Y8969
X94937Y18969
X94937Y28969
X94937Y38969
X94937Y48969
X94937Y58969
X94937Y68969
X94937Y78969
X111362Y78969
X111362Y68969
X121362Y68969
X121362Y78969
X131362Y78969
X131362Y68969
X131362Y58969
X121362Y58969
X121362Y48969
X131362Y48969
X141362Y48969
X141362Y38937
X131362Y38937
X121362Y38937
X111362Y38937
X111362Y48969
X111362Y58969
X82937Y38937
X72937Y38937
X62937Y38937
X52937Y38937
X42937Y38937
X32937Y38937
X22937Y38937
X12937Y38937
X12937Y48969
X12937Y58969
X22937Y58969
X22937Y48969
X32937Y48969
X32937Y58969
X42937Y48969
X32937Y68969
X32937Y78969
X32937Y88969
X43937Y92969
X53937Y92969
X63937Y92969
X73937Y92969
X74937Y105425
X94937Y105425
X94937Y115425
X94937Y125425
X94937Y135425
X94937Y145425
X94937Y155425
X94937Y165425
X94937Y175425
X111362Y175425
X111362Y165425
X111362Y155425
X111362Y145425
X121362Y145425
X121362Y155425
X131362Y155425
X131362Y145425
X141362Y145425
X141362Y135394
X131362Y135394
X121362Y135394
X111362Y135394
X82937Y135394
X72937Y135394
X62937Y135394
X52937Y135394
X42937Y135394
X32937Y135394
X22937Y135394
X12937Y135394
X12937Y145425
X22937Y145425
X22937Y155425
X12937Y155425
X12937Y165425
X22937Y165425
X22937Y175425
X12937Y175425
X12937Y185425
X22937Y185425
X32937Y185425
X43937Y189425
X53937Y189425
X63937Y189425
X73937Y189425
X74937Y201882
X94937Y201882
X94937Y211882
X94937Y221882
X94937Y231882
X94937Y241882
X94937Y251882
X94937Y261882
X94937Y271882
X111362Y271882
X111362Y261882
X111362Y251882
X111362Y241882
X121362Y241882
X121362Y251882
X131362Y251882
X131362Y241882
X141362Y241882
X141362Y231850
X131362Y231850
X121362Y231850
X111362Y231850
X82937Y231850
X72937Y231850
X62937Y231850
X52937Y231850
X42937Y231850
X32937Y231850
X22937Y231850
X12937Y231850
X12937Y241882
X12937Y251882
X22937Y251882
X22937Y241882
X32937Y241882
X32937Y251882
X42937Y241882
X32937Y261882
X32937Y271882
X32937Y281882
X43937Y285882
X53937Y285882
X63937Y285882
X73937Y285882
X74937Y298339
X94937Y298339
X94937Y308339
X94937Y318339
X94937Y328339
X94937Y338339
X94937Y348339
X94937Y358339
X94937Y368339
X111362Y368339
X111362Y378339
X121362Y378339
X131362Y378339
X131362Y368339
X121362Y368339
X121362Y358339
X131362Y358339
X131362Y348339
X121362Y348339
X111362Y348339
X111362Y358339
X111362Y338339
X111362Y328307
X121362Y328307
X121362Y338339
X131362Y338339
X131362Y328307
X141362Y328307
X141362Y338339
X151362Y328307
X161362Y328307
X171362Y328307
X181362Y328307
X193362Y328339
X193362Y338339
X193362Y348339
X193362Y358339
X193362Y368339
X209787Y368339
X209787Y378339
X219787Y378339
X219787Y368339
X229787Y368339
X229787Y378339
X240787Y382339
X250787Y382339
X260787Y382339
X270787Y382339
X291787Y368339
X291787Y358339
X291787Y348339
X291787Y338339
X291787Y328339
X291787Y318339
X291787Y308339
X291787Y298339
X271787Y298339
X270787Y285882
X260787Y285882
X250787Y285882
X240787Y285882
X229787Y281882
X219787Y281882
X209787Y281882
X209787Y271882
X209787Y261882
X219787Y261882
X219787Y271882
X229787Y271882
X229787Y261882
X229787Y251882
X229787Y241882
X239787Y241882
X239787Y231850
X229787Y231850
X219787Y231850
X209787Y231850
X209787Y241882
X209787Y251882
X219787Y251882
X219787Y241882
X193362Y241882
X193362Y251882
X193362Y261882
X193362Y271882
X172362Y285882
X162362Y285882
X152362Y285882
X142362Y285882
X131362Y281882
X121362Y281882
X111362Y281882
X121362Y271882
X121362Y261882
X131362Y261882
X131362Y271882
X133362Y298339
X143362Y298339
X123362Y298339
X82937Y328307
X72937Y328307
X62937Y328307
X52937Y328307
X42937Y328307
X32937Y328307
X22937Y328307
X12937Y328307
X12937Y338339
X22937Y338339
X22937Y348339
X22937Y358339
X12937Y358339
X12937Y348339
X12937Y368339
X12937Y378339
X22937Y378339
X22937Y368339
X32937Y368339
X32937Y378339
X43937Y382339
X53937Y382339
X63937Y382339
X73937Y382339
X32937Y358339
X32937Y348339
X32937Y338339
X42937Y338339
X44937Y298339
X34937Y298339
X24937Y298339
X22937Y281882
X12937Y281882
X12937Y271882
X22937Y271882
X22937Y261882
X12937Y261882
X24937Y201882
X34937Y201882
X44937Y201882
X32937Y175425
X32937Y165425
X32937Y155425
X32937Y145425
X42937Y145425
X44937Y105425
X34937Y105425
X24937Y105425
X22937Y88969
X12937Y88969
X12937Y78969
X22937Y78969
X22937Y68969
X12937Y68969
X111362Y88969
X121362Y88969
X131362Y88969
X142362Y92969
X152362Y92969
X162362Y92969
X172362Y92969
X173362Y105425
X193362Y105425
X193362Y115425
X193362Y125425
X193362Y135425
X193362Y145425
X193362Y155425
X193362Y165425
X193362Y175425
X209787Y175425
X209787Y165425
X219787Y165425
X219787Y175425
X219787Y185425
X209787Y185425
X221787Y201882
X231787Y201882
X241787Y201882
X240787Y189425
X250787Y189425
X260787Y189425
X270787Y189425
X271787Y201882
X291787Y201882
X291787Y211882
X291787Y221882
X291787Y231882
X291787Y241882
X291787Y251882
X291787Y261882
X291787Y271882
X308213Y271882
X318213Y271882
X318213Y261882
X308213Y261882
X308213Y251882
X318213Y251882
X318213Y241882
X308213Y241882
X308213Y231850
X318213Y231850
X328213Y231850
X328213Y241882
X338213Y241882
X328213Y251882
X328213Y261882
X328213Y271882
X328213Y281882
X339213Y285882
X349213Y285882
X359213Y285882
X369213Y285882
X370213Y298339
X390213Y298339
X390213Y308339
X390213Y318339
X390213Y328339
X390213Y338339
X390213Y348339
X390213Y358339
X390213Y368339
X369213Y382339
X359213Y382339
X349213Y382339
X339213Y382339
X328213Y378339
X328213Y368339
X318213Y368339
X318213Y378339
X308213Y378339
X308213Y368339
X308213Y358339
X318213Y358339
X318213Y348339
X308213Y348339
X308213Y338339
X318213Y338339
X318213Y328307
X308213Y328307
X328213Y328307
X328213Y338339
X338213Y338339
X338213Y328307
X348213Y328307
X358213Y328307
X368213Y328307
X378213Y328307
X340213Y298339
X330213Y298339
X320213Y298339
X318213Y281882
X308213Y281882
X279787Y328307
X269787Y328307
X259787Y328307
X249787Y328307
X239787Y328307
X229787Y328307
X219787Y328307
X209787Y328307
X209787Y338339
X219787Y338339
X219787Y348339
X219787Y358339
X209787Y358339
X209787Y348339
X229787Y348339
X229787Y358339
X229787Y338339
X239787Y338339
X241787Y298339
X231787Y298339
X221787Y298339
X193362Y298339
X193362Y308339
X193362Y318339
X173362Y298339
X171362Y231850
X161362Y231850
X151362Y231850
X143362Y201882
X133362Y201882
X123362Y201882
X121362Y185425
X131362Y185425
X131362Y175425
X121362Y175425
X121362Y165425
X131362Y165425
X111362Y185425
X142362Y189425
X152362Y189425
X162362Y189425
X172362Y189425
X173362Y201882
X193362Y201882
X193362Y211882
X193362Y221882
X193362Y231882
X181362Y231850
X229787Y185425
X229787Y175425
X229787Y165425
X229787Y155425
X229787Y145425
X239787Y145425
X239787Y135394
X229787Y135394
X219787Y135394
X209787Y135394
X209787Y145425
X209787Y155425
X219787Y155425
X219787Y145425
X249787Y135394
X259787Y135394
X269787Y135394
X279787Y135394
X291787Y135425
X291787Y125425
X291787Y115425
X291787Y105425
X271787Y105425
X270787Y92969
X260787Y92969
X250787Y92969
X240787Y92969
X229787Y88969
X219787Y88969
X209787Y88969
X209787Y78969
X219787Y78969
X219787Y68969
X209787Y68969
X209787Y58969
X219787Y58969
X219787Y48969
X209787Y48969
X209787Y38937
X219787Y38937
X229787Y38937
X229787Y48969
X229787Y58969
X239787Y48969
X239787Y38937
X249787Y38937
X259787Y38937
X269787Y38937
X279787Y38937
X291787Y38969
X291787Y28969
X291787Y18969
X291787Y8969
X271787Y8969
X241787Y8969
X231787Y8969
X221787Y8969
X193362Y8969
X193362Y18969
X193362Y28969
X193362Y38969
X193362Y48969
X193362Y58969
X193362Y68969
X193362Y78969
X221787Y105425
X231787Y105425
X241787Y105425
X229787Y78969
X229787Y68969
X181362Y38937
X171362Y38937
X161362Y38937
X151362Y38937
X143362Y8969
X133362Y8969
X123362Y8969
X173362Y8969
X143362Y105425
X133362Y105425
X123362Y105425
X151362Y135394
X161362Y135394
X171362Y135394
X181362Y135394
X249787Y231850
X259787Y231850
X269787Y231850
X279787Y231850
X320213Y201882
X330213Y201882
X340213Y201882
X339213Y189425
X328213Y185425
X328213Y175425
X328213Y165425
X328213Y155425
X328213Y145425
X338213Y145425
X338213Y135394
X328213Y135394
X318213Y135394
X308213Y135394
X308213Y145425
X318213Y145425
X318213Y155425
X308213Y155425
X308213Y165425
X318213Y165425
X318213Y175425
X308213Y175425
X308213Y185425
X318213Y185425
X291787Y175425
X291787Y165425
X291787Y155425
X291787Y145425
X320213Y105425
X330213Y105425
X340213Y105425
X339213Y92969
X328213Y88969
X318213Y88969
X308213Y88969
X308213Y78969
X318213Y78969
X318213Y68969
X308213Y68969
X308213Y58969
X318213Y58969
X318213Y48969
X308213Y48969
X308213Y38937
X318213Y38937
X328213Y38937
X328213Y48969
X328213Y58969
X338213Y48969
X338213Y38937
X348213Y38937
X358213Y38937
X368213Y38937
X378213Y38937
X390213Y38969
X390213Y28969
X390213Y18969
X390213Y8969
X370213Y8969
X340213Y8969
X330213Y8969
X320213Y8969
X291787Y48969
X291787Y58969
X291787Y68969
X291787Y78969
X328213Y78969
X328213Y68969
X349213Y92969
X359213Y92969
X369213Y92969
X370213Y105425
X390213Y105425
X390213Y115425
X390213Y125425
X390213Y135425
X390213Y145425
X390213Y155425
X390213Y165425
X390213Y175425
X369213Y189425
X359213Y189425
X349213Y189425
X370213Y201882
X390213Y201882
X390213Y211882
X390213Y221882
X390213Y231882
X390213Y241882
X390213Y251882
X390213Y261882
X390213Y271882
X378213Y231850
X368213Y231850
X358213Y231850
X348213Y231850
X338213Y231850
X348213Y135394
X358213Y135394
X368213Y135394
X378213Y135394
X390213Y78969
X390213Y68969
X390213Y58969
X390213Y48969
X328213Y348339
X328213Y358339
X172362Y382339
X162362Y382339
X152362Y382339
X142362Y382339
M30
