%
M48
M72
T01C0.01200
T02C0.01250
T03C0.02000
T04C0.03150
T05C0.03200
T06C0.03937
T07C0.04000
T08C0.04331
T09C0.11811
%
T01
X175378Y236583
X179378Y236583
X183378Y236583
X183378Y244583
X190378Y244583
X192378Y248083
X192378Y239583
X192378Y236083
X175878Y246583
X171878Y246583
X166378Y248583
X169378Y239583
X193378Y276083
X189378Y281583
X177878Y281583
X208378Y281583
X210878Y235583
X218878Y235583
X272677Y248583
X278177Y246583
X282177Y246583
X289677Y244583
X296677Y244583
X298677Y248083
X298677Y239583
X298677Y236083
X289677Y236583
X285677Y236583
X281677Y236583
X275677Y239583
X299677Y276083
X295677Y281583
X284177Y281583
X314677Y281583
X317177Y235583
X325177Y235583
X112579Y235583
X104579Y235583
X86079Y248083
X84079Y244583
X86079Y239583
X86079Y236083
X77079Y236583
X73079Y236583
X69079Y236583
X63079Y239583
X65579Y246583
X69579Y246583
X77079Y244583
X60079Y248583
X87079Y276083
X83079Y281583
X71579Y281583
X102079Y281583
T02
X115079Y235583
X115079Y244583
X115079Y248583
X98079Y248083
X97579Y251083
X97579Y254083
X91079Y249083
X86079Y258583
X86079Y265583
X93079Y265583
X98079Y269083
X102579Y274083
X102579Y277083
X99079Y277083
X106079Y273083
X115079Y274083
X125378Y274583
X125378Y264583
X125378Y254583
X125878Y244583
X115079Y261583
X102379Y242083
X99579Y235583
X96079Y235583
X93079Y235583
X79679Y255583
X77579Y258583
X69079Y254583
X71079Y250083
X63579Y254583
X59079Y260083
X58079Y264083
X49579Y264583
X44079Y255583
X49079Y250583
X53079Y251083
X43079Y241583
X43079Y237583
X19579Y244583
X19079Y254583
X19079Y264583
X19079Y274583
X38579Y273583
X40079Y270583
X45279Y274383
X47079Y277583
X51079Y277583
X55579Y277583
X59079Y277583
X55079Y281283
X52079Y283583
X48079Y283583
X44079Y283583
X39579Y279583
X64079Y274583
X67079Y277083
X68079Y280583
X67079Y283083
X69079Y270083
X144878Y273583
X146378Y270583
X151578Y274383
X153378Y277583
X157378Y277583
X161878Y277583
X165378Y277583
X161378Y281283
X158378Y283583
X154378Y283583
X150378Y283583
X145878Y279583
X155878Y264583
X164378Y264083
X165378Y260083
X169878Y254583
X175378Y254583
X177378Y250083
X185978Y255583
X183878Y258583
X192378Y258583
X192378Y265583
X199378Y265583
X204378Y269083
X208878Y274083
X208878Y277083
X205378Y277083
X212378Y273083
X221378Y274083
X231677Y274583
X231677Y264583
X231677Y254583
X221378Y248583
X221378Y244583
X221378Y235583
X232177Y244583
X221378Y261583
X204378Y248083
X203878Y251083
X203878Y254083
X197378Y249083
X208678Y242083
X205878Y235583
X202378Y235583
X199378Y235583
X175378Y270083
X170378Y274583
X173378Y277083
X174378Y280583
X173378Y283083
X150378Y255583
X155378Y250583
X159378Y251083
X149378Y241583
X149378Y237583
X251177Y273583
X252677Y270583
X257877Y274383
X259677Y277583
X263677Y277583
X268177Y277583
X271677Y277583
X267677Y281283
X264677Y283583
X260677Y283583
X256677Y283583
X252177Y279583
X262177Y264583
X270677Y264083
X271677Y260083
X276177Y254583
X281677Y254583
X283677Y250083
X292277Y255583
X290177Y258583
X298677Y258583
X298677Y265583
X305677Y265583
X310677Y269083
X315177Y274083
X315177Y277083
X311677Y277083
X318677Y273083
X327677Y274083
X327677Y261583
X310677Y248083
X310177Y251083
X310177Y254083
X303677Y249083
X314977Y242083
X312177Y235583
X308677Y235583
X305677Y235583
X327677Y235583
X327677Y244583
X327677Y248583
X255677Y237583
X255677Y241583
X261677Y250583
X265677Y251083
X256677Y255583
X276677Y274583
X279677Y277083
X280677Y280583
X279677Y283083
X281677Y270083
T03
X44752Y11598
X50752Y33630
X54752Y33630
X60752Y33630
X64752Y41630
X68752Y37630
X70752Y31598
X74752Y23630
X80752Y23598
X87752Y23598
X85752Y29598
X85752Y33598
X91752Y37598
X94252Y43598
X101252Y38598
X104752Y34598
X97752Y34598
X124252Y29598
X124252Y25598
X140252Y15598
X144252Y15598
X144752Y10098
X150752Y15598
X158752Y21598
X151752Y52598
X143752Y52598
X127752Y53598
X144752Y78996
X144252Y84496
X140252Y84496
X150752Y84496
X158752Y90496
X151752Y121496
X143752Y121496
X127752Y122496
X104752Y103496
X101252Y107496
X97752Y103496
X91752Y106496
X85752Y102496
X85752Y98496
X87752Y92496
X80752Y92496
X74752Y92528
X70752Y100496
X68752Y106528
X64752Y110528
X60752Y118528
X54752Y118528
X54752Y110528
X54752Y102528
X50752Y102528
X60752Y102528
X70752Y118528
X71776Y131504
X67752Y134496
X63752Y131496
X42752Y130528
X42752Y122528
X44752Y149394
X50752Y171425
X54752Y171425
X60752Y171425
X68752Y175425
X64752Y179425
X60752Y187425
X54752Y187425
X54752Y179425
X42752Y191425
X42752Y199425
X63752Y200394
X67752Y203394
X71776Y200402
X70752Y187425
X70752Y169394
X74752Y161425
X80752Y161394
X87752Y161394
X85752Y167394
X85752Y171394
X91752Y175394
X94252Y181394
X101252Y176394
X104752Y172394
X97752Y172394
X124252Y167394
X124252Y163394
X140252Y153394
X144252Y153394
X144752Y147894
X150752Y153394
X158752Y159394
X151752Y190394
X143752Y190394
X127752Y191394
X105579Y241683
X73579Y246883
X27937Y316150
X22937Y318150
X15937Y328150
X17937Y345150
X44937Y335150
X45937Y325150
X58937Y319150
X74937Y352181
X70937Y360181
X68937Y366181
X64937Y370181
X60937Y362181
X54937Y362181
X50937Y362181
X54937Y370181
X54937Y378181
X60937Y378181
X70937Y378181
X82937Y383181
X83937Y373150
X83937Y358150
X116362Y345150
X114362Y328150
X121362Y318150
X126362Y316150
X144362Y325150
X143362Y335150
X157362Y319150
X173362Y352181
X169362Y360181
X167362Y366181
X163362Y370181
X159362Y362181
X153362Y362181
X149362Y362181
X153362Y370181
X153362Y378181
X159362Y378181
X169362Y378181
X181362Y383181
X182362Y373150
X182362Y358150
X214787Y345150
X212787Y328150
X219787Y318150
X224787Y316150
X242787Y325150
X241787Y335150
X255787Y319150
X271787Y352181
X267787Y360181
X265787Y366181
X261787Y370181
X257787Y362181
X251787Y362181
X247787Y362181
X251787Y370181
X251787Y378181
X257787Y378181
X267787Y378181
X279787Y383181
X280787Y373150
X280787Y358150
X313213Y345150
X311213Y328150
X318213Y318150
X323213Y316150
X341213Y325150
X340213Y335150
X354213Y319150
X370213Y352181
X366213Y360181
X364213Y366181
X360213Y370181
X356213Y362181
X350213Y362181
X346213Y362181
X350213Y370181
X350213Y378181
X356213Y378181
X366213Y378181
X378213Y383181
X379213Y373150
X379213Y358150
X367236Y391157
X359213Y391150
X338213Y390181
X338213Y382181
X371433Y42906
X361433Y54906
X361433Y62906
X351433Y62906
X351433Y54906
X371433Y62906
X326075Y90496
X318075Y84496
X311575Y84496
X307575Y84496
X312075Y78996
X291575Y94496
X291575Y98496
X272075Y103496
X268575Y107496
X265075Y103496
X259075Y106496
X253075Y102496
X253075Y98496
X255075Y92496
X248075Y92496
X242075Y92528
X238075Y100496
X236075Y106528
X232075Y110528
X228075Y118528
X222075Y118528
X222075Y110528
X222075Y102528
X218075Y102528
X228075Y102528
X238075Y118528
X239098Y131504
X235075Y134496
X231075Y131496
X210075Y130528
X210075Y122528
X212075Y149394
X218075Y171425
X222075Y171425
X228075Y171425
X236075Y175425
X232075Y179425
X228075Y187425
X222075Y187425
X222075Y179425
X210075Y191425
X210075Y199425
X231075Y200394
X235075Y203394
X239098Y200402
X238075Y187425
X238075Y169394
X242075Y161425
X248075Y161394
X255075Y161394
X253075Y167394
X253075Y171394
X259075Y175394
X261575Y181394
X268575Y176394
X272075Y172394
X265075Y172394
X291575Y167394
X291575Y163394
X307575Y153394
X311575Y153394
X312075Y147894
X318075Y153394
X326075Y159394
X351827Y150016
X368827Y143016
X376827Y153016
X376827Y163016
X368827Y164516
X375827Y175016
X366827Y185516
X356827Y185516
X354827Y177016
X319075Y190394
X311075Y190394
X295075Y191394
X318177Y241683
X286177Y246883
X351827Y130016
X319075Y121496
X311075Y121496
X295075Y122496
X261575Y112496
X235075Y65598
X231075Y62598
X239098Y62606
X238075Y49630
X232075Y41630
X236075Y37630
X238075Y31598
X242075Y23630
X248075Y23598
X255075Y23598
X253075Y29598
X253075Y33598
X259075Y37598
X261575Y43598
X268575Y38598
X272075Y34598
X265075Y34598
X291575Y29598
X291575Y25598
X307575Y15598
X311575Y15598
X312075Y10098
X318075Y15598
X326075Y21598
X319075Y52598
X311075Y52598
X295075Y53598
X228075Y49630
X222075Y49630
X222075Y41630
X222075Y33630
X218075Y33630
X228075Y33630
X210075Y53630
X210075Y61630
X212075Y80496
X212075Y11598
X124252Y94496
X124252Y98496
X94252Y112496
X67752Y65598
X63752Y62598
X71776Y62606
X70752Y49630
X60752Y49630
X54752Y49630
X54752Y41630
X42752Y53630
X42752Y61630
X44752Y80496
X179878Y246883
X211878Y241683
X239787Y382181
X239787Y390181
X260787Y391150
X268811Y391157
X170386Y391157
X162362Y391150
X141362Y390181
X141362Y382181
X71961Y391157
X63937Y391150
X42937Y390181
X42937Y382181
T04
X151693Y22063
X151693Y90961
X151693Y159858
X105614Y249709
X211913Y249709
X318213Y249709
X319016Y159858
X319016Y90961
X319016Y22063
T05
X151702Y37798
X151702Y106696
X151702Y175594
X319025Y175594
X319025Y106696
X319025Y37798
T06
X22752Y21598
X32752Y21598
X32752Y31598
X32752Y41598
X32752Y61598
X32752Y80496
X32752Y90496
X22752Y90496
X32752Y100496
X32752Y110496
X32752Y130496
X32752Y149394
X32752Y159394
X32752Y169394
X32752Y179394
X32752Y199394
X22752Y159394
X52752Y149394
X62752Y149394
X72752Y149394
X82752Y149394
X82752Y80496
X72752Y80496
X62752Y80496
X52752Y80496
X52752Y11598
X62752Y11598
X72752Y11598
X82752Y11598
X32752Y11598
X190075Y21598
X200075Y21598
X200075Y31598
X200075Y41598
X200075Y61598
X200075Y80496
X200075Y90496
X190075Y90496
X200075Y100496
X200075Y110496
X200075Y130496
X200075Y149394
X200075Y159394
X190075Y159394
X200075Y169394
X200075Y179394
X200075Y199394
X220075Y149394
X230075Y149394
X240075Y149394
X250075Y149394
X250075Y80496
X240075Y80496
X230075Y80496
X220075Y80496
X121362Y350181
X131362Y350181
X131362Y360181
X131362Y370181
X219787Y350181
X229787Y350181
X229787Y360181
X229787Y370181
X318213Y350181
X328213Y350181
X328213Y360181
X328213Y370181
X250075Y11598
X240075Y11598
X230075Y11598
X220075Y11598
X200075Y11598
X32937Y350181
X32937Y360181
X32937Y370181
X22937Y350181
T07
X12752Y11598
X12752Y21598
X12752Y31598
X22752Y31598
X22752Y41598
X12752Y41598
X12752Y51598
X22752Y51598
X32752Y51598
X22752Y61598
X12752Y61598
X12752Y80496
X12752Y90496
X12752Y100496
X22752Y100496
X22752Y110496
X12752Y110496
X12752Y120496
X22752Y120496
X22752Y130496
X12752Y130496
X12752Y149394
X12752Y159394
X12752Y169394
X12752Y179394
X22752Y179394
X22752Y169394
X22752Y189394
X22752Y199394
X12752Y199394
X12752Y189394
X32752Y189394
X42752Y159394
X32752Y120496
X42752Y90496
X92752Y61598
X102752Y61598
X112752Y61598
X122752Y61598
X132752Y61598
X142752Y61598
X152752Y61598
X162752Y61598
X180075Y61598
X180075Y51598
X180075Y41598
X180075Y31598
X180075Y21598
X180075Y11598
X190075Y31598
X190075Y41598
X190075Y51598
X200075Y51598
X190075Y61598
X180075Y80496
X180075Y90496
X180075Y100496
X180075Y110496
X190075Y110496
X190075Y100496
X190075Y120496
X200075Y120496
X190075Y130496
X180075Y130496
X180075Y120496
X162752Y130496
X152752Y130496
X142752Y130496
X132752Y130496
X122752Y130496
X112752Y130496
X102752Y130496
X92752Y130496
X112752Y149394
X122752Y149394
X132752Y149394
X180075Y159394
X180075Y149394
X180075Y169394
X180075Y179394
X180075Y189394
X180075Y199394
X190075Y199394
X190075Y189394
X200075Y189394
X190075Y179394
X190075Y169394
X210075Y159394
X260075Y130496
X270075Y130496
X280075Y130496
X290075Y130496
X300075Y130496
X310075Y130496
X320075Y130496
X330075Y130496
X346433Y87906
X356433Y87906
X356433Y77906
X346433Y77906
X330075Y61598
X320075Y61598
X310075Y61598
X300075Y61598
X290075Y61598
X280075Y61598
X270075Y61598
X260075Y61598
X280075Y80496
X290075Y80496
X300075Y80496
X366433Y87906
X376433Y87906
X376433Y77906
X366433Y77906
X386433Y77906
X386433Y87906
X300075Y149394
X290075Y149394
X280075Y149394
X280075Y199394
X270075Y199394
X260075Y199394
X290075Y199394
X300075Y199394
X310075Y199394
X320075Y199394
X330075Y199394
X346827Y195016
X356827Y195016
X356827Y205016
X346827Y205016
X366827Y205016
X376827Y205016
X386827Y205016
X386827Y195016
X376827Y195016
X366827Y195016
X318213Y310150
X328213Y310150
X338213Y310150
X328213Y330181
X348213Y340150
X358213Y340150
X368213Y340150
X378213Y340150
X388213Y340181
X388213Y330181
X388213Y320150
X388213Y310181
X388213Y350181
X388213Y360181
X388213Y370181
X388213Y380181
X376433Y27906
X366433Y27906
X366433Y37906
X376433Y37906
X356433Y37906
X346433Y37906
X346433Y27906
X356433Y27906
X300075Y11598
X290075Y11598
X280075Y11598
X210075Y21598
X132752Y11598
X122752Y11598
X112752Y11598
X112752Y80496
X122752Y80496
X132752Y80496
X210075Y90496
X162752Y199394
X152752Y199394
X142752Y199394
X132752Y199394
X122752Y199394
X112752Y199394
X102752Y199394
X92752Y199394
X129378Y249583
X129378Y259583
X139378Y259583
X139378Y249583
X139378Y269583
X139378Y279583
X129378Y279583
X129378Y269583
X131362Y310150
X121362Y310150
X141362Y310150
X131362Y330181
X111362Y340150
X111362Y350181
X111362Y360181
X111362Y370181
X111362Y380181
X111362Y390181
X121362Y390181
X131362Y390181
X131362Y380181
X121362Y380181
X121362Y370181
X121362Y360181
X141362Y350181
X151362Y340150
X161362Y340150
X171362Y340150
X181362Y340150
X191362Y340181
X191362Y330181
X191362Y320150
X191362Y310181
X219787Y310150
X229787Y310150
X239787Y310150
X229787Y330181
X209787Y340150
X209787Y350181
X209787Y360181
X219787Y360181
X219787Y370181
X209787Y370181
X209787Y380181
X219787Y380181
X219787Y390181
X209787Y390181
X229787Y390181
X229787Y380181
X239787Y350181
X249787Y340150
X259787Y340150
X269787Y340150
X279787Y340150
X289787Y340181
X289787Y330181
X289787Y320150
X289787Y310181
X308213Y340150
X308213Y350181
X308213Y360181
X318213Y360181
X318213Y370181
X318213Y380181
X328213Y380181
X328213Y390181
X318213Y390181
X308213Y390181
X308213Y380181
X308213Y370181
X289787Y370181
X289787Y380181
X289787Y360181
X289787Y350181
X338213Y350181
X12937Y390181
X22937Y390181
X22937Y380181
X22937Y370181
X12937Y370181
X12937Y380181
X12937Y360181
X12937Y350181
X22937Y360181
X42937Y350181
X52937Y340150
X62937Y340150
X72937Y340150
X82937Y340150
X92937Y340181
X92937Y330181
X92937Y320150
X92937Y310181
X92937Y350181
X92937Y360181
X92937Y370181
X92937Y380181
X32937Y380181
X32937Y390181
X12937Y340150
X32937Y330181
X32937Y310150
X42937Y310150
X22937Y310150
X23079Y279583
X23079Y269583
X33079Y269583
X33079Y279583
X33079Y259583
X33079Y249583
X23079Y249583
X23079Y259583
X191362Y350181
X191362Y360181
X191362Y370181
X191362Y380181
X235677Y279583
X235677Y269583
X245677Y269583
X245677Y279583
X245677Y259583
X245677Y249583
X235677Y249583
X235677Y259583
X42752Y21598
T08
X346827Y185016
X346827Y175016
X346827Y165016
X356827Y165016
X356827Y155016
X346827Y155016
X346827Y145016
X346827Y135016
X346827Y125016
X346433Y47906
X356433Y47906
X366433Y47906
X376433Y47906
X386433Y47906
X386433Y67906
X376827Y125016
X366827Y125016
X366827Y135016
X376827Y145016
X366827Y155016
X386827Y155016
X386827Y145016
X386827Y135016
X386827Y125016
X386827Y165016
T09
X347457Y227378
X386827Y227378
X347457Y109268
X347457Y10843
X386827Y10843
X386827Y109268
M30
