G75*
%MOIN*%
%OFA0B0*%
%FSLAX25Y25*%
%IPPOS*%
%LPD*%
%AMOC8*
5,1,8,0,0,1.08239X$1,22.5*
%
%ADD10C,0.02400*%
%ADD11C,0.00394*%
%ADD12C,0.00700*%
%ADD13C,0.00600*%
%ADD14C,0.00000*%
%ADD15C,0.11811*%
%ADD16C,0.30000*%
%ADD17C,0.07400*%
%ADD18C,0.07000*%
%ADD19R,0.05000X0.10000*%
%ADD20C,0.05000*%
%ADD21C,0.06693*%
%ADD22R,0.03937X0.04331*%
%ADD23R,0.06299X0.01575*%
%ADD24R,0.05906X0.07874*%
%ADD25R,0.06693X0.10630*%
%ADD26C,0.03150*%
%ADD27C,0.02500*%
%ADD28R,0.01378X0.05512*%
%ADD29R,0.07087X0.07480*%
%ADD30R,0.07480X0.07480*%
%ADD31C,0.03000*%
%ADD32OC8,0.07400*%
%ADD33C,0.07600*%
D10*
X0006252Y0067098D02*
X0006254Y0067161D01*
X0006260Y0067223D01*
X0006270Y0067285D01*
X0006283Y0067347D01*
X0006301Y0067407D01*
X0006322Y0067466D01*
X0006347Y0067524D01*
X0006376Y0067580D01*
X0006408Y0067634D01*
X0006443Y0067686D01*
X0006481Y0067735D01*
X0006523Y0067783D01*
X0006567Y0067827D01*
X0006615Y0067869D01*
X0006664Y0067907D01*
X0006716Y0067942D01*
X0006770Y0067974D01*
X0006826Y0068003D01*
X0006884Y0068028D01*
X0006943Y0068049D01*
X0007003Y0068067D01*
X0007065Y0068080D01*
X0007127Y0068090D01*
X0007189Y0068096D01*
X0007252Y0068098D01*
X0007315Y0068096D01*
X0007377Y0068090D01*
X0007439Y0068080D01*
X0007501Y0068067D01*
X0007561Y0068049D01*
X0007620Y0068028D01*
X0007678Y0068003D01*
X0007734Y0067974D01*
X0007788Y0067942D01*
X0007840Y0067907D01*
X0007889Y0067869D01*
X0007937Y0067827D01*
X0007981Y0067783D01*
X0008023Y0067735D01*
X0008061Y0067686D01*
X0008096Y0067634D01*
X0008128Y0067580D01*
X0008157Y0067524D01*
X0008182Y0067466D01*
X0008203Y0067407D01*
X0008221Y0067347D01*
X0008234Y0067285D01*
X0008244Y0067223D01*
X0008250Y0067161D01*
X0008252Y0067098D01*
X0008250Y0067035D01*
X0008244Y0066973D01*
X0008234Y0066911D01*
X0008221Y0066849D01*
X0008203Y0066789D01*
X0008182Y0066730D01*
X0008157Y0066672D01*
X0008128Y0066616D01*
X0008096Y0066562D01*
X0008061Y0066510D01*
X0008023Y0066461D01*
X0007981Y0066413D01*
X0007937Y0066369D01*
X0007889Y0066327D01*
X0007840Y0066289D01*
X0007788Y0066254D01*
X0007734Y0066222D01*
X0007678Y0066193D01*
X0007620Y0066168D01*
X0007561Y0066147D01*
X0007501Y0066129D01*
X0007439Y0066116D01*
X0007377Y0066106D01*
X0007315Y0066100D01*
X0007252Y0066098D01*
X0007189Y0066100D01*
X0007127Y0066106D01*
X0007065Y0066116D01*
X0007003Y0066129D01*
X0006943Y0066147D01*
X0006884Y0066168D01*
X0006826Y0066193D01*
X0006770Y0066222D01*
X0006716Y0066254D01*
X0006664Y0066289D01*
X0006615Y0066327D01*
X0006567Y0066369D01*
X0006523Y0066413D01*
X0006481Y0066461D01*
X0006443Y0066510D01*
X0006408Y0066562D01*
X0006376Y0066616D01*
X0006347Y0066672D01*
X0006322Y0066730D01*
X0006301Y0066789D01*
X0006283Y0066849D01*
X0006270Y0066911D01*
X0006260Y0066973D01*
X0006254Y0067035D01*
X0006252Y0067098D01*
X0006252Y0135996D02*
X0006254Y0136059D01*
X0006260Y0136121D01*
X0006270Y0136183D01*
X0006283Y0136245D01*
X0006301Y0136305D01*
X0006322Y0136364D01*
X0006347Y0136422D01*
X0006376Y0136478D01*
X0006408Y0136532D01*
X0006443Y0136584D01*
X0006481Y0136633D01*
X0006523Y0136681D01*
X0006567Y0136725D01*
X0006615Y0136767D01*
X0006664Y0136805D01*
X0006716Y0136840D01*
X0006770Y0136872D01*
X0006826Y0136901D01*
X0006884Y0136926D01*
X0006943Y0136947D01*
X0007003Y0136965D01*
X0007065Y0136978D01*
X0007127Y0136988D01*
X0007189Y0136994D01*
X0007252Y0136996D01*
X0007315Y0136994D01*
X0007377Y0136988D01*
X0007439Y0136978D01*
X0007501Y0136965D01*
X0007561Y0136947D01*
X0007620Y0136926D01*
X0007678Y0136901D01*
X0007734Y0136872D01*
X0007788Y0136840D01*
X0007840Y0136805D01*
X0007889Y0136767D01*
X0007937Y0136725D01*
X0007981Y0136681D01*
X0008023Y0136633D01*
X0008061Y0136584D01*
X0008096Y0136532D01*
X0008128Y0136478D01*
X0008157Y0136422D01*
X0008182Y0136364D01*
X0008203Y0136305D01*
X0008221Y0136245D01*
X0008234Y0136183D01*
X0008244Y0136121D01*
X0008250Y0136059D01*
X0008252Y0135996D01*
X0008250Y0135933D01*
X0008244Y0135871D01*
X0008234Y0135809D01*
X0008221Y0135747D01*
X0008203Y0135687D01*
X0008182Y0135628D01*
X0008157Y0135570D01*
X0008128Y0135514D01*
X0008096Y0135460D01*
X0008061Y0135408D01*
X0008023Y0135359D01*
X0007981Y0135311D01*
X0007937Y0135267D01*
X0007889Y0135225D01*
X0007840Y0135187D01*
X0007788Y0135152D01*
X0007734Y0135120D01*
X0007678Y0135091D01*
X0007620Y0135066D01*
X0007561Y0135045D01*
X0007501Y0135027D01*
X0007439Y0135014D01*
X0007377Y0135004D01*
X0007315Y0134998D01*
X0007252Y0134996D01*
X0007189Y0134998D01*
X0007127Y0135004D01*
X0007065Y0135014D01*
X0007003Y0135027D01*
X0006943Y0135045D01*
X0006884Y0135066D01*
X0006826Y0135091D01*
X0006770Y0135120D01*
X0006716Y0135152D01*
X0006664Y0135187D01*
X0006615Y0135225D01*
X0006567Y0135267D01*
X0006523Y0135311D01*
X0006481Y0135359D01*
X0006443Y0135408D01*
X0006408Y0135460D01*
X0006376Y0135514D01*
X0006347Y0135570D01*
X0006322Y0135628D01*
X0006301Y0135687D01*
X0006283Y0135747D01*
X0006270Y0135809D01*
X0006260Y0135871D01*
X0006254Y0135933D01*
X0006252Y0135996D01*
X0006252Y0204894D02*
X0006254Y0204957D01*
X0006260Y0205019D01*
X0006270Y0205081D01*
X0006283Y0205143D01*
X0006301Y0205203D01*
X0006322Y0205262D01*
X0006347Y0205320D01*
X0006376Y0205376D01*
X0006408Y0205430D01*
X0006443Y0205482D01*
X0006481Y0205531D01*
X0006523Y0205579D01*
X0006567Y0205623D01*
X0006615Y0205665D01*
X0006664Y0205703D01*
X0006716Y0205738D01*
X0006770Y0205770D01*
X0006826Y0205799D01*
X0006884Y0205824D01*
X0006943Y0205845D01*
X0007003Y0205863D01*
X0007065Y0205876D01*
X0007127Y0205886D01*
X0007189Y0205892D01*
X0007252Y0205894D01*
X0007315Y0205892D01*
X0007377Y0205886D01*
X0007439Y0205876D01*
X0007501Y0205863D01*
X0007561Y0205845D01*
X0007620Y0205824D01*
X0007678Y0205799D01*
X0007734Y0205770D01*
X0007788Y0205738D01*
X0007840Y0205703D01*
X0007889Y0205665D01*
X0007937Y0205623D01*
X0007981Y0205579D01*
X0008023Y0205531D01*
X0008061Y0205482D01*
X0008096Y0205430D01*
X0008128Y0205376D01*
X0008157Y0205320D01*
X0008182Y0205262D01*
X0008203Y0205203D01*
X0008221Y0205143D01*
X0008234Y0205081D01*
X0008244Y0205019D01*
X0008250Y0204957D01*
X0008252Y0204894D01*
X0008250Y0204831D01*
X0008244Y0204769D01*
X0008234Y0204707D01*
X0008221Y0204645D01*
X0008203Y0204585D01*
X0008182Y0204526D01*
X0008157Y0204468D01*
X0008128Y0204412D01*
X0008096Y0204358D01*
X0008061Y0204306D01*
X0008023Y0204257D01*
X0007981Y0204209D01*
X0007937Y0204165D01*
X0007889Y0204123D01*
X0007840Y0204085D01*
X0007788Y0204050D01*
X0007734Y0204018D01*
X0007678Y0203989D01*
X0007620Y0203964D01*
X0007561Y0203943D01*
X0007501Y0203925D01*
X0007439Y0203912D01*
X0007377Y0203902D01*
X0007315Y0203896D01*
X0007252Y0203894D01*
X0007189Y0203896D01*
X0007127Y0203902D01*
X0007065Y0203912D01*
X0007003Y0203925D01*
X0006943Y0203943D01*
X0006884Y0203964D01*
X0006826Y0203989D01*
X0006770Y0204018D01*
X0006716Y0204050D01*
X0006664Y0204085D01*
X0006615Y0204123D01*
X0006567Y0204165D01*
X0006523Y0204209D01*
X0006481Y0204257D01*
X0006443Y0204306D01*
X0006408Y0204358D01*
X0006376Y0204412D01*
X0006347Y0204468D01*
X0006322Y0204526D01*
X0006301Y0204585D01*
X0006283Y0204645D01*
X0006270Y0204707D01*
X0006260Y0204769D01*
X0006254Y0204831D01*
X0006252Y0204894D01*
X0026079Y0244083D02*
X0026081Y0244146D01*
X0026087Y0244208D01*
X0026097Y0244270D01*
X0026110Y0244332D01*
X0026128Y0244392D01*
X0026149Y0244451D01*
X0026174Y0244509D01*
X0026203Y0244565D01*
X0026235Y0244619D01*
X0026270Y0244671D01*
X0026308Y0244720D01*
X0026350Y0244768D01*
X0026394Y0244812D01*
X0026442Y0244854D01*
X0026491Y0244892D01*
X0026543Y0244927D01*
X0026597Y0244959D01*
X0026653Y0244988D01*
X0026711Y0245013D01*
X0026770Y0245034D01*
X0026830Y0245052D01*
X0026892Y0245065D01*
X0026954Y0245075D01*
X0027016Y0245081D01*
X0027079Y0245083D01*
X0027142Y0245081D01*
X0027204Y0245075D01*
X0027266Y0245065D01*
X0027328Y0245052D01*
X0027388Y0245034D01*
X0027447Y0245013D01*
X0027505Y0244988D01*
X0027561Y0244959D01*
X0027615Y0244927D01*
X0027667Y0244892D01*
X0027716Y0244854D01*
X0027764Y0244812D01*
X0027808Y0244768D01*
X0027850Y0244720D01*
X0027888Y0244671D01*
X0027923Y0244619D01*
X0027955Y0244565D01*
X0027984Y0244509D01*
X0028009Y0244451D01*
X0028030Y0244392D01*
X0028048Y0244332D01*
X0028061Y0244270D01*
X0028071Y0244208D01*
X0028077Y0244146D01*
X0028079Y0244083D01*
X0028077Y0244020D01*
X0028071Y0243958D01*
X0028061Y0243896D01*
X0028048Y0243834D01*
X0028030Y0243774D01*
X0028009Y0243715D01*
X0027984Y0243657D01*
X0027955Y0243601D01*
X0027923Y0243547D01*
X0027888Y0243495D01*
X0027850Y0243446D01*
X0027808Y0243398D01*
X0027764Y0243354D01*
X0027716Y0243312D01*
X0027667Y0243274D01*
X0027615Y0243239D01*
X0027561Y0243207D01*
X0027505Y0243178D01*
X0027447Y0243153D01*
X0027388Y0243132D01*
X0027328Y0243114D01*
X0027266Y0243101D01*
X0027204Y0243091D01*
X0027142Y0243085D01*
X0027079Y0243083D01*
X0027016Y0243085D01*
X0026954Y0243091D01*
X0026892Y0243101D01*
X0026830Y0243114D01*
X0026770Y0243132D01*
X0026711Y0243153D01*
X0026653Y0243178D01*
X0026597Y0243207D01*
X0026543Y0243239D01*
X0026491Y0243274D01*
X0026442Y0243312D01*
X0026394Y0243354D01*
X0026350Y0243398D01*
X0026308Y0243446D01*
X0026270Y0243495D01*
X0026235Y0243547D01*
X0026203Y0243601D01*
X0026174Y0243657D01*
X0026149Y0243715D01*
X0026128Y0243774D01*
X0026110Y0243834D01*
X0026097Y0243896D01*
X0026087Y0243958D01*
X0026081Y0244020D01*
X0026079Y0244083D01*
X0017579Y0284083D02*
X0017581Y0284146D01*
X0017587Y0284208D01*
X0017597Y0284270D01*
X0017610Y0284332D01*
X0017628Y0284392D01*
X0017649Y0284451D01*
X0017674Y0284509D01*
X0017703Y0284565D01*
X0017735Y0284619D01*
X0017770Y0284671D01*
X0017808Y0284720D01*
X0017850Y0284768D01*
X0017894Y0284812D01*
X0017942Y0284854D01*
X0017991Y0284892D01*
X0018043Y0284927D01*
X0018097Y0284959D01*
X0018153Y0284988D01*
X0018211Y0285013D01*
X0018270Y0285034D01*
X0018330Y0285052D01*
X0018392Y0285065D01*
X0018454Y0285075D01*
X0018516Y0285081D01*
X0018579Y0285083D01*
X0018642Y0285081D01*
X0018704Y0285075D01*
X0018766Y0285065D01*
X0018828Y0285052D01*
X0018888Y0285034D01*
X0018947Y0285013D01*
X0019005Y0284988D01*
X0019061Y0284959D01*
X0019115Y0284927D01*
X0019167Y0284892D01*
X0019216Y0284854D01*
X0019264Y0284812D01*
X0019308Y0284768D01*
X0019350Y0284720D01*
X0019388Y0284671D01*
X0019423Y0284619D01*
X0019455Y0284565D01*
X0019484Y0284509D01*
X0019509Y0284451D01*
X0019530Y0284392D01*
X0019548Y0284332D01*
X0019561Y0284270D01*
X0019571Y0284208D01*
X0019577Y0284146D01*
X0019579Y0284083D01*
X0019577Y0284020D01*
X0019571Y0283958D01*
X0019561Y0283896D01*
X0019548Y0283834D01*
X0019530Y0283774D01*
X0019509Y0283715D01*
X0019484Y0283657D01*
X0019455Y0283601D01*
X0019423Y0283547D01*
X0019388Y0283495D01*
X0019350Y0283446D01*
X0019308Y0283398D01*
X0019264Y0283354D01*
X0019216Y0283312D01*
X0019167Y0283274D01*
X0019115Y0283239D01*
X0019061Y0283207D01*
X0019005Y0283178D01*
X0018947Y0283153D01*
X0018888Y0283132D01*
X0018828Y0283114D01*
X0018766Y0283101D01*
X0018704Y0283091D01*
X0018642Y0283085D01*
X0018579Y0283083D01*
X0018516Y0283085D01*
X0018454Y0283091D01*
X0018392Y0283101D01*
X0018330Y0283114D01*
X0018270Y0283132D01*
X0018211Y0283153D01*
X0018153Y0283178D01*
X0018097Y0283207D01*
X0018043Y0283239D01*
X0017991Y0283274D01*
X0017942Y0283312D01*
X0017894Y0283354D01*
X0017850Y0283398D01*
X0017808Y0283446D01*
X0017770Y0283495D01*
X0017735Y0283547D01*
X0017703Y0283601D01*
X0017674Y0283657D01*
X0017649Y0283715D01*
X0017628Y0283774D01*
X0017610Y0283834D01*
X0017597Y0283896D01*
X0017587Y0283958D01*
X0017581Y0284020D01*
X0017579Y0284083D01*
X0115079Y0283583D02*
X0115081Y0283646D01*
X0115087Y0283708D01*
X0115097Y0283770D01*
X0115110Y0283832D01*
X0115128Y0283892D01*
X0115149Y0283951D01*
X0115174Y0284009D01*
X0115203Y0284065D01*
X0115235Y0284119D01*
X0115270Y0284171D01*
X0115308Y0284220D01*
X0115350Y0284268D01*
X0115394Y0284312D01*
X0115442Y0284354D01*
X0115491Y0284392D01*
X0115543Y0284427D01*
X0115597Y0284459D01*
X0115653Y0284488D01*
X0115711Y0284513D01*
X0115770Y0284534D01*
X0115830Y0284552D01*
X0115892Y0284565D01*
X0115954Y0284575D01*
X0116016Y0284581D01*
X0116079Y0284583D01*
X0116142Y0284581D01*
X0116204Y0284575D01*
X0116266Y0284565D01*
X0116328Y0284552D01*
X0116388Y0284534D01*
X0116447Y0284513D01*
X0116505Y0284488D01*
X0116561Y0284459D01*
X0116615Y0284427D01*
X0116667Y0284392D01*
X0116716Y0284354D01*
X0116764Y0284312D01*
X0116808Y0284268D01*
X0116850Y0284220D01*
X0116888Y0284171D01*
X0116923Y0284119D01*
X0116955Y0284065D01*
X0116984Y0284009D01*
X0117009Y0283951D01*
X0117030Y0283892D01*
X0117048Y0283832D01*
X0117061Y0283770D01*
X0117071Y0283708D01*
X0117077Y0283646D01*
X0117079Y0283583D01*
X0117077Y0283520D01*
X0117071Y0283458D01*
X0117061Y0283396D01*
X0117048Y0283334D01*
X0117030Y0283274D01*
X0117009Y0283215D01*
X0116984Y0283157D01*
X0116955Y0283101D01*
X0116923Y0283047D01*
X0116888Y0282995D01*
X0116850Y0282946D01*
X0116808Y0282898D01*
X0116764Y0282854D01*
X0116716Y0282812D01*
X0116667Y0282774D01*
X0116615Y0282739D01*
X0116561Y0282707D01*
X0116505Y0282678D01*
X0116447Y0282653D01*
X0116388Y0282632D01*
X0116328Y0282614D01*
X0116266Y0282601D01*
X0116204Y0282591D01*
X0116142Y0282585D01*
X0116079Y0282583D01*
X0116016Y0282585D01*
X0115954Y0282591D01*
X0115892Y0282601D01*
X0115830Y0282614D01*
X0115770Y0282632D01*
X0115711Y0282653D01*
X0115653Y0282678D01*
X0115597Y0282707D01*
X0115543Y0282739D01*
X0115491Y0282774D01*
X0115442Y0282812D01*
X0115394Y0282854D01*
X0115350Y0282898D01*
X0115308Y0282946D01*
X0115270Y0282995D01*
X0115235Y0283047D01*
X0115203Y0283101D01*
X0115174Y0283157D01*
X0115149Y0283215D01*
X0115128Y0283274D01*
X0115110Y0283334D01*
X0115097Y0283396D01*
X0115087Y0283458D01*
X0115081Y0283520D01*
X0115079Y0283583D01*
X0123878Y0284083D02*
X0123880Y0284146D01*
X0123886Y0284208D01*
X0123896Y0284270D01*
X0123909Y0284332D01*
X0123927Y0284392D01*
X0123948Y0284451D01*
X0123973Y0284509D01*
X0124002Y0284565D01*
X0124034Y0284619D01*
X0124069Y0284671D01*
X0124107Y0284720D01*
X0124149Y0284768D01*
X0124193Y0284812D01*
X0124241Y0284854D01*
X0124290Y0284892D01*
X0124342Y0284927D01*
X0124396Y0284959D01*
X0124452Y0284988D01*
X0124510Y0285013D01*
X0124569Y0285034D01*
X0124629Y0285052D01*
X0124691Y0285065D01*
X0124753Y0285075D01*
X0124815Y0285081D01*
X0124878Y0285083D01*
X0124941Y0285081D01*
X0125003Y0285075D01*
X0125065Y0285065D01*
X0125127Y0285052D01*
X0125187Y0285034D01*
X0125246Y0285013D01*
X0125304Y0284988D01*
X0125360Y0284959D01*
X0125414Y0284927D01*
X0125466Y0284892D01*
X0125515Y0284854D01*
X0125563Y0284812D01*
X0125607Y0284768D01*
X0125649Y0284720D01*
X0125687Y0284671D01*
X0125722Y0284619D01*
X0125754Y0284565D01*
X0125783Y0284509D01*
X0125808Y0284451D01*
X0125829Y0284392D01*
X0125847Y0284332D01*
X0125860Y0284270D01*
X0125870Y0284208D01*
X0125876Y0284146D01*
X0125878Y0284083D01*
X0125876Y0284020D01*
X0125870Y0283958D01*
X0125860Y0283896D01*
X0125847Y0283834D01*
X0125829Y0283774D01*
X0125808Y0283715D01*
X0125783Y0283657D01*
X0125754Y0283601D01*
X0125722Y0283547D01*
X0125687Y0283495D01*
X0125649Y0283446D01*
X0125607Y0283398D01*
X0125563Y0283354D01*
X0125515Y0283312D01*
X0125466Y0283274D01*
X0125414Y0283239D01*
X0125360Y0283207D01*
X0125304Y0283178D01*
X0125246Y0283153D01*
X0125187Y0283132D01*
X0125127Y0283114D01*
X0125065Y0283101D01*
X0125003Y0283091D01*
X0124941Y0283085D01*
X0124878Y0283083D01*
X0124815Y0283085D01*
X0124753Y0283091D01*
X0124691Y0283101D01*
X0124629Y0283114D01*
X0124569Y0283132D01*
X0124510Y0283153D01*
X0124452Y0283178D01*
X0124396Y0283207D01*
X0124342Y0283239D01*
X0124290Y0283274D01*
X0124241Y0283312D01*
X0124193Y0283354D01*
X0124149Y0283398D01*
X0124107Y0283446D01*
X0124069Y0283495D01*
X0124034Y0283547D01*
X0124002Y0283601D01*
X0123973Y0283657D01*
X0123948Y0283715D01*
X0123927Y0283774D01*
X0123909Y0283834D01*
X0123896Y0283896D01*
X0123886Y0283958D01*
X0123880Y0284020D01*
X0123878Y0284083D01*
X0132378Y0244083D02*
X0132380Y0244146D01*
X0132386Y0244208D01*
X0132396Y0244270D01*
X0132409Y0244332D01*
X0132427Y0244392D01*
X0132448Y0244451D01*
X0132473Y0244509D01*
X0132502Y0244565D01*
X0132534Y0244619D01*
X0132569Y0244671D01*
X0132607Y0244720D01*
X0132649Y0244768D01*
X0132693Y0244812D01*
X0132741Y0244854D01*
X0132790Y0244892D01*
X0132842Y0244927D01*
X0132896Y0244959D01*
X0132952Y0244988D01*
X0133010Y0245013D01*
X0133069Y0245034D01*
X0133129Y0245052D01*
X0133191Y0245065D01*
X0133253Y0245075D01*
X0133315Y0245081D01*
X0133378Y0245083D01*
X0133441Y0245081D01*
X0133503Y0245075D01*
X0133565Y0245065D01*
X0133627Y0245052D01*
X0133687Y0245034D01*
X0133746Y0245013D01*
X0133804Y0244988D01*
X0133860Y0244959D01*
X0133914Y0244927D01*
X0133966Y0244892D01*
X0134015Y0244854D01*
X0134063Y0244812D01*
X0134107Y0244768D01*
X0134149Y0244720D01*
X0134187Y0244671D01*
X0134222Y0244619D01*
X0134254Y0244565D01*
X0134283Y0244509D01*
X0134308Y0244451D01*
X0134329Y0244392D01*
X0134347Y0244332D01*
X0134360Y0244270D01*
X0134370Y0244208D01*
X0134376Y0244146D01*
X0134378Y0244083D01*
X0134376Y0244020D01*
X0134370Y0243958D01*
X0134360Y0243896D01*
X0134347Y0243834D01*
X0134329Y0243774D01*
X0134308Y0243715D01*
X0134283Y0243657D01*
X0134254Y0243601D01*
X0134222Y0243547D01*
X0134187Y0243495D01*
X0134149Y0243446D01*
X0134107Y0243398D01*
X0134063Y0243354D01*
X0134015Y0243312D01*
X0133966Y0243274D01*
X0133914Y0243239D01*
X0133860Y0243207D01*
X0133804Y0243178D01*
X0133746Y0243153D01*
X0133687Y0243132D01*
X0133627Y0243114D01*
X0133565Y0243101D01*
X0133503Y0243091D01*
X0133441Y0243085D01*
X0133378Y0243083D01*
X0133315Y0243085D01*
X0133253Y0243091D01*
X0133191Y0243101D01*
X0133129Y0243114D01*
X0133069Y0243132D01*
X0133010Y0243153D01*
X0132952Y0243178D01*
X0132896Y0243207D01*
X0132842Y0243239D01*
X0132790Y0243274D01*
X0132741Y0243312D01*
X0132693Y0243354D01*
X0132649Y0243398D01*
X0132607Y0243446D01*
X0132569Y0243495D01*
X0132534Y0243547D01*
X0132502Y0243601D01*
X0132473Y0243657D01*
X0132448Y0243715D01*
X0132427Y0243774D01*
X0132409Y0243834D01*
X0132396Y0243896D01*
X0132386Y0243958D01*
X0132380Y0244020D01*
X0132378Y0244083D01*
X0165252Y0204894D02*
X0165254Y0204957D01*
X0165260Y0205019D01*
X0165270Y0205081D01*
X0165283Y0205143D01*
X0165301Y0205203D01*
X0165322Y0205262D01*
X0165347Y0205320D01*
X0165376Y0205376D01*
X0165408Y0205430D01*
X0165443Y0205482D01*
X0165481Y0205531D01*
X0165523Y0205579D01*
X0165567Y0205623D01*
X0165615Y0205665D01*
X0165664Y0205703D01*
X0165716Y0205738D01*
X0165770Y0205770D01*
X0165826Y0205799D01*
X0165884Y0205824D01*
X0165943Y0205845D01*
X0166003Y0205863D01*
X0166065Y0205876D01*
X0166127Y0205886D01*
X0166189Y0205892D01*
X0166252Y0205894D01*
X0166315Y0205892D01*
X0166377Y0205886D01*
X0166439Y0205876D01*
X0166501Y0205863D01*
X0166561Y0205845D01*
X0166620Y0205824D01*
X0166678Y0205799D01*
X0166734Y0205770D01*
X0166788Y0205738D01*
X0166840Y0205703D01*
X0166889Y0205665D01*
X0166937Y0205623D01*
X0166981Y0205579D01*
X0167023Y0205531D01*
X0167061Y0205482D01*
X0167096Y0205430D01*
X0167128Y0205376D01*
X0167157Y0205320D01*
X0167182Y0205262D01*
X0167203Y0205203D01*
X0167221Y0205143D01*
X0167234Y0205081D01*
X0167244Y0205019D01*
X0167250Y0204957D01*
X0167252Y0204894D01*
X0167250Y0204831D01*
X0167244Y0204769D01*
X0167234Y0204707D01*
X0167221Y0204645D01*
X0167203Y0204585D01*
X0167182Y0204526D01*
X0167157Y0204468D01*
X0167128Y0204412D01*
X0167096Y0204358D01*
X0167061Y0204306D01*
X0167023Y0204257D01*
X0166981Y0204209D01*
X0166937Y0204165D01*
X0166889Y0204123D01*
X0166840Y0204085D01*
X0166788Y0204050D01*
X0166734Y0204018D01*
X0166678Y0203989D01*
X0166620Y0203964D01*
X0166561Y0203943D01*
X0166501Y0203925D01*
X0166439Y0203912D01*
X0166377Y0203902D01*
X0166315Y0203896D01*
X0166252Y0203894D01*
X0166189Y0203896D01*
X0166127Y0203902D01*
X0166065Y0203912D01*
X0166003Y0203925D01*
X0165943Y0203943D01*
X0165884Y0203964D01*
X0165826Y0203989D01*
X0165770Y0204018D01*
X0165716Y0204050D01*
X0165664Y0204085D01*
X0165615Y0204123D01*
X0165567Y0204165D01*
X0165523Y0204209D01*
X0165481Y0204257D01*
X0165443Y0204306D01*
X0165408Y0204358D01*
X0165376Y0204412D01*
X0165347Y0204468D01*
X0165322Y0204526D01*
X0165301Y0204585D01*
X0165283Y0204645D01*
X0165270Y0204707D01*
X0165260Y0204769D01*
X0165254Y0204831D01*
X0165252Y0204894D01*
X0173575Y0204894D02*
X0173577Y0204957D01*
X0173583Y0205019D01*
X0173593Y0205081D01*
X0173606Y0205143D01*
X0173624Y0205203D01*
X0173645Y0205262D01*
X0173670Y0205320D01*
X0173699Y0205376D01*
X0173731Y0205430D01*
X0173766Y0205482D01*
X0173804Y0205531D01*
X0173846Y0205579D01*
X0173890Y0205623D01*
X0173938Y0205665D01*
X0173987Y0205703D01*
X0174039Y0205738D01*
X0174093Y0205770D01*
X0174149Y0205799D01*
X0174207Y0205824D01*
X0174266Y0205845D01*
X0174326Y0205863D01*
X0174388Y0205876D01*
X0174450Y0205886D01*
X0174512Y0205892D01*
X0174575Y0205894D01*
X0174638Y0205892D01*
X0174700Y0205886D01*
X0174762Y0205876D01*
X0174824Y0205863D01*
X0174884Y0205845D01*
X0174943Y0205824D01*
X0175001Y0205799D01*
X0175057Y0205770D01*
X0175111Y0205738D01*
X0175163Y0205703D01*
X0175212Y0205665D01*
X0175260Y0205623D01*
X0175304Y0205579D01*
X0175346Y0205531D01*
X0175384Y0205482D01*
X0175419Y0205430D01*
X0175451Y0205376D01*
X0175480Y0205320D01*
X0175505Y0205262D01*
X0175526Y0205203D01*
X0175544Y0205143D01*
X0175557Y0205081D01*
X0175567Y0205019D01*
X0175573Y0204957D01*
X0175575Y0204894D01*
X0175573Y0204831D01*
X0175567Y0204769D01*
X0175557Y0204707D01*
X0175544Y0204645D01*
X0175526Y0204585D01*
X0175505Y0204526D01*
X0175480Y0204468D01*
X0175451Y0204412D01*
X0175419Y0204358D01*
X0175384Y0204306D01*
X0175346Y0204257D01*
X0175304Y0204209D01*
X0175260Y0204165D01*
X0175212Y0204123D01*
X0175163Y0204085D01*
X0175111Y0204050D01*
X0175057Y0204018D01*
X0175001Y0203989D01*
X0174943Y0203964D01*
X0174884Y0203943D01*
X0174824Y0203925D01*
X0174762Y0203912D01*
X0174700Y0203902D01*
X0174638Y0203896D01*
X0174575Y0203894D01*
X0174512Y0203896D01*
X0174450Y0203902D01*
X0174388Y0203912D01*
X0174326Y0203925D01*
X0174266Y0203943D01*
X0174207Y0203964D01*
X0174149Y0203989D01*
X0174093Y0204018D01*
X0174039Y0204050D01*
X0173987Y0204085D01*
X0173938Y0204123D01*
X0173890Y0204165D01*
X0173846Y0204209D01*
X0173804Y0204257D01*
X0173766Y0204306D01*
X0173731Y0204358D01*
X0173699Y0204412D01*
X0173670Y0204468D01*
X0173645Y0204526D01*
X0173624Y0204585D01*
X0173606Y0204645D01*
X0173593Y0204707D01*
X0173583Y0204769D01*
X0173577Y0204831D01*
X0173575Y0204894D01*
X0139752Y0146394D02*
X0139754Y0146457D01*
X0139760Y0146519D01*
X0139770Y0146581D01*
X0139783Y0146643D01*
X0139801Y0146703D01*
X0139822Y0146762D01*
X0139847Y0146820D01*
X0139876Y0146876D01*
X0139908Y0146930D01*
X0139943Y0146982D01*
X0139981Y0147031D01*
X0140023Y0147079D01*
X0140067Y0147123D01*
X0140115Y0147165D01*
X0140164Y0147203D01*
X0140216Y0147238D01*
X0140270Y0147270D01*
X0140326Y0147299D01*
X0140384Y0147324D01*
X0140443Y0147345D01*
X0140503Y0147363D01*
X0140565Y0147376D01*
X0140627Y0147386D01*
X0140689Y0147392D01*
X0140752Y0147394D01*
X0140815Y0147392D01*
X0140877Y0147386D01*
X0140939Y0147376D01*
X0141001Y0147363D01*
X0141061Y0147345D01*
X0141120Y0147324D01*
X0141178Y0147299D01*
X0141234Y0147270D01*
X0141288Y0147238D01*
X0141340Y0147203D01*
X0141389Y0147165D01*
X0141437Y0147123D01*
X0141481Y0147079D01*
X0141523Y0147031D01*
X0141561Y0146982D01*
X0141596Y0146930D01*
X0141628Y0146876D01*
X0141657Y0146820D01*
X0141682Y0146762D01*
X0141703Y0146703D01*
X0141721Y0146643D01*
X0141734Y0146581D01*
X0141744Y0146519D01*
X0141750Y0146457D01*
X0141752Y0146394D01*
X0141750Y0146331D01*
X0141744Y0146269D01*
X0141734Y0146207D01*
X0141721Y0146145D01*
X0141703Y0146085D01*
X0141682Y0146026D01*
X0141657Y0145968D01*
X0141628Y0145912D01*
X0141596Y0145858D01*
X0141561Y0145806D01*
X0141523Y0145757D01*
X0141481Y0145709D01*
X0141437Y0145665D01*
X0141389Y0145623D01*
X0141340Y0145585D01*
X0141288Y0145550D01*
X0141234Y0145518D01*
X0141178Y0145489D01*
X0141120Y0145464D01*
X0141061Y0145443D01*
X0141001Y0145425D01*
X0140939Y0145412D01*
X0140877Y0145402D01*
X0140815Y0145396D01*
X0140752Y0145394D01*
X0140689Y0145396D01*
X0140627Y0145402D01*
X0140565Y0145412D01*
X0140503Y0145425D01*
X0140443Y0145443D01*
X0140384Y0145464D01*
X0140326Y0145489D01*
X0140270Y0145518D01*
X0140216Y0145550D01*
X0140164Y0145585D01*
X0140115Y0145623D01*
X0140067Y0145665D01*
X0140023Y0145709D01*
X0139981Y0145757D01*
X0139943Y0145806D01*
X0139908Y0145858D01*
X0139876Y0145912D01*
X0139847Y0145968D01*
X0139822Y0146026D01*
X0139801Y0146085D01*
X0139783Y0146145D01*
X0139770Y0146207D01*
X0139760Y0146269D01*
X0139754Y0146331D01*
X0139752Y0146394D01*
X0165252Y0135996D02*
X0165254Y0136059D01*
X0165260Y0136121D01*
X0165270Y0136183D01*
X0165283Y0136245D01*
X0165301Y0136305D01*
X0165322Y0136364D01*
X0165347Y0136422D01*
X0165376Y0136478D01*
X0165408Y0136532D01*
X0165443Y0136584D01*
X0165481Y0136633D01*
X0165523Y0136681D01*
X0165567Y0136725D01*
X0165615Y0136767D01*
X0165664Y0136805D01*
X0165716Y0136840D01*
X0165770Y0136872D01*
X0165826Y0136901D01*
X0165884Y0136926D01*
X0165943Y0136947D01*
X0166003Y0136965D01*
X0166065Y0136978D01*
X0166127Y0136988D01*
X0166189Y0136994D01*
X0166252Y0136996D01*
X0166315Y0136994D01*
X0166377Y0136988D01*
X0166439Y0136978D01*
X0166501Y0136965D01*
X0166561Y0136947D01*
X0166620Y0136926D01*
X0166678Y0136901D01*
X0166734Y0136872D01*
X0166788Y0136840D01*
X0166840Y0136805D01*
X0166889Y0136767D01*
X0166937Y0136725D01*
X0166981Y0136681D01*
X0167023Y0136633D01*
X0167061Y0136584D01*
X0167096Y0136532D01*
X0167128Y0136478D01*
X0167157Y0136422D01*
X0167182Y0136364D01*
X0167203Y0136305D01*
X0167221Y0136245D01*
X0167234Y0136183D01*
X0167244Y0136121D01*
X0167250Y0136059D01*
X0167252Y0135996D01*
X0167250Y0135933D01*
X0167244Y0135871D01*
X0167234Y0135809D01*
X0167221Y0135747D01*
X0167203Y0135687D01*
X0167182Y0135628D01*
X0167157Y0135570D01*
X0167128Y0135514D01*
X0167096Y0135460D01*
X0167061Y0135408D01*
X0167023Y0135359D01*
X0166981Y0135311D01*
X0166937Y0135267D01*
X0166889Y0135225D01*
X0166840Y0135187D01*
X0166788Y0135152D01*
X0166734Y0135120D01*
X0166678Y0135091D01*
X0166620Y0135066D01*
X0166561Y0135045D01*
X0166501Y0135027D01*
X0166439Y0135014D01*
X0166377Y0135004D01*
X0166315Y0134998D01*
X0166252Y0134996D01*
X0166189Y0134998D01*
X0166127Y0135004D01*
X0166065Y0135014D01*
X0166003Y0135027D01*
X0165943Y0135045D01*
X0165884Y0135066D01*
X0165826Y0135091D01*
X0165770Y0135120D01*
X0165716Y0135152D01*
X0165664Y0135187D01*
X0165615Y0135225D01*
X0165567Y0135267D01*
X0165523Y0135311D01*
X0165481Y0135359D01*
X0165443Y0135408D01*
X0165408Y0135460D01*
X0165376Y0135514D01*
X0165347Y0135570D01*
X0165322Y0135628D01*
X0165301Y0135687D01*
X0165283Y0135747D01*
X0165270Y0135809D01*
X0165260Y0135871D01*
X0165254Y0135933D01*
X0165252Y0135996D01*
X0173575Y0135996D02*
X0173577Y0136059D01*
X0173583Y0136121D01*
X0173593Y0136183D01*
X0173606Y0136245D01*
X0173624Y0136305D01*
X0173645Y0136364D01*
X0173670Y0136422D01*
X0173699Y0136478D01*
X0173731Y0136532D01*
X0173766Y0136584D01*
X0173804Y0136633D01*
X0173846Y0136681D01*
X0173890Y0136725D01*
X0173938Y0136767D01*
X0173987Y0136805D01*
X0174039Y0136840D01*
X0174093Y0136872D01*
X0174149Y0136901D01*
X0174207Y0136926D01*
X0174266Y0136947D01*
X0174326Y0136965D01*
X0174388Y0136978D01*
X0174450Y0136988D01*
X0174512Y0136994D01*
X0174575Y0136996D01*
X0174638Y0136994D01*
X0174700Y0136988D01*
X0174762Y0136978D01*
X0174824Y0136965D01*
X0174884Y0136947D01*
X0174943Y0136926D01*
X0175001Y0136901D01*
X0175057Y0136872D01*
X0175111Y0136840D01*
X0175163Y0136805D01*
X0175212Y0136767D01*
X0175260Y0136725D01*
X0175304Y0136681D01*
X0175346Y0136633D01*
X0175384Y0136584D01*
X0175419Y0136532D01*
X0175451Y0136478D01*
X0175480Y0136422D01*
X0175505Y0136364D01*
X0175526Y0136305D01*
X0175544Y0136245D01*
X0175557Y0136183D01*
X0175567Y0136121D01*
X0175573Y0136059D01*
X0175575Y0135996D01*
X0175573Y0135933D01*
X0175567Y0135871D01*
X0175557Y0135809D01*
X0175544Y0135747D01*
X0175526Y0135687D01*
X0175505Y0135628D01*
X0175480Y0135570D01*
X0175451Y0135514D01*
X0175419Y0135460D01*
X0175384Y0135408D01*
X0175346Y0135359D01*
X0175304Y0135311D01*
X0175260Y0135267D01*
X0175212Y0135225D01*
X0175163Y0135187D01*
X0175111Y0135152D01*
X0175057Y0135120D01*
X0175001Y0135091D01*
X0174943Y0135066D01*
X0174884Y0135045D01*
X0174824Y0135027D01*
X0174762Y0135014D01*
X0174700Y0135004D01*
X0174638Y0134998D01*
X0174575Y0134996D01*
X0174512Y0134998D01*
X0174450Y0135004D01*
X0174388Y0135014D01*
X0174326Y0135027D01*
X0174266Y0135045D01*
X0174207Y0135066D01*
X0174149Y0135091D01*
X0174093Y0135120D01*
X0174039Y0135152D01*
X0173987Y0135187D01*
X0173938Y0135225D01*
X0173890Y0135267D01*
X0173846Y0135311D01*
X0173804Y0135359D01*
X0173766Y0135408D01*
X0173731Y0135460D01*
X0173699Y0135514D01*
X0173670Y0135570D01*
X0173645Y0135628D01*
X0173624Y0135687D01*
X0173606Y0135747D01*
X0173593Y0135809D01*
X0173583Y0135871D01*
X0173577Y0135933D01*
X0173575Y0135996D01*
X0139752Y0077496D02*
X0139754Y0077559D01*
X0139760Y0077621D01*
X0139770Y0077683D01*
X0139783Y0077745D01*
X0139801Y0077805D01*
X0139822Y0077864D01*
X0139847Y0077922D01*
X0139876Y0077978D01*
X0139908Y0078032D01*
X0139943Y0078084D01*
X0139981Y0078133D01*
X0140023Y0078181D01*
X0140067Y0078225D01*
X0140115Y0078267D01*
X0140164Y0078305D01*
X0140216Y0078340D01*
X0140270Y0078372D01*
X0140326Y0078401D01*
X0140384Y0078426D01*
X0140443Y0078447D01*
X0140503Y0078465D01*
X0140565Y0078478D01*
X0140627Y0078488D01*
X0140689Y0078494D01*
X0140752Y0078496D01*
X0140815Y0078494D01*
X0140877Y0078488D01*
X0140939Y0078478D01*
X0141001Y0078465D01*
X0141061Y0078447D01*
X0141120Y0078426D01*
X0141178Y0078401D01*
X0141234Y0078372D01*
X0141288Y0078340D01*
X0141340Y0078305D01*
X0141389Y0078267D01*
X0141437Y0078225D01*
X0141481Y0078181D01*
X0141523Y0078133D01*
X0141561Y0078084D01*
X0141596Y0078032D01*
X0141628Y0077978D01*
X0141657Y0077922D01*
X0141682Y0077864D01*
X0141703Y0077805D01*
X0141721Y0077745D01*
X0141734Y0077683D01*
X0141744Y0077621D01*
X0141750Y0077559D01*
X0141752Y0077496D01*
X0141750Y0077433D01*
X0141744Y0077371D01*
X0141734Y0077309D01*
X0141721Y0077247D01*
X0141703Y0077187D01*
X0141682Y0077128D01*
X0141657Y0077070D01*
X0141628Y0077014D01*
X0141596Y0076960D01*
X0141561Y0076908D01*
X0141523Y0076859D01*
X0141481Y0076811D01*
X0141437Y0076767D01*
X0141389Y0076725D01*
X0141340Y0076687D01*
X0141288Y0076652D01*
X0141234Y0076620D01*
X0141178Y0076591D01*
X0141120Y0076566D01*
X0141061Y0076545D01*
X0141001Y0076527D01*
X0140939Y0076514D01*
X0140877Y0076504D01*
X0140815Y0076498D01*
X0140752Y0076496D01*
X0140689Y0076498D01*
X0140627Y0076504D01*
X0140565Y0076514D01*
X0140503Y0076527D01*
X0140443Y0076545D01*
X0140384Y0076566D01*
X0140326Y0076591D01*
X0140270Y0076620D01*
X0140216Y0076652D01*
X0140164Y0076687D01*
X0140115Y0076725D01*
X0140067Y0076767D01*
X0140023Y0076811D01*
X0139981Y0076859D01*
X0139943Y0076908D01*
X0139908Y0076960D01*
X0139876Y0077014D01*
X0139847Y0077070D01*
X0139822Y0077128D01*
X0139801Y0077187D01*
X0139783Y0077247D01*
X0139770Y0077309D01*
X0139760Y0077371D01*
X0139754Y0077433D01*
X0139752Y0077496D01*
X0165252Y0067098D02*
X0165254Y0067161D01*
X0165260Y0067223D01*
X0165270Y0067285D01*
X0165283Y0067347D01*
X0165301Y0067407D01*
X0165322Y0067466D01*
X0165347Y0067524D01*
X0165376Y0067580D01*
X0165408Y0067634D01*
X0165443Y0067686D01*
X0165481Y0067735D01*
X0165523Y0067783D01*
X0165567Y0067827D01*
X0165615Y0067869D01*
X0165664Y0067907D01*
X0165716Y0067942D01*
X0165770Y0067974D01*
X0165826Y0068003D01*
X0165884Y0068028D01*
X0165943Y0068049D01*
X0166003Y0068067D01*
X0166065Y0068080D01*
X0166127Y0068090D01*
X0166189Y0068096D01*
X0166252Y0068098D01*
X0166315Y0068096D01*
X0166377Y0068090D01*
X0166439Y0068080D01*
X0166501Y0068067D01*
X0166561Y0068049D01*
X0166620Y0068028D01*
X0166678Y0068003D01*
X0166734Y0067974D01*
X0166788Y0067942D01*
X0166840Y0067907D01*
X0166889Y0067869D01*
X0166937Y0067827D01*
X0166981Y0067783D01*
X0167023Y0067735D01*
X0167061Y0067686D01*
X0167096Y0067634D01*
X0167128Y0067580D01*
X0167157Y0067524D01*
X0167182Y0067466D01*
X0167203Y0067407D01*
X0167221Y0067347D01*
X0167234Y0067285D01*
X0167244Y0067223D01*
X0167250Y0067161D01*
X0167252Y0067098D01*
X0167250Y0067035D01*
X0167244Y0066973D01*
X0167234Y0066911D01*
X0167221Y0066849D01*
X0167203Y0066789D01*
X0167182Y0066730D01*
X0167157Y0066672D01*
X0167128Y0066616D01*
X0167096Y0066562D01*
X0167061Y0066510D01*
X0167023Y0066461D01*
X0166981Y0066413D01*
X0166937Y0066369D01*
X0166889Y0066327D01*
X0166840Y0066289D01*
X0166788Y0066254D01*
X0166734Y0066222D01*
X0166678Y0066193D01*
X0166620Y0066168D01*
X0166561Y0066147D01*
X0166501Y0066129D01*
X0166439Y0066116D01*
X0166377Y0066106D01*
X0166315Y0066100D01*
X0166252Y0066098D01*
X0166189Y0066100D01*
X0166127Y0066106D01*
X0166065Y0066116D01*
X0166003Y0066129D01*
X0165943Y0066147D01*
X0165884Y0066168D01*
X0165826Y0066193D01*
X0165770Y0066222D01*
X0165716Y0066254D01*
X0165664Y0066289D01*
X0165615Y0066327D01*
X0165567Y0066369D01*
X0165523Y0066413D01*
X0165481Y0066461D01*
X0165443Y0066510D01*
X0165408Y0066562D01*
X0165376Y0066616D01*
X0165347Y0066672D01*
X0165322Y0066730D01*
X0165301Y0066789D01*
X0165283Y0066849D01*
X0165270Y0066911D01*
X0165260Y0066973D01*
X0165254Y0067035D01*
X0165252Y0067098D01*
X0173575Y0067098D02*
X0173577Y0067161D01*
X0173583Y0067223D01*
X0173593Y0067285D01*
X0173606Y0067347D01*
X0173624Y0067407D01*
X0173645Y0067466D01*
X0173670Y0067524D01*
X0173699Y0067580D01*
X0173731Y0067634D01*
X0173766Y0067686D01*
X0173804Y0067735D01*
X0173846Y0067783D01*
X0173890Y0067827D01*
X0173938Y0067869D01*
X0173987Y0067907D01*
X0174039Y0067942D01*
X0174093Y0067974D01*
X0174149Y0068003D01*
X0174207Y0068028D01*
X0174266Y0068049D01*
X0174326Y0068067D01*
X0174388Y0068080D01*
X0174450Y0068090D01*
X0174512Y0068096D01*
X0174575Y0068098D01*
X0174638Y0068096D01*
X0174700Y0068090D01*
X0174762Y0068080D01*
X0174824Y0068067D01*
X0174884Y0068049D01*
X0174943Y0068028D01*
X0175001Y0068003D01*
X0175057Y0067974D01*
X0175111Y0067942D01*
X0175163Y0067907D01*
X0175212Y0067869D01*
X0175260Y0067827D01*
X0175304Y0067783D01*
X0175346Y0067735D01*
X0175384Y0067686D01*
X0175419Y0067634D01*
X0175451Y0067580D01*
X0175480Y0067524D01*
X0175505Y0067466D01*
X0175526Y0067407D01*
X0175544Y0067347D01*
X0175557Y0067285D01*
X0175567Y0067223D01*
X0175573Y0067161D01*
X0175575Y0067098D01*
X0175573Y0067035D01*
X0175567Y0066973D01*
X0175557Y0066911D01*
X0175544Y0066849D01*
X0175526Y0066789D01*
X0175505Y0066730D01*
X0175480Y0066672D01*
X0175451Y0066616D01*
X0175419Y0066562D01*
X0175384Y0066510D01*
X0175346Y0066461D01*
X0175304Y0066413D01*
X0175260Y0066369D01*
X0175212Y0066327D01*
X0175163Y0066289D01*
X0175111Y0066254D01*
X0175057Y0066222D01*
X0175001Y0066193D01*
X0174943Y0066168D01*
X0174884Y0066147D01*
X0174824Y0066129D01*
X0174762Y0066116D01*
X0174700Y0066106D01*
X0174638Y0066100D01*
X0174575Y0066098D01*
X0174512Y0066100D01*
X0174450Y0066106D01*
X0174388Y0066116D01*
X0174326Y0066129D01*
X0174266Y0066147D01*
X0174207Y0066168D01*
X0174149Y0066193D01*
X0174093Y0066222D01*
X0174039Y0066254D01*
X0173987Y0066289D01*
X0173938Y0066327D01*
X0173890Y0066369D01*
X0173846Y0066413D01*
X0173804Y0066461D01*
X0173766Y0066510D01*
X0173731Y0066562D01*
X0173699Y0066616D01*
X0173670Y0066672D01*
X0173645Y0066730D01*
X0173624Y0066789D01*
X0173606Y0066849D01*
X0173593Y0066911D01*
X0173583Y0066973D01*
X0173577Y0067035D01*
X0173575Y0067098D01*
X0139752Y0008598D02*
X0139754Y0008661D01*
X0139760Y0008723D01*
X0139770Y0008785D01*
X0139783Y0008847D01*
X0139801Y0008907D01*
X0139822Y0008966D01*
X0139847Y0009024D01*
X0139876Y0009080D01*
X0139908Y0009134D01*
X0139943Y0009186D01*
X0139981Y0009235D01*
X0140023Y0009283D01*
X0140067Y0009327D01*
X0140115Y0009369D01*
X0140164Y0009407D01*
X0140216Y0009442D01*
X0140270Y0009474D01*
X0140326Y0009503D01*
X0140384Y0009528D01*
X0140443Y0009549D01*
X0140503Y0009567D01*
X0140565Y0009580D01*
X0140627Y0009590D01*
X0140689Y0009596D01*
X0140752Y0009598D01*
X0140815Y0009596D01*
X0140877Y0009590D01*
X0140939Y0009580D01*
X0141001Y0009567D01*
X0141061Y0009549D01*
X0141120Y0009528D01*
X0141178Y0009503D01*
X0141234Y0009474D01*
X0141288Y0009442D01*
X0141340Y0009407D01*
X0141389Y0009369D01*
X0141437Y0009327D01*
X0141481Y0009283D01*
X0141523Y0009235D01*
X0141561Y0009186D01*
X0141596Y0009134D01*
X0141628Y0009080D01*
X0141657Y0009024D01*
X0141682Y0008966D01*
X0141703Y0008907D01*
X0141721Y0008847D01*
X0141734Y0008785D01*
X0141744Y0008723D01*
X0141750Y0008661D01*
X0141752Y0008598D01*
X0141750Y0008535D01*
X0141744Y0008473D01*
X0141734Y0008411D01*
X0141721Y0008349D01*
X0141703Y0008289D01*
X0141682Y0008230D01*
X0141657Y0008172D01*
X0141628Y0008116D01*
X0141596Y0008062D01*
X0141561Y0008010D01*
X0141523Y0007961D01*
X0141481Y0007913D01*
X0141437Y0007869D01*
X0141389Y0007827D01*
X0141340Y0007789D01*
X0141288Y0007754D01*
X0141234Y0007722D01*
X0141178Y0007693D01*
X0141120Y0007668D01*
X0141061Y0007647D01*
X0141001Y0007629D01*
X0140939Y0007616D01*
X0140877Y0007606D01*
X0140815Y0007600D01*
X0140752Y0007598D01*
X0140689Y0007600D01*
X0140627Y0007606D01*
X0140565Y0007616D01*
X0140503Y0007629D01*
X0140443Y0007647D01*
X0140384Y0007668D01*
X0140326Y0007693D01*
X0140270Y0007722D01*
X0140216Y0007754D01*
X0140164Y0007789D01*
X0140115Y0007827D01*
X0140067Y0007869D01*
X0140023Y0007913D01*
X0139981Y0007961D01*
X0139943Y0008010D01*
X0139908Y0008062D01*
X0139876Y0008116D01*
X0139847Y0008172D01*
X0139822Y0008230D01*
X0139801Y0008289D01*
X0139783Y0008349D01*
X0139770Y0008411D01*
X0139760Y0008473D01*
X0139754Y0008535D01*
X0139752Y0008598D01*
X0307075Y0008598D02*
X0307077Y0008661D01*
X0307083Y0008723D01*
X0307093Y0008785D01*
X0307106Y0008847D01*
X0307124Y0008907D01*
X0307145Y0008966D01*
X0307170Y0009024D01*
X0307199Y0009080D01*
X0307231Y0009134D01*
X0307266Y0009186D01*
X0307304Y0009235D01*
X0307346Y0009283D01*
X0307390Y0009327D01*
X0307438Y0009369D01*
X0307487Y0009407D01*
X0307539Y0009442D01*
X0307593Y0009474D01*
X0307649Y0009503D01*
X0307707Y0009528D01*
X0307766Y0009549D01*
X0307826Y0009567D01*
X0307888Y0009580D01*
X0307950Y0009590D01*
X0308012Y0009596D01*
X0308075Y0009598D01*
X0308138Y0009596D01*
X0308200Y0009590D01*
X0308262Y0009580D01*
X0308324Y0009567D01*
X0308384Y0009549D01*
X0308443Y0009528D01*
X0308501Y0009503D01*
X0308557Y0009474D01*
X0308611Y0009442D01*
X0308663Y0009407D01*
X0308712Y0009369D01*
X0308760Y0009327D01*
X0308804Y0009283D01*
X0308846Y0009235D01*
X0308884Y0009186D01*
X0308919Y0009134D01*
X0308951Y0009080D01*
X0308980Y0009024D01*
X0309005Y0008966D01*
X0309026Y0008907D01*
X0309044Y0008847D01*
X0309057Y0008785D01*
X0309067Y0008723D01*
X0309073Y0008661D01*
X0309075Y0008598D01*
X0309073Y0008535D01*
X0309067Y0008473D01*
X0309057Y0008411D01*
X0309044Y0008349D01*
X0309026Y0008289D01*
X0309005Y0008230D01*
X0308980Y0008172D01*
X0308951Y0008116D01*
X0308919Y0008062D01*
X0308884Y0008010D01*
X0308846Y0007961D01*
X0308804Y0007913D01*
X0308760Y0007869D01*
X0308712Y0007827D01*
X0308663Y0007789D01*
X0308611Y0007754D01*
X0308557Y0007722D01*
X0308501Y0007693D01*
X0308443Y0007668D01*
X0308384Y0007647D01*
X0308324Y0007629D01*
X0308262Y0007616D01*
X0308200Y0007606D01*
X0308138Y0007600D01*
X0308075Y0007598D01*
X0308012Y0007600D01*
X0307950Y0007606D01*
X0307888Y0007616D01*
X0307826Y0007629D01*
X0307766Y0007647D01*
X0307707Y0007668D01*
X0307649Y0007693D01*
X0307593Y0007722D01*
X0307539Y0007754D01*
X0307487Y0007789D01*
X0307438Y0007827D01*
X0307390Y0007869D01*
X0307346Y0007913D01*
X0307304Y0007961D01*
X0307266Y0008010D01*
X0307231Y0008062D01*
X0307199Y0008116D01*
X0307170Y0008172D01*
X0307145Y0008230D01*
X0307124Y0008289D01*
X0307106Y0008349D01*
X0307093Y0008411D01*
X0307083Y0008473D01*
X0307077Y0008535D01*
X0307075Y0008598D01*
X0332575Y0067098D02*
X0332577Y0067161D01*
X0332583Y0067223D01*
X0332593Y0067285D01*
X0332606Y0067347D01*
X0332624Y0067407D01*
X0332645Y0067466D01*
X0332670Y0067524D01*
X0332699Y0067580D01*
X0332731Y0067634D01*
X0332766Y0067686D01*
X0332804Y0067735D01*
X0332846Y0067783D01*
X0332890Y0067827D01*
X0332938Y0067869D01*
X0332987Y0067907D01*
X0333039Y0067942D01*
X0333093Y0067974D01*
X0333149Y0068003D01*
X0333207Y0068028D01*
X0333266Y0068049D01*
X0333326Y0068067D01*
X0333388Y0068080D01*
X0333450Y0068090D01*
X0333512Y0068096D01*
X0333575Y0068098D01*
X0333638Y0068096D01*
X0333700Y0068090D01*
X0333762Y0068080D01*
X0333824Y0068067D01*
X0333884Y0068049D01*
X0333943Y0068028D01*
X0334001Y0068003D01*
X0334057Y0067974D01*
X0334111Y0067942D01*
X0334163Y0067907D01*
X0334212Y0067869D01*
X0334260Y0067827D01*
X0334304Y0067783D01*
X0334346Y0067735D01*
X0334384Y0067686D01*
X0334419Y0067634D01*
X0334451Y0067580D01*
X0334480Y0067524D01*
X0334505Y0067466D01*
X0334526Y0067407D01*
X0334544Y0067347D01*
X0334557Y0067285D01*
X0334567Y0067223D01*
X0334573Y0067161D01*
X0334575Y0067098D01*
X0334573Y0067035D01*
X0334567Y0066973D01*
X0334557Y0066911D01*
X0334544Y0066849D01*
X0334526Y0066789D01*
X0334505Y0066730D01*
X0334480Y0066672D01*
X0334451Y0066616D01*
X0334419Y0066562D01*
X0334384Y0066510D01*
X0334346Y0066461D01*
X0334304Y0066413D01*
X0334260Y0066369D01*
X0334212Y0066327D01*
X0334163Y0066289D01*
X0334111Y0066254D01*
X0334057Y0066222D01*
X0334001Y0066193D01*
X0333943Y0066168D01*
X0333884Y0066147D01*
X0333824Y0066129D01*
X0333762Y0066116D01*
X0333700Y0066106D01*
X0333638Y0066100D01*
X0333575Y0066098D01*
X0333512Y0066100D01*
X0333450Y0066106D01*
X0333388Y0066116D01*
X0333326Y0066129D01*
X0333266Y0066147D01*
X0333207Y0066168D01*
X0333149Y0066193D01*
X0333093Y0066222D01*
X0333039Y0066254D01*
X0332987Y0066289D01*
X0332938Y0066327D01*
X0332890Y0066369D01*
X0332846Y0066413D01*
X0332804Y0066461D01*
X0332766Y0066510D01*
X0332731Y0066562D01*
X0332699Y0066616D01*
X0332670Y0066672D01*
X0332645Y0066730D01*
X0332624Y0066789D01*
X0332606Y0066849D01*
X0332593Y0066911D01*
X0332583Y0066973D01*
X0332577Y0067035D01*
X0332575Y0067098D01*
X0307075Y0077496D02*
X0307077Y0077559D01*
X0307083Y0077621D01*
X0307093Y0077683D01*
X0307106Y0077745D01*
X0307124Y0077805D01*
X0307145Y0077864D01*
X0307170Y0077922D01*
X0307199Y0077978D01*
X0307231Y0078032D01*
X0307266Y0078084D01*
X0307304Y0078133D01*
X0307346Y0078181D01*
X0307390Y0078225D01*
X0307438Y0078267D01*
X0307487Y0078305D01*
X0307539Y0078340D01*
X0307593Y0078372D01*
X0307649Y0078401D01*
X0307707Y0078426D01*
X0307766Y0078447D01*
X0307826Y0078465D01*
X0307888Y0078478D01*
X0307950Y0078488D01*
X0308012Y0078494D01*
X0308075Y0078496D01*
X0308138Y0078494D01*
X0308200Y0078488D01*
X0308262Y0078478D01*
X0308324Y0078465D01*
X0308384Y0078447D01*
X0308443Y0078426D01*
X0308501Y0078401D01*
X0308557Y0078372D01*
X0308611Y0078340D01*
X0308663Y0078305D01*
X0308712Y0078267D01*
X0308760Y0078225D01*
X0308804Y0078181D01*
X0308846Y0078133D01*
X0308884Y0078084D01*
X0308919Y0078032D01*
X0308951Y0077978D01*
X0308980Y0077922D01*
X0309005Y0077864D01*
X0309026Y0077805D01*
X0309044Y0077745D01*
X0309057Y0077683D01*
X0309067Y0077621D01*
X0309073Y0077559D01*
X0309075Y0077496D01*
X0309073Y0077433D01*
X0309067Y0077371D01*
X0309057Y0077309D01*
X0309044Y0077247D01*
X0309026Y0077187D01*
X0309005Y0077128D01*
X0308980Y0077070D01*
X0308951Y0077014D01*
X0308919Y0076960D01*
X0308884Y0076908D01*
X0308846Y0076859D01*
X0308804Y0076811D01*
X0308760Y0076767D01*
X0308712Y0076725D01*
X0308663Y0076687D01*
X0308611Y0076652D01*
X0308557Y0076620D01*
X0308501Y0076591D01*
X0308443Y0076566D01*
X0308384Y0076545D01*
X0308324Y0076527D01*
X0308262Y0076514D01*
X0308200Y0076504D01*
X0308138Y0076498D01*
X0308075Y0076496D01*
X0308012Y0076498D01*
X0307950Y0076504D01*
X0307888Y0076514D01*
X0307826Y0076527D01*
X0307766Y0076545D01*
X0307707Y0076566D01*
X0307649Y0076591D01*
X0307593Y0076620D01*
X0307539Y0076652D01*
X0307487Y0076687D01*
X0307438Y0076725D01*
X0307390Y0076767D01*
X0307346Y0076811D01*
X0307304Y0076859D01*
X0307266Y0076908D01*
X0307231Y0076960D01*
X0307199Y0077014D01*
X0307170Y0077070D01*
X0307145Y0077128D01*
X0307124Y0077187D01*
X0307106Y0077247D01*
X0307093Y0077309D01*
X0307083Y0077371D01*
X0307077Y0077433D01*
X0307075Y0077496D01*
X0332575Y0135996D02*
X0332577Y0136059D01*
X0332583Y0136121D01*
X0332593Y0136183D01*
X0332606Y0136245D01*
X0332624Y0136305D01*
X0332645Y0136364D01*
X0332670Y0136422D01*
X0332699Y0136478D01*
X0332731Y0136532D01*
X0332766Y0136584D01*
X0332804Y0136633D01*
X0332846Y0136681D01*
X0332890Y0136725D01*
X0332938Y0136767D01*
X0332987Y0136805D01*
X0333039Y0136840D01*
X0333093Y0136872D01*
X0333149Y0136901D01*
X0333207Y0136926D01*
X0333266Y0136947D01*
X0333326Y0136965D01*
X0333388Y0136978D01*
X0333450Y0136988D01*
X0333512Y0136994D01*
X0333575Y0136996D01*
X0333638Y0136994D01*
X0333700Y0136988D01*
X0333762Y0136978D01*
X0333824Y0136965D01*
X0333884Y0136947D01*
X0333943Y0136926D01*
X0334001Y0136901D01*
X0334057Y0136872D01*
X0334111Y0136840D01*
X0334163Y0136805D01*
X0334212Y0136767D01*
X0334260Y0136725D01*
X0334304Y0136681D01*
X0334346Y0136633D01*
X0334384Y0136584D01*
X0334419Y0136532D01*
X0334451Y0136478D01*
X0334480Y0136422D01*
X0334505Y0136364D01*
X0334526Y0136305D01*
X0334544Y0136245D01*
X0334557Y0136183D01*
X0334567Y0136121D01*
X0334573Y0136059D01*
X0334575Y0135996D01*
X0334573Y0135933D01*
X0334567Y0135871D01*
X0334557Y0135809D01*
X0334544Y0135747D01*
X0334526Y0135687D01*
X0334505Y0135628D01*
X0334480Y0135570D01*
X0334451Y0135514D01*
X0334419Y0135460D01*
X0334384Y0135408D01*
X0334346Y0135359D01*
X0334304Y0135311D01*
X0334260Y0135267D01*
X0334212Y0135225D01*
X0334163Y0135187D01*
X0334111Y0135152D01*
X0334057Y0135120D01*
X0334001Y0135091D01*
X0333943Y0135066D01*
X0333884Y0135045D01*
X0333824Y0135027D01*
X0333762Y0135014D01*
X0333700Y0135004D01*
X0333638Y0134998D01*
X0333575Y0134996D01*
X0333512Y0134998D01*
X0333450Y0135004D01*
X0333388Y0135014D01*
X0333326Y0135027D01*
X0333266Y0135045D01*
X0333207Y0135066D01*
X0333149Y0135091D01*
X0333093Y0135120D01*
X0333039Y0135152D01*
X0332987Y0135187D01*
X0332938Y0135225D01*
X0332890Y0135267D01*
X0332846Y0135311D01*
X0332804Y0135359D01*
X0332766Y0135408D01*
X0332731Y0135460D01*
X0332699Y0135514D01*
X0332670Y0135570D01*
X0332645Y0135628D01*
X0332624Y0135687D01*
X0332606Y0135747D01*
X0332593Y0135809D01*
X0332583Y0135871D01*
X0332577Y0135933D01*
X0332575Y0135996D01*
X0307075Y0146394D02*
X0307077Y0146457D01*
X0307083Y0146519D01*
X0307093Y0146581D01*
X0307106Y0146643D01*
X0307124Y0146703D01*
X0307145Y0146762D01*
X0307170Y0146820D01*
X0307199Y0146876D01*
X0307231Y0146930D01*
X0307266Y0146982D01*
X0307304Y0147031D01*
X0307346Y0147079D01*
X0307390Y0147123D01*
X0307438Y0147165D01*
X0307487Y0147203D01*
X0307539Y0147238D01*
X0307593Y0147270D01*
X0307649Y0147299D01*
X0307707Y0147324D01*
X0307766Y0147345D01*
X0307826Y0147363D01*
X0307888Y0147376D01*
X0307950Y0147386D01*
X0308012Y0147392D01*
X0308075Y0147394D01*
X0308138Y0147392D01*
X0308200Y0147386D01*
X0308262Y0147376D01*
X0308324Y0147363D01*
X0308384Y0147345D01*
X0308443Y0147324D01*
X0308501Y0147299D01*
X0308557Y0147270D01*
X0308611Y0147238D01*
X0308663Y0147203D01*
X0308712Y0147165D01*
X0308760Y0147123D01*
X0308804Y0147079D01*
X0308846Y0147031D01*
X0308884Y0146982D01*
X0308919Y0146930D01*
X0308951Y0146876D01*
X0308980Y0146820D01*
X0309005Y0146762D01*
X0309026Y0146703D01*
X0309044Y0146643D01*
X0309057Y0146581D01*
X0309067Y0146519D01*
X0309073Y0146457D01*
X0309075Y0146394D01*
X0309073Y0146331D01*
X0309067Y0146269D01*
X0309057Y0146207D01*
X0309044Y0146145D01*
X0309026Y0146085D01*
X0309005Y0146026D01*
X0308980Y0145968D01*
X0308951Y0145912D01*
X0308919Y0145858D01*
X0308884Y0145806D01*
X0308846Y0145757D01*
X0308804Y0145709D01*
X0308760Y0145665D01*
X0308712Y0145623D01*
X0308663Y0145585D01*
X0308611Y0145550D01*
X0308557Y0145518D01*
X0308501Y0145489D01*
X0308443Y0145464D01*
X0308384Y0145443D01*
X0308324Y0145425D01*
X0308262Y0145412D01*
X0308200Y0145402D01*
X0308138Y0145396D01*
X0308075Y0145394D01*
X0308012Y0145396D01*
X0307950Y0145402D01*
X0307888Y0145412D01*
X0307826Y0145425D01*
X0307766Y0145443D01*
X0307707Y0145464D01*
X0307649Y0145489D01*
X0307593Y0145518D01*
X0307539Y0145550D01*
X0307487Y0145585D01*
X0307438Y0145623D01*
X0307390Y0145665D01*
X0307346Y0145709D01*
X0307304Y0145757D01*
X0307266Y0145806D01*
X0307231Y0145858D01*
X0307199Y0145912D01*
X0307170Y0145968D01*
X0307145Y0146026D01*
X0307124Y0146085D01*
X0307106Y0146145D01*
X0307093Y0146207D01*
X0307083Y0146269D01*
X0307077Y0146331D01*
X0307075Y0146394D01*
X0332575Y0204894D02*
X0332577Y0204957D01*
X0332583Y0205019D01*
X0332593Y0205081D01*
X0332606Y0205143D01*
X0332624Y0205203D01*
X0332645Y0205262D01*
X0332670Y0205320D01*
X0332699Y0205376D01*
X0332731Y0205430D01*
X0332766Y0205482D01*
X0332804Y0205531D01*
X0332846Y0205579D01*
X0332890Y0205623D01*
X0332938Y0205665D01*
X0332987Y0205703D01*
X0333039Y0205738D01*
X0333093Y0205770D01*
X0333149Y0205799D01*
X0333207Y0205824D01*
X0333266Y0205845D01*
X0333326Y0205863D01*
X0333388Y0205876D01*
X0333450Y0205886D01*
X0333512Y0205892D01*
X0333575Y0205894D01*
X0333638Y0205892D01*
X0333700Y0205886D01*
X0333762Y0205876D01*
X0333824Y0205863D01*
X0333884Y0205845D01*
X0333943Y0205824D01*
X0334001Y0205799D01*
X0334057Y0205770D01*
X0334111Y0205738D01*
X0334163Y0205703D01*
X0334212Y0205665D01*
X0334260Y0205623D01*
X0334304Y0205579D01*
X0334346Y0205531D01*
X0334384Y0205482D01*
X0334419Y0205430D01*
X0334451Y0205376D01*
X0334480Y0205320D01*
X0334505Y0205262D01*
X0334526Y0205203D01*
X0334544Y0205143D01*
X0334557Y0205081D01*
X0334567Y0205019D01*
X0334573Y0204957D01*
X0334575Y0204894D01*
X0334573Y0204831D01*
X0334567Y0204769D01*
X0334557Y0204707D01*
X0334544Y0204645D01*
X0334526Y0204585D01*
X0334505Y0204526D01*
X0334480Y0204468D01*
X0334451Y0204412D01*
X0334419Y0204358D01*
X0334384Y0204306D01*
X0334346Y0204257D01*
X0334304Y0204209D01*
X0334260Y0204165D01*
X0334212Y0204123D01*
X0334163Y0204085D01*
X0334111Y0204050D01*
X0334057Y0204018D01*
X0334001Y0203989D01*
X0333943Y0203964D01*
X0333884Y0203943D01*
X0333824Y0203925D01*
X0333762Y0203912D01*
X0333700Y0203902D01*
X0333638Y0203896D01*
X0333575Y0203894D01*
X0333512Y0203896D01*
X0333450Y0203902D01*
X0333388Y0203912D01*
X0333326Y0203925D01*
X0333266Y0203943D01*
X0333207Y0203964D01*
X0333149Y0203989D01*
X0333093Y0204018D01*
X0333039Y0204050D01*
X0332987Y0204085D01*
X0332938Y0204123D01*
X0332890Y0204165D01*
X0332846Y0204209D01*
X0332804Y0204257D01*
X0332766Y0204306D01*
X0332731Y0204358D01*
X0332699Y0204412D01*
X0332670Y0204468D01*
X0332645Y0204526D01*
X0332624Y0204585D01*
X0332606Y0204645D01*
X0332593Y0204707D01*
X0332583Y0204769D01*
X0332577Y0204831D01*
X0332575Y0204894D01*
X0327677Y0283583D02*
X0327679Y0283646D01*
X0327685Y0283708D01*
X0327695Y0283770D01*
X0327708Y0283832D01*
X0327726Y0283892D01*
X0327747Y0283951D01*
X0327772Y0284009D01*
X0327801Y0284065D01*
X0327833Y0284119D01*
X0327868Y0284171D01*
X0327906Y0284220D01*
X0327948Y0284268D01*
X0327992Y0284312D01*
X0328040Y0284354D01*
X0328089Y0284392D01*
X0328141Y0284427D01*
X0328195Y0284459D01*
X0328251Y0284488D01*
X0328309Y0284513D01*
X0328368Y0284534D01*
X0328428Y0284552D01*
X0328490Y0284565D01*
X0328552Y0284575D01*
X0328614Y0284581D01*
X0328677Y0284583D01*
X0328740Y0284581D01*
X0328802Y0284575D01*
X0328864Y0284565D01*
X0328926Y0284552D01*
X0328986Y0284534D01*
X0329045Y0284513D01*
X0329103Y0284488D01*
X0329159Y0284459D01*
X0329213Y0284427D01*
X0329265Y0284392D01*
X0329314Y0284354D01*
X0329362Y0284312D01*
X0329406Y0284268D01*
X0329448Y0284220D01*
X0329486Y0284171D01*
X0329521Y0284119D01*
X0329553Y0284065D01*
X0329582Y0284009D01*
X0329607Y0283951D01*
X0329628Y0283892D01*
X0329646Y0283832D01*
X0329659Y0283770D01*
X0329669Y0283708D01*
X0329675Y0283646D01*
X0329677Y0283583D01*
X0329675Y0283520D01*
X0329669Y0283458D01*
X0329659Y0283396D01*
X0329646Y0283334D01*
X0329628Y0283274D01*
X0329607Y0283215D01*
X0329582Y0283157D01*
X0329553Y0283101D01*
X0329521Y0283047D01*
X0329486Y0282995D01*
X0329448Y0282946D01*
X0329406Y0282898D01*
X0329362Y0282854D01*
X0329314Y0282812D01*
X0329265Y0282774D01*
X0329213Y0282739D01*
X0329159Y0282707D01*
X0329103Y0282678D01*
X0329045Y0282653D01*
X0328986Y0282632D01*
X0328926Y0282614D01*
X0328864Y0282601D01*
X0328802Y0282591D01*
X0328740Y0282585D01*
X0328677Y0282583D01*
X0328614Y0282585D01*
X0328552Y0282591D01*
X0328490Y0282601D01*
X0328428Y0282614D01*
X0328368Y0282632D01*
X0328309Y0282653D01*
X0328251Y0282678D01*
X0328195Y0282707D01*
X0328141Y0282739D01*
X0328089Y0282774D01*
X0328040Y0282812D01*
X0327992Y0282854D01*
X0327948Y0282898D01*
X0327906Y0282946D01*
X0327868Y0282995D01*
X0327833Y0283047D01*
X0327801Y0283101D01*
X0327772Y0283157D01*
X0327747Y0283215D01*
X0327726Y0283274D01*
X0327708Y0283334D01*
X0327695Y0283396D01*
X0327685Y0283458D01*
X0327679Y0283520D01*
X0327677Y0283583D01*
X0238677Y0244083D02*
X0238679Y0244146D01*
X0238685Y0244208D01*
X0238695Y0244270D01*
X0238708Y0244332D01*
X0238726Y0244392D01*
X0238747Y0244451D01*
X0238772Y0244509D01*
X0238801Y0244565D01*
X0238833Y0244619D01*
X0238868Y0244671D01*
X0238906Y0244720D01*
X0238948Y0244768D01*
X0238992Y0244812D01*
X0239040Y0244854D01*
X0239089Y0244892D01*
X0239141Y0244927D01*
X0239195Y0244959D01*
X0239251Y0244988D01*
X0239309Y0245013D01*
X0239368Y0245034D01*
X0239428Y0245052D01*
X0239490Y0245065D01*
X0239552Y0245075D01*
X0239614Y0245081D01*
X0239677Y0245083D01*
X0239740Y0245081D01*
X0239802Y0245075D01*
X0239864Y0245065D01*
X0239926Y0245052D01*
X0239986Y0245034D01*
X0240045Y0245013D01*
X0240103Y0244988D01*
X0240159Y0244959D01*
X0240213Y0244927D01*
X0240265Y0244892D01*
X0240314Y0244854D01*
X0240362Y0244812D01*
X0240406Y0244768D01*
X0240448Y0244720D01*
X0240486Y0244671D01*
X0240521Y0244619D01*
X0240553Y0244565D01*
X0240582Y0244509D01*
X0240607Y0244451D01*
X0240628Y0244392D01*
X0240646Y0244332D01*
X0240659Y0244270D01*
X0240669Y0244208D01*
X0240675Y0244146D01*
X0240677Y0244083D01*
X0240675Y0244020D01*
X0240669Y0243958D01*
X0240659Y0243896D01*
X0240646Y0243834D01*
X0240628Y0243774D01*
X0240607Y0243715D01*
X0240582Y0243657D01*
X0240553Y0243601D01*
X0240521Y0243547D01*
X0240486Y0243495D01*
X0240448Y0243446D01*
X0240406Y0243398D01*
X0240362Y0243354D01*
X0240314Y0243312D01*
X0240265Y0243274D01*
X0240213Y0243239D01*
X0240159Y0243207D01*
X0240103Y0243178D01*
X0240045Y0243153D01*
X0239986Y0243132D01*
X0239926Y0243114D01*
X0239864Y0243101D01*
X0239802Y0243091D01*
X0239740Y0243085D01*
X0239677Y0243083D01*
X0239614Y0243085D01*
X0239552Y0243091D01*
X0239490Y0243101D01*
X0239428Y0243114D01*
X0239368Y0243132D01*
X0239309Y0243153D01*
X0239251Y0243178D01*
X0239195Y0243207D01*
X0239141Y0243239D01*
X0239089Y0243274D01*
X0239040Y0243312D01*
X0238992Y0243354D01*
X0238948Y0243398D01*
X0238906Y0243446D01*
X0238868Y0243495D01*
X0238833Y0243547D01*
X0238801Y0243601D01*
X0238772Y0243657D01*
X0238747Y0243715D01*
X0238726Y0243774D01*
X0238708Y0243834D01*
X0238695Y0243896D01*
X0238685Y0243958D01*
X0238679Y0244020D01*
X0238677Y0244083D01*
X0230177Y0284083D02*
X0230179Y0284146D01*
X0230185Y0284208D01*
X0230195Y0284270D01*
X0230208Y0284332D01*
X0230226Y0284392D01*
X0230247Y0284451D01*
X0230272Y0284509D01*
X0230301Y0284565D01*
X0230333Y0284619D01*
X0230368Y0284671D01*
X0230406Y0284720D01*
X0230448Y0284768D01*
X0230492Y0284812D01*
X0230540Y0284854D01*
X0230589Y0284892D01*
X0230641Y0284927D01*
X0230695Y0284959D01*
X0230751Y0284988D01*
X0230809Y0285013D01*
X0230868Y0285034D01*
X0230928Y0285052D01*
X0230990Y0285065D01*
X0231052Y0285075D01*
X0231114Y0285081D01*
X0231177Y0285083D01*
X0231240Y0285081D01*
X0231302Y0285075D01*
X0231364Y0285065D01*
X0231426Y0285052D01*
X0231486Y0285034D01*
X0231545Y0285013D01*
X0231603Y0284988D01*
X0231659Y0284959D01*
X0231713Y0284927D01*
X0231765Y0284892D01*
X0231814Y0284854D01*
X0231862Y0284812D01*
X0231906Y0284768D01*
X0231948Y0284720D01*
X0231986Y0284671D01*
X0232021Y0284619D01*
X0232053Y0284565D01*
X0232082Y0284509D01*
X0232107Y0284451D01*
X0232128Y0284392D01*
X0232146Y0284332D01*
X0232159Y0284270D01*
X0232169Y0284208D01*
X0232175Y0284146D01*
X0232177Y0284083D01*
X0232175Y0284020D01*
X0232169Y0283958D01*
X0232159Y0283896D01*
X0232146Y0283834D01*
X0232128Y0283774D01*
X0232107Y0283715D01*
X0232082Y0283657D01*
X0232053Y0283601D01*
X0232021Y0283547D01*
X0231986Y0283495D01*
X0231948Y0283446D01*
X0231906Y0283398D01*
X0231862Y0283354D01*
X0231814Y0283312D01*
X0231765Y0283274D01*
X0231713Y0283239D01*
X0231659Y0283207D01*
X0231603Y0283178D01*
X0231545Y0283153D01*
X0231486Y0283132D01*
X0231426Y0283114D01*
X0231364Y0283101D01*
X0231302Y0283091D01*
X0231240Y0283085D01*
X0231177Y0283083D01*
X0231114Y0283085D01*
X0231052Y0283091D01*
X0230990Y0283101D01*
X0230928Y0283114D01*
X0230868Y0283132D01*
X0230809Y0283153D01*
X0230751Y0283178D01*
X0230695Y0283207D01*
X0230641Y0283239D01*
X0230589Y0283274D01*
X0230540Y0283312D01*
X0230492Y0283354D01*
X0230448Y0283398D01*
X0230406Y0283446D01*
X0230368Y0283495D01*
X0230333Y0283547D01*
X0230301Y0283601D01*
X0230272Y0283657D01*
X0230247Y0283715D01*
X0230226Y0283774D01*
X0230208Y0283834D01*
X0230195Y0283896D01*
X0230185Y0283958D01*
X0230179Y0284020D01*
X0230177Y0284083D01*
X0221378Y0283583D02*
X0221380Y0283646D01*
X0221386Y0283708D01*
X0221396Y0283770D01*
X0221409Y0283832D01*
X0221427Y0283892D01*
X0221448Y0283951D01*
X0221473Y0284009D01*
X0221502Y0284065D01*
X0221534Y0284119D01*
X0221569Y0284171D01*
X0221607Y0284220D01*
X0221649Y0284268D01*
X0221693Y0284312D01*
X0221741Y0284354D01*
X0221790Y0284392D01*
X0221842Y0284427D01*
X0221896Y0284459D01*
X0221952Y0284488D01*
X0222010Y0284513D01*
X0222069Y0284534D01*
X0222129Y0284552D01*
X0222191Y0284565D01*
X0222253Y0284575D01*
X0222315Y0284581D01*
X0222378Y0284583D01*
X0222441Y0284581D01*
X0222503Y0284575D01*
X0222565Y0284565D01*
X0222627Y0284552D01*
X0222687Y0284534D01*
X0222746Y0284513D01*
X0222804Y0284488D01*
X0222860Y0284459D01*
X0222914Y0284427D01*
X0222966Y0284392D01*
X0223015Y0284354D01*
X0223063Y0284312D01*
X0223107Y0284268D01*
X0223149Y0284220D01*
X0223187Y0284171D01*
X0223222Y0284119D01*
X0223254Y0284065D01*
X0223283Y0284009D01*
X0223308Y0283951D01*
X0223329Y0283892D01*
X0223347Y0283832D01*
X0223360Y0283770D01*
X0223370Y0283708D01*
X0223376Y0283646D01*
X0223378Y0283583D01*
X0223376Y0283520D01*
X0223370Y0283458D01*
X0223360Y0283396D01*
X0223347Y0283334D01*
X0223329Y0283274D01*
X0223308Y0283215D01*
X0223283Y0283157D01*
X0223254Y0283101D01*
X0223222Y0283047D01*
X0223187Y0282995D01*
X0223149Y0282946D01*
X0223107Y0282898D01*
X0223063Y0282854D01*
X0223015Y0282812D01*
X0222966Y0282774D01*
X0222914Y0282739D01*
X0222860Y0282707D01*
X0222804Y0282678D01*
X0222746Y0282653D01*
X0222687Y0282632D01*
X0222627Y0282614D01*
X0222565Y0282601D01*
X0222503Y0282591D01*
X0222441Y0282585D01*
X0222378Y0282583D01*
X0222315Y0282585D01*
X0222253Y0282591D01*
X0222191Y0282601D01*
X0222129Y0282614D01*
X0222069Y0282632D01*
X0222010Y0282653D01*
X0221952Y0282678D01*
X0221896Y0282707D01*
X0221842Y0282739D01*
X0221790Y0282774D01*
X0221741Y0282812D01*
X0221693Y0282854D01*
X0221649Y0282898D01*
X0221607Y0282946D01*
X0221569Y0282995D01*
X0221534Y0283047D01*
X0221502Y0283101D01*
X0221473Y0283157D01*
X0221448Y0283215D01*
X0221427Y0283274D01*
X0221409Y0283334D01*
X0221396Y0283396D01*
X0221386Y0283458D01*
X0221380Y0283520D01*
X0221378Y0283583D01*
D11*
X0398638Y0004937D02*
X0004937Y0004937D01*
X0004937Y0398638D01*
X0398638Y0398638D01*
X0398638Y0004937D01*
D12*
X0385028Y0029370D02*
X0388028Y0036370D01*
X0382028Y0036370D02*
X0385028Y0029370D01*
D13*
X0386821Y0028870D02*
X0386823Y0028923D01*
X0386829Y0028975D01*
X0386839Y0029027D01*
X0386852Y0029078D01*
X0386870Y0029128D01*
X0386891Y0029177D01*
X0386916Y0029224D01*
X0386944Y0029268D01*
X0386975Y0029311D01*
X0387010Y0029351D01*
X0387047Y0029388D01*
X0387087Y0029423D01*
X0387130Y0029454D01*
X0387175Y0029482D01*
X0387221Y0029507D01*
X0387270Y0029528D01*
X0387320Y0029546D01*
X0387371Y0029559D01*
X0387423Y0029569D01*
X0387475Y0029575D01*
X0387528Y0029577D01*
X0387581Y0029575D01*
X0387633Y0029569D01*
X0387685Y0029559D01*
X0387736Y0029546D01*
X0387786Y0029528D01*
X0387835Y0029507D01*
X0387882Y0029482D01*
X0387926Y0029454D01*
X0387969Y0029423D01*
X0388009Y0029388D01*
X0388046Y0029351D01*
X0388081Y0029311D01*
X0388112Y0029268D01*
X0388140Y0029223D01*
X0388165Y0029177D01*
X0388186Y0029128D01*
X0388204Y0029078D01*
X0388217Y0029027D01*
X0388227Y0028975D01*
X0388233Y0028923D01*
X0388235Y0028870D01*
X0388233Y0028817D01*
X0388227Y0028765D01*
X0388217Y0028713D01*
X0388204Y0028662D01*
X0388186Y0028612D01*
X0388165Y0028563D01*
X0388140Y0028516D01*
X0388112Y0028472D01*
X0388081Y0028429D01*
X0388046Y0028389D01*
X0388009Y0028352D01*
X0387969Y0028317D01*
X0387926Y0028286D01*
X0387881Y0028258D01*
X0387835Y0028233D01*
X0387786Y0028212D01*
X0387736Y0028194D01*
X0387685Y0028181D01*
X0387633Y0028171D01*
X0387581Y0028165D01*
X0387528Y0028163D01*
X0387475Y0028165D01*
X0387423Y0028171D01*
X0387371Y0028181D01*
X0387320Y0028194D01*
X0387270Y0028212D01*
X0387221Y0028233D01*
X0387174Y0028258D01*
X0387130Y0028286D01*
X0387087Y0028317D01*
X0387047Y0028352D01*
X0387010Y0028389D01*
X0386975Y0028429D01*
X0386944Y0028472D01*
X0386916Y0028517D01*
X0386891Y0028563D01*
X0386870Y0028612D01*
X0386852Y0028662D01*
X0386839Y0028713D01*
X0386829Y0028765D01*
X0386823Y0028817D01*
X0386821Y0028870D01*
D14*
X0380921Y0010843D02*
X0380923Y0010996D01*
X0380929Y0011150D01*
X0380939Y0011303D01*
X0380953Y0011455D01*
X0380971Y0011608D01*
X0380993Y0011759D01*
X0381018Y0011910D01*
X0381048Y0012061D01*
X0381082Y0012211D01*
X0381119Y0012359D01*
X0381160Y0012507D01*
X0381205Y0012653D01*
X0381254Y0012799D01*
X0381307Y0012943D01*
X0381363Y0013085D01*
X0381423Y0013226D01*
X0381487Y0013366D01*
X0381554Y0013504D01*
X0381625Y0013640D01*
X0381700Y0013774D01*
X0381777Y0013906D01*
X0381859Y0014036D01*
X0381943Y0014164D01*
X0382031Y0014290D01*
X0382122Y0014413D01*
X0382216Y0014534D01*
X0382314Y0014652D01*
X0382414Y0014768D01*
X0382518Y0014881D01*
X0382624Y0014992D01*
X0382733Y0015100D01*
X0382845Y0015205D01*
X0382959Y0015306D01*
X0383077Y0015405D01*
X0383196Y0015501D01*
X0383318Y0015594D01*
X0383443Y0015683D01*
X0383570Y0015770D01*
X0383699Y0015852D01*
X0383830Y0015932D01*
X0383963Y0016008D01*
X0384098Y0016081D01*
X0384235Y0016150D01*
X0384374Y0016215D01*
X0384514Y0016277D01*
X0384656Y0016335D01*
X0384799Y0016390D01*
X0384944Y0016441D01*
X0385090Y0016488D01*
X0385237Y0016531D01*
X0385385Y0016570D01*
X0385534Y0016606D01*
X0385684Y0016637D01*
X0385835Y0016665D01*
X0385986Y0016689D01*
X0386139Y0016709D01*
X0386291Y0016725D01*
X0386444Y0016737D01*
X0386597Y0016745D01*
X0386750Y0016749D01*
X0386904Y0016749D01*
X0387057Y0016745D01*
X0387210Y0016737D01*
X0387363Y0016725D01*
X0387515Y0016709D01*
X0387668Y0016689D01*
X0387819Y0016665D01*
X0387970Y0016637D01*
X0388120Y0016606D01*
X0388269Y0016570D01*
X0388417Y0016531D01*
X0388564Y0016488D01*
X0388710Y0016441D01*
X0388855Y0016390D01*
X0388998Y0016335D01*
X0389140Y0016277D01*
X0389280Y0016215D01*
X0389419Y0016150D01*
X0389556Y0016081D01*
X0389691Y0016008D01*
X0389824Y0015932D01*
X0389955Y0015852D01*
X0390084Y0015770D01*
X0390211Y0015683D01*
X0390336Y0015594D01*
X0390458Y0015501D01*
X0390577Y0015405D01*
X0390695Y0015306D01*
X0390809Y0015205D01*
X0390921Y0015100D01*
X0391030Y0014992D01*
X0391136Y0014881D01*
X0391240Y0014768D01*
X0391340Y0014652D01*
X0391438Y0014534D01*
X0391532Y0014413D01*
X0391623Y0014290D01*
X0391711Y0014164D01*
X0391795Y0014036D01*
X0391877Y0013906D01*
X0391954Y0013774D01*
X0392029Y0013640D01*
X0392100Y0013504D01*
X0392167Y0013366D01*
X0392231Y0013226D01*
X0392291Y0013085D01*
X0392347Y0012943D01*
X0392400Y0012799D01*
X0392449Y0012653D01*
X0392494Y0012507D01*
X0392535Y0012359D01*
X0392572Y0012211D01*
X0392606Y0012061D01*
X0392636Y0011910D01*
X0392661Y0011759D01*
X0392683Y0011608D01*
X0392701Y0011455D01*
X0392715Y0011303D01*
X0392725Y0011150D01*
X0392731Y0010996D01*
X0392733Y0010843D01*
X0392731Y0010690D01*
X0392725Y0010536D01*
X0392715Y0010383D01*
X0392701Y0010231D01*
X0392683Y0010078D01*
X0392661Y0009927D01*
X0392636Y0009776D01*
X0392606Y0009625D01*
X0392572Y0009475D01*
X0392535Y0009327D01*
X0392494Y0009179D01*
X0392449Y0009033D01*
X0392400Y0008887D01*
X0392347Y0008743D01*
X0392291Y0008601D01*
X0392231Y0008460D01*
X0392167Y0008320D01*
X0392100Y0008182D01*
X0392029Y0008046D01*
X0391954Y0007912D01*
X0391877Y0007780D01*
X0391795Y0007650D01*
X0391711Y0007522D01*
X0391623Y0007396D01*
X0391532Y0007273D01*
X0391438Y0007152D01*
X0391340Y0007034D01*
X0391240Y0006918D01*
X0391136Y0006805D01*
X0391030Y0006694D01*
X0390921Y0006586D01*
X0390809Y0006481D01*
X0390695Y0006380D01*
X0390577Y0006281D01*
X0390458Y0006185D01*
X0390336Y0006092D01*
X0390211Y0006003D01*
X0390084Y0005916D01*
X0389955Y0005834D01*
X0389824Y0005754D01*
X0389691Y0005678D01*
X0389556Y0005605D01*
X0389419Y0005536D01*
X0389280Y0005471D01*
X0389140Y0005409D01*
X0388998Y0005351D01*
X0388855Y0005296D01*
X0388710Y0005245D01*
X0388564Y0005198D01*
X0388417Y0005155D01*
X0388269Y0005116D01*
X0388120Y0005080D01*
X0387970Y0005049D01*
X0387819Y0005021D01*
X0387668Y0004997D01*
X0387515Y0004977D01*
X0387363Y0004961D01*
X0387210Y0004949D01*
X0387057Y0004941D01*
X0386904Y0004937D01*
X0386750Y0004937D01*
X0386597Y0004941D01*
X0386444Y0004949D01*
X0386291Y0004961D01*
X0386139Y0004977D01*
X0385986Y0004997D01*
X0385835Y0005021D01*
X0385684Y0005049D01*
X0385534Y0005080D01*
X0385385Y0005116D01*
X0385237Y0005155D01*
X0385090Y0005198D01*
X0384944Y0005245D01*
X0384799Y0005296D01*
X0384656Y0005351D01*
X0384514Y0005409D01*
X0384374Y0005471D01*
X0384235Y0005536D01*
X0384098Y0005605D01*
X0383963Y0005678D01*
X0383830Y0005754D01*
X0383699Y0005834D01*
X0383570Y0005916D01*
X0383443Y0006003D01*
X0383318Y0006092D01*
X0383196Y0006185D01*
X0383077Y0006281D01*
X0382959Y0006380D01*
X0382845Y0006481D01*
X0382733Y0006586D01*
X0382624Y0006694D01*
X0382518Y0006805D01*
X0382414Y0006918D01*
X0382314Y0007034D01*
X0382216Y0007152D01*
X0382122Y0007273D01*
X0382031Y0007396D01*
X0381943Y0007522D01*
X0381859Y0007650D01*
X0381777Y0007780D01*
X0381700Y0007912D01*
X0381625Y0008046D01*
X0381554Y0008182D01*
X0381487Y0008320D01*
X0381423Y0008460D01*
X0381363Y0008601D01*
X0381307Y0008743D01*
X0381254Y0008887D01*
X0381205Y0009033D01*
X0381160Y0009179D01*
X0381119Y0009327D01*
X0381082Y0009475D01*
X0381048Y0009625D01*
X0381018Y0009776D01*
X0380993Y0009927D01*
X0380971Y0010078D01*
X0380953Y0010231D01*
X0380939Y0010383D01*
X0380929Y0010536D01*
X0380923Y0010690D01*
X0380921Y0010843D01*
X0341551Y0010843D02*
X0341553Y0010996D01*
X0341559Y0011150D01*
X0341569Y0011303D01*
X0341583Y0011455D01*
X0341601Y0011608D01*
X0341623Y0011759D01*
X0341648Y0011910D01*
X0341678Y0012061D01*
X0341712Y0012211D01*
X0341749Y0012359D01*
X0341790Y0012507D01*
X0341835Y0012653D01*
X0341884Y0012799D01*
X0341937Y0012943D01*
X0341993Y0013085D01*
X0342053Y0013226D01*
X0342117Y0013366D01*
X0342184Y0013504D01*
X0342255Y0013640D01*
X0342330Y0013774D01*
X0342407Y0013906D01*
X0342489Y0014036D01*
X0342573Y0014164D01*
X0342661Y0014290D01*
X0342752Y0014413D01*
X0342846Y0014534D01*
X0342944Y0014652D01*
X0343044Y0014768D01*
X0343148Y0014881D01*
X0343254Y0014992D01*
X0343363Y0015100D01*
X0343475Y0015205D01*
X0343589Y0015306D01*
X0343707Y0015405D01*
X0343826Y0015501D01*
X0343948Y0015594D01*
X0344073Y0015683D01*
X0344200Y0015770D01*
X0344329Y0015852D01*
X0344460Y0015932D01*
X0344593Y0016008D01*
X0344728Y0016081D01*
X0344865Y0016150D01*
X0345004Y0016215D01*
X0345144Y0016277D01*
X0345286Y0016335D01*
X0345429Y0016390D01*
X0345574Y0016441D01*
X0345720Y0016488D01*
X0345867Y0016531D01*
X0346015Y0016570D01*
X0346164Y0016606D01*
X0346314Y0016637D01*
X0346465Y0016665D01*
X0346616Y0016689D01*
X0346769Y0016709D01*
X0346921Y0016725D01*
X0347074Y0016737D01*
X0347227Y0016745D01*
X0347380Y0016749D01*
X0347534Y0016749D01*
X0347687Y0016745D01*
X0347840Y0016737D01*
X0347993Y0016725D01*
X0348145Y0016709D01*
X0348298Y0016689D01*
X0348449Y0016665D01*
X0348600Y0016637D01*
X0348750Y0016606D01*
X0348899Y0016570D01*
X0349047Y0016531D01*
X0349194Y0016488D01*
X0349340Y0016441D01*
X0349485Y0016390D01*
X0349628Y0016335D01*
X0349770Y0016277D01*
X0349910Y0016215D01*
X0350049Y0016150D01*
X0350186Y0016081D01*
X0350321Y0016008D01*
X0350454Y0015932D01*
X0350585Y0015852D01*
X0350714Y0015770D01*
X0350841Y0015683D01*
X0350966Y0015594D01*
X0351088Y0015501D01*
X0351207Y0015405D01*
X0351325Y0015306D01*
X0351439Y0015205D01*
X0351551Y0015100D01*
X0351660Y0014992D01*
X0351766Y0014881D01*
X0351870Y0014768D01*
X0351970Y0014652D01*
X0352068Y0014534D01*
X0352162Y0014413D01*
X0352253Y0014290D01*
X0352341Y0014164D01*
X0352425Y0014036D01*
X0352507Y0013906D01*
X0352584Y0013774D01*
X0352659Y0013640D01*
X0352730Y0013504D01*
X0352797Y0013366D01*
X0352861Y0013226D01*
X0352921Y0013085D01*
X0352977Y0012943D01*
X0353030Y0012799D01*
X0353079Y0012653D01*
X0353124Y0012507D01*
X0353165Y0012359D01*
X0353202Y0012211D01*
X0353236Y0012061D01*
X0353266Y0011910D01*
X0353291Y0011759D01*
X0353313Y0011608D01*
X0353331Y0011455D01*
X0353345Y0011303D01*
X0353355Y0011150D01*
X0353361Y0010996D01*
X0353363Y0010843D01*
X0353361Y0010690D01*
X0353355Y0010536D01*
X0353345Y0010383D01*
X0353331Y0010231D01*
X0353313Y0010078D01*
X0353291Y0009927D01*
X0353266Y0009776D01*
X0353236Y0009625D01*
X0353202Y0009475D01*
X0353165Y0009327D01*
X0353124Y0009179D01*
X0353079Y0009033D01*
X0353030Y0008887D01*
X0352977Y0008743D01*
X0352921Y0008601D01*
X0352861Y0008460D01*
X0352797Y0008320D01*
X0352730Y0008182D01*
X0352659Y0008046D01*
X0352584Y0007912D01*
X0352507Y0007780D01*
X0352425Y0007650D01*
X0352341Y0007522D01*
X0352253Y0007396D01*
X0352162Y0007273D01*
X0352068Y0007152D01*
X0351970Y0007034D01*
X0351870Y0006918D01*
X0351766Y0006805D01*
X0351660Y0006694D01*
X0351551Y0006586D01*
X0351439Y0006481D01*
X0351325Y0006380D01*
X0351207Y0006281D01*
X0351088Y0006185D01*
X0350966Y0006092D01*
X0350841Y0006003D01*
X0350714Y0005916D01*
X0350585Y0005834D01*
X0350454Y0005754D01*
X0350321Y0005678D01*
X0350186Y0005605D01*
X0350049Y0005536D01*
X0349910Y0005471D01*
X0349770Y0005409D01*
X0349628Y0005351D01*
X0349485Y0005296D01*
X0349340Y0005245D01*
X0349194Y0005198D01*
X0349047Y0005155D01*
X0348899Y0005116D01*
X0348750Y0005080D01*
X0348600Y0005049D01*
X0348449Y0005021D01*
X0348298Y0004997D01*
X0348145Y0004977D01*
X0347993Y0004961D01*
X0347840Y0004949D01*
X0347687Y0004941D01*
X0347534Y0004937D01*
X0347380Y0004937D01*
X0347227Y0004941D01*
X0347074Y0004949D01*
X0346921Y0004961D01*
X0346769Y0004977D01*
X0346616Y0004997D01*
X0346465Y0005021D01*
X0346314Y0005049D01*
X0346164Y0005080D01*
X0346015Y0005116D01*
X0345867Y0005155D01*
X0345720Y0005198D01*
X0345574Y0005245D01*
X0345429Y0005296D01*
X0345286Y0005351D01*
X0345144Y0005409D01*
X0345004Y0005471D01*
X0344865Y0005536D01*
X0344728Y0005605D01*
X0344593Y0005678D01*
X0344460Y0005754D01*
X0344329Y0005834D01*
X0344200Y0005916D01*
X0344073Y0006003D01*
X0343948Y0006092D01*
X0343826Y0006185D01*
X0343707Y0006281D01*
X0343589Y0006380D01*
X0343475Y0006481D01*
X0343363Y0006586D01*
X0343254Y0006694D01*
X0343148Y0006805D01*
X0343044Y0006918D01*
X0342944Y0007034D01*
X0342846Y0007152D01*
X0342752Y0007273D01*
X0342661Y0007396D01*
X0342573Y0007522D01*
X0342489Y0007650D01*
X0342407Y0007780D01*
X0342330Y0007912D01*
X0342255Y0008046D01*
X0342184Y0008182D01*
X0342117Y0008320D01*
X0342053Y0008460D01*
X0341993Y0008601D01*
X0341937Y0008743D01*
X0341884Y0008887D01*
X0341835Y0009033D01*
X0341790Y0009179D01*
X0341749Y0009327D01*
X0341712Y0009475D01*
X0341678Y0009625D01*
X0341648Y0009776D01*
X0341623Y0009927D01*
X0341601Y0010078D01*
X0341583Y0010231D01*
X0341569Y0010383D01*
X0341559Y0010536D01*
X0341553Y0010690D01*
X0341551Y0010843D01*
X0317441Y0022063D02*
X0317443Y0022142D01*
X0317449Y0022221D01*
X0317459Y0022300D01*
X0317473Y0022378D01*
X0317490Y0022455D01*
X0317512Y0022531D01*
X0317537Y0022606D01*
X0317567Y0022679D01*
X0317599Y0022751D01*
X0317636Y0022822D01*
X0317676Y0022890D01*
X0317719Y0022956D01*
X0317765Y0023020D01*
X0317815Y0023082D01*
X0317868Y0023141D01*
X0317923Y0023197D01*
X0317982Y0023251D01*
X0318043Y0023301D01*
X0318106Y0023349D01*
X0318172Y0023393D01*
X0318240Y0023434D01*
X0318310Y0023471D01*
X0318381Y0023505D01*
X0318455Y0023535D01*
X0318529Y0023561D01*
X0318605Y0023583D01*
X0318682Y0023602D01*
X0318760Y0023617D01*
X0318838Y0023628D01*
X0318917Y0023635D01*
X0318996Y0023638D01*
X0319075Y0023637D01*
X0319154Y0023632D01*
X0319233Y0023623D01*
X0319311Y0023610D01*
X0319388Y0023593D01*
X0319465Y0023573D01*
X0319540Y0023548D01*
X0319614Y0023520D01*
X0319687Y0023488D01*
X0319757Y0023453D01*
X0319826Y0023414D01*
X0319893Y0023371D01*
X0319958Y0023325D01*
X0320020Y0023277D01*
X0320080Y0023225D01*
X0320137Y0023170D01*
X0320191Y0023112D01*
X0320242Y0023052D01*
X0320290Y0022989D01*
X0320335Y0022924D01*
X0320377Y0022856D01*
X0320415Y0022787D01*
X0320449Y0022716D01*
X0320480Y0022643D01*
X0320508Y0022568D01*
X0320531Y0022493D01*
X0320551Y0022416D01*
X0320567Y0022339D01*
X0320579Y0022260D01*
X0320587Y0022182D01*
X0320591Y0022103D01*
X0320591Y0022023D01*
X0320587Y0021944D01*
X0320579Y0021866D01*
X0320567Y0021787D01*
X0320551Y0021710D01*
X0320531Y0021633D01*
X0320508Y0021558D01*
X0320480Y0021483D01*
X0320449Y0021410D01*
X0320415Y0021339D01*
X0320377Y0021270D01*
X0320335Y0021202D01*
X0320290Y0021137D01*
X0320242Y0021074D01*
X0320191Y0021014D01*
X0320137Y0020956D01*
X0320080Y0020901D01*
X0320020Y0020849D01*
X0319958Y0020801D01*
X0319893Y0020755D01*
X0319826Y0020712D01*
X0319757Y0020673D01*
X0319687Y0020638D01*
X0319614Y0020606D01*
X0319540Y0020578D01*
X0319465Y0020553D01*
X0319388Y0020533D01*
X0319311Y0020516D01*
X0319233Y0020503D01*
X0319154Y0020494D01*
X0319075Y0020489D01*
X0318996Y0020488D01*
X0318917Y0020491D01*
X0318838Y0020498D01*
X0318760Y0020509D01*
X0318682Y0020524D01*
X0318605Y0020543D01*
X0318529Y0020565D01*
X0318455Y0020591D01*
X0318381Y0020621D01*
X0318310Y0020655D01*
X0318240Y0020692D01*
X0318172Y0020733D01*
X0318106Y0020777D01*
X0318043Y0020825D01*
X0317982Y0020875D01*
X0317923Y0020929D01*
X0317868Y0020985D01*
X0317815Y0021044D01*
X0317765Y0021106D01*
X0317719Y0021170D01*
X0317676Y0021236D01*
X0317636Y0021304D01*
X0317599Y0021375D01*
X0317567Y0021447D01*
X0317537Y0021520D01*
X0317512Y0021595D01*
X0317490Y0021671D01*
X0317473Y0021748D01*
X0317459Y0021826D01*
X0317449Y0021905D01*
X0317443Y0021984D01*
X0317441Y0022063D01*
X0317441Y0090961D02*
X0317443Y0091040D01*
X0317449Y0091119D01*
X0317459Y0091198D01*
X0317473Y0091276D01*
X0317490Y0091353D01*
X0317512Y0091429D01*
X0317537Y0091504D01*
X0317567Y0091577D01*
X0317599Y0091649D01*
X0317636Y0091720D01*
X0317676Y0091788D01*
X0317719Y0091854D01*
X0317765Y0091918D01*
X0317815Y0091980D01*
X0317868Y0092039D01*
X0317923Y0092095D01*
X0317982Y0092149D01*
X0318043Y0092199D01*
X0318106Y0092247D01*
X0318172Y0092291D01*
X0318240Y0092332D01*
X0318310Y0092369D01*
X0318381Y0092403D01*
X0318455Y0092433D01*
X0318529Y0092459D01*
X0318605Y0092481D01*
X0318682Y0092500D01*
X0318760Y0092515D01*
X0318838Y0092526D01*
X0318917Y0092533D01*
X0318996Y0092536D01*
X0319075Y0092535D01*
X0319154Y0092530D01*
X0319233Y0092521D01*
X0319311Y0092508D01*
X0319388Y0092491D01*
X0319465Y0092471D01*
X0319540Y0092446D01*
X0319614Y0092418D01*
X0319687Y0092386D01*
X0319757Y0092351D01*
X0319826Y0092312D01*
X0319893Y0092269D01*
X0319958Y0092223D01*
X0320020Y0092175D01*
X0320080Y0092123D01*
X0320137Y0092068D01*
X0320191Y0092010D01*
X0320242Y0091950D01*
X0320290Y0091887D01*
X0320335Y0091822D01*
X0320377Y0091754D01*
X0320415Y0091685D01*
X0320449Y0091614D01*
X0320480Y0091541D01*
X0320508Y0091466D01*
X0320531Y0091391D01*
X0320551Y0091314D01*
X0320567Y0091237D01*
X0320579Y0091158D01*
X0320587Y0091080D01*
X0320591Y0091001D01*
X0320591Y0090921D01*
X0320587Y0090842D01*
X0320579Y0090764D01*
X0320567Y0090685D01*
X0320551Y0090608D01*
X0320531Y0090531D01*
X0320508Y0090456D01*
X0320480Y0090381D01*
X0320449Y0090308D01*
X0320415Y0090237D01*
X0320377Y0090168D01*
X0320335Y0090100D01*
X0320290Y0090035D01*
X0320242Y0089972D01*
X0320191Y0089912D01*
X0320137Y0089854D01*
X0320080Y0089799D01*
X0320020Y0089747D01*
X0319958Y0089699D01*
X0319893Y0089653D01*
X0319826Y0089610D01*
X0319757Y0089571D01*
X0319687Y0089536D01*
X0319614Y0089504D01*
X0319540Y0089476D01*
X0319465Y0089451D01*
X0319388Y0089431D01*
X0319311Y0089414D01*
X0319233Y0089401D01*
X0319154Y0089392D01*
X0319075Y0089387D01*
X0318996Y0089386D01*
X0318917Y0089389D01*
X0318838Y0089396D01*
X0318760Y0089407D01*
X0318682Y0089422D01*
X0318605Y0089441D01*
X0318529Y0089463D01*
X0318455Y0089489D01*
X0318381Y0089519D01*
X0318310Y0089553D01*
X0318240Y0089590D01*
X0318172Y0089631D01*
X0318106Y0089675D01*
X0318043Y0089723D01*
X0317982Y0089773D01*
X0317923Y0089827D01*
X0317868Y0089883D01*
X0317815Y0089942D01*
X0317765Y0090004D01*
X0317719Y0090068D01*
X0317676Y0090134D01*
X0317636Y0090202D01*
X0317599Y0090273D01*
X0317567Y0090345D01*
X0317537Y0090418D01*
X0317512Y0090493D01*
X0317490Y0090569D01*
X0317473Y0090646D01*
X0317459Y0090724D01*
X0317449Y0090803D01*
X0317443Y0090882D01*
X0317441Y0090961D01*
X0341551Y0109268D02*
X0341553Y0109421D01*
X0341559Y0109575D01*
X0341569Y0109728D01*
X0341583Y0109880D01*
X0341601Y0110033D01*
X0341623Y0110184D01*
X0341648Y0110335D01*
X0341678Y0110486D01*
X0341712Y0110636D01*
X0341749Y0110784D01*
X0341790Y0110932D01*
X0341835Y0111078D01*
X0341884Y0111224D01*
X0341937Y0111368D01*
X0341993Y0111510D01*
X0342053Y0111651D01*
X0342117Y0111791D01*
X0342184Y0111929D01*
X0342255Y0112065D01*
X0342330Y0112199D01*
X0342407Y0112331D01*
X0342489Y0112461D01*
X0342573Y0112589D01*
X0342661Y0112715D01*
X0342752Y0112838D01*
X0342846Y0112959D01*
X0342944Y0113077D01*
X0343044Y0113193D01*
X0343148Y0113306D01*
X0343254Y0113417D01*
X0343363Y0113525D01*
X0343475Y0113630D01*
X0343589Y0113731D01*
X0343707Y0113830D01*
X0343826Y0113926D01*
X0343948Y0114019D01*
X0344073Y0114108D01*
X0344200Y0114195D01*
X0344329Y0114277D01*
X0344460Y0114357D01*
X0344593Y0114433D01*
X0344728Y0114506D01*
X0344865Y0114575D01*
X0345004Y0114640D01*
X0345144Y0114702D01*
X0345286Y0114760D01*
X0345429Y0114815D01*
X0345574Y0114866D01*
X0345720Y0114913D01*
X0345867Y0114956D01*
X0346015Y0114995D01*
X0346164Y0115031D01*
X0346314Y0115062D01*
X0346465Y0115090D01*
X0346616Y0115114D01*
X0346769Y0115134D01*
X0346921Y0115150D01*
X0347074Y0115162D01*
X0347227Y0115170D01*
X0347380Y0115174D01*
X0347534Y0115174D01*
X0347687Y0115170D01*
X0347840Y0115162D01*
X0347993Y0115150D01*
X0348145Y0115134D01*
X0348298Y0115114D01*
X0348449Y0115090D01*
X0348600Y0115062D01*
X0348750Y0115031D01*
X0348899Y0114995D01*
X0349047Y0114956D01*
X0349194Y0114913D01*
X0349340Y0114866D01*
X0349485Y0114815D01*
X0349628Y0114760D01*
X0349770Y0114702D01*
X0349910Y0114640D01*
X0350049Y0114575D01*
X0350186Y0114506D01*
X0350321Y0114433D01*
X0350454Y0114357D01*
X0350585Y0114277D01*
X0350714Y0114195D01*
X0350841Y0114108D01*
X0350966Y0114019D01*
X0351088Y0113926D01*
X0351207Y0113830D01*
X0351325Y0113731D01*
X0351439Y0113630D01*
X0351551Y0113525D01*
X0351660Y0113417D01*
X0351766Y0113306D01*
X0351870Y0113193D01*
X0351970Y0113077D01*
X0352068Y0112959D01*
X0352162Y0112838D01*
X0352253Y0112715D01*
X0352341Y0112589D01*
X0352425Y0112461D01*
X0352507Y0112331D01*
X0352584Y0112199D01*
X0352659Y0112065D01*
X0352730Y0111929D01*
X0352797Y0111791D01*
X0352861Y0111651D01*
X0352921Y0111510D01*
X0352977Y0111368D01*
X0353030Y0111224D01*
X0353079Y0111078D01*
X0353124Y0110932D01*
X0353165Y0110784D01*
X0353202Y0110636D01*
X0353236Y0110486D01*
X0353266Y0110335D01*
X0353291Y0110184D01*
X0353313Y0110033D01*
X0353331Y0109880D01*
X0353345Y0109728D01*
X0353355Y0109575D01*
X0353361Y0109421D01*
X0353363Y0109268D01*
X0353361Y0109115D01*
X0353355Y0108961D01*
X0353345Y0108808D01*
X0353331Y0108656D01*
X0353313Y0108503D01*
X0353291Y0108352D01*
X0353266Y0108201D01*
X0353236Y0108050D01*
X0353202Y0107900D01*
X0353165Y0107752D01*
X0353124Y0107604D01*
X0353079Y0107458D01*
X0353030Y0107312D01*
X0352977Y0107168D01*
X0352921Y0107026D01*
X0352861Y0106885D01*
X0352797Y0106745D01*
X0352730Y0106607D01*
X0352659Y0106471D01*
X0352584Y0106337D01*
X0352507Y0106205D01*
X0352425Y0106075D01*
X0352341Y0105947D01*
X0352253Y0105821D01*
X0352162Y0105698D01*
X0352068Y0105577D01*
X0351970Y0105459D01*
X0351870Y0105343D01*
X0351766Y0105230D01*
X0351660Y0105119D01*
X0351551Y0105011D01*
X0351439Y0104906D01*
X0351325Y0104805D01*
X0351207Y0104706D01*
X0351088Y0104610D01*
X0350966Y0104517D01*
X0350841Y0104428D01*
X0350714Y0104341D01*
X0350585Y0104259D01*
X0350454Y0104179D01*
X0350321Y0104103D01*
X0350186Y0104030D01*
X0350049Y0103961D01*
X0349910Y0103896D01*
X0349770Y0103834D01*
X0349628Y0103776D01*
X0349485Y0103721D01*
X0349340Y0103670D01*
X0349194Y0103623D01*
X0349047Y0103580D01*
X0348899Y0103541D01*
X0348750Y0103505D01*
X0348600Y0103474D01*
X0348449Y0103446D01*
X0348298Y0103422D01*
X0348145Y0103402D01*
X0347993Y0103386D01*
X0347840Y0103374D01*
X0347687Y0103366D01*
X0347534Y0103362D01*
X0347380Y0103362D01*
X0347227Y0103366D01*
X0347074Y0103374D01*
X0346921Y0103386D01*
X0346769Y0103402D01*
X0346616Y0103422D01*
X0346465Y0103446D01*
X0346314Y0103474D01*
X0346164Y0103505D01*
X0346015Y0103541D01*
X0345867Y0103580D01*
X0345720Y0103623D01*
X0345574Y0103670D01*
X0345429Y0103721D01*
X0345286Y0103776D01*
X0345144Y0103834D01*
X0345004Y0103896D01*
X0344865Y0103961D01*
X0344728Y0104030D01*
X0344593Y0104103D01*
X0344460Y0104179D01*
X0344329Y0104259D01*
X0344200Y0104341D01*
X0344073Y0104428D01*
X0343948Y0104517D01*
X0343826Y0104610D01*
X0343707Y0104706D01*
X0343589Y0104805D01*
X0343475Y0104906D01*
X0343363Y0105011D01*
X0343254Y0105119D01*
X0343148Y0105230D01*
X0343044Y0105343D01*
X0342944Y0105459D01*
X0342846Y0105577D01*
X0342752Y0105698D01*
X0342661Y0105821D01*
X0342573Y0105947D01*
X0342489Y0106075D01*
X0342407Y0106205D01*
X0342330Y0106337D01*
X0342255Y0106471D01*
X0342184Y0106607D01*
X0342117Y0106745D01*
X0342053Y0106885D01*
X0341993Y0107026D01*
X0341937Y0107168D01*
X0341884Y0107312D01*
X0341835Y0107458D01*
X0341790Y0107604D01*
X0341749Y0107752D01*
X0341712Y0107900D01*
X0341678Y0108050D01*
X0341648Y0108201D01*
X0341623Y0108352D01*
X0341601Y0108503D01*
X0341583Y0108656D01*
X0341569Y0108808D01*
X0341559Y0108961D01*
X0341553Y0109115D01*
X0341551Y0109268D01*
X0380921Y0109268D02*
X0380923Y0109421D01*
X0380929Y0109575D01*
X0380939Y0109728D01*
X0380953Y0109880D01*
X0380971Y0110033D01*
X0380993Y0110184D01*
X0381018Y0110335D01*
X0381048Y0110486D01*
X0381082Y0110636D01*
X0381119Y0110784D01*
X0381160Y0110932D01*
X0381205Y0111078D01*
X0381254Y0111224D01*
X0381307Y0111368D01*
X0381363Y0111510D01*
X0381423Y0111651D01*
X0381487Y0111791D01*
X0381554Y0111929D01*
X0381625Y0112065D01*
X0381700Y0112199D01*
X0381777Y0112331D01*
X0381859Y0112461D01*
X0381943Y0112589D01*
X0382031Y0112715D01*
X0382122Y0112838D01*
X0382216Y0112959D01*
X0382314Y0113077D01*
X0382414Y0113193D01*
X0382518Y0113306D01*
X0382624Y0113417D01*
X0382733Y0113525D01*
X0382845Y0113630D01*
X0382959Y0113731D01*
X0383077Y0113830D01*
X0383196Y0113926D01*
X0383318Y0114019D01*
X0383443Y0114108D01*
X0383570Y0114195D01*
X0383699Y0114277D01*
X0383830Y0114357D01*
X0383963Y0114433D01*
X0384098Y0114506D01*
X0384235Y0114575D01*
X0384374Y0114640D01*
X0384514Y0114702D01*
X0384656Y0114760D01*
X0384799Y0114815D01*
X0384944Y0114866D01*
X0385090Y0114913D01*
X0385237Y0114956D01*
X0385385Y0114995D01*
X0385534Y0115031D01*
X0385684Y0115062D01*
X0385835Y0115090D01*
X0385986Y0115114D01*
X0386139Y0115134D01*
X0386291Y0115150D01*
X0386444Y0115162D01*
X0386597Y0115170D01*
X0386750Y0115174D01*
X0386904Y0115174D01*
X0387057Y0115170D01*
X0387210Y0115162D01*
X0387363Y0115150D01*
X0387515Y0115134D01*
X0387668Y0115114D01*
X0387819Y0115090D01*
X0387970Y0115062D01*
X0388120Y0115031D01*
X0388269Y0114995D01*
X0388417Y0114956D01*
X0388564Y0114913D01*
X0388710Y0114866D01*
X0388855Y0114815D01*
X0388998Y0114760D01*
X0389140Y0114702D01*
X0389280Y0114640D01*
X0389419Y0114575D01*
X0389556Y0114506D01*
X0389691Y0114433D01*
X0389824Y0114357D01*
X0389955Y0114277D01*
X0390084Y0114195D01*
X0390211Y0114108D01*
X0390336Y0114019D01*
X0390458Y0113926D01*
X0390577Y0113830D01*
X0390695Y0113731D01*
X0390809Y0113630D01*
X0390921Y0113525D01*
X0391030Y0113417D01*
X0391136Y0113306D01*
X0391240Y0113193D01*
X0391340Y0113077D01*
X0391438Y0112959D01*
X0391532Y0112838D01*
X0391623Y0112715D01*
X0391711Y0112589D01*
X0391795Y0112461D01*
X0391877Y0112331D01*
X0391954Y0112199D01*
X0392029Y0112065D01*
X0392100Y0111929D01*
X0392167Y0111791D01*
X0392231Y0111651D01*
X0392291Y0111510D01*
X0392347Y0111368D01*
X0392400Y0111224D01*
X0392449Y0111078D01*
X0392494Y0110932D01*
X0392535Y0110784D01*
X0392572Y0110636D01*
X0392606Y0110486D01*
X0392636Y0110335D01*
X0392661Y0110184D01*
X0392683Y0110033D01*
X0392701Y0109880D01*
X0392715Y0109728D01*
X0392725Y0109575D01*
X0392731Y0109421D01*
X0392733Y0109268D01*
X0392731Y0109115D01*
X0392725Y0108961D01*
X0392715Y0108808D01*
X0392701Y0108656D01*
X0392683Y0108503D01*
X0392661Y0108352D01*
X0392636Y0108201D01*
X0392606Y0108050D01*
X0392572Y0107900D01*
X0392535Y0107752D01*
X0392494Y0107604D01*
X0392449Y0107458D01*
X0392400Y0107312D01*
X0392347Y0107168D01*
X0392291Y0107026D01*
X0392231Y0106885D01*
X0392167Y0106745D01*
X0392100Y0106607D01*
X0392029Y0106471D01*
X0391954Y0106337D01*
X0391877Y0106205D01*
X0391795Y0106075D01*
X0391711Y0105947D01*
X0391623Y0105821D01*
X0391532Y0105698D01*
X0391438Y0105577D01*
X0391340Y0105459D01*
X0391240Y0105343D01*
X0391136Y0105230D01*
X0391030Y0105119D01*
X0390921Y0105011D01*
X0390809Y0104906D01*
X0390695Y0104805D01*
X0390577Y0104706D01*
X0390458Y0104610D01*
X0390336Y0104517D01*
X0390211Y0104428D01*
X0390084Y0104341D01*
X0389955Y0104259D01*
X0389824Y0104179D01*
X0389691Y0104103D01*
X0389556Y0104030D01*
X0389419Y0103961D01*
X0389280Y0103896D01*
X0389140Y0103834D01*
X0388998Y0103776D01*
X0388855Y0103721D01*
X0388710Y0103670D01*
X0388564Y0103623D01*
X0388417Y0103580D01*
X0388269Y0103541D01*
X0388120Y0103505D01*
X0387970Y0103474D01*
X0387819Y0103446D01*
X0387668Y0103422D01*
X0387515Y0103402D01*
X0387363Y0103386D01*
X0387210Y0103374D01*
X0387057Y0103366D01*
X0386904Y0103362D01*
X0386750Y0103362D01*
X0386597Y0103366D01*
X0386444Y0103374D01*
X0386291Y0103386D01*
X0386139Y0103402D01*
X0385986Y0103422D01*
X0385835Y0103446D01*
X0385684Y0103474D01*
X0385534Y0103505D01*
X0385385Y0103541D01*
X0385237Y0103580D01*
X0385090Y0103623D01*
X0384944Y0103670D01*
X0384799Y0103721D01*
X0384656Y0103776D01*
X0384514Y0103834D01*
X0384374Y0103896D01*
X0384235Y0103961D01*
X0384098Y0104030D01*
X0383963Y0104103D01*
X0383830Y0104179D01*
X0383699Y0104259D01*
X0383570Y0104341D01*
X0383443Y0104428D01*
X0383318Y0104517D01*
X0383196Y0104610D01*
X0383077Y0104706D01*
X0382959Y0104805D01*
X0382845Y0104906D01*
X0382733Y0105011D01*
X0382624Y0105119D01*
X0382518Y0105230D01*
X0382414Y0105343D01*
X0382314Y0105459D01*
X0382216Y0105577D01*
X0382122Y0105698D01*
X0382031Y0105821D01*
X0381943Y0105947D01*
X0381859Y0106075D01*
X0381777Y0106205D01*
X0381700Y0106337D01*
X0381625Y0106471D01*
X0381554Y0106607D01*
X0381487Y0106745D01*
X0381423Y0106885D01*
X0381363Y0107026D01*
X0381307Y0107168D01*
X0381254Y0107312D01*
X0381205Y0107458D01*
X0381160Y0107604D01*
X0381119Y0107752D01*
X0381082Y0107900D01*
X0381048Y0108050D01*
X0381018Y0108201D01*
X0380993Y0108352D01*
X0380971Y0108503D01*
X0380953Y0108656D01*
X0380939Y0108808D01*
X0380929Y0108961D01*
X0380923Y0109115D01*
X0380921Y0109268D01*
X0317441Y0159858D02*
X0317443Y0159937D01*
X0317449Y0160016D01*
X0317459Y0160095D01*
X0317473Y0160173D01*
X0317490Y0160250D01*
X0317512Y0160326D01*
X0317537Y0160401D01*
X0317567Y0160474D01*
X0317599Y0160546D01*
X0317636Y0160617D01*
X0317676Y0160685D01*
X0317719Y0160751D01*
X0317765Y0160815D01*
X0317815Y0160877D01*
X0317868Y0160936D01*
X0317923Y0160992D01*
X0317982Y0161046D01*
X0318043Y0161096D01*
X0318106Y0161144D01*
X0318172Y0161188D01*
X0318240Y0161229D01*
X0318310Y0161266D01*
X0318381Y0161300D01*
X0318455Y0161330D01*
X0318529Y0161356D01*
X0318605Y0161378D01*
X0318682Y0161397D01*
X0318760Y0161412D01*
X0318838Y0161423D01*
X0318917Y0161430D01*
X0318996Y0161433D01*
X0319075Y0161432D01*
X0319154Y0161427D01*
X0319233Y0161418D01*
X0319311Y0161405D01*
X0319388Y0161388D01*
X0319465Y0161368D01*
X0319540Y0161343D01*
X0319614Y0161315D01*
X0319687Y0161283D01*
X0319757Y0161248D01*
X0319826Y0161209D01*
X0319893Y0161166D01*
X0319958Y0161120D01*
X0320020Y0161072D01*
X0320080Y0161020D01*
X0320137Y0160965D01*
X0320191Y0160907D01*
X0320242Y0160847D01*
X0320290Y0160784D01*
X0320335Y0160719D01*
X0320377Y0160651D01*
X0320415Y0160582D01*
X0320449Y0160511D01*
X0320480Y0160438D01*
X0320508Y0160363D01*
X0320531Y0160288D01*
X0320551Y0160211D01*
X0320567Y0160134D01*
X0320579Y0160055D01*
X0320587Y0159977D01*
X0320591Y0159898D01*
X0320591Y0159818D01*
X0320587Y0159739D01*
X0320579Y0159661D01*
X0320567Y0159582D01*
X0320551Y0159505D01*
X0320531Y0159428D01*
X0320508Y0159353D01*
X0320480Y0159278D01*
X0320449Y0159205D01*
X0320415Y0159134D01*
X0320377Y0159065D01*
X0320335Y0158997D01*
X0320290Y0158932D01*
X0320242Y0158869D01*
X0320191Y0158809D01*
X0320137Y0158751D01*
X0320080Y0158696D01*
X0320020Y0158644D01*
X0319958Y0158596D01*
X0319893Y0158550D01*
X0319826Y0158507D01*
X0319757Y0158468D01*
X0319687Y0158433D01*
X0319614Y0158401D01*
X0319540Y0158373D01*
X0319465Y0158348D01*
X0319388Y0158328D01*
X0319311Y0158311D01*
X0319233Y0158298D01*
X0319154Y0158289D01*
X0319075Y0158284D01*
X0318996Y0158283D01*
X0318917Y0158286D01*
X0318838Y0158293D01*
X0318760Y0158304D01*
X0318682Y0158319D01*
X0318605Y0158338D01*
X0318529Y0158360D01*
X0318455Y0158386D01*
X0318381Y0158416D01*
X0318310Y0158450D01*
X0318240Y0158487D01*
X0318172Y0158528D01*
X0318106Y0158572D01*
X0318043Y0158620D01*
X0317982Y0158670D01*
X0317923Y0158724D01*
X0317868Y0158780D01*
X0317815Y0158839D01*
X0317765Y0158901D01*
X0317719Y0158965D01*
X0317676Y0159031D01*
X0317636Y0159099D01*
X0317599Y0159170D01*
X0317567Y0159242D01*
X0317537Y0159315D01*
X0317512Y0159390D01*
X0317490Y0159466D01*
X0317473Y0159543D01*
X0317459Y0159621D01*
X0317449Y0159700D01*
X0317443Y0159779D01*
X0317441Y0159858D01*
X0341551Y0227378D02*
X0341553Y0227531D01*
X0341559Y0227685D01*
X0341569Y0227838D01*
X0341583Y0227990D01*
X0341601Y0228143D01*
X0341623Y0228294D01*
X0341648Y0228445D01*
X0341678Y0228596D01*
X0341712Y0228746D01*
X0341749Y0228894D01*
X0341790Y0229042D01*
X0341835Y0229188D01*
X0341884Y0229334D01*
X0341937Y0229478D01*
X0341993Y0229620D01*
X0342053Y0229761D01*
X0342117Y0229901D01*
X0342184Y0230039D01*
X0342255Y0230175D01*
X0342330Y0230309D01*
X0342407Y0230441D01*
X0342489Y0230571D01*
X0342573Y0230699D01*
X0342661Y0230825D01*
X0342752Y0230948D01*
X0342846Y0231069D01*
X0342944Y0231187D01*
X0343044Y0231303D01*
X0343148Y0231416D01*
X0343254Y0231527D01*
X0343363Y0231635D01*
X0343475Y0231740D01*
X0343589Y0231841D01*
X0343707Y0231940D01*
X0343826Y0232036D01*
X0343948Y0232129D01*
X0344073Y0232218D01*
X0344200Y0232305D01*
X0344329Y0232387D01*
X0344460Y0232467D01*
X0344593Y0232543D01*
X0344728Y0232616D01*
X0344865Y0232685D01*
X0345004Y0232750D01*
X0345144Y0232812D01*
X0345286Y0232870D01*
X0345429Y0232925D01*
X0345574Y0232976D01*
X0345720Y0233023D01*
X0345867Y0233066D01*
X0346015Y0233105D01*
X0346164Y0233141D01*
X0346314Y0233172D01*
X0346465Y0233200D01*
X0346616Y0233224D01*
X0346769Y0233244D01*
X0346921Y0233260D01*
X0347074Y0233272D01*
X0347227Y0233280D01*
X0347380Y0233284D01*
X0347534Y0233284D01*
X0347687Y0233280D01*
X0347840Y0233272D01*
X0347993Y0233260D01*
X0348145Y0233244D01*
X0348298Y0233224D01*
X0348449Y0233200D01*
X0348600Y0233172D01*
X0348750Y0233141D01*
X0348899Y0233105D01*
X0349047Y0233066D01*
X0349194Y0233023D01*
X0349340Y0232976D01*
X0349485Y0232925D01*
X0349628Y0232870D01*
X0349770Y0232812D01*
X0349910Y0232750D01*
X0350049Y0232685D01*
X0350186Y0232616D01*
X0350321Y0232543D01*
X0350454Y0232467D01*
X0350585Y0232387D01*
X0350714Y0232305D01*
X0350841Y0232218D01*
X0350966Y0232129D01*
X0351088Y0232036D01*
X0351207Y0231940D01*
X0351325Y0231841D01*
X0351439Y0231740D01*
X0351551Y0231635D01*
X0351660Y0231527D01*
X0351766Y0231416D01*
X0351870Y0231303D01*
X0351970Y0231187D01*
X0352068Y0231069D01*
X0352162Y0230948D01*
X0352253Y0230825D01*
X0352341Y0230699D01*
X0352425Y0230571D01*
X0352507Y0230441D01*
X0352584Y0230309D01*
X0352659Y0230175D01*
X0352730Y0230039D01*
X0352797Y0229901D01*
X0352861Y0229761D01*
X0352921Y0229620D01*
X0352977Y0229478D01*
X0353030Y0229334D01*
X0353079Y0229188D01*
X0353124Y0229042D01*
X0353165Y0228894D01*
X0353202Y0228746D01*
X0353236Y0228596D01*
X0353266Y0228445D01*
X0353291Y0228294D01*
X0353313Y0228143D01*
X0353331Y0227990D01*
X0353345Y0227838D01*
X0353355Y0227685D01*
X0353361Y0227531D01*
X0353363Y0227378D01*
X0353361Y0227225D01*
X0353355Y0227071D01*
X0353345Y0226918D01*
X0353331Y0226766D01*
X0353313Y0226613D01*
X0353291Y0226462D01*
X0353266Y0226311D01*
X0353236Y0226160D01*
X0353202Y0226010D01*
X0353165Y0225862D01*
X0353124Y0225714D01*
X0353079Y0225568D01*
X0353030Y0225422D01*
X0352977Y0225278D01*
X0352921Y0225136D01*
X0352861Y0224995D01*
X0352797Y0224855D01*
X0352730Y0224717D01*
X0352659Y0224581D01*
X0352584Y0224447D01*
X0352507Y0224315D01*
X0352425Y0224185D01*
X0352341Y0224057D01*
X0352253Y0223931D01*
X0352162Y0223808D01*
X0352068Y0223687D01*
X0351970Y0223569D01*
X0351870Y0223453D01*
X0351766Y0223340D01*
X0351660Y0223229D01*
X0351551Y0223121D01*
X0351439Y0223016D01*
X0351325Y0222915D01*
X0351207Y0222816D01*
X0351088Y0222720D01*
X0350966Y0222627D01*
X0350841Y0222538D01*
X0350714Y0222451D01*
X0350585Y0222369D01*
X0350454Y0222289D01*
X0350321Y0222213D01*
X0350186Y0222140D01*
X0350049Y0222071D01*
X0349910Y0222006D01*
X0349770Y0221944D01*
X0349628Y0221886D01*
X0349485Y0221831D01*
X0349340Y0221780D01*
X0349194Y0221733D01*
X0349047Y0221690D01*
X0348899Y0221651D01*
X0348750Y0221615D01*
X0348600Y0221584D01*
X0348449Y0221556D01*
X0348298Y0221532D01*
X0348145Y0221512D01*
X0347993Y0221496D01*
X0347840Y0221484D01*
X0347687Y0221476D01*
X0347534Y0221472D01*
X0347380Y0221472D01*
X0347227Y0221476D01*
X0347074Y0221484D01*
X0346921Y0221496D01*
X0346769Y0221512D01*
X0346616Y0221532D01*
X0346465Y0221556D01*
X0346314Y0221584D01*
X0346164Y0221615D01*
X0346015Y0221651D01*
X0345867Y0221690D01*
X0345720Y0221733D01*
X0345574Y0221780D01*
X0345429Y0221831D01*
X0345286Y0221886D01*
X0345144Y0221944D01*
X0345004Y0222006D01*
X0344865Y0222071D01*
X0344728Y0222140D01*
X0344593Y0222213D01*
X0344460Y0222289D01*
X0344329Y0222369D01*
X0344200Y0222451D01*
X0344073Y0222538D01*
X0343948Y0222627D01*
X0343826Y0222720D01*
X0343707Y0222816D01*
X0343589Y0222915D01*
X0343475Y0223016D01*
X0343363Y0223121D01*
X0343254Y0223229D01*
X0343148Y0223340D01*
X0343044Y0223453D01*
X0342944Y0223569D01*
X0342846Y0223687D01*
X0342752Y0223808D01*
X0342661Y0223931D01*
X0342573Y0224057D01*
X0342489Y0224185D01*
X0342407Y0224315D01*
X0342330Y0224447D01*
X0342255Y0224581D01*
X0342184Y0224717D01*
X0342117Y0224855D01*
X0342053Y0224995D01*
X0341993Y0225136D01*
X0341937Y0225278D01*
X0341884Y0225422D01*
X0341835Y0225568D01*
X0341790Y0225714D01*
X0341749Y0225862D01*
X0341712Y0226010D01*
X0341678Y0226160D01*
X0341648Y0226311D01*
X0341623Y0226462D01*
X0341601Y0226613D01*
X0341583Y0226766D01*
X0341569Y0226918D01*
X0341559Y0227071D01*
X0341553Y0227225D01*
X0341551Y0227378D01*
X0316638Y0249709D02*
X0316640Y0249788D01*
X0316646Y0249867D01*
X0316656Y0249946D01*
X0316670Y0250024D01*
X0316687Y0250101D01*
X0316709Y0250177D01*
X0316734Y0250252D01*
X0316764Y0250325D01*
X0316796Y0250397D01*
X0316833Y0250468D01*
X0316873Y0250536D01*
X0316916Y0250602D01*
X0316962Y0250666D01*
X0317012Y0250728D01*
X0317065Y0250787D01*
X0317120Y0250843D01*
X0317179Y0250897D01*
X0317240Y0250947D01*
X0317303Y0250995D01*
X0317369Y0251039D01*
X0317437Y0251080D01*
X0317507Y0251117D01*
X0317578Y0251151D01*
X0317652Y0251181D01*
X0317726Y0251207D01*
X0317802Y0251229D01*
X0317879Y0251248D01*
X0317957Y0251263D01*
X0318035Y0251274D01*
X0318114Y0251281D01*
X0318193Y0251284D01*
X0318272Y0251283D01*
X0318351Y0251278D01*
X0318430Y0251269D01*
X0318508Y0251256D01*
X0318585Y0251239D01*
X0318662Y0251219D01*
X0318737Y0251194D01*
X0318811Y0251166D01*
X0318884Y0251134D01*
X0318954Y0251099D01*
X0319023Y0251060D01*
X0319090Y0251017D01*
X0319155Y0250971D01*
X0319217Y0250923D01*
X0319277Y0250871D01*
X0319334Y0250816D01*
X0319388Y0250758D01*
X0319439Y0250698D01*
X0319487Y0250635D01*
X0319532Y0250570D01*
X0319574Y0250502D01*
X0319612Y0250433D01*
X0319646Y0250362D01*
X0319677Y0250289D01*
X0319705Y0250214D01*
X0319728Y0250139D01*
X0319748Y0250062D01*
X0319764Y0249985D01*
X0319776Y0249906D01*
X0319784Y0249828D01*
X0319788Y0249749D01*
X0319788Y0249669D01*
X0319784Y0249590D01*
X0319776Y0249512D01*
X0319764Y0249433D01*
X0319748Y0249356D01*
X0319728Y0249279D01*
X0319705Y0249204D01*
X0319677Y0249129D01*
X0319646Y0249056D01*
X0319612Y0248985D01*
X0319574Y0248916D01*
X0319532Y0248848D01*
X0319487Y0248783D01*
X0319439Y0248720D01*
X0319388Y0248660D01*
X0319334Y0248602D01*
X0319277Y0248547D01*
X0319217Y0248495D01*
X0319155Y0248447D01*
X0319090Y0248401D01*
X0319023Y0248358D01*
X0318954Y0248319D01*
X0318884Y0248284D01*
X0318811Y0248252D01*
X0318737Y0248224D01*
X0318662Y0248199D01*
X0318585Y0248179D01*
X0318508Y0248162D01*
X0318430Y0248149D01*
X0318351Y0248140D01*
X0318272Y0248135D01*
X0318193Y0248134D01*
X0318114Y0248137D01*
X0318035Y0248144D01*
X0317957Y0248155D01*
X0317879Y0248170D01*
X0317802Y0248189D01*
X0317726Y0248211D01*
X0317652Y0248237D01*
X0317578Y0248267D01*
X0317507Y0248301D01*
X0317437Y0248338D01*
X0317369Y0248379D01*
X0317303Y0248423D01*
X0317240Y0248471D01*
X0317179Y0248521D01*
X0317120Y0248575D01*
X0317065Y0248631D01*
X0317012Y0248690D01*
X0316962Y0248752D01*
X0316916Y0248816D01*
X0316873Y0248882D01*
X0316833Y0248950D01*
X0316796Y0249021D01*
X0316764Y0249093D01*
X0316734Y0249166D01*
X0316709Y0249241D01*
X0316687Y0249317D01*
X0316670Y0249394D01*
X0316656Y0249472D01*
X0316646Y0249551D01*
X0316640Y0249630D01*
X0316638Y0249709D01*
X0380921Y0227378D02*
X0380923Y0227531D01*
X0380929Y0227685D01*
X0380939Y0227838D01*
X0380953Y0227990D01*
X0380971Y0228143D01*
X0380993Y0228294D01*
X0381018Y0228445D01*
X0381048Y0228596D01*
X0381082Y0228746D01*
X0381119Y0228894D01*
X0381160Y0229042D01*
X0381205Y0229188D01*
X0381254Y0229334D01*
X0381307Y0229478D01*
X0381363Y0229620D01*
X0381423Y0229761D01*
X0381487Y0229901D01*
X0381554Y0230039D01*
X0381625Y0230175D01*
X0381700Y0230309D01*
X0381777Y0230441D01*
X0381859Y0230571D01*
X0381943Y0230699D01*
X0382031Y0230825D01*
X0382122Y0230948D01*
X0382216Y0231069D01*
X0382314Y0231187D01*
X0382414Y0231303D01*
X0382518Y0231416D01*
X0382624Y0231527D01*
X0382733Y0231635D01*
X0382845Y0231740D01*
X0382959Y0231841D01*
X0383077Y0231940D01*
X0383196Y0232036D01*
X0383318Y0232129D01*
X0383443Y0232218D01*
X0383570Y0232305D01*
X0383699Y0232387D01*
X0383830Y0232467D01*
X0383963Y0232543D01*
X0384098Y0232616D01*
X0384235Y0232685D01*
X0384374Y0232750D01*
X0384514Y0232812D01*
X0384656Y0232870D01*
X0384799Y0232925D01*
X0384944Y0232976D01*
X0385090Y0233023D01*
X0385237Y0233066D01*
X0385385Y0233105D01*
X0385534Y0233141D01*
X0385684Y0233172D01*
X0385835Y0233200D01*
X0385986Y0233224D01*
X0386139Y0233244D01*
X0386291Y0233260D01*
X0386444Y0233272D01*
X0386597Y0233280D01*
X0386750Y0233284D01*
X0386904Y0233284D01*
X0387057Y0233280D01*
X0387210Y0233272D01*
X0387363Y0233260D01*
X0387515Y0233244D01*
X0387668Y0233224D01*
X0387819Y0233200D01*
X0387970Y0233172D01*
X0388120Y0233141D01*
X0388269Y0233105D01*
X0388417Y0233066D01*
X0388564Y0233023D01*
X0388710Y0232976D01*
X0388855Y0232925D01*
X0388998Y0232870D01*
X0389140Y0232812D01*
X0389280Y0232750D01*
X0389419Y0232685D01*
X0389556Y0232616D01*
X0389691Y0232543D01*
X0389824Y0232467D01*
X0389955Y0232387D01*
X0390084Y0232305D01*
X0390211Y0232218D01*
X0390336Y0232129D01*
X0390458Y0232036D01*
X0390577Y0231940D01*
X0390695Y0231841D01*
X0390809Y0231740D01*
X0390921Y0231635D01*
X0391030Y0231527D01*
X0391136Y0231416D01*
X0391240Y0231303D01*
X0391340Y0231187D01*
X0391438Y0231069D01*
X0391532Y0230948D01*
X0391623Y0230825D01*
X0391711Y0230699D01*
X0391795Y0230571D01*
X0391877Y0230441D01*
X0391954Y0230309D01*
X0392029Y0230175D01*
X0392100Y0230039D01*
X0392167Y0229901D01*
X0392231Y0229761D01*
X0392291Y0229620D01*
X0392347Y0229478D01*
X0392400Y0229334D01*
X0392449Y0229188D01*
X0392494Y0229042D01*
X0392535Y0228894D01*
X0392572Y0228746D01*
X0392606Y0228596D01*
X0392636Y0228445D01*
X0392661Y0228294D01*
X0392683Y0228143D01*
X0392701Y0227990D01*
X0392715Y0227838D01*
X0392725Y0227685D01*
X0392731Y0227531D01*
X0392733Y0227378D01*
X0392731Y0227225D01*
X0392725Y0227071D01*
X0392715Y0226918D01*
X0392701Y0226766D01*
X0392683Y0226613D01*
X0392661Y0226462D01*
X0392636Y0226311D01*
X0392606Y0226160D01*
X0392572Y0226010D01*
X0392535Y0225862D01*
X0392494Y0225714D01*
X0392449Y0225568D01*
X0392400Y0225422D01*
X0392347Y0225278D01*
X0392291Y0225136D01*
X0392231Y0224995D01*
X0392167Y0224855D01*
X0392100Y0224717D01*
X0392029Y0224581D01*
X0391954Y0224447D01*
X0391877Y0224315D01*
X0391795Y0224185D01*
X0391711Y0224057D01*
X0391623Y0223931D01*
X0391532Y0223808D01*
X0391438Y0223687D01*
X0391340Y0223569D01*
X0391240Y0223453D01*
X0391136Y0223340D01*
X0391030Y0223229D01*
X0390921Y0223121D01*
X0390809Y0223016D01*
X0390695Y0222915D01*
X0390577Y0222816D01*
X0390458Y0222720D01*
X0390336Y0222627D01*
X0390211Y0222538D01*
X0390084Y0222451D01*
X0389955Y0222369D01*
X0389824Y0222289D01*
X0389691Y0222213D01*
X0389556Y0222140D01*
X0389419Y0222071D01*
X0389280Y0222006D01*
X0389140Y0221944D01*
X0388998Y0221886D01*
X0388855Y0221831D01*
X0388710Y0221780D01*
X0388564Y0221733D01*
X0388417Y0221690D01*
X0388269Y0221651D01*
X0388120Y0221615D01*
X0387970Y0221584D01*
X0387819Y0221556D01*
X0387668Y0221532D01*
X0387515Y0221512D01*
X0387363Y0221496D01*
X0387210Y0221484D01*
X0387057Y0221476D01*
X0386904Y0221472D01*
X0386750Y0221472D01*
X0386597Y0221476D01*
X0386444Y0221484D01*
X0386291Y0221496D01*
X0386139Y0221512D01*
X0385986Y0221532D01*
X0385835Y0221556D01*
X0385684Y0221584D01*
X0385534Y0221615D01*
X0385385Y0221651D01*
X0385237Y0221690D01*
X0385090Y0221733D01*
X0384944Y0221780D01*
X0384799Y0221831D01*
X0384656Y0221886D01*
X0384514Y0221944D01*
X0384374Y0222006D01*
X0384235Y0222071D01*
X0384098Y0222140D01*
X0383963Y0222213D01*
X0383830Y0222289D01*
X0383699Y0222369D01*
X0383570Y0222451D01*
X0383443Y0222538D01*
X0383318Y0222627D01*
X0383196Y0222720D01*
X0383077Y0222816D01*
X0382959Y0222915D01*
X0382845Y0223016D01*
X0382733Y0223121D01*
X0382624Y0223229D01*
X0382518Y0223340D01*
X0382414Y0223453D01*
X0382314Y0223569D01*
X0382216Y0223687D01*
X0382122Y0223808D01*
X0382031Y0223931D01*
X0381943Y0224057D01*
X0381859Y0224185D01*
X0381777Y0224315D01*
X0381700Y0224447D01*
X0381625Y0224581D01*
X0381554Y0224717D01*
X0381487Y0224855D01*
X0381423Y0224995D01*
X0381363Y0225136D01*
X0381307Y0225278D01*
X0381254Y0225422D01*
X0381205Y0225568D01*
X0381160Y0225714D01*
X0381119Y0225862D01*
X0381082Y0226010D01*
X0381048Y0226160D01*
X0381018Y0226311D01*
X0380993Y0226462D01*
X0380971Y0226613D01*
X0380953Y0226766D01*
X0380939Y0226918D01*
X0380929Y0227071D01*
X0380923Y0227225D01*
X0380921Y0227378D01*
X0210338Y0249709D02*
X0210340Y0249788D01*
X0210346Y0249867D01*
X0210356Y0249946D01*
X0210370Y0250024D01*
X0210387Y0250101D01*
X0210409Y0250177D01*
X0210434Y0250252D01*
X0210464Y0250325D01*
X0210496Y0250397D01*
X0210533Y0250468D01*
X0210573Y0250536D01*
X0210616Y0250602D01*
X0210662Y0250666D01*
X0210712Y0250728D01*
X0210765Y0250787D01*
X0210820Y0250843D01*
X0210879Y0250897D01*
X0210940Y0250947D01*
X0211003Y0250995D01*
X0211069Y0251039D01*
X0211137Y0251080D01*
X0211207Y0251117D01*
X0211278Y0251151D01*
X0211352Y0251181D01*
X0211426Y0251207D01*
X0211502Y0251229D01*
X0211579Y0251248D01*
X0211657Y0251263D01*
X0211735Y0251274D01*
X0211814Y0251281D01*
X0211893Y0251284D01*
X0211972Y0251283D01*
X0212051Y0251278D01*
X0212130Y0251269D01*
X0212208Y0251256D01*
X0212285Y0251239D01*
X0212362Y0251219D01*
X0212437Y0251194D01*
X0212511Y0251166D01*
X0212584Y0251134D01*
X0212654Y0251099D01*
X0212723Y0251060D01*
X0212790Y0251017D01*
X0212855Y0250971D01*
X0212917Y0250923D01*
X0212977Y0250871D01*
X0213034Y0250816D01*
X0213088Y0250758D01*
X0213139Y0250698D01*
X0213187Y0250635D01*
X0213232Y0250570D01*
X0213274Y0250502D01*
X0213312Y0250433D01*
X0213346Y0250362D01*
X0213377Y0250289D01*
X0213405Y0250214D01*
X0213428Y0250139D01*
X0213448Y0250062D01*
X0213464Y0249985D01*
X0213476Y0249906D01*
X0213484Y0249828D01*
X0213488Y0249749D01*
X0213488Y0249669D01*
X0213484Y0249590D01*
X0213476Y0249512D01*
X0213464Y0249433D01*
X0213448Y0249356D01*
X0213428Y0249279D01*
X0213405Y0249204D01*
X0213377Y0249129D01*
X0213346Y0249056D01*
X0213312Y0248985D01*
X0213274Y0248916D01*
X0213232Y0248848D01*
X0213187Y0248783D01*
X0213139Y0248720D01*
X0213088Y0248660D01*
X0213034Y0248602D01*
X0212977Y0248547D01*
X0212917Y0248495D01*
X0212855Y0248447D01*
X0212790Y0248401D01*
X0212723Y0248358D01*
X0212654Y0248319D01*
X0212584Y0248284D01*
X0212511Y0248252D01*
X0212437Y0248224D01*
X0212362Y0248199D01*
X0212285Y0248179D01*
X0212208Y0248162D01*
X0212130Y0248149D01*
X0212051Y0248140D01*
X0211972Y0248135D01*
X0211893Y0248134D01*
X0211814Y0248137D01*
X0211735Y0248144D01*
X0211657Y0248155D01*
X0211579Y0248170D01*
X0211502Y0248189D01*
X0211426Y0248211D01*
X0211352Y0248237D01*
X0211278Y0248267D01*
X0211207Y0248301D01*
X0211137Y0248338D01*
X0211069Y0248379D01*
X0211003Y0248423D01*
X0210940Y0248471D01*
X0210879Y0248521D01*
X0210820Y0248575D01*
X0210765Y0248631D01*
X0210712Y0248690D01*
X0210662Y0248752D01*
X0210616Y0248816D01*
X0210573Y0248882D01*
X0210533Y0248950D01*
X0210496Y0249021D01*
X0210464Y0249093D01*
X0210434Y0249166D01*
X0210409Y0249241D01*
X0210387Y0249317D01*
X0210370Y0249394D01*
X0210356Y0249472D01*
X0210346Y0249551D01*
X0210340Y0249630D01*
X0210338Y0249709D01*
X0150118Y0159858D02*
X0150120Y0159937D01*
X0150126Y0160016D01*
X0150136Y0160095D01*
X0150150Y0160173D01*
X0150167Y0160250D01*
X0150189Y0160326D01*
X0150214Y0160401D01*
X0150244Y0160474D01*
X0150276Y0160546D01*
X0150313Y0160617D01*
X0150353Y0160685D01*
X0150396Y0160751D01*
X0150442Y0160815D01*
X0150492Y0160877D01*
X0150545Y0160936D01*
X0150600Y0160992D01*
X0150659Y0161046D01*
X0150720Y0161096D01*
X0150783Y0161144D01*
X0150849Y0161188D01*
X0150917Y0161229D01*
X0150987Y0161266D01*
X0151058Y0161300D01*
X0151132Y0161330D01*
X0151206Y0161356D01*
X0151282Y0161378D01*
X0151359Y0161397D01*
X0151437Y0161412D01*
X0151515Y0161423D01*
X0151594Y0161430D01*
X0151673Y0161433D01*
X0151752Y0161432D01*
X0151831Y0161427D01*
X0151910Y0161418D01*
X0151988Y0161405D01*
X0152065Y0161388D01*
X0152142Y0161368D01*
X0152217Y0161343D01*
X0152291Y0161315D01*
X0152364Y0161283D01*
X0152434Y0161248D01*
X0152503Y0161209D01*
X0152570Y0161166D01*
X0152635Y0161120D01*
X0152697Y0161072D01*
X0152757Y0161020D01*
X0152814Y0160965D01*
X0152868Y0160907D01*
X0152919Y0160847D01*
X0152967Y0160784D01*
X0153012Y0160719D01*
X0153054Y0160651D01*
X0153092Y0160582D01*
X0153126Y0160511D01*
X0153157Y0160438D01*
X0153185Y0160363D01*
X0153208Y0160288D01*
X0153228Y0160211D01*
X0153244Y0160134D01*
X0153256Y0160055D01*
X0153264Y0159977D01*
X0153268Y0159898D01*
X0153268Y0159818D01*
X0153264Y0159739D01*
X0153256Y0159661D01*
X0153244Y0159582D01*
X0153228Y0159505D01*
X0153208Y0159428D01*
X0153185Y0159353D01*
X0153157Y0159278D01*
X0153126Y0159205D01*
X0153092Y0159134D01*
X0153054Y0159065D01*
X0153012Y0158997D01*
X0152967Y0158932D01*
X0152919Y0158869D01*
X0152868Y0158809D01*
X0152814Y0158751D01*
X0152757Y0158696D01*
X0152697Y0158644D01*
X0152635Y0158596D01*
X0152570Y0158550D01*
X0152503Y0158507D01*
X0152434Y0158468D01*
X0152364Y0158433D01*
X0152291Y0158401D01*
X0152217Y0158373D01*
X0152142Y0158348D01*
X0152065Y0158328D01*
X0151988Y0158311D01*
X0151910Y0158298D01*
X0151831Y0158289D01*
X0151752Y0158284D01*
X0151673Y0158283D01*
X0151594Y0158286D01*
X0151515Y0158293D01*
X0151437Y0158304D01*
X0151359Y0158319D01*
X0151282Y0158338D01*
X0151206Y0158360D01*
X0151132Y0158386D01*
X0151058Y0158416D01*
X0150987Y0158450D01*
X0150917Y0158487D01*
X0150849Y0158528D01*
X0150783Y0158572D01*
X0150720Y0158620D01*
X0150659Y0158670D01*
X0150600Y0158724D01*
X0150545Y0158780D01*
X0150492Y0158839D01*
X0150442Y0158901D01*
X0150396Y0158965D01*
X0150353Y0159031D01*
X0150313Y0159099D01*
X0150276Y0159170D01*
X0150244Y0159242D01*
X0150214Y0159315D01*
X0150189Y0159390D01*
X0150167Y0159466D01*
X0150150Y0159543D01*
X0150136Y0159621D01*
X0150126Y0159700D01*
X0150120Y0159779D01*
X0150118Y0159858D01*
X0150118Y0090961D02*
X0150120Y0091040D01*
X0150126Y0091119D01*
X0150136Y0091198D01*
X0150150Y0091276D01*
X0150167Y0091353D01*
X0150189Y0091429D01*
X0150214Y0091504D01*
X0150244Y0091577D01*
X0150276Y0091649D01*
X0150313Y0091720D01*
X0150353Y0091788D01*
X0150396Y0091854D01*
X0150442Y0091918D01*
X0150492Y0091980D01*
X0150545Y0092039D01*
X0150600Y0092095D01*
X0150659Y0092149D01*
X0150720Y0092199D01*
X0150783Y0092247D01*
X0150849Y0092291D01*
X0150917Y0092332D01*
X0150987Y0092369D01*
X0151058Y0092403D01*
X0151132Y0092433D01*
X0151206Y0092459D01*
X0151282Y0092481D01*
X0151359Y0092500D01*
X0151437Y0092515D01*
X0151515Y0092526D01*
X0151594Y0092533D01*
X0151673Y0092536D01*
X0151752Y0092535D01*
X0151831Y0092530D01*
X0151910Y0092521D01*
X0151988Y0092508D01*
X0152065Y0092491D01*
X0152142Y0092471D01*
X0152217Y0092446D01*
X0152291Y0092418D01*
X0152364Y0092386D01*
X0152434Y0092351D01*
X0152503Y0092312D01*
X0152570Y0092269D01*
X0152635Y0092223D01*
X0152697Y0092175D01*
X0152757Y0092123D01*
X0152814Y0092068D01*
X0152868Y0092010D01*
X0152919Y0091950D01*
X0152967Y0091887D01*
X0153012Y0091822D01*
X0153054Y0091754D01*
X0153092Y0091685D01*
X0153126Y0091614D01*
X0153157Y0091541D01*
X0153185Y0091466D01*
X0153208Y0091391D01*
X0153228Y0091314D01*
X0153244Y0091237D01*
X0153256Y0091158D01*
X0153264Y0091080D01*
X0153268Y0091001D01*
X0153268Y0090921D01*
X0153264Y0090842D01*
X0153256Y0090764D01*
X0153244Y0090685D01*
X0153228Y0090608D01*
X0153208Y0090531D01*
X0153185Y0090456D01*
X0153157Y0090381D01*
X0153126Y0090308D01*
X0153092Y0090237D01*
X0153054Y0090168D01*
X0153012Y0090100D01*
X0152967Y0090035D01*
X0152919Y0089972D01*
X0152868Y0089912D01*
X0152814Y0089854D01*
X0152757Y0089799D01*
X0152697Y0089747D01*
X0152635Y0089699D01*
X0152570Y0089653D01*
X0152503Y0089610D01*
X0152434Y0089571D01*
X0152364Y0089536D01*
X0152291Y0089504D01*
X0152217Y0089476D01*
X0152142Y0089451D01*
X0152065Y0089431D01*
X0151988Y0089414D01*
X0151910Y0089401D01*
X0151831Y0089392D01*
X0151752Y0089387D01*
X0151673Y0089386D01*
X0151594Y0089389D01*
X0151515Y0089396D01*
X0151437Y0089407D01*
X0151359Y0089422D01*
X0151282Y0089441D01*
X0151206Y0089463D01*
X0151132Y0089489D01*
X0151058Y0089519D01*
X0150987Y0089553D01*
X0150917Y0089590D01*
X0150849Y0089631D01*
X0150783Y0089675D01*
X0150720Y0089723D01*
X0150659Y0089773D01*
X0150600Y0089827D01*
X0150545Y0089883D01*
X0150492Y0089942D01*
X0150442Y0090004D01*
X0150396Y0090068D01*
X0150353Y0090134D01*
X0150313Y0090202D01*
X0150276Y0090273D01*
X0150244Y0090345D01*
X0150214Y0090418D01*
X0150189Y0090493D01*
X0150167Y0090569D01*
X0150150Y0090646D01*
X0150136Y0090724D01*
X0150126Y0090803D01*
X0150120Y0090882D01*
X0150118Y0090961D01*
X0150118Y0022063D02*
X0150120Y0022142D01*
X0150126Y0022221D01*
X0150136Y0022300D01*
X0150150Y0022378D01*
X0150167Y0022455D01*
X0150189Y0022531D01*
X0150214Y0022606D01*
X0150244Y0022679D01*
X0150276Y0022751D01*
X0150313Y0022822D01*
X0150353Y0022890D01*
X0150396Y0022956D01*
X0150442Y0023020D01*
X0150492Y0023082D01*
X0150545Y0023141D01*
X0150600Y0023197D01*
X0150659Y0023251D01*
X0150720Y0023301D01*
X0150783Y0023349D01*
X0150849Y0023393D01*
X0150917Y0023434D01*
X0150987Y0023471D01*
X0151058Y0023505D01*
X0151132Y0023535D01*
X0151206Y0023561D01*
X0151282Y0023583D01*
X0151359Y0023602D01*
X0151437Y0023617D01*
X0151515Y0023628D01*
X0151594Y0023635D01*
X0151673Y0023638D01*
X0151752Y0023637D01*
X0151831Y0023632D01*
X0151910Y0023623D01*
X0151988Y0023610D01*
X0152065Y0023593D01*
X0152142Y0023573D01*
X0152217Y0023548D01*
X0152291Y0023520D01*
X0152364Y0023488D01*
X0152434Y0023453D01*
X0152503Y0023414D01*
X0152570Y0023371D01*
X0152635Y0023325D01*
X0152697Y0023277D01*
X0152757Y0023225D01*
X0152814Y0023170D01*
X0152868Y0023112D01*
X0152919Y0023052D01*
X0152967Y0022989D01*
X0153012Y0022924D01*
X0153054Y0022856D01*
X0153092Y0022787D01*
X0153126Y0022716D01*
X0153157Y0022643D01*
X0153185Y0022568D01*
X0153208Y0022493D01*
X0153228Y0022416D01*
X0153244Y0022339D01*
X0153256Y0022260D01*
X0153264Y0022182D01*
X0153268Y0022103D01*
X0153268Y0022023D01*
X0153264Y0021944D01*
X0153256Y0021866D01*
X0153244Y0021787D01*
X0153228Y0021710D01*
X0153208Y0021633D01*
X0153185Y0021558D01*
X0153157Y0021483D01*
X0153126Y0021410D01*
X0153092Y0021339D01*
X0153054Y0021270D01*
X0153012Y0021202D01*
X0152967Y0021137D01*
X0152919Y0021074D01*
X0152868Y0021014D01*
X0152814Y0020956D01*
X0152757Y0020901D01*
X0152697Y0020849D01*
X0152635Y0020801D01*
X0152570Y0020755D01*
X0152503Y0020712D01*
X0152434Y0020673D01*
X0152364Y0020638D01*
X0152291Y0020606D01*
X0152217Y0020578D01*
X0152142Y0020553D01*
X0152065Y0020533D01*
X0151988Y0020516D01*
X0151910Y0020503D01*
X0151831Y0020494D01*
X0151752Y0020489D01*
X0151673Y0020488D01*
X0151594Y0020491D01*
X0151515Y0020498D01*
X0151437Y0020509D01*
X0151359Y0020524D01*
X0151282Y0020543D01*
X0151206Y0020565D01*
X0151132Y0020591D01*
X0151058Y0020621D01*
X0150987Y0020655D01*
X0150917Y0020692D01*
X0150849Y0020733D01*
X0150783Y0020777D01*
X0150720Y0020825D01*
X0150659Y0020875D01*
X0150600Y0020929D01*
X0150545Y0020985D01*
X0150492Y0021044D01*
X0150442Y0021106D01*
X0150396Y0021170D01*
X0150353Y0021236D01*
X0150313Y0021304D01*
X0150276Y0021375D01*
X0150244Y0021447D01*
X0150214Y0021520D01*
X0150189Y0021595D01*
X0150167Y0021671D01*
X0150150Y0021748D01*
X0150136Y0021826D01*
X0150126Y0021905D01*
X0150120Y0021984D01*
X0150118Y0022063D01*
X0104039Y0249709D02*
X0104041Y0249788D01*
X0104047Y0249867D01*
X0104057Y0249946D01*
X0104071Y0250024D01*
X0104088Y0250101D01*
X0104110Y0250177D01*
X0104135Y0250252D01*
X0104165Y0250325D01*
X0104197Y0250397D01*
X0104234Y0250468D01*
X0104274Y0250536D01*
X0104317Y0250602D01*
X0104363Y0250666D01*
X0104413Y0250728D01*
X0104466Y0250787D01*
X0104521Y0250843D01*
X0104580Y0250897D01*
X0104641Y0250947D01*
X0104704Y0250995D01*
X0104770Y0251039D01*
X0104838Y0251080D01*
X0104908Y0251117D01*
X0104979Y0251151D01*
X0105053Y0251181D01*
X0105127Y0251207D01*
X0105203Y0251229D01*
X0105280Y0251248D01*
X0105358Y0251263D01*
X0105436Y0251274D01*
X0105515Y0251281D01*
X0105594Y0251284D01*
X0105673Y0251283D01*
X0105752Y0251278D01*
X0105831Y0251269D01*
X0105909Y0251256D01*
X0105986Y0251239D01*
X0106063Y0251219D01*
X0106138Y0251194D01*
X0106212Y0251166D01*
X0106285Y0251134D01*
X0106355Y0251099D01*
X0106424Y0251060D01*
X0106491Y0251017D01*
X0106556Y0250971D01*
X0106618Y0250923D01*
X0106678Y0250871D01*
X0106735Y0250816D01*
X0106789Y0250758D01*
X0106840Y0250698D01*
X0106888Y0250635D01*
X0106933Y0250570D01*
X0106975Y0250502D01*
X0107013Y0250433D01*
X0107047Y0250362D01*
X0107078Y0250289D01*
X0107106Y0250214D01*
X0107129Y0250139D01*
X0107149Y0250062D01*
X0107165Y0249985D01*
X0107177Y0249906D01*
X0107185Y0249828D01*
X0107189Y0249749D01*
X0107189Y0249669D01*
X0107185Y0249590D01*
X0107177Y0249512D01*
X0107165Y0249433D01*
X0107149Y0249356D01*
X0107129Y0249279D01*
X0107106Y0249204D01*
X0107078Y0249129D01*
X0107047Y0249056D01*
X0107013Y0248985D01*
X0106975Y0248916D01*
X0106933Y0248848D01*
X0106888Y0248783D01*
X0106840Y0248720D01*
X0106789Y0248660D01*
X0106735Y0248602D01*
X0106678Y0248547D01*
X0106618Y0248495D01*
X0106556Y0248447D01*
X0106491Y0248401D01*
X0106424Y0248358D01*
X0106355Y0248319D01*
X0106285Y0248284D01*
X0106212Y0248252D01*
X0106138Y0248224D01*
X0106063Y0248199D01*
X0105986Y0248179D01*
X0105909Y0248162D01*
X0105831Y0248149D01*
X0105752Y0248140D01*
X0105673Y0248135D01*
X0105594Y0248134D01*
X0105515Y0248137D01*
X0105436Y0248144D01*
X0105358Y0248155D01*
X0105280Y0248170D01*
X0105203Y0248189D01*
X0105127Y0248211D01*
X0105053Y0248237D01*
X0104979Y0248267D01*
X0104908Y0248301D01*
X0104838Y0248338D01*
X0104770Y0248379D01*
X0104704Y0248423D01*
X0104641Y0248471D01*
X0104580Y0248521D01*
X0104521Y0248575D01*
X0104466Y0248631D01*
X0104413Y0248690D01*
X0104363Y0248752D01*
X0104317Y0248816D01*
X0104274Y0248882D01*
X0104234Y0248950D01*
X0104197Y0249021D01*
X0104165Y0249093D01*
X0104135Y0249166D01*
X0104110Y0249241D01*
X0104088Y0249317D01*
X0104071Y0249394D01*
X0104057Y0249472D01*
X0104047Y0249551D01*
X0104041Y0249630D01*
X0104039Y0249709D01*
D15*
X0347457Y0227378D03*
X0386827Y0227378D03*
X0386827Y0109268D03*
X0347457Y0109268D03*
X0347457Y0010843D03*
X0386827Y0010843D03*
D16*
X0356275Y0271937D02*
X0356279Y0272223D01*
X0356289Y0272509D01*
X0356307Y0272795D01*
X0356331Y0273080D01*
X0356363Y0273365D01*
X0356401Y0273648D01*
X0356447Y0273931D01*
X0356499Y0274212D01*
X0356558Y0274492D01*
X0356624Y0274771D01*
X0356697Y0275047D01*
X0356777Y0275322D01*
X0356864Y0275595D01*
X0356957Y0275866D01*
X0357056Y0276134D01*
X0357163Y0276400D01*
X0357275Y0276663D01*
X0357395Y0276923D01*
X0357520Y0277180D01*
X0357652Y0277434D01*
X0357790Y0277685D01*
X0357934Y0277932D01*
X0358084Y0278176D01*
X0358240Y0278416D01*
X0358402Y0278652D01*
X0358570Y0278884D01*
X0358743Y0279112D01*
X0358922Y0279335D01*
X0359106Y0279554D01*
X0359296Y0279769D01*
X0359491Y0279978D01*
X0359691Y0280183D01*
X0359896Y0280383D01*
X0360105Y0280578D01*
X0360320Y0280768D01*
X0360539Y0280952D01*
X0360762Y0281131D01*
X0360990Y0281304D01*
X0361222Y0281472D01*
X0361458Y0281634D01*
X0361698Y0281790D01*
X0361942Y0281940D01*
X0362189Y0282084D01*
X0362440Y0282222D01*
X0362694Y0282354D01*
X0362951Y0282479D01*
X0363211Y0282599D01*
X0363474Y0282711D01*
X0363740Y0282818D01*
X0364008Y0282917D01*
X0364279Y0283010D01*
X0364552Y0283097D01*
X0364827Y0283177D01*
X0365103Y0283250D01*
X0365382Y0283316D01*
X0365662Y0283375D01*
X0365943Y0283427D01*
X0366226Y0283473D01*
X0366509Y0283511D01*
X0366794Y0283543D01*
X0367079Y0283567D01*
X0367365Y0283585D01*
X0367651Y0283595D01*
X0367937Y0283599D01*
X0368223Y0283595D01*
X0368509Y0283585D01*
X0368795Y0283567D01*
X0369080Y0283543D01*
X0369365Y0283511D01*
X0369648Y0283473D01*
X0369931Y0283427D01*
X0370212Y0283375D01*
X0370492Y0283316D01*
X0370771Y0283250D01*
X0371047Y0283177D01*
X0371322Y0283097D01*
X0371595Y0283010D01*
X0371866Y0282917D01*
X0372134Y0282818D01*
X0372400Y0282711D01*
X0372663Y0282599D01*
X0372923Y0282479D01*
X0373180Y0282354D01*
X0373434Y0282222D01*
X0373685Y0282084D01*
X0373932Y0281940D01*
X0374176Y0281790D01*
X0374416Y0281634D01*
X0374652Y0281472D01*
X0374884Y0281304D01*
X0375112Y0281131D01*
X0375335Y0280952D01*
X0375554Y0280768D01*
X0375769Y0280578D01*
X0375978Y0280383D01*
X0376183Y0280183D01*
X0376383Y0279978D01*
X0376578Y0279769D01*
X0376768Y0279554D01*
X0376952Y0279335D01*
X0377131Y0279112D01*
X0377304Y0278884D01*
X0377472Y0278652D01*
X0377634Y0278416D01*
X0377790Y0278176D01*
X0377940Y0277932D01*
X0378084Y0277685D01*
X0378222Y0277434D01*
X0378354Y0277180D01*
X0378479Y0276923D01*
X0378599Y0276663D01*
X0378711Y0276400D01*
X0378818Y0276134D01*
X0378917Y0275866D01*
X0379010Y0275595D01*
X0379097Y0275322D01*
X0379177Y0275047D01*
X0379250Y0274771D01*
X0379316Y0274492D01*
X0379375Y0274212D01*
X0379427Y0273931D01*
X0379473Y0273648D01*
X0379511Y0273365D01*
X0379543Y0273080D01*
X0379567Y0272795D01*
X0379585Y0272509D01*
X0379595Y0272223D01*
X0379599Y0271937D01*
X0379595Y0271651D01*
X0379585Y0271365D01*
X0379567Y0271079D01*
X0379543Y0270794D01*
X0379511Y0270509D01*
X0379473Y0270226D01*
X0379427Y0269943D01*
X0379375Y0269662D01*
X0379316Y0269382D01*
X0379250Y0269103D01*
X0379177Y0268827D01*
X0379097Y0268552D01*
X0379010Y0268279D01*
X0378917Y0268008D01*
X0378818Y0267740D01*
X0378711Y0267474D01*
X0378599Y0267211D01*
X0378479Y0266951D01*
X0378354Y0266694D01*
X0378222Y0266440D01*
X0378084Y0266189D01*
X0377940Y0265942D01*
X0377790Y0265698D01*
X0377634Y0265458D01*
X0377472Y0265222D01*
X0377304Y0264990D01*
X0377131Y0264762D01*
X0376952Y0264539D01*
X0376768Y0264320D01*
X0376578Y0264105D01*
X0376383Y0263896D01*
X0376183Y0263691D01*
X0375978Y0263491D01*
X0375769Y0263296D01*
X0375554Y0263106D01*
X0375335Y0262922D01*
X0375112Y0262743D01*
X0374884Y0262570D01*
X0374652Y0262402D01*
X0374416Y0262240D01*
X0374176Y0262084D01*
X0373932Y0261934D01*
X0373685Y0261790D01*
X0373434Y0261652D01*
X0373180Y0261520D01*
X0372923Y0261395D01*
X0372663Y0261275D01*
X0372400Y0261163D01*
X0372134Y0261056D01*
X0371866Y0260957D01*
X0371595Y0260864D01*
X0371322Y0260777D01*
X0371047Y0260697D01*
X0370771Y0260624D01*
X0370492Y0260558D01*
X0370212Y0260499D01*
X0369931Y0260447D01*
X0369648Y0260401D01*
X0369365Y0260363D01*
X0369080Y0260331D01*
X0368795Y0260307D01*
X0368509Y0260289D01*
X0368223Y0260279D01*
X0367937Y0260275D01*
X0367651Y0260279D01*
X0367365Y0260289D01*
X0367079Y0260307D01*
X0366794Y0260331D01*
X0366509Y0260363D01*
X0366226Y0260401D01*
X0365943Y0260447D01*
X0365662Y0260499D01*
X0365382Y0260558D01*
X0365103Y0260624D01*
X0364827Y0260697D01*
X0364552Y0260777D01*
X0364279Y0260864D01*
X0364008Y0260957D01*
X0363740Y0261056D01*
X0363474Y0261163D01*
X0363211Y0261275D01*
X0362951Y0261395D01*
X0362694Y0261520D01*
X0362440Y0261652D01*
X0362189Y0261790D01*
X0361942Y0261934D01*
X0361698Y0262084D01*
X0361458Y0262240D01*
X0361222Y0262402D01*
X0360990Y0262570D01*
X0360762Y0262743D01*
X0360539Y0262922D01*
X0360320Y0263106D01*
X0360105Y0263296D01*
X0359896Y0263491D01*
X0359691Y0263691D01*
X0359491Y0263896D01*
X0359296Y0264105D01*
X0359106Y0264320D01*
X0358922Y0264539D01*
X0358743Y0264762D01*
X0358570Y0264990D01*
X0358402Y0265222D01*
X0358240Y0265458D01*
X0358084Y0265698D01*
X0357934Y0265942D01*
X0357790Y0266189D01*
X0357652Y0266440D01*
X0357520Y0266694D01*
X0357395Y0266951D01*
X0357275Y0267211D01*
X0357163Y0267474D01*
X0357056Y0267740D01*
X0356957Y0268008D01*
X0356864Y0268279D01*
X0356777Y0268552D01*
X0356697Y0268827D01*
X0356624Y0269103D01*
X0356558Y0269382D01*
X0356499Y0269662D01*
X0356447Y0269943D01*
X0356401Y0270226D01*
X0356363Y0270509D01*
X0356331Y0270794D01*
X0356307Y0271079D01*
X0356289Y0271365D01*
X0356279Y0271651D01*
X0356275Y0271937D01*
D17*
X0338213Y0310150D03*
X0328213Y0310150D03*
X0318213Y0310150D03*
X0328213Y0330181D03*
X0348213Y0340150D03*
X0358213Y0340150D03*
X0368213Y0340150D03*
X0378213Y0340150D03*
X0388213Y0340181D03*
X0388213Y0330181D03*
X0388213Y0320150D03*
X0388213Y0310181D03*
X0388213Y0350181D03*
X0388213Y0360181D03*
X0388213Y0370181D03*
X0388213Y0380181D03*
X0338213Y0350181D03*
X0318213Y0360181D03*
X0318213Y0370181D03*
X0318213Y0380181D03*
X0328213Y0380181D03*
X0328213Y0390181D03*
X0318213Y0390181D03*
X0308213Y0390181D03*
X0308213Y0380181D03*
X0308213Y0370181D03*
X0308213Y0360181D03*
X0308213Y0350181D03*
X0308213Y0340150D03*
X0289787Y0340181D03*
X0289787Y0330181D03*
X0289787Y0320150D03*
X0289787Y0310181D03*
X0279787Y0340150D03*
X0269787Y0340150D03*
X0259787Y0340150D03*
X0249787Y0340150D03*
X0239787Y0350181D03*
X0219787Y0360181D03*
X0209787Y0360181D03*
X0209787Y0350181D03*
X0209787Y0340150D03*
X0191362Y0340181D03*
X0181362Y0340150D03*
X0191362Y0330181D03*
X0191362Y0320150D03*
X0191362Y0310181D03*
X0219787Y0310150D03*
X0229787Y0310150D03*
X0239787Y0310150D03*
X0229787Y0330181D03*
X0219787Y0370181D03*
X0209787Y0370181D03*
X0209787Y0380181D03*
X0219787Y0380181D03*
X0219787Y0390181D03*
X0209787Y0390181D03*
X0229787Y0390181D03*
X0229787Y0380181D03*
X0191362Y0380181D03*
X0191362Y0370181D03*
X0191362Y0360181D03*
X0191362Y0350181D03*
X0171362Y0340150D03*
X0161362Y0340150D03*
X0151362Y0340150D03*
X0141362Y0350181D03*
X0131362Y0330181D03*
X0131362Y0310150D03*
X0121362Y0310150D03*
X0141362Y0310150D03*
X0139378Y0279583D03*
X0129378Y0279583D03*
X0129378Y0269583D03*
X0139378Y0269583D03*
X0139378Y0259583D03*
X0129378Y0259583D03*
X0129378Y0249583D03*
X0139378Y0249583D03*
X0142752Y0199394D03*
X0132752Y0199394D03*
X0122752Y0199394D03*
X0112752Y0199394D03*
X0102752Y0199394D03*
X0092752Y0199394D03*
X0112752Y0149394D03*
X0122752Y0149394D03*
X0132752Y0149394D03*
X0132752Y0130496D03*
X0142752Y0130496D03*
X0152752Y0130496D03*
X0162752Y0130496D03*
X0180075Y0130496D03*
X0180075Y0120496D03*
X0190075Y0120496D03*
X0200075Y0120496D03*
X0190075Y0130496D03*
X0190075Y0110496D03*
X0190075Y0100496D03*
X0180075Y0100496D03*
X0180075Y0110496D03*
X0180075Y0090496D03*
X0180075Y0080496D03*
X0180075Y0061598D03*
X0180075Y0051598D03*
X0180075Y0041598D03*
X0180075Y0031598D03*
X0180075Y0021598D03*
X0180075Y0011598D03*
X0190075Y0031598D03*
X0190075Y0041598D03*
X0190075Y0051598D03*
X0200075Y0051598D03*
X0190075Y0061598D03*
X0162752Y0061598D03*
X0152752Y0061598D03*
X0142752Y0061598D03*
X0132752Y0061598D03*
X0122752Y0061598D03*
X0112752Y0061598D03*
X0102752Y0061598D03*
X0092752Y0061598D03*
X0112752Y0080496D03*
X0122752Y0080496D03*
X0132752Y0080496D03*
X0122752Y0130496D03*
X0112752Y0130496D03*
X0102752Y0130496D03*
X0092752Y0130496D03*
X0042752Y0159394D03*
X0022752Y0169394D03*
X0022752Y0179394D03*
X0012752Y0179394D03*
X0012752Y0169394D03*
X0012752Y0159394D03*
X0012752Y0149394D03*
X0012752Y0130496D03*
X0012752Y0120496D03*
X0022752Y0120496D03*
X0022752Y0130496D03*
X0032752Y0120496D03*
X0022752Y0110496D03*
X0022752Y0100496D03*
X0012752Y0100496D03*
X0012752Y0110496D03*
X0012752Y0090496D03*
X0012752Y0080496D03*
X0012752Y0061598D03*
X0022752Y0061598D03*
X0022752Y0051598D03*
X0022752Y0041598D03*
X0012752Y0041598D03*
X0012752Y0051598D03*
X0012752Y0031598D03*
X0012752Y0021598D03*
X0022752Y0031598D03*
X0012752Y0011598D03*
X0042752Y0021598D03*
X0032752Y0051598D03*
X0042752Y0090496D03*
X0112752Y0011598D03*
X0122752Y0011598D03*
X0132752Y0011598D03*
X0210075Y0021598D03*
X0260075Y0061598D03*
X0270075Y0061598D03*
X0280075Y0061598D03*
X0290075Y0061598D03*
X0300075Y0061598D03*
X0310075Y0061598D03*
X0320075Y0061598D03*
X0330075Y0061598D03*
X0346433Y0037906D03*
X0356433Y0037906D03*
X0366433Y0037906D03*
X0376433Y0037906D03*
X0376433Y0027906D03*
X0366433Y0027906D03*
X0356433Y0027906D03*
X0346433Y0027906D03*
X0300075Y0011598D03*
X0290075Y0011598D03*
X0280075Y0011598D03*
X0280075Y0080496D03*
X0290075Y0080496D03*
X0300075Y0080496D03*
X0300075Y0130496D03*
X0290075Y0130496D03*
X0280075Y0130496D03*
X0270075Y0130496D03*
X0260075Y0130496D03*
X0280075Y0149394D03*
X0290075Y0149394D03*
X0300075Y0149394D03*
X0310075Y0130496D03*
X0320075Y0130496D03*
X0330075Y0130496D03*
X0330075Y0199394D03*
X0320075Y0199394D03*
X0310075Y0199394D03*
X0300075Y0199394D03*
X0290075Y0199394D03*
X0280075Y0199394D03*
X0270075Y0199394D03*
X0260075Y0199394D03*
X0210075Y0159394D03*
X0190075Y0169394D03*
X0190075Y0179394D03*
X0190075Y0189394D03*
X0190075Y0199394D03*
X0200075Y0189394D03*
X0180075Y0189394D03*
X0180075Y0199394D03*
X0162752Y0199394D03*
X0152752Y0199394D03*
X0180075Y0179394D03*
X0180075Y0169394D03*
X0180075Y0159394D03*
X0180075Y0149394D03*
X0210075Y0090496D03*
X0235677Y0249583D03*
X0235677Y0259583D03*
X0235677Y0269583D03*
X0235677Y0279583D03*
X0245677Y0279583D03*
X0245677Y0269583D03*
X0245677Y0259583D03*
X0245677Y0249583D03*
X0289787Y0350181D03*
X0289787Y0360181D03*
X0289787Y0370181D03*
X0289787Y0380181D03*
X0131362Y0380181D03*
X0121362Y0380181D03*
X0121362Y0370181D03*
X0111362Y0370181D03*
X0111362Y0380181D03*
X0111362Y0390181D03*
X0121362Y0390181D03*
X0131362Y0390181D03*
X0121362Y0360181D03*
X0111362Y0360181D03*
X0111362Y0350181D03*
X0111362Y0340150D03*
X0092937Y0340181D03*
X0092937Y0330181D03*
X0092937Y0320150D03*
X0092937Y0310181D03*
X0082937Y0340150D03*
X0072937Y0340150D03*
X0062937Y0340150D03*
X0052937Y0340150D03*
X0042937Y0350181D03*
X0032937Y0330181D03*
X0032937Y0310150D03*
X0042937Y0310150D03*
X0022937Y0310150D03*
X0012937Y0340150D03*
X0012937Y0350181D03*
X0012937Y0360181D03*
X0022937Y0360181D03*
X0022937Y0370181D03*
X0012937Y0370181D03*
X0012937Y0380181D03*
X0022937Y0380181D03*
X0032937Y0380181D03*
X0032937Y0390181D03*
X0022937Y0390181D03*
X0012937Y0390181D03*
X0092937Y0380181D03*
X0092937Y0370181D03*
X0092937Y0360181D03*
X0092937Y0350181D03*
X0033079Y0279583D03*
X0033079Y0269583D03*
X0023079Y0269583D03*
X0023079Y0279583D03*
X0023079Y0259583D03*
X0023079Y0249583D03*
X0033079Y0249583D03*
X0033079Y0259583D03*
X0022752Y0199394D03*
X0012752Y0199394D03*
X0012752Y0189394D03*
X0022752Y0189394D03*
X0032752Y0189394D03*
D18*
X0032752Y0199394D03*
X0032752Y0179394D03*
X0032752Y0169394D03*
X0032752Y0159394D03*
X0032752Y0149394D03*
X0022752Y0159394D03*
X0032752Y0130496D03*
X0032752Y0110496D03*
X0032752Y0100496D03*
X0032752Y0090496D03*
X0032752Y0080496D03*
X0022752Y0090496D03*
X0032752Y0061598D03*
X0032752Y0041598D03*
X0032752Y0031598D03*
X0032752Y0021598D03*
X0032752Y0011598D03*
X0022752Y0021598D03*
X0052752Y0011598D03*
X0062752Y0011598D03*
X0072752Y0011598D03*
X0082752Y0011598D03*
X0082752Y0080496D03*
X0072752Y0080496D03*
X0062752Y0080496D03*
X0052752Y0080496D03*
X0052752Y0149394D03*
X0062752Y0149394D03*
X0072752Y0149394D03*
X0082752Y0149394D03*
X0190075Y0159394D03*
X0200075Y0159394D03*
X0200075Y0149394D03*
X0200075Y0130496D03*
X0200075Y0110496D03*
X0200075Y0100496D03*
X0200075Y0090496D03*
X0200075Y0080496D03*
X0190075Y0090496D03*
X0200075Y0061598D03*
X0200075Y0041598D03*
X0200075Y0031598D03*
X0200075Y0021598D03*
X0190075Y0021598D03*
X0200075Y0011598D03*
X0220075Y0011598D03*
X0230075Y0011598D03*
X0240075Y0011598D03*
X0250075Y0011598D03*
X0250075Y0080496D03*
X0240075Y0080496D03*
X0230075Y0080496D03*
X0220075Y0080496D03*
X0220075Y0149394D03*
X0230075Y0149394D03*
X0240075Y0149394D03*
X0250075Y0149394D03*
X0200075Y0169394D03*
X0200075Y0179394D03*
X0200075Y0199394D03*
X0219787Y0350181D03*
X0229787Y0350181D03*
X0229787Y0360181D03*
X0229787Y0370181D03*
X0318213Y0350181D03*
X0328213Y0350181D03*
X0328213Y0360181D03*
X0328213Y0370181D03*
X0131362Y0370181D03*
X0131362Y0360181D03*
X0131362Y0350181D03*
X0121362Y0350181D03*
X0032937Y0350181D03*
X0032937Y0360181D03*
X0032937Y0370181D03*
X0022937Y0350181D03*
D19*
X0042937Y0392181D03*
X0052937Y0392181D03*
X0062937Y0392181D03*
X0072937Y0392181D03*
X0082937Y0392150D03*
X0141362Y0392181D03*
X0151362Y0392181D03*
X0161362Y0392181D03*
X0171362Y0392181D03*
X0181362Y0392150D03*
X0239787Y0392181D03*
X0249787Y0392181D03*
X0259787Y0392181D03*
X0269787Y0392181D03*
X0279787Y0392150D03*
X0338213Y0392181D03*
X0348213Y0392181D03*
X0358213Y0392181D03*
X0368213Y0392181D03*
X0378213Y0392150D03*
X0250075Y0201394D03*
X0240075Y0201394D03*
X0230075Y0201394D03*
X0220075Y0201394D03*
X0210075Y0201394D03*
X0210075Y0132496D03*
X0220075Y0132496D03*
X0230075Y0132496D03*
X0240075Y0132496D03*
X0250075Y0132496D03*
X0290075Y0110496D03*
X0250075Y0063598D03*
X0240075Y0063598D03*
X0230075Y0063598D03*
X0220075Y0063598D03*
X0210075Y0063598D03*
X0290075Y0041598D03*
X0290075Y0179394D03*
X0122752Y0179394D03*
X0082752Y0201394D03*
X0072752Y0201394D03*
X0062752Y0201394D03*
X0052752Y0201394D03*
X0042752Y0201394D03*
X0042752Y0132496D03*
X0052752Y0132496D03*
X0062752Y0132496D03*
X0072752Y0132496D03*
X0082752Y0132496D03*
X0122752Y0110496D03*
X0082752Y0063598D03*
X0072752Y0063598D03*
X0062752Y0063598D03*
X0052752Y0063598D03*
X0042752Y0063598D03*
X0122752Y0041598D03*
D20*
X0112752Y0031598D03*
X0151702Y0037798D03*
X0190075Y0011598D03*
X0210075Y0061630D03*
X0190075Y0080496D03*
X0151702Y0106696D03*
X0112752Y0100496D03*
X0112752Y0169394D03*
X0151702Y0175594D03*
X0190075Y0149394D03*
X0210075Y0130528D03*
X0210075Y0199425D03*
X0189378Y0239583D03*
X0179378Y0239583D03*
X0151362Y0330150D03*
X0141362Y0330150D03*
X0141362Y0390181D03*
X0052937Y0330150D03*
X0042937Y0330150D03*
X0042937Y0390181D03*
X0073079Y0239583D03*
X0083079Y0239583D03*
X0042752Y0199425D03*
X0022752Y0149394D03*
X0042752Y0130528D03*
X0022752Y0080496D03*
X0042752Y0061630D03*
X0022752Y0011598D03*
X0280075Y0031598D03*
X0319025Y0037798D03*
X0280075Y0100496D03*
X0319025Y0106696D03*
X0280075Y0169394D03*
X0319025Y0175594D03*
X0295677Y0239583D03*
X0285677Y0239583D03*
X0249787Y0330150D03*
X0239787Y0330150D03*
X0239787Y0390181D03*
X0338213Y0390181D03*
X0338213Y0330150D03*
X0348213Y0330150D03*
D21*
X0285677Y0269583D03*
X0275677Y0269583D03*
X0265677Y0269583D03*
X0265677Y0259583D03*
X0255677Y0259583D03*
X0255677Y0249583D03*
X0255677Y0239583D03*
X0245677Y0239583D03*
X0235677Y0239583D03*
X0265677Y0239583D03*
X0275677Y0239583D03*
X0301677Y0249583D03*
X0305677Y0239583D03*
X0280075Y0181394D03*
X0270075Y0149394D03*
X0260075Y0149394D03*
X0280075Y0112496D03*
X0270075Y0080496D03*
X0260075Y0080496D03*
X0220075Y0090496D03*
X0280075Y0043598D03*
X0270075Y0011598D03*
X0260075Y0011598D03*
X0220075Y0021598D03*
X0112752Y0043598D03*
X0102752Y0011598D03*
X0092752Y0011598D03*
X0052752Y0021598D03*
X0092752Y0080496D03*
X0102752Y0080496D03*
X0112752Y0112496D03*
X0102752Y0149394D03*
X0092752Y0149394D03*
X0112752Y0181394D03*
X0129378Y0239583D03*
X0139378Y0239583D03*
X0149378Y0239583D03*
X0159378Y0239583D03*
X0169378Y0239583D03*
X0159378Y0259583D03*
X0149378Y0259583D03*
X0149378Y0249583D03*
X0159378Y0269583D03*
X0169378Y0269583D03*
X0179378Y0269583D03*
X0195378Y0249583D03*
X0199378Y0239583D03*
X0220075Y0159394D03*
X0093079Y0239583D03*
X0089079Y0249583D03*
X0073079Y0269583D03*
X0063079Y0269583D03*
X0053079Y0269583D03*
X0053079Y0259583D03*
X0043079Y0259583D03*
X0043079Y0249583D03*
X0043079Y0239583D03*
X0033079Y0239583D03*
X0023079Y0239583D03*
X0053079Y0239583D03*
X0063079Y0239583D03*
X0052752Y0159394D03*
X0052752Y0090496D03*
D22*
X0137752Y0088150D03*
X0137752Y0094843D03*
X0137752Y0101650D03*
X0137752Y0108343D03*
X0137752Y0115150D03*
X0137752Y0121843D03*
X0137752Y0157047D03*
X0137752Y0163740D03*
X0137752Y0170547D03*
X0137752Y0177240D03*
X0137752Y0184047D03*
X0137752Y0190740D03*
X0137752Y0052945D03*
X0137752Y0046252D03*
X0137752Y0039445D03*
X0137752Y0032752D03*
X0137752Y0025945D03*
X0137752Y0019252D03*
X0305075Y0019252D03*
X0305075Y0025945D03*
X0305075Y0032752D03*
X0305075Y0039445D03*
X0305075Y0046252D03*
X0305075Y0052945D03*
X0305075Y0088150D03*
X0305075Y0094843D03*
X0305075Y0101650D03*
X0305075Y0108343D03*
X0305075Y0115150D03*
X0305075Y0121843D03*
X0305075Y0157047D03*
X0305075Y0163740D03*
X0305075Y0170547D03*
X0305075Y0177240D03*
X0305075Y0184047D03*
X0305075Y0190740D03*
D23*
X0316457Y0172850D03*
X0316457Y0170291D03*
X0316457Y0167732D03*
X0316457Y0165173D03*
X0316457Y0162614D03*
X0316457Y0103953D03*
X0316457Y0101394D03*
X0316457Y0098835D03*
X0316457Y0096276D03*
X0316457Y0093717D03*
X0316457Y0035055D03*
X0316457Y0032496D03*
X0316457Y0029937D03*
X0316457Y0027378D03*
X0316457Y0024819D03*
X0149134Y0024819D03*
X0149134Y0027378D03*
X0149134Y0029937D03*
X0149134Y0032496D03*
X0149134Y0035055D03*
X0149134Y0093717D03*
X0149134Y0096276D03*
X0149134Y0098835D03*
X0149134Y0101394D03*
X0149134Y0103953D03*
X0149134Y0162614D03*
X0149134Y0165173D03*
X0149134Y0167732D03*
X0149134Y0170291D03*
X0149134Y0172850D03*
X0103055Y0252465D03*
X0103055Y0255024D03*
X0103055Y0257583D03*
X0103055Y0260142D03*
X0103055Y0262701D03*
X0209354Y0262701D03*
X0209354Y0260142D03*
X0209354Y0257583D03*
X0209354Y0255024D03*
X0209354Y0252465D03*
X0315654Y0252465D03*
X0315654Y0255024D03*
X0315654Y0257583D03*
X0315654Y0260142D03*
X0315654Y0262701D03*
D24*
X0326677Y0271693D03*
X0326677Y0243472D03*
X0327480Y0181843D03*
X0327480Y0153622D03*
X0327480Y0112945D03*
X0327480Y0084724D03*
X0327480Y0044047D03*
X0327480Y0015827D03*
X0160157Y0015827D03*
X0160157Y0044047D03*
X0160157Y0084724D03*
X0160157Y0112945D03*
X0160157Y0153622D03*
X0160157Y0181843D03*
X0114079Y0243472D03*
X0114079Y0271693D03*
X0220378Y0271693D03*
X0220378Y0243472D03*
D25*
X0220378Y0257583D03*
X0160157Y0167732D03*
X0160157Y0098835D03*
X0160157Y0029937D03*
X0327480Y0029937D03*
X0327480Y0098835D03*
X0327480Y0167732D03*
X0326677Y0257583D03*
X0114079Y0257583D03*
D26*
X0105614Y0249709D03*
X0151693Y0159858D03*
X0151693Y0090961D03*
X0151693Y0022063D03*
X0319016Y0022063D03*
X0319016Y0090961D03*
X0319016Y0159858D03*
X0318213Y0249709D03*
X0211913Y0249709D03*
D27*
X0239677Y0244083D03*
X0231177Y0284083D03*
X0222378Y0283583D03*
X0174575Y0204894D03*
X0166252Y0204894D03*
X0133378Y0244083D03*
X0124878Y0284083D03*
X0116079Y0283583D03*
X0027079Y0244083D03*
X0007252Y0204894D03*
X0007252Y0135996D03*
X0007252Y0067098D03*
X0140752Y0077496D03*
X0166252Y0067098D03*
X0174575Y0067098D03*
X0140752Y0008598D03*
X0166252Y0135996D03*
X0174575Y0135996D03*
X0140752Y0146394D03*
X0018579Y0284083D03*
X0308075Y0146394D03*
X0333575Y0135996D03*
X0308075Y0077496D03*
X0333575Y0067098D03*
X0308075Y0008598D03*
X0333575Y0204894D03*
X0328677Y0283583D03*
D28*
X0359094Y0322583D03*
X0361654Y0322583D03*
X0364213Y0322583D03*
X0366772Y0322583D03*
X0369331Y0322583D03*
X0270906Y0322583D03*
X0268346Y0322583D03*
X0265787Y0322583D03*
X0263228Y0322583D03*
X0260669Y0322583D03*
X0172480Y0322583D03*
X0169921Y0322583D03*
X0167362Y0322583D03*
X0164803Y0322583D03*
X0162244Y0322583D03*
X0074055Y0322583D03*
X0071496Y0322583D03*
X0068937Y0322583D03*
X0066378Y0322583D03*
X0063819Y0322583D03*
D29*
X0053189Y0312150D03*
X0084685Y0312150D03*
X0151614Y0312150D03*
X0183110Y0312150D03*
X0250039Y0312150D03*
X0281535Y0312150D03*
X0348465Y0312150D03*
X0379961Y0312150D03*
D30*
X0369213Y0312150D03*
X0359213Y0312150D03*
X0270787Y0312150D03*
X0260787Y0312150D03*
X0172362Y0312150D03*
X0162362Y0312150D03*
X0073937Y0312150D03*
X0063937Y0312150D03*
D31*
X0072937Y0330150D03*
X0171362Y0330150D03*
X0269787Y0330150D03*
X0368213Y0330150D03*
D32*
X0366827Y0205016D03*
X0376827Y0205016D03*
X0386827Y0205016D03*
X0386827Y0195016D03*
X0376827Y0195016D03*
X0366827Y0195016D03*
X0356827Y0195016D03*
X0346827Y0195016D03*
X0346827Y0205016D03*
X0356827Y0205016D03*
X0356433Y0087906D03*
X0346433Y0087906D03*
X0346433Y0077906D03*
X0356433Y0077906D03*
X0366433Y0077906D03*
X0366433Y0087906D03*
X0376433Y0087906D03*
X0376433Y0077906D03*
X0386433Y0077906D03*
X0386433Y0087906D03*
D33*
X0386433Y0067906D03*
X0386433Y0047906D03*
X0376433Y0047906D03*
X0366433Y0047906D03*
X0356433Y0047906D03*
X0346433Y0047906D03*
X0346827Y0125016D03*
X0346827Y0135016D03*
X0346827Y0145016D03*
X0346827Y0155016D03*
X0356827Y0155016D03*
X0356827Y0165016D03*
X0346827Y0165016D03*
X0346827Y0175016D03*
X0346827Y0185016D03*
X0366827Y0155016D03*
X0376827Y0145016D03*
X0386827Y0145016D03*
X0386827Y0155016D03*
X0386827Y0165016D03*
X0386827Y0135016D03*
X0386827Y0125016D03*
X0376827Y0125016D03*
X0366827Y0125016D03*
X0366827Y0135016D03*
M02*
