G75*
%MOIN*%
%OFA0B0*%
%FSLAX25Y25*%
%IPPOS*%
%LPD*%
%AMOC8*
5,1,8,0,0,1.08239X$1,22.5*
%
%ADD10C,0.00394*%
%ADD11C,0.03937*%
%ADD12C,0.00000*%
D10*
X0004937Y0004937D02*
X0398638Y0004937D01*
X0398638Y0398638D01*
X0004937Y0398638D01*
X0004937Y0004937D01*
D11*
X0002969Y0071866D02*
X0136827Y0071866D01*
X0144701Y0071866D02*
X0304150Y0071866D01*
X0312024Y0071866D02*
X0337614Y0071866D01*
X0337614Y0067929D02*
X0337614Y0075803D01*
X0337614Y0081709D02*
X0337614Y0129937D01*
X0337614Y0136827D02*
X0337614Y0140764D01*
X0312024Y0140764D01*
X0304150Y0140764D02*
X0144701Y0140764D01*
X0136827Y0140764D02*
X0002969Y0140764D01*
X0002969Y0209661D02*
X0136827Y0209661D01*
X0144701Y0209661D02*
X0304150Y0209661D01*
X0312024Y0209661D02*
X0337614Y0209661D01*
X0337614Y0213598D01*
X0347457Y0213598D01*
X0347457Y0239189D01*
X0390764Y0239189D01*
X0337614Y0209661D02*
X0337614Y0205724D01*
X0337614Y0198835D02*
X0337614Y0150606D01*
X0337614Y0144701D02*
X0337614Y0140764D01*
X0337614Y0109268D02*
X0343520Y0109268D01*
X0357299Y0109268D02*
X0376984Y0109268D01*
X0375016Y0109268D02*
X0359268Y0109268D01*
X0388795Y0109268D02*
X0398638Y0109268D01*
X0337614Y0061039D02*
X0337614Y0024622D01*
X0337614Y0014780D02*
X0337614Y0002969D01*
X0170291Y0002969D02*
X0170291Y0061039D01*
X0170291Y0067929D02*
X0170291Y0075803D01*
X0170291Y0081709D02*
X0170291Y0129937D01*
X0170291Y0136827D02*
X0170291Y0144701D01*
X0170291Y0150606D02*
X0170291Y0198835D01*
X0170291Y0205724D02*
X0170291Y0209661D01*
X0170291Y0231315D02*
X0121079Y0231315D01*
X0121079Y0276394D01*
X0121079Y0284268D02*
X0121079Y0288402D01*
X0170291Y0288402D01*
X0180134Y0288402D02*
X0227378Y0288402D01*
X0227378Y0284268D01*
X0227378Y0288402D02*
X0333677Y0288402D01*
X0333677Y0284268D01*
X0333677Y0276394D02*
X0333677Y0231315D01*
X0227378Y0231315D01*
X0180134Y0231315D01*
X0227378Y0231315D02*
X0227378Y0276394D01*
X0217535Y0302181D02*
X0298244Y0302181D01*
X0298244Y0341583D01*
X0298244Y0347488D02*
X0298244Y0398669D01*
X0298244Y0302181D02*
X0333677Y0302181D01*
X0345488Y0302181D02*
X0398638Y0302181D01*
X0398638Y0398669D01*
X0211630Y0302181D02*
X0199819Y0302181D01*
X0199819Y0341583D01*
X0199819Y0347488D02*
X0199819Y0398669D01*
X0199819Y0302181D02*
X0115173Y0302181D01*
X0109268Y0302181D02*
X0101394Y0302181D01*
X0101394Y0341583D01*
X0101394Y0347488D02*
X0101394Y0398669D01*
X0101394Y0302181D02*
X0016748Y0302181D01*
X0010843Y0302181D02*
X0002969Y0302181D01*
X0014780Y0288402D02*
X0014780Y0284929D01*
X0014780Y0288402D02*
X0121079Y0288402D01*
X0121079Y0231315D02*
X0014780Y0231315D01*
X0014780Y0276394D01*
D12*
X0104039Y0249709D02*
X0104041Y0249788D01*
X0104047Y0249867D01*
X0104057Y0249946D01*
X0104071Y0250024D01*
X0104088Y0250101D01*
X0104110Y0250177D01*
X0104135Y0250252D01*
X0104165Y0250325D01*
X0104197Y0250397D01*
X0104234Y0250468D01*
X0104274Y0250536D01*
X0104317Y0250602D01*
X0104363Y0250666D01*
X0104413Y0250728D01*
X0104466Y0250787D01*
X0104521Y0250843D01*
X0104580Y0250897D01*
X0104641Y0250947D01*
X0104704Y0250995D01*
X0104770Y0251039D01*
X0104838Y0251080D01*
X0104908Y0251117D01*
X0104979Y0251151D01*
X0105053Y0251181D01*
X0105127Y0251207D01*
X0105203Y0251229D01*
X0105280Y0251248D01*
X0105358Y0251263D01*
X0105436Y0251274D01*
X0105515Y0251281D01*
X0105594Y0251284D01*
X0105673Y0251283D01*
X0105752Y0251278D01*
X0105831Y0251269D01*
X0105909Y0251256D01*
X0105986Y0251239D01*
X0106063Y0251219D01*
X0106138Y0251194D01*
X0106212Y0251166D01*
X0106285Y0251134D01*
X0106355Y0251099D01*
X0106424Y0251060D01*
X0106491Y0251017D01*
X0106556Y0250971D01*
X0106618Y0250923D01*
X0106678Y0250871D01*
X0106735Y0250816D01*
X0106789Y0250758D01*
X0106840Y0250698D01*
X0106888Y0250635D01*
X0106933Y0250570D01*
X0106975Y0250502D01*
X0107013Y0250433D01*
X0107047Y0250362D01*
X0107078Y0250289D01*
X0107106Y0250214D01*
X0107129Y0250139D01*
X0107149Y0250062D01*
X0107165Y0249985D01*
X0107177Y0249906D01*
X0107185Y0249828D01*
X0107189Y0249749D01*
X0107189Y0249669D01*
X0107185Y0249590D01*
X0107177Y0249512D01*
X0107165Y0249433D01*
X0107149Y0249356D01*
X0107129Y0249279D01*
X0107106Y0249204D01*
X0107078Y0249129D01*
X0107047Y0249056D01*
X0107013Y0248985D01*
X0106975Y0248916D01*
X0106933Y0248848D01*
X0106888Y0248783D01*
X0106840Y0248720D01*
X0106789Y0248660D01*
X0106735Y0248602D01*
X0106678Y0248547D01*
X0106618Y0248495D01*
X0106556Y0248447D01*
X0106491Y0248401D01*
X0106424Y0248358D01*
X0106355Y0248319D01*
X0106285Y0248284D01*
X0106212Y0248252D01*
X0106138Y0248224D01*
X0106063Y0248199D01*
X0105986Y0248179D01*
X0105909Y0248162D01*
X0105831Y0248149D01*
X0105752Y0248140D01*
X0105673Y0248135D01*
X0105594Y0248134D01*
X0105515Y0248137D01*
X0105436Y0248144D01*
X0105358Y0248155D01*
X0105280Y0248170D01*
X0105203Y0248189D01*
X0105127Y0248211D01*
X0105053Y0248237D01*
X0104979Y0248267D01*
X0104908Y0248301D01*
X0104838Y0248338D01*
X0104770Y0248379D01*
X0104704Y0248423D01*
X0104641Y0248471D01*
X0104580Y0248521D01*
X0104521Y0248575D01*
X0104466Y0248631D01*
X0104413Y0248690D01*
X0104363Y0248752D01*
X0104317Y0248816D01*
X0104274Y0248882D01*
X0104234Y0248950D01*
X0104197Y0249021D01*
X0104165Y0249093D01*
X0104135Y0249166D01*
X0104110Y0249241D01*
X0104088Y0249317D01*
X0104071Y0249394D01*
X0104057Y0249472D01*
X0104047Y0249551D01*
X0104041Y0249630D01*
X0104039Y0249709D01*
X0150118Y0159858D02*
X0150120Y0159937D01*
X0150126Y0160016D01*
X0150136Y0160095D01*
X0150150Y0160173D01*
X0150167Y0160250D01*
X0150189Y0160326D01*
X0150214Y0160401D01*
X0150244Y0160474D01*
X0150276Y0160546D01*
X0150313Y0160617D01*
X0150353Y0160685D01*
X0150396Y0160751D01*
X0150442Y0160815D01*
X0150492Y0160877D01*
X0150545Y0160936D01*
X0150600Y0160992D01*
X0150659Y0161046D01*
X0150720Y0161096D01*
X0150783Y0161144D01*
X0150849Y0161188D01*
X0150917Y0161229D01*
X0150987Y0161266D01*
X0151058Y0161300D01*
X0151132Y0161330D01*
X0151206Y0161356D01*
X0151282Y0161378D01*
X0151359Y0161397D01*
X0151437Y0161412D01*
X0151515Y0161423D01*
X0151594Y0161430D01*
X0151673Y0161433D01*
X0151752Y0161432D01*
X0151831Y0161427D01*
X0151910Y0161418D01*
X0151988Y0161405D01*
X0152065Y0161388D01*
X0152142Y0161368D01*
X0152217Y0161343D01*
X0152291Y0161315D01*
X0152364Y0161283D01*
X0152434Y0161248D01*
X0152503Y0161209D01*
X0152570Y0161166D01*
X0152635Y0161120D01*
X0152697Y0161072D01*
X0152757Y0161020D01*
X0152814Y0160965D01*
X0152868Y0160907D01*
X0152919Y0160847D01*
X0152967Y0160784D01*
X0153012Y0160719D01*
X0153054Y0160651D01*
X0153092Y0160582D01*
X0153126Y0160511D01*
X0153157Y0160438D01*
X0153185Y0160363D01*
X0153208Y0160288D01*
X0153228Y0160211D01*
X0153244Y0160134D01*
X0153256Y0160055D01*
X0153264Y0159977D01*
X0153268Y0159898D01*
X0153268Y0159818D01*
X0153264Y0159739D01*
X0153256Y0159661D01*
X0153244Y0159582D01*
X0153228Y0159505D01*
X0153208Y0159428D01*
X0153185Y0159353D01*
X0153157Y0159278D01*
X0153126Y0159205D01*
X0153092Y0159134D01*
X0153054Y0159065D01*
X0153012Y0158997D01*
X0152967Y0158932D01*
X0152919Y0158869D01*
X0152868Y0158809D01*
X0152814Y0158751D01*
X0152757Y0158696D01*
X0152697Y0158644D01*
X0152635Y0158596D01*
X0152570Y0158550D01*
X0152503Y0158507D01*
X0152434Y0158468D01*
X0152364Y0158433D01*
X0152291Y0158401D01*
X0152217Y0158373D01*
X0152142Y0158348D01*
X0152065Y0158328D01*
X0151988Y0158311D01*
X0151910Y0158298D01*
X0151831Y0158289D01*
X0151752Y0158284D01*
X0151673Y0158283D01*
X0151594Y0158286D01*
X0151515Y0158293D01*
X0151437Y0158304D01*
X0151359Y0158319D01*
X0151282Y0158338D01*
X0151206Y0158360D01*
X0151132Y0158386D01*
X0151058Y0158416D01*
X0150987Y0158450D01*
X0150917Y0158487D01*
X0150849Y0158528D01*
X0150783Y0158572D01*
X0150720Y0158620D01*
X0150659Y0158670D01*
X0150600Y0158724D01*
X0150545Y0158780D01*
X0150492Y0158839D01*
X0150442Y0158901D01*
X0150396Y0158965D01*
X0150353Y0159031D01*
X0150313Y0159099D01*
X0150276Y0159170D01*
X0150244Y0159242D01*
X0150214Y0159315D01*
X0150189Y0159390D01*
X0150167Y0159466D01*
X0150150Y0159543D01*
X0150136Y0159621D01*
X0150126Y0159700D01*
X0150120Y0159779D01*
X0150118Y0159858D01*
X0150118Y0090961D02*
X0150120Y0091040D01*
X0150126Y0091119D01*
X0150136Y0091198D01*
X0150150Y0091276D01*
X0150167Y0091353D01*
X0150189Y0091429D01*
X0150214Y0091504D01*
X0150244Y0091577D01*
X0150276Y0091649D01*
X0150313Y0091720D01*
X0150353Y0091788D01*
X0150396Y0091854D01*
X0150442Y0091918D01*
X0150492Y0091980D01*
X0150545Y0092039D01*
X0150600Y0092095D01*
X0150659Y0092149D01*
X0150720Y0092199D01*
X0150783Y0092247D01*
X0150849Y0092291D01*
X0150917Y0092332D01*
X0150987Y0092369D01*
X0151058Y0092403D01*
X0151132Y0092433D01*
X0151206Y0092459D01*
X0151282Y0092481D01*
X0151359Y0092500D01*
X0151437Y0092515D01*
X0151515Y0092526D01*
X0151594Y0092533D01*
X0151673Y0092536D01*
X0151752Y0092535D01*
X0151831Y0092530D01*
X0151910Y0092521D01*
X0151988Y0092508D01*
X0152065Y0092491D01*
X0152142Y0092471D01*
X0152217Y0092446D01*
X0152291Y0092418D01*
X0152364Y0092386D01*
X0152434Y0092351D01*
X0152503Y0092312D01*
X0152570Y0092269D01*
X0152635Y0092223D01*
X0152697Y0092175D01*
X0152757Y0092123D01*
X0152814Y0092068D01*
X0152868Y0092010D01*
X0152919Y0091950D01*
X0152967Y0091887D01*
X0153012Y0091822D01*
X0153054Y0091754D01*
X0153092Y0091685D01*
X0153126Y0091614D01*
X0153157Y0091541D01*
X0153185Y0091466D01*
X0153208Y0091391D01*
X0153228Y0091314D01*
X0153244Y0091237D01*
X0153256Y0091158D01*
X0153264Y0091080D01*
X0153268Y0091001D01*
X0153268Y0090921D01*
X0153264Y0090842D01*
X0153256Y0090764D01*
X0153244Y0090685D01*
X0153228Y0090608D01*
X0153208Y0090531D01*
X0153185Y0090456D01*
X0153157Y0090381D01*
X0153126Y0090308D01*
X0153092Y0090237D01*
X0153054Y0090168D01*
X0153012Y0090100D01*
X0152967Y0090035D01*
X0152919Y0089972D01*
X0152868Y0089912D01*
X0152814Y0089854D01*
X0152757Y0089799D01*
X0152697Y0089747D01*
X0152635Y0089699D01*
X0152570Y0089653D01*
X0152503Y0089610D01*
X0152434Y0089571D01*
X0152364Y0089536D01*
X0152291Y0089504D01*
X0152217Y0089476D01*
X0152142Y0089451D01*
X0152065Y0089431D01*
X0151988Y0089414D01*
X0151910Y0089401D01*
X0151831Y0089392D01*
X0151752Y0089387D01*
X0151673Y0089386D01*
X0151594Y0089389D01*
X0151515Y0089396D01*
X0151437Y0089407D01*
X0151359Y0089422D01*
X0151282Y0089441D01*
X0151206Y0089463D01*
X0151132Y0089489D01*
X0151058Y0089519D01*
X0150987Y0089553D01*
X0150917Y0089590D01*
X0150849Y0089631D01*
X0150783Y0089675D01*
X0150720Y0089723D01*
X0150659Y0089773D01*
X0150600Y0089827D01*
X0150545Y0089883D01*
X0150492Y0089942D01*
X0150442Y0090004D01*
X0150396Y0090068D01*
X0150353Y0090134D01*
X0150313Y0090202D01*
X0150276Y0090273D01*
X0150244Y0090345D01*
X0150214Y0090418D01*
X0150189Y0090493D01*
X0150167Y0090569D01*
X0150150Y0090646D01*
X0150136Y0090724D01*
X0150126Y0090803D01*
X0150120Y0090882D01*
X0150118Y0090961D01*
X0150118Y0022063D02*
X0150120Y0022142D01*
X0150126Y0022221D01*
X0150136Y0022300D01*
X0150150Y0022378D01*
X0150167Y0022455D01*
X0150189Y0022531D01*
X0150214Y0022606D01*
X0150244Y0022679D01*
X0150276Y0022751D01*
X0150313Y0022822D01*
X0150353Y0022890D01*
X0150396Y0022956D01*
X0150442Y0023020D01*
X0150492Y0023082D01*
X0150545Y0023141D01*
X0150600Y0023197D01*
X0150659Y0023251D01*
X0150720Y0023301D01*
X0150783Y0023349D01*
X0150849Y0023393D01*
X0150917Y0023434D01*
X0150987Y0023471D01*
X0151058Y0023505D01*
X0151132Y0023535D01*
X0151206Y0023561D01*
X0151282Y0023583D01*
X0151359Y0023602D01*
X0151437Y0023617D01*
X0151515Y0023628D01*
X0151594Y0023635D01*
X0151673Y0023638D01*
X0151752Y0023637D01*
X0151831Y0023632D01*
X0151910Y0023623D01*
X0151988Y0023610D01*
X0152065Y0023593D01*
X0152142Y0023573D01*
X0152217Y0023548D01*
X0152291Y0023520D01*
X0152364Y0023488D01*
X0152434Y0023453D01*
X0152503Y0023414D01*
X0152570Y0023371D01*
X0152635Y0023325D01*
X0152697Y0023277D01*
X0152757Y0023225D01*
X0152814Y0023170D01*
X0152868Y0023112D01*
X0152919Y0023052D01*
X0152967Y0022989D01*
X0153012Y0022924D01*
X0153054Y0022856D01*
X0153092Y0022787D01*
X0153126Y0022716D01*
X0153157Y0022643D01*
X0153185Y0022568D01*
X0153208Y0022493D01*
X0153228Y0022416D01*
X0153244Y0022339D01*
X0153256Y0022260D01*
X0153264Y0022182D01*
X0153268Y0022103D01*
X0153268Y0022023D01*
X0153264Y0021944D01*
X0153256Y0021866D01*
X0153244Y0021787D01*
X0153228Y0021710D01*
X0153208Y0021633D01*
X0153185Y0021558D01*
X0153157Y0021483D01*
X0153126Y0021410D01*
X0153092Y0021339D01*
X0153054Y0021270D01*
X0153012Y0021202D01*
X0152967Y0021137D01*
X0152919Y0021074D01*
X0152868Y0021014D01*
X0152814Y0020956D01*
X0152757Y0020901D01*
X0152697Y0020849D01*
X0152635Y0020801D01*
X0152570Y0020755D01*
X0152503Y0020712D01*
X0152434Y0020673D01*
X0152364Y0020638D01*
X0152291Y0020606D01*
X0152217Y0020578D01*
X0152142Y0020553D01*
X0152065Y0020533D01*
X0151988Y0020516D01*
X0151910Y0020503D01*
X0151831Y0020494D01*
X0151752Y0020489D01*
X0151673Y0020488D01*
X0151594Y0020491D01*
X0151515Y0020498D01*
X0151437Y0020509D01*
X0151359Y0020524D01*
X0151282Y0020543D01*
X0151206Y0020565D01*
X0151132Y0020591D01*
X0151058Y0020621D01*
X0150987Y0020655D01*
X0150917Y0020692D01*
X0150849Y0020733D01*
X0150783Y0020777D01*
X0150720Y0020825D01*
X0150659Y0020875D01*
X0150600Y0020929D01*
X0150545Y0020985D01*
X0150492Y0021044D01*
X0150442Y0021106D01*
X0150396Y0021170D01*
X0150353Y0021236D01*
X0150313Y0021304D01*
X0150276Y0021375D01*
X0150244Y0021447D01*
X0150214Y0021520D01*
X0150189Y0021595D01*
X0150167Y0021671D01*
X0150150Y0021748D01*
X0150136Y0021826D01*
X0150126Y0021905D01*
X0150120Y0021984D01*
X0150118Y0022063D01*
X0317441Y0022063D02*
X0317443Y0022142D01*
X0317449Y0022221D01*
X0317459Y0022300D01*
X0317473Y0022378D01*
X0317490Y0022455D01*
X0317512Y0022531D01*
X0317537Y0022606D01*
X0317567Y0022679D01*
X0317599Y0022751D01*
X0317636Y0022822D01*
X0317676Y0022890D01*
X0317719Y0022956D01*
X0317765Y0023020D01*
X0317815Y0023082D01*
X0317868Y0023141D01*
X0317923Y0023197D01*
X0317982Y0023251D01*
X0318043Y0023301D01*
X0318106Y0023349D01*
X0318172Y0023393D01*
X0318240Y0023434D01*
X0318310Y0023471D01*
X0318381Y0023505D01*
X0318455Y0023535D01*
X0318529Y0023561D01*
X0318605Y0023583D01*
X0318682Y0023602D01*
X0318760Y0023617D01*
X0318838Y0023628D01*
X0318917Y0023635D01*
X0318996Y0023638D01*
X0319075Y0023637D01*
X0319154Y0023632D01*
X0319233Y0023623D01*
X0319311Y0023610D01*
X0319388Y0023593D01*
X0319465Y0023573D01*
X0319540Y0023548D01*
X0319614Y0023520D01*
X0319687Y0023488D01*
X0319757Y0023453D01*
X0319826Y0023414D01*
X0319893Y0023371D01*
X0319958Y0023325D01*
X0320020Y0023277D01*
X0320080Y0023225D01*
X0320137Y0023170D01*
X0320191Y0023112D01*
X0320242Y0023052D01*
X0320290Y0022989D01*
X0320335Y0022924D01*
X0320377Y0022856D01*
X0320415Y0022787D01*
X0320449Y0022716D01*
X0320480Y0022643D01*
X0320508Y0022568D01*
X0320531Y0022493D01*
X0320551Y0022416D01*
X0320567Y0022339D01*
X0320579Y0022260D01*
X0320587Y0022182D01*
X0320591Y0022103D01*
X0320591Y0022023D01*
X0320587Y0021944D01*
X0320579Y0021866D01*
X0320567Y0021787D01*
X0320551Y0021710D01*
X0320531Y0021633D01*
X0320508Y0021558D01*
X0320480Y0021483D01*
X0320449Y0021410D01*
X0320415Y0021339D01*
X0320377Y0021270D01*
X0320335Y0021202D01*
X0320290Y0021137D01*
X0320242Y0021074D01*
X0320191Y0021014D01*
X0320137Y0020956D01*
X0320080Y0020901D01*
X0320020Y0020849D01*
X0319958Y0020801D01*
X0319893Y0020755D01*
X0319826Y0020712D01*
X0319757Y0020673D01*
X0319687Y0020638D01*
X0319614Y0020606D01*
X0319540Y0020578D01*
X0319465Y0020553D01*
X0319388Y0020533D01*
X0319311Y0020516D01*
X0319233Y0020503D01*
X0319154Y0020494D01*
X0319075Y0020489D01*
X0318996Y0020488D01*
X0318917Y0020491D01*
X0318838Y0020498D01*
X0318760Y0020509D01*
X0318682Y0020524D01*
X0318605Y0020543D01*
X0318529Y0020565D01*
X0318455Y0020591D01*
X0318381Y0020621D01*
X0318310Y0020655D01*
X0318240Y0020692D01*
X0318172Y0020733D01*
X0318106Y0020777D01*
X0318043Y0020825D01*
X0317982Y0020875D01*
X0317923Y0020929D01*
X0317868Y0020985D01*
X0317815Y0021044D01*
X0317765Y0021106D01*
X0317719Y0021170D01*
X0317676Y0021236D01*
X0317636Y0021304D01*
X0317599Y0021375D01*
X0317567Y0021447D01*
X0317537Y0021520D01*
X0317512Y0021595D01*
X0317490Y0021671D01*
X0317473Y0021748D01*
X0317459Y0021826D01*
X0317449Y0021905D01*
X0317443Y0021984D01*
X0317441Y0022063D01*
X0341551Y0010843D02*
X0341553Y0010996D01*
X0341559Y0011150D01*
X0341569Y0011303D01*
X0341583Y0011455D01*
X0341601Y0011608D01*
X0341623Y0011759D01*
X0341648Y0011910D01*
X0341678Y0012061D01*
X0341712Y0012211D01*
X0341749Y0012359D01*
X0341790Y0012507D01*
X0341835Y0012653D01*
X0341884Y0012799D01*
X0341937Y0012943D01*
X0341993Y0013085D01*
X0342053Y0013226D01*
X0342117Y0013366D01*
X0342184Y0013504D01*
X0342255Y0013640D01*
X0342330Y0013774D01*
X0342407Y0013906D01*
X0342489Y0014036D01*
X0342573Y0014164D01*
X0342661Y0014290D01*
X0342752Y0014413D01*
X0342846Y0014534D01*
X0342944Y0014652D01*
X0343044Y0014768D01*
X0343148Y0014881D01*
X0343254Y0014992D01*
X0343363Y0015100D01*
X0343475Y0015205D01*
X0343589Y0015306D01*
X0343707Y0015405D01*
X0343826Y0015501D01*
X0343948Y0015594D01*
X0344073Y0015683D01*
X0344200Y0015770D01*
X0344329Y0015852D01*
X0344460Y0015932D01*
X0344593Y0016008D01*
X0344728Y0016081D01*
X0344865Y0016150D01*
X0345004Y0016215D01*
X0345144Y0016277D01*
X0345286Y0016335D01*
X0345429Y0016390D01*
X0345574Y0016441D01*
X0345720Y0016488D01*
X0345867Y0016531D01*
X0346015Y0016570D01*
X0346164Y0016606D01*
X0346314Y0016637D01*
X0346465Y0016665D01*
X0346616Y0016689D01*
X0346769Y0016709D01*
X0346921Y0016725D01*
X0347074Y0016737D01*
X0347227Y0016745D01*
X0347380Y0016749D01*
X0347534Y0016749D01*
X0347687Y0016745D01*
X0347840Y0016737D01*
X0347993Y0016725D01*
X0348145Y0016709D01*
X0348298Y0016689D01*
X0348449Y0016665D01*
X0348600Y0016637D01*
X0348750Y0016606D01*
X0348899Y0016570D01*
X0349047Y0016531D01*
X0349194Y0016488D01*
X0349340Y0016441D01*
X0349485Y0016390D01*
X0349628Y0016335D01*
X0349770Y0016277D01*
X0349910Y0016215D01*
X0350049Y0016150D01*
X0350186Y0016081D01*
X0350321Y0016008D01*
X0350454Y0015932D01*
X0350585Y0015852D01*
X0350714Y0015770D01*
X0350841Y0015683D01*
X0350966Y0015594D01*
X0351088Y0015501D01*
X0351207Y0015405D01*
X0351325Y0015306D01*
X0351439Y0015205D01*
X0351551Y0015100D01*
X0351660Y0014992D01*
X0351766Y0014881D01*
X0351870Y0014768D01*
X0351970Y0014652D01*
X0352068Y0014534D01*
X0352162Y0014413D01*
X0352253Y0014290D01*
X0352341Y0014164D01*
X0352425Y0014036D01*
X0352507Y0013906D01*
X0352584Y0013774D01*
X0352659Y0013640D01*
X0352730Y0013504D01*
X0352797Y0013366D01*
X0352861Y0013226D01*
X0352921Y0013085D01*
X0352977Y0012943D01*
X0353030Y0012799D01*
X0353079Y0012653D01*
X0353124Y0012507D01*
X0353165Y0012359D01*
X0353202Y0012211D01*
X0353236Y0012061D01*
X0353266Y0011910D01*
X0353291Y0011759D01*
X0353313Y0011608D01*
X0353331Y0011455D01*
X0353345Y0011303D01*
X0353355Y0011150D01*
X0353361Y0010996D01*
X0353363Y0010843D01*
X0353361Y0010690D01*
X0353355Y0010536D01*
X0353345Y0010383D01*
X0353331Y0010231D01*
X0353313Y0010078D01*
X0353291Y0009927D01*
X0353266Y0009776D01*
X0353236Y0009625D01*
X0353202Y0009475D01*
X0353165Y0009327D01*
X0353124Y0009179D01*
X0353079Y0009033D01*
X0353030Y0008887D01*
X0352977Y0008743D01*
X0352921Y0008601D01*
X0352861Y0008460D01*
X0352797Y0008320D01*
X0352730Y0008182D01*
X0352659Y0008046D01*
X0352584Y0007912D01*
X0352507Y0007780D01*
X0352425Y0007650D01*
X0352341Y0007522D01*
X0352253Y0007396D01*
X0352162Y0007273D01*
X0352068Y0007152D01*
X0351970Y0007034D01*
X0351870Y0006918D01*
X0351766Y0006805D01*
X0351660Y0006694D01*
X0351551Y0006586D01*
X0351439Y0006481D01*
X0351325Y0006380D01*
X0351207Y0006281D01*
X0351088Y0006185D01*
X0350966Y0006092D01*
X0350841Y0006003D01*
X0350714Y0005916D01*
X0350585Y0005834D01*
X0350454Y0005754D01*
X0350321Y0005678D01*
X0350186Y0005605D01*
X0350049Y0005536D01*
X0349910Y0005471D01*
X0349770Y0005409D01*
X0349628Y0005351D01*
X0349485Y0005296D01*
X0349340Y0005245D01*
X0349194Y0005198D01*
X0349047Y0005155D01*
X0348899Y0005116D01*
X0348750Y0005080D01*
X0348600Y0005049D01*
X0348449Y0005021D01*
X0348298Y0004997D01*
X0348145Y0004977D01*
X0347993Y0004961D01*
X0347840Y0004949D01*
X0347687Y0004941D01*
X0347534Y0004937D01*
X0347380Y0004937D01*
X0347227Y0004941D01*
X0347074Y0004949D01*
X0346921Y0004961D01*
X0346769Y0004977D01*
X0346616Y0004997D01*
X0346465Y0005021D01*
X0346314Y0005049D01*
X0346164Y0005080D01*
X0346015Y0005116D01*
X0345867Y0005155D01*
X0345720Y0005198D01*
X0345574Y0005245D01*
X0345429Y0005296D01*
X0345286Y0005351D01*
X0345144Y0005409D01*
X0345004Y0005471D01*
X0344865Y0005536D01*
X0344728Y0005605D01*
X0344593Y0005678D01*
X0344460Y0005754D01*
X0344329Y0005834D01*
X0344200Y0005916D01*
X0344073Y0006003D01*
X0343948Y0006092D01*
X0343826Y0006185D01*
X0343707Y0006281D01*
X0343589Y0006380D01*
X0343475Y0006481D01*
X0343363Y0006586D01*
X0343254Y0006694D01*
X0343148Y0006805D01*
X0343044Y0006918D01*
X0342944Y0007034D01*
X0342846Y0007152D01*
X0342752Y0007273D01*
X0342661Y0007396D01*
X0342573Y0007522D01*
X0342489Y0007650D01*
X0342407Y0007780D01*
X0342330Y0007912D01*
X0342255Y0008046D01*
X0342184Y0008182D01*
X0342117Y0008320D01*
X0342053Y0008460D01*
X0341993Y0008601D01*
X0341937Y0008743D01*
X0341884Y0008887D01*
X0341835Y0009033D01*
X0341790Y0009179D01*
X0341749Y0009327D01*
X0341712Y0009475D01*
X0341678Y0009625D01*
X0341648Y0009776D01*
X0341623Y0009927D01*
X0341601Y0010078D01*
X0341583Y0010231D01*
X0341569Y0010383D01*
X0341559Y0010536D01*
X0341553Y0010690D01*
X0341551Y0010843D01*
X0380921Y0010843D02*
X0380923Y0010996D01*
X0380929Y0011150D01*
X0380939Y0011303D01*
X0380953Y0011455D01*
X0380971Y0011608D01*
X0380993Y0011759D01*
X0381018Y0011910D01*
X0381048Y0012061D01*
X0381082Y0012211D01*
X0381119Y0012359D01*
X0381160Y0012507D01*
X0381205Y0012653D01*
X0381254Y0012799D01*
X0381307Y0012943D01*
X0381363Y0013085D01*
X0381423Y0013226D01*
X0381487Y0013366D01*
X0381554Y0013504D01*
X0381625Y0013640D01*
X0381700Y0013774D01*
X0381777Y0013906D01*
X0381859Y0014036D01*
X0381943Y0014164D01*
X0382031Y0014290D01*
X0382122Y0014413D01*
X0382216Y0014534D01*
X0382314Y0014652D01*
X0382414Y0014768D01*
X0382518Y0014881D01*
X0382624Y0014992D01*
X0382733Y0015100D01*
X0382845Y0015205D01*
X0382959Y0015306D01*
X0383077Y0015405D01*
X0383196Y0015501D01*
X0383318Y0015594D01*
X0383443Y0015683D01*
X0383570Y0015770D01*
X0383699Y0015852D01*
X0383830Y0015932D01*
X0383963Y0016008D01*
X0384098Y0016081D01*
X0384235Y0016150D01*
X0384374Y0016215D01*
X0384514Y0016277D01*
X0384656Y0016335D01*
X0384799Y0016390D01*
X0384944Y0016441D01*
X0385090Y0016488D01*
X0385237Y0016531D01*
X0385385Y0016570D01*
X0385534Y0016606D01*
X0385684Y0016637D01*
X0385835Y0016665D01*
X0385986Y0016689D01*
X0386139Y0016709D01*
X0386291Y0016725D01*
X0386444Y0016737D01*
X0386597Y0016745D01*
X0386750Y0016749D01*
X0386904Y0016749D01*
X0387057Y0016745D01*
X0387210Y0016737D01*
X0387363Y0016725D01*
X0387515Y0016709D01*
X0387668Y0016689D01*
X0387819Y0016665D01*
X0387970Y0016637D01*
X0388120Y0016606D01*
X0388269Y0016570D01*
X0388417Y0016531D01*
X0388564Y0016488D01*
X0388710Y0016441D01*
X0388855Y0016390D01*
X0388998Y0016335D01*
X0389140Y0016277D01*
X0389280Y0016215D01*
X0389419Y0016150D01*
X0389556Y0016081D01*
X0389691Y0016008D01*
X0389824Y0015932D01*
X0389955Y0015852D01*
X0390084Y0015770D01*
X0390211Y0015683D01*
X0390336Y0015594D01*
X0390458Y0015501D01*
X0390577Y0015405D01*
X0390695Y0015306D01*
X0390809Y0015205D01*
X0390921Y0015100D01*
X0391030Y0014992D01*
X0391136Y0014881D01*
X0391240Y0014768D01*
X0391340Y0014652D01*
X0391438Y0014534D01*
X0391532Y0014413D01*
X0391623Y0014290D01*
X0391711Y0014164D01*
X0391795Y0014036D01*
X0391877Y0013906D01*
X0391954Y0013774D01*
X0392029Y0013640D01*
X0392100Y0013504D01*
X0392167Y0013366D01*
X0392231Y0013226D01*
X0392291Y0013085D01*
X0392347Y0012943D01*
X0392400Y0012799D01*
X0392449Y0012653D01*
X0392494Y0012507D01*
X0392535Y0012359D01*
X0392572Y0012211D01*
X0392606Y0012061D01*
X0392636Y0011910D01*
X0392661Y0011759D01*
X0392683Y0011608D01*
X0392701Y0011455D01*
X0392715Y0011303D01*
X0392725Y0011150D01*
X0392731Y0010996D01*
X0392733Y0010843D01*
X0392731Y0010690D01*
X0392725Y0010536D01*
X0392715Y0010383D01*
X0392701Y0010231D01*
X0392683Y0010078D01*
X0392661Y0009927D01*
X0392636Y0009776D01*
X0392606Y0009625D01*
X0392572Y0009475D01*
X0392535Y0009327D01*
X0392494Y0009179D01*
X0392449Y0009033D01*
X0392400Y0008887D01*
X0392347Y0008743D01*
X0392291Y0008601D01*
X0392231Y0008460D01*
X0392167Y0008320D01*
X0392100Y0008182D01*
X0392029Y0008046D01*
X0391954Y0007912D01*
X0391877Y0007780D01*
X0391795Y0007650D01*
X0391711Y0007522D01*
X0391623Y0007396D01*
X0391532Y0007273D01*
X0391438Y0007152D01*
X0391340Y0007034D01*
X0391240Y0006918D01*
X0391136Y0006805D01*
X0391030Y0006694D01*
X0390921Y0006586D01*
X0390809Y0006481D01*
X0390695Y0006380D01*
X0390577Y0006281D01*
X0390458Y0006185D01*
X0390336Y0006092D01*
X0390211Y0006003D01*
X0390084Y0005916D01*
X0389955Y0005834D01*
X0389824Y0005754D01*
X0389691Y0005678D01*
X0389556Y0005605D01*
X0389419Y0005536D01*
X0389280Y0005471D01*
X0389140Y0005409D01*
X0388998Y0005351D01*
X0388855Y0005296D01*
X0388710Y0005245D01*
X0388564Y0005198D01*
X0388417Y0005155D01*
X0388269Y0005116D01*
X0388120Y0005080D01*
X0387970Y0005049D01*
X0387819Y0005021D01*
X0387668Y0004997D01*
X0387515Y0004977D01*
X0387363Y0004961D01*
X0387210Y0004949D01*
X0387057Y0004941D01*
X0386904Y0004937D01*
X0386750Y0004937D01*
X0386597Y0004941D01*
X0386444Y0004949D01*
X0386291Y0004961D01*
X0386139Y0004977D01*
X0385986Y0004997D01*
X0385835Y0005021D01*
X0385684Y0005049D01*
X0385534Y0005080D01*
X0385385Y0005116D01*
X0385237Y0005155D01*
X0385090Y0005198D01*
X0384944Y0005245D01*
X0384799Y0005296D01*
X0384656Y0005351D01*
X0384514Y0005409D01*
X0384374Y0005471D01*
X0384235Y0005536D01*
X0384098Y0005605D01*
X0383963Y0005678D01*
X0383830Y0005754D01*
X0383699Y0005834D01*
X0383570Y0005916D01*
X0383443Y0006003D01*
X0383318Y0006092D01*
X0383196Y0006185D01*
X0383077Y0006281D01*
X0382959Y0006380D01*
X0382845Y0006481D01*
X0382733Y0006586D01*
X0382624Y0006694D01*
X0382518Y0006805D01*
X0382414Y0006918D01*
X0382314Y0007034D01*
X0382216Y0007152D01*
X0382122Y0007273D01*
X0382031Y0007396D01*
X0381943Y0007522D01*
X0381859Y0007650D01*
X0381777Y0007780D01*
X0381700Y0007912D01*
X0381625Y0008046D01*
X0381554Y0008182D01*
X0381487Y0008320D01*
X0381423Y0008460D01*
X0381363Y0008601D01*
X0381307Y0008743D01*
X0381254Y0008887D01*
X0381205Y0009033D01*
X0381160Y0009179D01*
X0381119Y0009327D01*
X0381082Y0009475D01*
X0381048Y0009625D01*
X0381018Y0009776D01*
X0380993Y0009927D01*
X0380971Y0010078D01*
X0380953Y0010231D01*
X0380939Y0010383D01*
X0380929Y0010536D01*
X0380923Y0010690D01*
X0380921Y0010843D01*
X0317441Y0090961D02*
X0317443Y0091040D01*
X0317449Y0091119D01*
X0317459Y0091198D01*
X0317473Y0091276D01*
X0317490Y0091353D01*
X0317512Y0091429D01*
X0317537Y0091504D01*
X0317567Y0091577D01*
X0317599Y0091649D01*
X0317636Y0091720D01*
X0317676Y0091788D01*
X0317719Y0091854D01*
X0317765Y0091918D01*
X0317815Y0091980D01*
X0317868Y0092039D01*
X0317923Y0092095D01*
X0317982Y0092149D01*
X0318043Y0092199D01*
X0318106Y0092247D01*
X0318172Y0092291D01*
X0318240Y0092332D01*
X0318310Y0092369D01*
X0318381Y0092403D01*
X0318455Y0092433D01*
X0318529Y0092459D01*
X0318605Y0092481D01*
X0318682Y0092500D01*
X0318760Y0092515D01*
X0318838Y0092526D01*
X0318917Y0092533D01*
X0318996Y0092536D01*
X0319075Y0092535D01*
X0319154Y0092530D01*
X0319233Y0092521D01*
X0319311Y0092508D01*
X0319388Y0092491D01*
X0319465Y0092471D01*
X0319540Y0092446D01*
X0319614Y0092418D01*
X0319687Y0092386D01*
X0319757Y0092351D01*
X0319826Y0092312D01*
X0319893Y0092269D01*
X0319958Y0092223D01*
X0320020Y0092175D01*
X0320080Y0092123D01*
X0320137Y0092068D01*
X0320191Y0092010D01*
X0320242Y0091950D01*
X0320290Y0091887D01*
X0320335Y0091822D01*
X0320377Y0091754D01*
X0320415Y0091685D01*
X0320449Y0091614D01*
X0320480Y0091541D01*
X0320508Y0091466D01*
X0320531Y0091391D01*
X0320551Y0091314D01*
X0320567Y0091237D01*
X0320579Y0091158D01*
X0320587Y0091080D01*
X0320591Y0091001D01*
X0320591Y0090921D01*
X0320587Y0090842D01*
X0320579Y0090764D01*
X0320567Y0090685D01*
X0320551Y0090608D01*
X0320531Y0090531D01*
X0320508Y0090456D01*
X0320480Y0090381D01*
X0320449Y0090308D01*
X0320415Y0090237D01*
X0320377Y0090168D01*
X0320335Y0090100D01*
X0320290Y0090035D01*
X0320242Y0089972D01*
X0320191Y0089912D01*
X0320137Y0089854D01*
X0320080Y0089799D01*
X0320020Y0089747D01*
X0319958Y0089699D01*
X0319893Y0089653D01*
X0319826Y0089610D01*
X0319757Y0089571D01*
X0319687Y0089536D01*
X0319614Y0089504D01*
X0319540Y0089476D01*
X0319465Y0089451D01*
X0319388Y0089431D01*
X0319311Y0089414D01*
X0319233Y0089401D01*
X0319154Y0089392D01*
X0319075Y0089387D01*
X0318996Y0089386D01*
X0318917Y0089389D01*
X0318838Y0089396D01*
X0318760Y0089407D01*
X0318682Y0089422D01*
X0318605Y0089441D01*
X0318529Y0089463D01*
X0318455Y0089489D01*
X0318381Y0089519D01*
X0318310Y0089553D01*
X0318240Y0089590D01*
X0318172Y0089631D01*
X0318106Y0089675D01*
X0318043Y0089723D01*
X0317982Y0089773D01*
X0317923Y0089827D01*
X0317868Y0089883D01*
X0317815Y0089942D01*
X0317765Y0090004D01*
X0317719Y0090068D01*
X0317676Y0090134D01*
X0317636Y0090202D01*
X0317599Y0090273D01*
X0317567Y0090345D01*
X0317537Y0090418D01*
X0317512Y0090493D01*
X0317490Y0090569D01*
X0317473Y0090646D01*
X0317459Y0090724D01*
X0317449Y0090803D01*
X0317443Y0090882D01*
X0317441Y0090961D01*
X0341551Y0109268D02*
X0341553Y0109421D01*
X0341559Y0109575D01*
X0341569Y0109728D01*
X0341583Y0109880D01*
X0341601Y0110033D01*
X0341623Y0110184D01*
X0341648Y0110335D01*
X0341678Y0110486D01*
X0341712Y0110636D01*
X0341749Y0110784D01*
X0341790Y0110932D01*
X0341835Y0111078D01*
X0341884Y0111224D01*
X0341937Y0111368D01*
X0341993Y0111510D01*
X0342053Y0111651D01*
X0342117Y0111791D01*
X0342184Y0111929D01*
X0342255Y0112065D01*
X0342330Y0112199D01*
X0342407Y0112331D01*
X0342489Y0112461D01*
X0342573Y0112589D01*
X0342661Y0112715D01*
X0342752Y0112838D01*
X0342846Y0112959D01*
X0342944Y0113077D01*
X0343044Y0113193D01*
X0343148Y0113306D01*
X0343254Y0113417D01*
X0343363Y0113525D01*
X0343475Y0113630D01*
X0343589Y0113731D01*
X0343707Y0113830D01*
X0343826Y0113926D01*
X0343948Y0114019D01*
X0344073Y0114108D01*
X0344200Y0114195D01*
X0344329Y0114277D01*
X0344460Y0114357D01*
X0344593Y0114433D01*
X0344728Y0114506D01*
X0344865Y0114575D01*
X0345004Y0114640D01*
X0345144Y0114702D01*
X0345286Y0114760D01*
X0345429Y0114815D01*
X0345574Y0114866D01*
X0345720Y0114913D01*
X0345867Y0114956D01*
X0346015Y0114995D01*
X0346164Y0115031D01*
X0346314Y0115062D01*
X0346465Y0115090D01*
X0346616Y0115114D01*
X0346769Y0115134D01*
X0346921Y0115150D01*
X0347074Y0115162D01*
X0347227Y0115170D01*
X0347380Y0115174D01*
X0347534Y0115174D01*
X0347687Y0115170D01*
X0347840Y0115162D01*
X0347993Y0115150D01*
X0348145Y0115134D01*
X0348298Y0115114D01*
X0348449Y0115090D01*
X0348600Y0115062D01*
X0348750Y0115031D01*
X0348899Y0114995D01*
X0349047Y0114956D01*
X0349194Y0114913D01*
X0349340Y0114866D01*
X0349485Y0114815D01*
X0349628Y0114760D01*
X0349770Y0114702D01*
X0349910Y0114640D01*
X0350049Y0114575D01*
X0350186Y0114506D01*
X0350321Y0114433D01*
X0350454Y0114357D01*
X0350585Y0114277D01*
X0350714Y0114195D01*
X0350841Y0114108D01*
X0350966Y0114019D01*
X0351088Y0113926D01*
X0351207Y0113830D01*
X0351325Y0113731D01*
X0351439Y0113630D01*
X0351551Y0113525D01*
X0351660Y0113417D01*
X0351766Y0113306D01*
X0351870Y0113193D01*
X0351970Y0113077D01*
X0352068Y0112959D01*
X0352162Y0112838D01*
X0352253Y0112715D01*
X0352341Y0112589D01*
X0352425Y0112461D01*
X0352507Y0112331D01*
X0352584Y0112199D01*
X0352659Y0112065D01*
X0352730Y0111929D01*
X0352797Y0111791D01*
X0352861Y0111651D01*
X0352921Y0111510D01*
X0352977Y0111368D01*
X0353030Y0111224D01*
X0353079Y0111078D01*
X0353124Y0110932D01*
X0353165Y0110784D01*
X0353202Y0110636D01*
X0353236Y0110486D01*
X0353266Y0110335D01*
X0353291Y0110184D01*
X0353313Y0110033D01*
X0353331Y0109880D01*
X0353345Y0109728D01*
X0353355Y0109575D01*
X0353361Y0109421D01*
X0353363Y0109268D01*
X0353361Y0109115D01*
X0353355Y0108961D01*
X0353345Y0108808D01*
X0353331Y0108656D01*
X0353313Y0108503D01*
X0353291Y0108352D01*
X0353266Y0108201D01*
X0353236Y0108050D01*
X0353202Y0107900D01*
X0353165Y0107752D01*
X0353124Y0107604D01*
X0353079Y0107458D01*
X0353030Y0107312D01*
X0352977Y0107168D01*
X0352921Y0107026D01*
X0352861Y0106885D01*
X0352797Y0106745D01*
X0352730Y0106607D01*
X0352659Y0106471D01*
X0352584Y0106337D01*
X0352507Y0106205D01*
X0352425Y0106075D01*
X0352341Y0105947D01*
X0352253Y0105821D01*
X0352162Y0105698D01*
X0352068Y0105577D01*
X0351970Y0105459D01*
X0351870Y0105343D01*
X0351766Y0105230D01*
X0351660Y0105119D01*
X0351551Y0105011D01*
X0351439Y0104906D01*
X0351325Y0104805D01*
X0351207Y0104706D01*
X0351088Y0104610D01*
X0350966Y0104517D01*
X0350841Y0104428D01*
X0350714Y0104341D01*
X0350585Y0104259D01*
X0350454Y0104179D01*
X0350321Y0104103D01*
X0350186Y0104030D01*
X0350049Y0103961D01*
X0349910Y0103896D01*
X0349770Y0103834D01*
X0349628Y0103776D01*
X0349485Y0103721D01*
X0349340Y0103670D01*
X0349194Y0103623D01*
X0349047Y0103580D01*
X0348899Y0103541D01*
X0348750Y0103505D01*
X0348600Y0103474D01*
X0348449Y0103446D01*
X0348298Y0103422D01*
X0348145Y0103402D01*
X0347993Y0103386D01*
X0347840Y0103374D01*
X0347687Y0103366D01*
X0347534Y0103362D01*
X0347380Y0103362D01*
X0347227Y0103366D01*
X0347074Y0103374D01*
X0346921Y0103386D01*
X0346769Y0103402D01*
X0346616Y0103422D01*
X0346465Y0103446D01*
X0346314Y0103474D01*
X0346164Y0103505D01*
X0346015Y0103541D01*
X0345867Y0103580D01*
X0345720Y0103623D01*
X0345574Y0103670D01*
X0345429Y0103721D01*
X0345286Y0103776D01*
X0345144Y0103834D01*
X0345004Y0103896D01*
X0344865Y0103961D01*
X0344728Y0104030D01*
X0344593Y0104103D01*
X0344460Y0104179D01*
X0344329Y0104259D01*
X0344200Y0104341D01*
X0344073Y0104428D01*
X0343948Y0104517D01*
X0343826Y0104610D01*
X0343707Y0104706D01*
X0343589Y0104805D01*
X0343475Y0104906D01*
X0343363Y0105011D01*
X0343254Y0105119D01*
X0343148Y0105230D01*
X0343044Y0105343D01*
X0342944Y0105459D01*
X0342846Y0105577D01*
X0342752Y0105698D01*
X0342661Y0105821D01*
X0342573Y0105947D01*
X0342489Y0106075D01*
X0342407Y0106205D01*
X0342330Y0106337D01*
X0342255Y0106471D01*
X0342184Y0106607D01*
X0342117Y0106745D01*
X0342053Y0106885D01*
X0341993Y0107026D01*
X0341937Y0107168D01*
X0341884Y0107312D01*
X0341835Y0107458D01*
X0341790Y0107604D01*
X0341749Y0107752D01*
X0341712Y0107900D01*
X0341678Y0108050D01*
X0341648Y0108201D01*
X0341623Y0108352D01*
X0341601Y0108503D01*
X0341583Y0108656D01*
X0341569Y0108808D01*
X0341559Y0108961D01*
X0341553Y0109115D01*
X0341551Y0109268D01*
X0380921Y0109268D02*
X0380923Y0109421D01*
X0380929Y0109575D01*
X0380939Y0109728D01*
X0380953Y0109880D01*
X0380971Y0110033D01*
X0380993Y0110184D01*
X0381018Y0110335D01*
X0381048Y0110486D01*
X0381082Y0110636D01*
X0381119Y0110784D01*
X0381160Y0110932D01*
X0381205Y0111078D01*
X0381254Y0111224D01*
X0381307Y0111368D01*
X0381363Y0111510D01*
X0381423Y0111651D01*
X0381487Y0111791D01*
X0381554Y0111929D01*
X0381625Y0112065D01*
X0381700Y0112199D01*
X0381777Y0112331D01*
X0381859Y0112461D01*
X0381943Y0112589D01*
X0382031Y0112715D01*
X0382122Y0112838D01*
X0382216Y0112959D01*
X0382314Y0113077D01*
X0382414Y0113193D01*
X0382518Y0113306D01*
X0382624Y0113417D01*
X0382733Y0113525D01*
X0382845Y0113630D01*
X0382959Y0113731D01*
X0383077Y0113830D01*
X0383196Y0113926D01*
X0383318Y0114019D01*
X0383443Y0114108D01*
X0383570Y0114195D01*
X0383699Y0114277D01*
X0383830Y0114357D01*
X0383963Y0114433D01*
X0384098Y0114506D01*
X0384235Y0114575D01*
X0384374Y0114640D01*
X0384514Y0114702D01*
X0384656Y0114760D01*
X0384799Y0114815D01*
X0384944Y0114866D01*
X0385090Y0114913D01*
X0385237Y0114956D01*
X0385385Y0114995D01*
X0385534Y0115031D01*
X0385684Y0115062D01*
X0385835Y0115090D01*
X0385986Y0115114D01*
X0386139Y0115134D01*
X0386291Y0115150D01*
X0386444Y0115162D01*
X0386597Y0115170D01*
X0386750Y0115174D01*
X0386904Y0115174D01*
X0387057Y0115170D01*
X0387210Y0115162D01*
X0387363Y0115150D01*
X0387515Y0115134D01*
X0387668Y0115114D01*
X0387819Y0115090D01*
X0387970Y0115062D01*
X0388120Y0115031D01*
X0388269Y0114995D01*
X0388417Y0114956D01*
X0388564Y0114913D01*
X0388710Y0114866D01*
X0388855Y0114815D01*
X0388998Y0114760D01*
X0389140Y0114702D01*
X0389280Y0114640D01*
X0389419Y0114575D01*
X0389556Y0114506D01*
X0389691Y0114433D01*
X0389824Y0114357D01*
X0389955Y0114277D01*
X0390084Y0114195D01*
X0390211Y0114108D01*
X0390336Y0114019D01*
X0390458Y0113926D01*
X0390577Y0113830D01*
X0390695Y0113731D01*
X0390809Y0113630D01*
X0390921Y0113525D01*
X0391030Y0113417D01*
X0391136Y0113306D01*
X0391240Y0113193D01*
X0391340Y0113077D01*
X0391438Y0112959D01*
X0391532Y0112838D01*
X0391623Y0112715D01*
X0391711Y0112589D01*
X0391795Y0112461D01*
X0391877Y0112331D01*
X0391954Y0112199D01*
X0392029Y0112065D01*
X0392100Y0111929D01*
X0392167Y0111791D01*
X0392231Y0111651D01*
X0392291Y0111510D01*
X0392347Y0111368D01*
X0392400Y0111224D01*
X0392449Y0111078D01*
X0392494Y0110932D01*
X0392535Y0110784D01*
X0392572Y0110636D01*
X0392606Y0110486D01*
X0392636Y0110335D01*
X0392661Y0110184D01*
X0392683Y0110033D01*
X0392701Y0109880D01*
X0392715Y0109728D01*
X0392725Y0109575D01*
X0392731Y0109421D01*
X0392733Y0109268D01*
X0392731Y0109115D01*
X0392725Y0108961D01*
X0392715Y0108808D01*
X0392701Y0108656D01*
X0392683Y0108503D01*
X0392661Y0108352D01*
X0392636Y0108201D01*
X0392606Y0108050D01*
X0392572Y0107900D01*
X0392535Y0107752D01*
X0392494Y0107604D01*
X0392449Y0107458D01*
X0392400Y0107312D01*
X0392347Y0107168D01*
X0392291Y0107026D01*
X0392231Y0106885D01*
X0392167Y0106745D01*
X0392100Y0106607D01*
X0392029Y0106471D01*
X0391954Y0106337D01*
X0391877Y0106205D01*
X0391795Y0106075D01*
X0391711Y0105947D01*
X0391623Y0105821D01*
X0391532Y0105698D01*
X0391438Y0105577D01*
X0391340Y0105459D01*
X0391240Y0105343D01*
X0391136Y0105230D01*
X0391030Y0105119D01*
X0390921Y0105011D01*
X0390809Y0104906D01*
X0390695Y0104805D01*
X0390577Y0104706D01*
X0390458Y0104610D01*
X0390336Y0104517D01*
X0390211Y0104428D01*
X0390084Y0104341D01*
X0389955Y0104259D01*
X0389824Y0104179D01*
X0389691Y0104103D01*
X0389556Y0104030D01*
X0389419Y0103961D01*
X0389280Y0103896D01*
X0389140Y0103834D01*
X0388998Y0103776D01*
X0388855Y0103721D01*
X0388710Y0103670D01*
X0388564Y0103623D01*
X0388417Y0103580D01*
X0388269Y0103541D01*
X0388120Y0103505D01*
X0387970Y0103474D01*
X0387819Y0103446D01*
X0387668Y0103422D01*
X0387515Y0103402D01*
X0387363Y0103386D01*
X0387210Y0103374D01*
X0387057Y0103366D01*
X0386904Y0103362D01*
X0386750Y0103362D01*
X0386597Y0103366D01*
X0386444Y0103374D01*
X0386291Y0103386D01*
X0386139Y0103402D01*
X0385986Y0103422D01*
X0385835Y0103446D01*
X0385684Y0103474D01*
X0385534Y0103505D01*
X0385385Y0103541D01*
X0385237Y0103580D01*
X0385090Y0103623D01*
X0384944Y0103670D01*
X0384799Y0103721D01*
X0384656Y0103776D01*
X0384514Y0103834D01*
X0384374Y0103896D01*
X0384235Y0103961D01*
X0384098Y0104030D01*
X0383963Y0104103D01*
X0383830Y0104179D01*
X0383699Y0104259D01*
X0383570Y0104341D01*
X0383443Y0104428D01*
X0383318Y0104517D01*
X0383196Y0104610D01*
X0383077Y0104706D01*
X0382959Y0104805D01*
X0382845Y0104906D01*
X0382733Y0105011D01*
X0382624Y0105119D01*
X0382518Y0105230D01*
X0382414Y0105343D01*
X0382314Y0105459D01*
X0382216Y0105577D01*
X0382122Y0105698D01*
X0382031Y0105821D01*
X0381943Y0105947D01*
X0381859Y0106075D01*
X0381777Y0106205D01*
X0381700Y0106337D01*
X0381625Y0106471D01*
X0381554Y0106607D01*
X0381487Y0106745D01*
X0381423Y0106885D01*
X0381363Y0107026D01*
X0381307Y0107168D01*
X0381254Y0107312D01*
X0381205Y0107458D01*
X0381160Y0107604D01*
X0381119Y0107752D01*
X0381082Y0107900D01*
X0381048Y0108050D01*
X0381018Y0108201D01*
X0380993Y0108352D01*
X0380971Y0108503D01*
X0380953Y0108656D01*
X0380939Y0108808D01*
X0380929Y0108961D01*
X0380923Y0109115D01*
X0380921Y0109268D01*
X0317441Y0159858D02*
X0317443Y0159937D01*
X0317449Y0160016D01*
X0317459Y0160095D01*
X0317473Y0160173D01*
X0317490Y0160250D01*
X0317512Y0160326D01*
X0317537Y0160401D01*
X0317567Y0160474D01*
X0317599Y0160546D01*
X0317636Y0160617D01*
X0317676Y0160685D01*
X0317719Y0160751D01*
X0317765Y0160815D01*
X0317815Y0160877D01*
X0317868Y0160936D01*
X0317923Y0160992D01*
X0317982Y0161046D01*
X0318043Y0161096D01*
X0318106Y0161144D01*
X0318172Y0161188D01*
X0318240Y0161229D01*
X0318310Y0161266D01*
X0318381Y0161300D01*
X0318455Y0161330D01*
X0318529Y0161356D01*
X0318605Y0161378D01*
X0318682Y0161397D01*
X0318760Y0161412D01*
X0318838Y0161423D01*
X0318917Y0161430D01*
X0318996Y0161433D01*
X0319075Y0161432D01*
X0319154Y0161427D01*
X0319233Y0161418D01*
X0319311Y0161405D01*
X0319388Y0161388D01*
X0319465Y0161368D01*
X0319540Y0161343D01*
X0319614Y0161315D01*
X0319687Y0161283D01*
X0319757Y0161248D01*
X0319826Y0161209D01*
X0319893Y0161166D01*
X0319958Y0161120D01*
X0320020Y0161072D01*
X0320080Y0161020D01*
X0320137Y0160965D01*
X0320191Y0160907D01*
X0320242Y0160847D01*
X0320290Y0160784D01*
X0320335Y0160719D01*
X0320377Y0160651D01*
X0320415Y0160582D01*
X0320449Y0160511D01*
X0320480Y0160438D01*
X0320508Y0160363D01*
X0320531Y0160288D01*
X0320551Y0160211D01*
X0320567Y0160134D01*
X0320579Y0160055D01*
X0320587Y0159977D01*
X0320591Y0159898D01*
X0320591Y0159818D01*
X0320587Y0159739D01*
X0320579Y0159661D01*
X0320567Y0159582D01*
X0320551Y0159505D01*
X0320531Y0159428D01*
X0320508Y0159353D01*
X0320480Y0159278D01*
X0320449Y0159205D01*
X0320415Y0159134D01*
X0320377Y0159065D01*
X0320335Y0158997D01*
X0320290Y0158932D01*
X0320242Y0158869D01*
X0320191Y0158809D01*
X0320137Y0158751D01*
X0320080Y0158696D01*
X0320020Y0158644D01*
X0319958Y0158596D01*
X0319893Y0158550D01*
X0319826Y0158507D01*
X0319757Y0158468D01*
X0319687Y0158433D01*
X0319614Y0158401D01*
X0319540Y0158373D01*
X0319465Y0158348D01*
X0319388Y0158328D01*
X0319311Y0158311D01*
X0319233Y0158298D01*
X0319154Y0158289D01*
X0319075Y0158284D01*
X0318996Y0158283D01*
X0318917Y0158286D01*
X0318838Y0158293D01*
X0318760Y0158304D01*
X0318682Y0158319D01*
X0318605Y0158338D01*
X0318529Y0158360D01*
X0318455Y0158386D01*
X0318381Y0158416D01*
X0318310Y0158450D01*
X0318240Y0158487D01*
X0318172Y0158528D01*
X0318106Y0158572D01*
X0318043Y0158620D01*
X0317982Y0158670D01*
X0317923Y0158724D01*
X0317868Y0158780D01*
X0317815Y0158839D01*
X0317765Y0158901D01*
X0317719Y0158965D01*
X0317676Y0159031D01*
X0317636Y0159099D01*
X0317599Y0159170D01*
X0317567Y0159242D01*
X0317537Y0159315D01*
X0317512Y0159390D01*
X0317490Y0159466D01*
X0317473Y0159543D01*
X0317459Y0159621D01*
X0317449Y0159700D01*
X0317443Y0159779D01*
X0317441Y0159858D01*
X0341551Y0227378D02*
X0341553Y0227531D01*
X0341559Y0227685D01*
X0341569Y0227838D01*
X0341583Y0227990D01*
X0341601Y0228143D01*
X0341623Y0228294D01*
X0341648Y0228445D01*
X0341678Y0228596D01*
X0341712Y0228746D01*
X0341749Y0228894D01*
X0341790Y0229042D01*
X0341835Y0229188D01*
X0341884Y0229334D01*
X0341937Y0229478D01*
X0341993Y0229620D01*
X0342053Y0229761D01*
X0342117Y0229901D01*
X0342184Y0230039D01*
X0342255Y0230175D01*
X0342330Y0230309D01*
X0342407Y0230441D01*
X0342489Y0230571D01*
X0342573Y0230699D01*
X0342661Y0230825D01*
X0342752Y0230948D01*
X0342846Y0231069D01*
X0342944Y0231187D01*
X0343044Y0231303D01*
X0343148Y0231416D01*
X0343254Y0231527D01*
X0343363Y0231635D01*
X0343475Y0231740D01*
X0343589Y0231841D01*
X0343707Y0231940D01*
X0343826Y0232036D01*
X0343948Y0232129D01*
X0344073Y0232218D01*
X0344200Y0232305D01*
X0344329Y0232387D01*
X0344460Y0232467D01*
X0344593Y0232543D01*
X0344728Y0232616D01*
X0344865Y0232685D01*
X0345004Y0232750D01*
X0345144Y0232812D01*
X0345286Y0232870D01*
X0345429Y0232925D01*
X0345574Y0232976D01*
X0345720Y0233023D01*
X0345867Y0233066D01*
X0346015Y0233105D01*
X0346164Y0233141D01*
X0346314Y0233172D01*
X0346465Y0233200D01*
X0346616Y0233224D01*
X0346769Y0233244D01*
X0346921Y0233260D01*
X0347074Y0233272D01*
X0347227Y0233280D01*
X0347380Y0233284D01*
X0347534Y0233284D01*
X0347687Y0233280D01*
X0347840Y0233272D01*
X0347993Y0233260D01*
X0348145Y0233244D01*
X0348298Y0233224D01*
X0348449Y0233200D01*
X0348600Y0233172D01*
X0348750Y0233141D01*
X0348899Y0233105D01*
X0349047Y0233066D01*
X0349194Y0233023D01*
X0349340Y0232976D01*
X0349485Y0232925D01*
X0349628Y0232870D01*
X0349770Y0232812D01*
X0349910Y0232750D01*
X0350049Y0232685D01*
X0350186Y0232616D01*
X0350321Y0232543D01*
X0350454Y0232467D01*
X0350585Y0232387D01*
X0350714Y0232305D01*
X0350841Y0232218D01*
X0350966Y0232129D01*
X0351088Y0232036D01*
X0351207Y0231940D01*
X0351325Y0231841D01*
X0351439Y0231740D01*
X0351551Y0231635D01*
X0351660Y0231527D01*
X0351766Y0231416D01*
X0351870Y0231303D01*
X0351970Y0231187D01*
X0352068Y0231069D01*
X0352162Y0230948D01*
X0352253Y0230825D01*
X0352341Y0230699D01*
X0352425Y0230571D01*
X0352507Y0230441D01*
X0352584Y0230309D01*
X0352659Y0230175D01*
X0352730Y0230039D01*
X0352797Y0229901D01*
X0352861Y0229761D01*
X0352921Y0229620D01*
X0352977Y0229478D01*
X0353030Y0229334D01*
X0353079Y0229188D01*
X0353124Y0229042D01*
X0353165Y0228894D01*
X0353202Y0228746D01*
X0353236Y0228596D01*
X0353266Y0228445D01*
X0353291Y0228294D01*
X0353313Y0228143D01*
X0353331Y0227990D01*
X0353345Y0227838D01*
X0353355Y0227685D01*
X0353361Y0227531D01*
X0353363Y0227378D01*
X0353361Y0227225D01*
X0353355Y0227071D01*
X0353345Y0226918D01*
X0353331Y0226766D01*
X0353313Y0226613D01*
X0353291Y0226462D01*
X0353266Y0226311D01*
X0353236Y0226160D01*
X0353202Y0226010D01*
X0353165Y0225862D01*
X0353124Y0225714D01*
X0353079Y0225568D01*
X0353030Y0225422D01*
X0352977Y0225278D01*
X0352921Y0225136D01*
X0352861Y0224995D01*
X0352797Y0224855D01*
X0352730Y0224717D01*
X0352659Y0224581D01*
X0352584Y0224447D01*
X0352507Y0224315D01*
X0352425Y0224185D01*
X0352341Y0224057D01*
X0352253Y0223931D01*
X0352162Y0223808D01*
X0352068Y0223687D01*
X0351970Y0223569D01*
X0351870Y0223453D01*
X0351766Y0223340D01*
X0351660Y0223229D01*
X0351551Y0223121D01*
X0351439Y0223016D01*
X0351325Y0222915D01*
X0351207Y0222816D01*
X0351088Y0222720D01*
X0350966Y0222627D01*
X0350841Y0222538D01*
X0350714Y0222451D01*
X0350585Y0222369D01*
X0350454Y0222289D01*
X0350321Y0222213D01*
X0350186Y0222140D01*
X0350049Y0222071D01*
X0349910Y0222006D01*
X0349770Y0221944D01*
X0349628Y0221886D01*
X0349485Y0221831D01*
X0349340Y0221780D01*
X0349194Y0221733D01*
X0349047Y0221690D01*
X0348899Y0221651D01*
X0348750Y0221615D01*
X0348600Y0221584D01*
X0348449Y0221556D01*
X0348298Y0221532D01*
X0348145Y0221512D01*
X0347993Y0221496D01*
X0347840Y0221484D01*
X0347687Y0221476D01*
X0347534Y0221472D01*
X0347380Y0221472D01*
X0347227Y0221476D01*
X0347074Y0221484D01*
X0346921Y0221496D01*
X0346769Y0221512D01*
X0346616Y0221532D01*
X0346465Y0221556D01*
X0346314Y0221584D01*
X0346164Y0221615D01*
X0346015Y0221651D01*
X0345867Y0221690D01*
X0345720Y0221733D01*
X0345574Y0221780D01*
X0345429Y0221831D01*
X0345286Y0221886D01*
X0345144Y0221944D01*
X0345004Y0222006D01*
X0344865Y0222071D01*
X0344728Y0222140D01*
X0344593Y0222213D01*
X0344460Y0222289D01*
X0344329Y0222369D01*
X0344200Y0222451D01*
X0344073Y0222538D01*
X0343948Y0222627D01*
X0343826Y0222720D01*
X0343707Y0222816D01*
X0343589Y0222915D01*
X0343475Y0223016D01*
X0343363Y0223121D01*
X0343254Y0223229D01*
X0343148Y0223340D01*
X0343044Y0223453D01*
X0342944Y0223569D01*
X0342846Y0223687D01*
X0342752Y0223808D01*
X0342661Y0223931D01*
X0342573Y0224057D01*
X0342489Y0224185D01*
X0342407Y0224315D01*
X0342330Y0224447D01*
X0342255Y0224581D01*
X0342184Y0224717D01*
X0342117Y0224855D01*
X0342053Y0224995D01*
X0341993Y0225136D01*
X0341937Y0225278D01*
X0341884Y0225422D01*
X0341835Y0225568D01*
X0341790Y0225714D01*
X0341749Y0225862D01*
X0341712Y0226010D01*
X0341678Y0226160D01*
X0341648Y0226311D01*
X0341623Y0226462D01*
X0341601Y0226613D01*
X0341583Y0226766D01*
X0341569Y0226918D01*
X0341559Y0227071D01*
X0341553Y0227225D01*
X0341551Y0227378D01*
X0316638Y0249709D02*
X0316640Y0249788D01*
X0316646Y0249867D01*
X0316656Y0249946D01*
X0316670Y0250024D01*
X0316687Y0250101D01*
X0316709Y0250177D01*
X0316734Y0250252D01*
X0316764Y0250325D01*
X0316796Y0250397D01*
X0316833Y0250468D01*
X0316873Y0250536D01*
X0316916Y0250602D01*
X0316962Y0250666D01*
X0317012Y0250728D01*
X0317065Y0250787D01*
X0317120Y0250843D01*
X0317179Y0250897D01*
X0317240Y0250947D01*
X0317303Y0250995D01*
X0317369Y0251039D01*
X0317437Y0251080D01*
X0317507Y0251117D01*
X0317578Y0251151D01*
X0317652Y0251181D01*
X0317726Y0251207D01*
X0317802Y0251229D01*
X0317879Y0251248D01*
X0317957Y0251263D01*
X0318035Y0251274D01*
X0318114Y0251281D01*
X0318193Y0251284D01*
X0318272Y0251283D01*
X0318351Y0251278D01*
X0318430Y0251269D01*
X0318508Y0251256D01*
X0318585Y0251239D01*
X0318662Y0251219D01*
X0318737Y0251194D01*
X0318811Y0251166D01*
X0318884Y0251134D01*
X0318954Y0251099D01*
X0319023Y0251060D01*
X0319090Y0251017D01*
X0319155Y0250971D01*
X0319217Y0250923D01*
X0319277Y0250871D01*
X0319334Y0250816D01*
X0319388Y0250758D01*
X0319439Y0250698D01*
X0319487Y0250635D01*
X0319532Y0250570D01*
X0319574Y0250502D01*
X0319612Y0250433D01*
X0319646Y0250362D01*
X0319677Y0250289D01*
X0319705Y0250214D01*
X0319728Y0250139D01*
X0319748Y0250062D01*
X0319764Y0249985D01*
X0319776Y0249906D01*
X0319784Y0249828D01*
X0319788Y0249749D01*
X0319788Y0249669D01*
X0319784Y0249590D01*
X0319776Y0249512D01*
X0319764Y0249433D01*
X0319748Y0249356D01*
X0319728Y0249279D01*
X0319705Y0249204D01*
X0319677Y0249129D01*
X0319646Y0249056D01*
X0319612Y0248985D01*
X0319574Y0248916D01*
X0319532Y0248848D01*
X0319487Y0248783D01*
X0319439Y0248720D01*
X0319388Y0248660D01*
X0319334Y0248602D01*
X0319277Y0248547D01*
X0319217Y0248495D01*
X0319155Y0248447D01*
X0319090Y0248401D01*
X0319023Y0248358D01*
X0318954Y0248319D01*
X0318884Y0248284D01*
X0318811Y0248252D01*
X0318737Y0248224D01*
X0318662Y0248199D01*
X0318585Y0248179D01*
X0318508Y0248162D01*
X0318430Y0248149D01*
X0318351Y0248140D01*
X0318272Y0248135D01*
X0318193Y0248134D01*
X0318114Y0248137D01*
X0318035Y0248144D01*
X0317957Y0248155D01*
X0317879Y0248170D01*
X0317802Y0248189D01*
X0317726Y0248211D01*
X0317652Y0248237D01*
X0317578Y0248267D01*
X0317507Y0248301D01*
X0317437Y0248338D01*
X0317369Y0248379D01*
X0317303Y0248423D01*
X0317240Y0248471D01*
X0317179Y0248521D01*
X0317120Y0248575D01*
X0317065Y0248631D01*
X0317012Y0248690D01*
X0316962Y0248752D01*
X0316916Y0248816D01*
X0316873Y0248882D01*
X0316833Y0248950D01*
X0316796Y0249021D01*
X0316764Y0249093D01*
X0316734Y0249166D01*
X0316709Y0249241D01*
X0316687Y0249317D01*
X0316670Y0249394D01*
X0316656Y0249472D01*
X0316646Y0249551D01*
X0316640Y0249630D01*
X0316638Y0249709D01*
X0380921Y0227378D02*
X0380923Y0227531D01*
X0380929Y0227685D01*
X0380939Y0227838D01*
X0380953Y0227990D01*
X0380971Y0228143D01*
X0380993Y0228294D01*
X0381018Y0228445D01*
X0381048Y0228596D01*
X0381082Y0228746D01*
X0381119Y0228894D01*
X0381160Y0229042D01*
X0381205Y0229188D01*
X0381254Y0229334D01*
X0381307Y0229478D01*
X0381363Y0229620D01*
X0381423Y0229761D01*
X0381487Y0229901D01*
X0381554Y0230039D01*
X0381625Y0230175D01*
X0381700Y0230309D01*
X0381777Y0230441D01*
X0381859Y0230571D01*
X0381943Y0230699D01*
X0382031Y0230825D01*
X0382122Y0230948D01*
X0382216Y0231069D01*
X0382314Y0231187D01*
X0382414Y0231303D01*
X0382518Y0231416D01*
X0382624Y0231527D01*
X0382733Y0231635D01*
X0382845Y0231740D01*
X0382959Y0231841D01*
X0383077Y0231940D01*
X0383196Y0232036D01*
X0383318Y0232129D01*
X0383443Y0232218D01*
X0383570Y0232305D01*
X0383699Y0232387D01*
X0383830Y0232467D01*
X0383963Y0232543D01*
X0384098Y0232616D01*
X0384235Y0232685D01*
X0384374Y0232750D01*
X0384514Y0232812D01*
X0384656Y0232870D01*
X0384799Y0232925D01*
X0384944Y0232976D01*
X0385090Y0233023D01*
X0385237Y0233066D01*
X0385385Y0233105D01*
X0385534Y0233141D01*
X0385684Y0233172D01*
X0385835Y0233200D01*
X0385986Y0233224D01*
X0386139Y0233244D01*
X0386291Y0233260D01*
X0386444Y0233272D01*
X0386597Y0233280D01*
X0386750Y0233284D01*
X0386904Y0233284D01*
X0387057Y0233280D01*
X0387210Y0233272D01*
X0387363Y0233260D01*
X0387515Y0233244D01*
X0387668Y0233224D01*
X0387819Y0233200D01*
X0387970Y0233172D01*
X0388120Y0233141D01*
X0388269Y0233105D01*
X0388417Y0233066D01*
X0388564Y0233023D01*
X0388710Y0232976D01*
X0388855Y0232925D01*
X0388998Y0232870D01*
X0389140Y0232812D01*
X0389280Y0232750D01*
X0389419Y0232685D01*
X0389556Y0232616D01*
X0389691Y0232543D01*
X0389824Y0232467D01*
X0389955Y0232387D01*
X0390084Y0232305D01*
X0390211Y0232218D01*
X0390336Y0232129D01*
X0390458Y0232036D01*
X0390577Y0231940D01*
X0390695Y0231841D01*
X0390809Y0231740D01*
X0390921Y0231635D01*
X0391030Y0231527D01*
X0391136Y0231416D01*
X0391240Y0231303D01*
X0391340Y0231187D01*
X0391438Y0231069D01*
X0391532Y0230948D01*
X0391623Y0230825D01*
X0391711Y0230699D01*
X0391795Y0230571D01*
X0391877Y0230441D01*
X0391954Y0230309D01*
X0392029Y0230175D01*
X0392100Y0230039D01*
X0392167Y0229901D01*
X0392231Y0229761D01*
X0392291Y0229620D01*
X0392347Y0229478D01*
X0392400Y0229334D01*
X0392449Y0229188D01*
X0392494Y0229042D01*
X0392535Y0228894D01*
X0392572Y0228746D01*
X0392606Y0228596D01*
X0392636Y0228445D01*
X0392661Y0228294D01*
X0392683Y0228143D01*
X0392701Y0227990D01*
X0392715Y0227838D01*
X0392725Y0227685D01*
X0392731Y0227531D01*
X0392733Y0227378D01*
X0392731Y0227225D01*
X0392725Y0227071D01*
X0392715Y0226918D01*
X0392701Y0226766D01*
X0392683Y0226613D01*
X0392661Y0226462D01*
X0392636Y0226311D01*
X0392606Y0226160D01*
X0392572Y0226010D01*
X0392535Y0225862D01*
X0392494Y0225714D01*
X0392449Y0225568D01*
X0392400Y0225422D01*
X0392347Y0225278D01*
X0392291Y0225136D01*
X0392231Y0224995D01*
X0392167Y0224855D01*
X0392100Y0224717D01*
X0392029Y0224581D01*
X0391954Y0224447D01*
X0391877Y0224315D01*
X0391795Y0224185D01*
X0391711Y0224057D01*
X0391623Y0223931D01*
X0391532Y0223808D01*
X0391438Y0223687D01*
X0391340Y0223569D01*
X0391240Y0223453D01*
X0391136Y0223340D01*
X0391030Y0223229D01*
X0390921Y0223121D01*
X0390809Y0223016D01*
X0390695Y0222915D01*
X0390577Y0222816D01*
X0390458Y0222720D01*
X0390336Y0222627D01*
X0390211Y0222538D01*
X0390084Y0222451D01*
X0389955Y0222369D01*
X0389824Y0222289D01*
X0389691Y0222213D01*
X0389556Y0222140D01*
X0389419Y0222071D01*
X0389280Y0222006D01*
X0389140Y0221944D01*
X0388998Y0221886D01*
X0388855Y0221831D01*
X0388710Y0221780D01*
X0388564Y0221733D01*
X0388417Y0221690D01*
X0388269Y0221651D01*
X0388120Y0221615D01*
X0387970Y0221584D01*
X0387819Y0221556D01*
X0387668Y0221532D01*
X0387515Y0221512D01*
X0387363Y0221496D01*
X0387210Y0221484D01*
X0387057Y0221476D01*
X0386904Y0221472D01*
X0386750Y0221472D01*
X0386597Y0221476D01*
X0386444Y0221484D01*
X0386291Y0221496D01*
X0386139Y0221512D01*
X0385986Y0221532D01*
X0385835Y0221556D01*
X0385684Y0221584D01*
X0385534Y0221615D01*
X0385385Y0221651D01*
X0385237Y0221690D01*
X0385090Y0221733D01*
X0384944Y0221780D01*
X0384799Y0221831D01*
X0384656Y0221886D01*
X0384514Y0221944D01*
X0384374Y0222006D01*
X0384235Y0222071D01*
X0384098Y0222140D01*
X0383963Y0222213D01*
X0383830Y0222289D01*
X0383699Y0222369D01*
X0383570Y0222451D01*
X0383443Y0222538D01*
X0383318Y0222627D01*
X0383196Y0222720D01*
X0383077Y0222816D01*
X0382959Y0222915D01*
X0382845Y0223016D01*
X0382733Y0223121D01*
X0382624Y0223229D01*
X0382518Y0223340D01*
X0382414Y0223453D01*
X0382314Y0223569D01*
X0382216Y0223687D01*
X0382122Y0223808D01*
X0382031Y0223931D01*
X0381943Y0224057D01*
X0381859Y0224185D01*
X0381777Y0224315D01*
X0381700Y0224447D01*
X0381625Y0224581D01*
X0381554Y0224717D01*
X0381487Y0224855D01*
X0381423Y0224995D01*
X0381363Y0225136D01*
X0381307Y0225278D01*
X0381254Y0225422D01*
X0381205Y0225568D01*
X0381160Y0225714D01*
X0381119Y0225862D01*
X0381082Y0226010D01*
X0381048Y0226160D01*
X0381018Y0226311D01*
X0380993Y0226462D01*
X0380971Y0226613D01*
X0380953Y0226766D01*
X0380939Y0226918D01*
X0380929Y0227071D01*
X0380923Y0227225D01*
X0380921Y0227378D01*
X0210338Y0249709D02*
X0210340Y0249788D01*
X0210346Y0249867D01*
X0210356Y0249946D01*
X0210370Y0250024D01*
X0210387Y0250101D01*
X0210409Y0250177D01*
X0210434Y0250252D01*
X0210464Y0250325D01*
X0210496Y0250397D01*
X0210533Y0250468D01*
X0210573Y0250536D01*
X0210616Y0250602D01*
X0210662Y0250666D01*
X0210712Y0250728D01*
X0210765Y0250787D01*
X0210820Y0250843D01*
X0210879Y0250897D01*
X0210940Y0250947D01*
X0211003Y0250995D01*
X0211069Y0251039D01*
X0211137Y0251080D01*
X0211207Y0251117D01*
X0211278Y0251151D01*
X0211352Y0251181D01*
X0211426Y0251207D01*
X0211502Y0251229D01*
X0211579Y0251248D01*
X0211657Y0251263D01*
X0211735Y0251274D01*
X0211814Y0251281D01*
X0211893Y0251284D01*
X0211972Y0251283D01*
X0212051Y0251278D01*
X0212130Y0251269D01*
X0212208Y0251256D01*
X0212285Y0251239D01*
X0212362Y0251219D01*
X0212437Y0251194D01*
X0212511Y0251166D01*
X0212584Y0251134D01*
X0212654Y0251099D01*
X0212723Y0251060D01*
X0212790Y0251017D01*
X0212855Y0250971D01*
X0212917Y0250923D01*
X0212977Y0250871D01*
X0213034Y0250816D01*
X0213088Y0250758D01*
X0213139Y0250698D01*
X0213187Y0250635D01*
X0213232Y0250570D01*
X0213274Y0250502D01*
X0213312Y0250433D01*
X0213346Y0250362D01*
X0213377Y0250289D01*
X0213405Y0250214D01*
X0213428Y0250139D01*
X0213448Y0250062D01*
X0213464Y0249985D01*
X0213476Y0249906D01*
X0213484Y0249828D01*
X0213488Y0249749D01*
X0213488Y0249669D01*
X0213484Y0249590D01*
X0213476Y0249512D01*
X0213464Y0249433D01*
X0213448Y0249356D01*
X0213428Y0249279D01*
X0213405Y0249204D01*
X0213377Y0249129D01*
X0213346Y0249056D01*
X0213312Y0248985D01*
X0213274Y0248916D01*
X0213232Y0248848D01*
X0213187Y0248783D01*
X0213139Y0248720D01*
X0213088Y0248660D01*
X0213034Y0248602D01*
X0212977Y0248547D01*
X0212917Y0248495D01*
X0212855Y0248447D01*
X0212790Y0248401D01*
X0212723Y0248358D01*
X0212654Y0248319D01*
X0212584Y0248284D01*
X0212511Y0248252D01*
X0212437Y0248224D01*
X0212362Y0248199D01*
X0212285Y0248179D01*
X0212208Y0248162D01*
X0212130Y0248149D01*
X0212051Y0248140D01*
X0211972Y0248135D01*
X0211893Y0248134D01*
X0211814Y0248137D01*
X0211735Y0248144D01*
X0211657Y0248155D01*
X0211579Y0248170D01*
X0211502Y0248189D01*
X0211426Y0248211D01*
X0211352Y0248237D01*
X0211278Y0248267D01*
X0211207Y0248301D01*
X0211137Y0248338D01*
X0211069Y0248379D01*
X0211003Y0248423D01*
X0210940Y0248471D01*
X0210879Y0248521D01*
X0210820Y0248575D01*
X0210765Y0248631D01*
X0210712Y0248690D01*
X0210662Y0248752D01*
X0210616Y0248816D01*
X0210573Y0248882D01*
X0210533Y0248950D01*
X0210496Y0249021D01*
X0210464Y0249093D01*
X0210434Y0249166D01*
X0210409Y0249241D01*
X0210387Y0249317D01*
X0210370Y0249394D01*
X0210356Y0249472D01*
X0210346Y0249551D01*
X0210340Y0249630D01*
X0210338Y0249709D01*
M02*
