G75*
%MOIN*%
%OFA0B0*%
%FSLAX25Y25*%
%IPPOS*%
%LPD*%
%AMOC8*
5,1,8,0,0,1.08239X$1,22.5*
%
%ADD10C,0.00800*%
%ADD11C,0.00400*%
D10*
X0031348Y0001800D02*
X0106152Y0001800D01*
X0106152Y0167154D01*
X0031348Y0167154D01*
X0031348Y0001800D01*
X0083542Y0160200D02*
X0086345Y0160200D01*
X0084943Y0160200D02*
X0084943Y0164404D01*
X0086345Y0163002D01*
X0088146Y0163002D02*
X0088146Y0160200D01*
X0088146Y0162302D02*
X0090948Y0162302D01*
X0090948Y0163002D02*
X0089547Y0164404D01*
X0088146Y0163002D01*
X0090948Y0163002D02*
X0090948Y0160200D01*
D11*
X0045456Y0007804D02*
X0045456Y0003200D01*
X0047758Y0003200D01*
X0048525Y0003967D01*
X0048525Y0005502D01*
X0047758Y0006269D01*
X0045456Y0006269D01*
X0043921Y0005502D02*
X0043921Y0003967D01*
X0043154Y0003200D01*
X0041619Y0003200D01*
X0040852Y0003967D01*
X0040852Y0005502D01*
X0041619Y0006269D01*
X0043154Y0006269D01*
X0043921Y0005502D01*
X0050060Y0005502D02*
X0050060Y0003200D01*
X0052361Y0003200D01*
X0053129Y0003967D01*
X0052361Y0004735D01*
X0050060Y0004735D01*
X0050060Y0005502D02*
X0050827Y0006269D01*
X0052361Y0006269D01*
X0054663Y0006269D02*
X0056965Y0006269D01*
X0057733Y0005502D01*
X0057733Y0003967D01*
X0056965Y0003200D01*
X0054663Y0003200D01*
X0059267Y0003200D02*
X0061569Y0003200D01*
X0062337Y0003967D01*
X0062337Y0005502D01*
X0061569Y0006269D01*
X0059267Y0006269D01*
X0063871Y0005502D02*
X0063871Y0003967D01*
X0064639Y0003200D01*
X0066173Y0003200D01*
X0066941Y0003967D01*
X0066941Y0005502D01*
X0066173Y0006269D01*
X0064639Y0006269D01*
X0063871Y0005502D01*
X0068475Y0006269D02*
X0070010Y0003200D01*
X0071545Y0006269D01*
X0073079Y0005502D02*
X0073079Y0003200D01*
X0075381Y0003200D01*
X0076148Y0003967D01*
X0075381Y0004735D01*
X0073079Y0004735D01*
X0073079Y0005502D02*
X0073846Y0006269D01*
X0075381Y0006269D01*
M02*
