G75*
%MOIN*%
%OFA0B0*%
%FSLAX25Y25*%
%IPPOS*%
%LPD*%
%AMOC8*
5,1,8,0,0,1.08239X$1,22.5*
%
%ADD10C,0.00800*%
%ADD11R,0.04331X0.03543*%
%ADD12R,0.07087X0.06299*%
%ADD13R,0.04724X0.05118*%
%ADD14R,0.07480X0.03543*%
%ADD15R,0.05787X0.02987*%
%ADD16R,0.02987X0.05787*%
%ADD17R,0.03543X0.03543*%
%ADD18R,0.04724X0.06299*%
%ADD19R,0.02953X0.05512*%
%ADD20R,0.03937X0.03937*%
%ADD21R,0.06299X0.02165*%
%ADD22R,0.08268X0.07874*%
%ADD23C,0.01181*%
%ADD24OC8,0.08187*%
%ADD25R,0.08187X0.08187*%
%ADD26C,0.08187*%
%ADD27C,0.00984*%
%ADD28C,0.01299*%
%ADD29C,0.04362*%
%ADD30C,0.04787*%
D10*
X0031348Y0001800D02*
X0106152Y0001800D01*
X0106152Y0167154D01*
X0031348Y0167154D01*
X0031348Y0001800D01*
D11*
X0091250Y0030595D03*
X0091250Y0035713D03*
X0091250Y0040595D03*
X0091250Y0045713D03*
X0084250Y0098595D03*
X0084250Y0103713D03*
D12*
X0074750Y0117643D03*
X0074750Y0128666D03*
X0062750Y0128666D03*
X0062750Y0117643D03*
D13*
X0062750Y0108501D03*
X0062750Y0101808D03*
X0063750Y0093501D03*
X0063750Y0086808D03*
X0073750Y0086808D03*
X0073750Y0093501D03*
X0073750Y0136808D03*
X0073750Y0143501D03*
X0073750Y0150808D03*
X0073750Y0157501D03*
X0063750Y0157501D03*
X0063750Y0150808D03*
X0063750Y0143501D03*
X0063750Y0136808D03*
X0055750Y0150808D03*
X0055750Y0157501D03*
X0050750Y0038501D03*
X0050750Y0031808D03*
D14*
X0048750Y0079930D03*
X0048750Y0084654D03*
X0048750Y0089379D03*
D15*
G36*
X0061130Y0071344D02*
X0057040Y0075434D01*
X0059152Y0077546D01*
X0063242Y0073456D01*
X0061130Y0071344D01*
G37*
G36*
X0058902Y0069117D02*
X0054812Y0073207D01*
X0056924Y0075319D01*
X0061014Y0071229D01*
X0058902Y0069117D01*
G37*
G36*
X0056675Y0066890D02*
X0052585Y0070980D01*
X0054697Y0073092D01*
X0058787Y0069002D01*
X0056675Y0066890D01*
G37*
G36*
X0054448Y0064663D02*
X0050358Y0068753D01*
X0052470Y0070865D01*
X0056560Y0066775D01*
X0054448Y0064663D01*
G37*
G36*
X0052221Y0062436D02*
X0048131Y0066526D01*
X0050243Y0068638D01*
X0054333Y0064548D01*
X0052221Y0062436D01*
G37*
G36*
X0049994Y0060209D02*
X0045904Y0064299D01*
X0048016Y0066411D01*
X0052106Y0062321D01*
X0049994Y0060209D01*
G37*
G36*
X0063357Y0073571D02*
X0059267Y0077661D01*
X0061379Y0079773D01*
X0065469Y0075683D01*
X0063357Y0073571D01*
G37*
G36*
X0065584Y0075798D02*
X0061494Y0079888D01*
X0063606Y0082000D01*
X0067696Y0077910D01*
X0065584Y0075798D01*
G37*
G36*
X0087257Y0049671D02*
X0083167Y0053761D01*
X0085279Y0055873D01*
X0089369Y0051783D01*
X0087257Y0049671D01*
G37*
G36*
X0085030Y0047444D02*
X0080940Y0051534D01*
X0083052Y0053646D01*
X0087142Y0049556D01*
X0085030Y0047444D01*
G37*
G36*
X0082803Y0045217D02*
X0078713Y0049307D01*
X0080825Y0051419D01*
X0084915Y0047329D01*
X0082803Y0045217D01*
G37*
G36*
X0080576Y0042990D02*
X0076486Y0047080D01*
X0078598Y0049192D01*
X0082688Y0045102D01*
X0080576Y0042990D01*
G37*
G36*
X0078348Y0040763D02*
X0074258Y0044853D01*
X0076370Y0046965D01*
X0080460Y0042875D01*
X0078348Y0040763D01*
G37*
G36*
X0076121Y0038535D02*
X0072031Y0042625D01*
X0074143Y0044737D01*
X0078233Y0040647D01*
X0076121Y0038535D01*
G37*
G36*
X0073894Y0036308D02*
X0069804Y0040398D01*
X0071916Y0042510D01*
X0076006Y0038420D01*
X0073894Y0036308D01*
G37*
G36*
X0089484Y0051898D02*
X0085394Y0055988D01*
X0087506Y0058100D01*
X0091596Y0054010D01*
X0089484Y0051898D01*
G37*
D16*
G36*
X0087506Y0060209D02*
X0085394Y0062321D01*
X0089484Y0066411D01*
X0091596Y0064299D01*
X0087506Y0060209D01*
G37*
G36*
X0085279Y0062436D02*
X0083167Y0064548D01*
X0087257Y0068638D01*
X0089369Y0066526D01*
X0085279Y0062436D01*
G37*
G36*
X0083052Y0064663D02*
X0080940Y0066775D01*
X0085030Y0070865D01*
X0087142Y0068753D01*
X0083052Y0064663D01*
G37*
G36*
X0080825Y0066890D02*
X0078713Y0069002D01*
X0082803Y0073092D01*
X0084915Y0070980D01*
X0080825Y0066890D01*
G37*
G36*
X0078598Y0069117D02*
X0076486Y0071229D01*
X0080576Y0075319D01*
X0082688Y0073207D01*
X0078598Y0069117D01*
G37*
G36*
X0076370Y0071344D02*
X0074258Y0073456D01*
X0078348Y0077546D01*
X0080460Y0075434D01*
X0076370Y0071344D01*
G37*
G36*
X0074143Y0073571D02*
X0072031Y0075683D01*
X0076121Y0079773D01*
X0078233Y0077661D01*
X0074143Y0073571D01*
G37*
G36*
X0071916Y0075798D02*
X0069804Y0077910D01*
X0073894Y0082000D01*
X0076006Y0079888D01*
X0071916Y0075798D01*
G37*
G36*
X0050243Y0049671D02*
X0048131Y0051783D01*
X0052221Y0055873D01*
X0054333Y0053761D01*
X0050243Y0049671D01*
G37*
G36*
X0052470Y0047444D02*
X0050358Y0049556D01*
X0054448Y0053646D01*
X0056560Y0051534D01*
X0052470Y0047444D01*
G37*
G36*
X0054697Y0045217D02*
X0052585Y0047329D01*
X0056675Y0051419D01*
X0058787Y0049307D01*
X0054697Y0045217D01*
G37*
G36*
X0056924Y0042990D02*
X0054812Y0045102D01*
X0058902Y0049192D01*
X0061014Y0047080D01*
X0056924Y0042990D01*
G37*
G36*
X0059152Y0040763D02*
X0057040Y0042875D01*
X0061130Y0046965D01*
X0063242Y0044853D01*
X0059152Y0040763D01*
G37*
G36*
X0061379Y0038535D02*
X0059267Y0040647D01*
X0063357Y0044737D01*
X0065469Y0042625D01*
X0061379Y0038535D01*
G37*
G36*
X0063606Y0036308D02*
X0061494Y0038420D01*
X0065584Y0042510D01*
X0067696Y0040398D01*
X0063606Y0036308D01*
G37*
G36*
X0048016Y0051898D02*
X0045904Y0054010D01*
X0049994Y0058100D01*
X0052106Y0055988D01*
X0048016Y0051898D01*
G37*
D17*
X0053392Y0102595D03*
X0053392Y0107713D03*
X0046108Y0105154D03*
D18*
X0084010Y0108824D03*
X0091490Y0108824D03*
X0087750Y0117485D03*
D19*
X0089490Y0146036D03*
X0085750Y0146036D03*
X0082010Y0146036D03*
X0082010Y0156273D03*
X0089490Y0156273D03*
D20*
X0086250Y0039107D03*
X0086250Y0033202D03*
D21*
X0047608Y0139036D03*
X0047608Y0141595D03*
X0047608Y0144154D03*
X0047608Y0146713D03*
X0047608Y0149272D03*
D22*
X0037175Y0159902D03*
X0037175Y0128406D03*
D23*
X0032722Y0120926D02*
X0041778Y0120926D01*
X0041778Y0117382D01*
X0032722Y0117382D01*
X0032722Y0120926D01*
X0032722Y0118562D02*
X0041778Y0118562D01*
X0041778Y0119742D02*
X0032722Y0119742D01*
X0032722Y0120922D02*
X0041778Y0120922D01*
X0041778Y0110926D02*
X0032722Y0110926D01*
X0041778Y0110926D02*
X0041778Y0107382D01*
X0032722Y0107382D01*
X0032722Y0110926D01*
X0032722Y0108562D02*
X0041778Y0108562D01*
X0041778Y0109742D02*
X0032722Y0109742D01*
X0032722Y0110922D02*
X0041778Y0110922D01*
X0041778Y0100926D02*
X0032722Y0100926D01*
X0041778Y0100926D02*
X0041778Y0097382D01*
X0032722Y0097382D01*
X0032722Y0100926D01*
X0032722Y0098562D02*
X0041778Y0098562D01*
X0041778Y0099742D02*
X0032722Y0099742D01*
X0032722Y0100922D02*
X0041778Y0100922D01*
X0041778Y0090926D02*
X0032722Y0090926D01*
X0041778Y0090926D02*
X0041778Y0087382D01*
X0032722Y0087382D01*
X0032722Y0090926D01*
X0032722Y0088562D02*
X0041778Y0088562D01*
X0041778Y0089742D02*
X0032722Y0089742D01*
X0032722Y0090922D02*
X0041778Y0090922D01*
X0041778Y0080926D02*
X0032722Y0080926D01*
X0041778Y0080926D02*
X0041778Y0077382D01*
X0032722Y0077382D01*
X0032722Y0080926D01*
X0032722Y0078562D02*
X0041778Y0078562D01*
X0041778Y0079742D02*
X0032722Y0079742D01*
X0032722Y0080922D02*
X0041778Y0080922D01*
X0041778Y0070926D02*
X0032722Y0070926D01*
X0041778Y0070926D02*
X0041778Y0067382D01*
X0032722Y0067382D01*
X0032722Y0070926D01*
X0032722Y0068562D02*
X0041778Y0068562D01*
X0041778Y0069742D02*
X0032722Y0069742D01*
X0032722Y0070922D02*
X0041778Y0070922D01*
X0041778Y0060926D02*
X0032722Y0060926D01*
X0041778Y0060926D02*
X0041778Y0057382D01*
X0032722Y0057382D01*
X0032722Y0060926D01*
X0032722Y0058562D02*
X0041778Y0058562D01*
X0041778Y0059742D02*
X0032722Y0059742D01*
X0032722Y0060922D02*
X0041778Y0060922D01*
X0041778Y0050926D02*
X0032722Y0050926D01*
X0041778Y0050926D02*
X0041778Y0047382D01*
X0032722Y0047382D01*
X0032722Y0050926D01*
X0032722Y0048562D02*
X0041778Y0048562D01*
X0041778Y0049742D02*
X0032722Y0049742D01*
X0032722Y0050922D02*
X0041778Y0050922D01*
X0041778Y0040926D02*
X0032722Y0040926D01*
X0041778Y0040926D02*
X0041778Y0037382D01*
X0032722Y0037382D01*
X0032722Y0040926D01*
X0032722Y0038562D02*
X0041778Y0038562D01*
X0041778Y0039742D02*
X0032722Y0039742D01*
X0032722Y0040922D02*
X0041778Y0040922D01*
X0041778Y0030926D02*
X0032722Y0030926D01*
X0041778Y0030926D02*
X0041778Y0027382D01*
X0032722Y0027382D01*
X0032722Y0030926D01*
X0032722Y0028562D02*
X0041778Y0028562D01*
X0041778Y0029742D02*
X0032722Y0029742D01*
X0032722Y0030922D02*
X0041778Y0030922D01*
X0041778Y0020926D02*
X0032722Y0020926D01*
X0041778Y0020926D02*
X0041778Y0017382D01*
X0032722Y0017382D01*
X0032722Y0020926D01*
X0032722Y0018562D02*
X0041778Y0018562D01*
X0041778Y0019742D02*
X0032722Y0019742D01*
X0032722Y0020922D02*
X0041778Y0020922D01*
X0041778Y0010926D02*
X0032722Y0010926D01*
X0041778Y0010926D02*
X0041778Y0007382D01*
X0032722Y0007382D01*
X0032722Y0010926D01*
X0032722Y0008562D02*
X0041778Y0008562D01*
X0041778Y0009742D02*
X0032722Y0009742D01*
X0032722Y0010922D02*
X0041778Y0010922D01*
X0095722Y0007382D02*
X0104778Y0007382D01*
X0095722Y0007382D02*
X0095722Y0010926D01*
X0104778Y0010926D01*
X0104778Y0007382D01*
X0104778Y0008562D02*
X0095722Y0008562D01*
X0095722Y0009742D02*
X0104778Y0009742D01*
X0104778Y0010922D02*
X0095722Y0010922D01*
X0095722Y0017382D02*
X0104778Y0017382D01*
X0095722Y0017382D02*
X0095722Y0020926D01*
X0104778Y0020926D01*
X0104778Y0017382D01*
X0104778Y0018562D02*
X0095722Y0018562D01*
X0095722Y0019742D02*
X0104778Y0019742D01*
X0104778Y0020922D02*
X0095722Y0020922D01*
X0095722Y0027382D02*
X0104778Y0027382D01*
X0095722Y0027382D02*
X0095722Y0030926D01*
X0104778Y0030926D01*
X0104778Y0027382D01*
X0104778Y0028562D02*
X0095722Y0028562D01*
X0095722Y0029742D02*
X0104778Y0029742D01*
X0104778Y0030922D02*
X0095722Y0030922D01*
X0095722Y0037382D02*
X0104778Y0037382D01*
X0095722Y0037382D02*
X0095722Y0040926D01*
X0104778Y0040926D01*
X0104778Y0037382D01*
X0104778Y0038562D02*
X0095722Y0038562D01*
X0095722Y0039742D02*
X0104778Y0039742D01*
X0104778Y0040922D02*
X0095722Y0040922D01*
X0095722Y0047382D02*
X0104778Y0047382D01*
X0095722Y0047382D02*
X0095722Y0050926D01*
X0104778Y0050926D01*
X0104778Y0047382D01*
X0104778Y0048562D02*
X0095722Y0048562D01*
X0095722Y0049742D02*
X0104778Y0049742D01*
X0104778Y0050922D02*
X0095722Y0050922D01*
X0095722Y0057382D02*
X0104778Y0057382D01*
X0095722Y0057382D02*
X0095722Y0060926D01*
X0104778Y0060926D01*
X0104778Y0057382D01*
X0104778Y0058562D02*
X0095722Y0058562D01*
X0095722Y0059742D02*
X0104778Y0059742D01*
X0104778Y0060922D02*
X0095722Y0060922D01*
X0095722Y0067382D02*
X0104778Y0067382D01*
X0095722Y0067382D02*
X0095722Y0070926D01*
X0104778Y0070926D01*
X0104778Y0067382D01*
X0104778Y0068562D02*
X0095722Y0068562D01*
X0095722Y0069742D02*
X0104778Y0069742D01*
X0104778Y0070922D02*
X0095722Y0070922D01*
X0095722Y0077382D02*
X0104778Y0077382D01*
X0095722Y0077382D02*
X0095722Y0080926D01*
X0104778Y0080926D01*
X0104778Y0077382D01*
X0104778Y0078562D02*
X0095722Y0078562D01*
X0095722Y0079742D02*
X0104778Y0079742D01*
X0104778Y0080922D02*
X0095722Y0080922D01*
X0095722Y0087382D02*
X0104778Y0087382D01*
X0095722Y0087382D02*
X0095722Y0090926D01*
X0104778Y0090926D01*
X0104778Y0087382D01*
X0104778Y0088562D02*
X0095722Y0088562D01*
X0095722Y0089742D02*
X0104778Y0089742D01*
X0104778Y0090922D02*
X0095722Y0090922D01*
X0095722Y0097382D02*
X0104778Y0097382D01*
X0095722Y0097382D02*
X0095722Y0100926D01*
X0104778Y0100926D01*
X0104778Y0097382D01*
X0104778Y0098562D02*
X0095722Y0098562D01*
X0095722Y0099742D02*
X0104778Y0099742D01*
X0104778Y0100922D02*
X0095722Y0100922D01*
X0095722Y0107382D02*
X0104778Y0107382D01*
X0095722Y0107382D02*
X0095722Y0110926D01*
X0104778Y0110926D01*
X0104778Y0107382D01*
X0104778Y0108562D02*
X0095722Y0108562D01*
X0095722Y0109742D02*
X0104778Y0109742D01*
X0104778Y0110922D02*
X0095722Y0110922D01*
X0095722Y0117382D02*
X0104778Y0117382D01*
X0095722Y0117382D02*
X0095722Y0120926D01*
X0104778Y0120926D01*
X0104778Y0117382D01*
X0104778Y0118562D02*
X0095722Y0118562D01*
X0095722Y0119742D02*
X0104778Y0119742D01*
X0104778Y0120922D02*
X0095722Y0120922D01*
D24*
X0081750Y0024154D03*
X0081750Y0014154D03*
X0071750Y0014154D03*
X0071750Y0024154D03*
X0061750Y0024154D03*
X0061750Y0014154D03*
X0051750Y0014154D03*
X0051750Y0024154D03*
D25*
X0098250Y0129154D03*
D26*
X0098250Y0139154D03*
X0098250Y0149154D03*
X0098250Y0159154D03*
D27*
X0069168Y0070012D02*
X0069864Y0069316D01*
X0069168Y0070012D02*
X0070976Y0071820D01*
X0071672Y0071124D01*
X0069864Y0069316D01*
X0069455Y0070299D02*
X0070847Y0070299D01*
X0070438Y0071282D02*
X0071514Y0071282D01*
X0070560Y0068620D02*
X0071256Y0067924D01*
X0070560Y0068620D02*
X0072368Y0070428D01*
X0073064Y0069732D01*
X0071256Y0067924D01*
X0070847Y0068907D02*
X0072239Y0068907D01*
X0071830Y0069890D02*
X0072906Y0069890D01*
X0071952Y0067228D02*
X0072648Y0066532D01*
X0071952Y0067228D02*
X0073760Y0069036D01*
X0074456Y0068340D01*
X0072648Y0066532D01*
X0072239Y0067515D02*
X0073631Y0067515D01*
X0073222Y0068498D02*
X0074298Y0068498D01*
X0073344Y0065836D02*
X0074040Y0065140D01*
X0073344Y0065836D02*
X0075152Y0067644D01*
X0075848Y0066948D01*
X0074040Y0065140D01*
X0073631Y0066123D02*
X0075023Y0066123D01*
X0074614Y0067106D02*
X0075690Y0067106D01*
X0074736Y0064444D02*
X0075432Y0063748D01*
X0074736Y0064444D02*
X0076544Y0066252D01*
X0077240Y0065556D01*
X0075432Y0063748D01*
X0075023Y0064731D02*
X0076415Y0064731D01*
X0076006Y0065714D02*
X0077082Y0065714D01*
X0076128Y0063053D02*
X0076824Y0062357D01*
X0076128Y0063053D02*
X0077936Y0064861D01*
X0078632Y0064165D01*
X0076824Y0062357D01*
X0076415Y0063340D02*
X0077807Y0063340D01*
X0077398Y0064323D02*
X0078474Y0064323D01*
X0077520Y0061661D02*
X0078216Y0060965D01*
X0077520Y0061661D02*
X0079328Y0063469D01*
X0080024Y0062773D01*
X0078216Y0060965D01*
X0077807Y0061948D02*
X0079199Y0061948D01*
X0078790Y0062931D02*
X0079866Y0062931D01*
X0078912Y0060269D02*
X0079608Y0059573D01*
X0078912Y0060269D02*
X0080720Y0062077D01*
X0081416Y0061381D01*
X0079608Y0059573D01*
X0079199Y0060556D02*
X0080591Y0060556D01*
X0080182Y0061539D02*
X0081258Y0061539D01*
X0078912Y0058040D02*
X0080720Y0056232D01*
X0078912Y0058040D02*
X0079608Y0058736D01*
X0081416Y0056928D01*
X0080720Y0056232D01*
X0081129Y0057215D02*
X0079737Y0057215D01*
X0080146Y0058198D02*
X0079070Y0058198D01*
X0077520Y0056648D02*
X0079328Y0054840D01*
X0077520Y0056648D02*
X0078216Y0057344D01*
X0080024Y0055536D01*
X0079328Y0054840D01*
X0079737Y0055823D02*
X0078345Y0055823D01*
X0078754Y0056806D02*
X0077678Y0056806D01*
X0076128Y0055256D02*
X0077936Y0053448D01*
X0076128Y0055256D02*
X0076824Y0055952D01*
X0078632Y0054144D01*
X0077936Y0053448D01*
X0078345Y0054431D02*
X0076953Y0054431D01*
X0077362Y0055414D02*
X0076286Y0055414D01*
X0074736Y0053864D02*
X0076544Y0052056D01*
X0074736Y0053864D02*
X0075432Y0054560D01*
X0077240Y0052752D01*
X0076544Y0052056D01*
X0076953Y0053039D02*
X0075561Y0053039D01*
X0075970Y0054022D02*
X0074894Y0054022D01*
X0073344Y0052472D02*
X0075152Y0050664D01*
X0073344Y0052472D02*
X0074040Y0053168D01*
X0075848Y0051360D01*
X0075152Y0050664D01*
X0075561Y0051647D02*
X0074169Y0051647D01*
X0074578Y0052630D02*
X0073502Y0052630D01*
X0071952Y0051080D02*
X0073760Y0049272D01*
X0071952Y0051080D02*
X0072648Y0051776D01*
X0074456Y0049968D01*
X0073760Y0049272D01*
X0074169Y0050255D02*
X0072777Y0050255D01*
X0073186Y0051238D02*
X0072110Y0051238D01*
X0070560Y0049688D02*
X0072368Y0047880D01*
X0070560Y0049688D02*
X0071256Y0050384D01*
X0073064Y0048576D01*
X0072368Y0047880D01*
X0072777Y0048863D02*
X0071385Y0048863D01*
X0071794Y0049846D02*
X0070718Y0049846D01*
X0069168Y0048296D02*
X0070976Y0046488D01*
X0069168Y0048296D02*
X0069864Y0048992D01*
X0071672Y0047184D01*
X0070976Y0046488D01*
X0071385Y0047471D02*
X0069993Y0047471D01*
X0070402Y0048454D02*
X0069326Y0048454D01*
X0066524Y0046488D02*
X0065828Y0047184D01*
X0067636Y0048992D01*
X0068332Y0048296D01*
X0066524Y0046488D01*
X0066115Y0047471D02*
X0067507Y0047471D01*
X0067098Y0048454D02*
X0068174Y0048454D01*
X0065132Y0047880D02*
X0064436Y0048576D01*
X0066244Y0050384D01*
X0066940Y0049688D01*
X0065132Y0047880D01*
X0064723Y0048863D02*
X0066115Y0048863D01*
X0065706Y0049846D02*
X0066782Y0049846D01*
X0063740Y0049272D02*
X0063044Y0049968D01*
X0064852Y0051776D01*
X0065548Y0051080D01*
X0063740Y0049272D01*
X0063331Y0050255D02*
X0064723Y0050255D01*
X0064314Y0051238D02*
X0065390Y0051238D01*
X0062348Y0050664D02*
X0061652Y0051360D01*
X0063460Y0053168D01*
X0064156Y0052472D01*
X0062348Y0050664D01*
X0061939Y0051647D02*
X0063331Y0051647D01*
X0062922Y0052630D02*
X0063998Y0052630D01*
X0060956Y0052056D02*
X0060260Y0052752D01*
X0062068Y0054560D01*
X0062764Y0053864D01*
X0060956Y0052056D01*
X0060547Y0053039D02*
X0061939Y0053039D01*
X0061530Y0054022D02*
X0062606Y0054022D01*
X0059564Y0053448D02*
X0058868Y0054144D01*
X0060676Y0055952D01*
X0061372Y0055256D01*
X0059564Y0053448D01*
X0059155Y0054431D02*
X0060547Y0054431D01*
X0060138Y0055414D02*
X0061214Y0055414D01*
X0058172Y0054840D02*
X0057476Y0055536D01*
X0059284Y0057344D01*
X0059980Y0056648D01*
X0058172Y0054840D01*
X0057763Y0055823D02*
X0059155Y0055823D01*
X0058746Y0056806D02*
X0059822Y0056806D01*
X0056780Y0056232D02*
X0056084Y0056928D01*
X0057892Y0058736D01*
X0058588Y0058040D01*
X0056780Y0056232D01*
X0056371Y0057215D02*
X0057763Y0057215D01*
X0057354Y0058198D02*
X0058430Y0058198D01*
X0057892Y0059573D02*
X0056084Y0061381D01*
X0056780Y0062077D01*
X0058588Y0060269D01*
X0057892Y0059573D01*
X0058301Y0060556D02*
X0056909Y0060556D01*
X0057318Y0061539D02*
X0056242Y0061539D01*
X0057476Y0062773D02*
X0059284Y0060965D01*
X0057476Y0062773D02*
X0058172Y0063469D01*
X0059980Y0061661D01*
X0059284Y0060965D01*
X0059693Y0061948D02*
X0058301Y0061948D01*
X0058710Y0062931D02*
X0057634Y0062931D01*
X0058868Y0064165D02*
X0060676Y0062357D01*
X0058868Y0064165D02*
X0059564Y0064861D01*
X0061372Y0063053D01*
X0060676Y0062357D01*
X0061085Y0063340D02*
X0059693Y0063340D01*
X0060102Y0064323D02*
X0059026Y0064323D01*
X0060260Y0065556D02*
X0062068Y0063748D01*
X0060260Y0065556D02*
X0060956Y0066252D01*
X0062764Y0064444D01*
X0062068Y0063748D01*
X0062477Y0064731D02*
X0061085Y0064731D01*
X0061494Y0065714D02*
X0060418Y0065714D01*
X0061652Y0066948D02*
X0063460Y0065140D01*
X0061652Y0066948D02*
X0062348Y0067644D01*
X0064156Y0065836D01*
X0063460Y0065140D01*
X0063869Y0066123D02*
X0062477Y0066123D01*
X0062886Y0067106D02*
X0061810Y0067106D01*
X0063044Y0068340D02*
X0064852Y0066532D01*
X0063044Y0068340D02*
X0063740Y0069036D01*
X0065548Y0067228D01*
X0064852Y0066532D01*
X0065261Y0067515D02*
X0063869Y0067515D01*
X0064278Y0068498D02*
X0063202Y0068498D01*
X0064436Y0069732D02*
X0066244Y0067924D01*
X0064436Y0069732D02*
X0065132Y0070428D01*
X0066940Y0068620D01*
X0066244Y0067924D01*
X0066653Y0068907D02*
X0065261Y0068907D01*
X0065670Y0069890D02*
X0064594Y0069890D01*
X0065828Y0071124D02*
X0067636Y0069316D01*
X0065828Y0071124D02*
X0066524Y0071820D01*
X0068332Y0070012D01*
X0067636Y0069316D01*
X0068045Y0070299D02*
X0066653Y0070299D01*
X0067062Y0071282D02*
X0065986Y0071282D01*
D28*
X0060482Y0059154D02*
X0068750Y0050886D01*
X0060482Y0059154D02*
X0068750Y0067422D01*
X0077018Y0059154D01*
X0068750Y0050886D01*
X0070048Y0052184D02*
X0067452Y0052184D01*
X0066154Y0053482D02*
X0071346Y0053482D01*
X0072644Y0054780D02*
X0064856Y0054780D01*
X0063558Y0056078D02*
X0073942Y0056078D01*
X0075240Y0057376D02*
X0062260Y0057376D01*
X0060962Y0058674D02*
X0076538Y0058674D01*
X0076200Y0059972D02*
X0061300Y0059972D01*
X0062598Y0061270D02*
X0074902Y0061270D01*
X0073604Y0062568D02*
X0063896Y0062568D01*
X0065194Y0063866D02*
X0072306Y0063866D01*
X0071008Y0065164D02*
X0066492Y0065164D01*
X0067790Y0066462D02*
X0069710Y0066462D01*
D29*
X0068750Y0059154D03*
X0083750Y0083154D03*
X0083750Y0090154D03*
X0056750Y0096154D03*
X0040250Y0109154D03*
X0040250Y0119154D03*
X0097250Y0039154D03*
X0097250Y0009154D03*
D30*
X0090750Y0013654D03*
X0097250Y0019154D03*
X0090750Y0026154D03*
X0097250Y0029154D03*
X0081250Y0040154D03*
X0077250Y0034154D03*
X0068750Y0035154D03*
X0068750Y0054154D03*
X0068750Y0064154D03*
X0068750Y0085154D03*
X0070750Y0100154D03*
X0070750Y0106154D03*
X0078750Y0104154D03*
X0078750Y0110154D03*
X0081750Y0118154D03*
X0081750Y0129154D03*
X0081750Y0135154D03*
X0081750Y0141154D03*
X0085750Y0151154D03*
X0069250Y0157154D03*
X0068250Y0151154D03*
X0068750Y0141154D03*
X0068750Y0135154D03*
X0068750Y0129154D03*
X0055750Y0131154D03*
X0055750Y0125154D03*
X0055750Y0113154D03*
X0049750Y0113154D03*
X0051250Y0096154D03*
X0045750Y0096154D03*
X0040250Y0089154D03*
X0040250Y0079154D03*
X0040250Y0069154D03*
X0046750Y0059154D03*
X0040250Y0054154D03*
X0050750Y0042154D03*
X0040250Y0029154D03*
X0045750Y0019154D03*
X0040750Y0014154D03*
X0038750Y0009154D03*
X0090750Y0075154D03*
X0091750Y0085154D03*
X0097250Y0089154D03*
X0092750Y0103154D03*
X0097250Y0109154D03*
X0055750Y0137154D03*
X0038750Y0138154D03*
X0038750Y0144154D03*
X0038750Y0150154D03*
M02*
