G75*
%MOIN*%
%OFA0B0*%
%FSLAX25Y25*%
%IPPOS*%
%LPD*%
%AMOC8*
5,1,8,0,0,1.08239X$1,22.5*
%
%ADD10C,0.00300*%
%ADD11C,0.00200*%
%ADD12C,0.00500*%
%ADD13C,0.01200*%
%ADD14C,0.00600*%
%ADD15C,0.01100*%
%ADD16C,0.00000*%
%ADD17C,0.00001*%
D10*
X0047474Y0049101D02*
X0048843Y0050469D01*
X0048843Y0051837D01*
X0047474Y0051837D01*
X0046106Y0050469D01*
X0045391Y0051184D02*
X0045391Y0053921D01*
X0045733Y0054263D01*
X0046417Y0054263D01*
X0047101Y0053579D01*
X0047101Y0052894D01*
X0047132Y0051495D02*
X0048501Y0050127D01*
X0045391Y0051184D02*
X0044023Y0052552D01*
X0053905Y0046725D02*
X0055840Y0044790D01*
X0055356Y0044306D01*
X0054389Y0044306D01*
X0053905Y0044790D01*
X0053905Y0046725D01*
X0054389Y0047208D01*
X0055356Y0047208D01*
X0055840Y0046725D01*
X0055840Y0044790D01*
X0056851Y0044790D02*
X0057335Y0044306D01*
X0058303Y0044306D01*
X0058786Y0044790D01*
X0058786Y0045757D02*
X0057819Y0046241D01*
X0057335Y0046241D01*
X0056851Y0045757D01*
X0056851Y0044790D01*
X0058786Y0045757D02*
X0058786Y0047208D01*
X0056851Y0047208D01*
X0059798Y0046725D02*
X0061733Y0044790D01*
X0061249Y0044306D01*
X0060282Y0044306D01*
X0059798Y0044790D01*
X0059798Y0046725D01*
X0060282Y0047208D01*
X0061249Y0047208D01*
X0061733Y0046725D01*
X0061733Y0044790D01*
X0062744Y0044790D02*
X0062744Y0045273D01*
X0063228Y0045757D01*
X0064679Y0045757D01*
X0064679Y0044790D01*
X0064196Y0044306D01*
X0063228Y0044306D01*
X0062744Y0044790D01*
X0063712Y0046725D02*
X0064679Y0045757D01*
X0063712Y0046725D02*
X0062744Y0047208D01*
X0065691Y0047208D02*
X0065691Y0044790D01*
X0066175Y0044306D01*
X0067142Y0044306D01*
X0067626Y0044790D01*
X0067626Y0047208D01*
X0068637Y0046725D02*
X0068637Y0045757D01*
X0069121Y0045273D01*
X0070572Y0045273D01*
X0070572Y0044306D02*
X0070572Y0047208D01*
X0069121Y0047208D01*
X0068637Y0046725D01*
X0071584Y0047208D02*
X0071584Y0044306D01*
X0073519Y0044306D02*
X0073519Y0047208D01*
X0072551Y0046241D01*
X0071584Y0047208D01*
X0072120Y0052430D02*
X0071636Y0052913D01*
X0071636Y0053881D01*
X0072120Y0054365D01*
X0072604Y0054365D01*
X0073571Y0053881D01*
X0073571Y0055332D01*
X0071636Y0055332D01*
X0069151Y0055332D02*
X0069151Y0053881D01*
X0068184Y0054365D01*
X0067700Y0054365D01*
X0067216Y0053881D01*
X0067216Y0052913D01*
X0067700Y0052430D01*
X0068668Y0052430D01*
X0069151Y0052913D01*
X0070141Y0052913D02*
X0070141Y0052430D01*
X0070625Y0052430D01*
X0070625Y0052913D01*
X0070141Y0052913D01*
X0072120Y0052430D02*
X0073087Y0052430D01*
X0073571Y0052913D01*
X0074583Y0053881D02*
X0076518Y0053881D01*
X0077529Y0053881D02*
X0077529Y0052913D01*
X0078013Y0052430D01*
X0078980Y0052430D01*
X0079464Y0052913D01*
X0079464Y0053881D02*
X0078497Y0054365D01*
X0078013Y0054365D01*
X0077529Y0053881D01*
X0077529Y0055332D02*
X0079464Y0055332D01*
X0079464Y0053881D01*
X0081849Y0052430D02*
X0082817Y0052430D01*
X0082333Y0052430D02*
X0082333Y0054365D01*
X0082817Y0054365D01*
X0082333Y0055332D02*
X0082333Y0055816D01*
X0082817Y0057230D02*
X0081366Y0057230D01*
X0080882Y0057713D01*
X0080882Y0058681D01*
X0081366Y0059165D01*
X0082817Y0059165D01*
X0082817Y0060132D02*
X0082817Y0057230D01*
X0083828Y0058197D02*
X0083828Y0060132D01*
X0083828Y0058197D02*
X0084796Y0057230D01*
X0085763Y0058197D01*
X0085763Y0060132D01*
X0084796Y0062030D02*
X0083828Y0062997D01*
X0083828Y0064932D01*
X0082817Y0063481D02*
X0082817Y0062513D01*
X0082333Y0062030D01*
X0080882Y0062030D01*
X0079464Y0062513D02*
X0078980Y0062030D01*
X0078013Y0062030D01*
X0077529Y0062513D01*
X0077529Y0062997D01*
X0078013Y0063481D01*
X0078497Y0063481D01*
X0078013Y0063481D02*
X0077529Y0063965D01*
X0077529Y0064448D01*
X0078013Y0064932D01*
X0078980Y0064932D01*
X0079464Y0064448D01*
X0080882Y0063965D02*
X0082333Y0063965D01*
X0082817Y0063481D01*
X0084796Y0062030D02*
X0085763Y0062997D01*
X0085763Y0064932D01*
X0088487Y0064193D02*
X0089454Y0063225D01*
X0091389Y0063225D01*
X0091389Y0065160D02*
X0089454Y0065160D01*
X0088487Y0064193D01*
X0088971Y0066172D02*
X0088487Y0066656D01*
X0088487Y0068107D01*
X0090422Y0068107D02*
X0090422Y0066656D01*
X0089938Y0066172D01*
X0088971Y0066172D01*
X0087606Y0070223D02*
X0085671Y0070223D01*
X0086638Y0071674D02*
X0087606Y0071674D01*
X0087606Y0070223D02*
X0087606Y0073126D01*
X0085671Y0073126D01*
X0084659Y0073126D02*
X0082724Y0073126D01*
X0083692Y0073126D02*
X0083692Y0070223D01*
X0081713Y0070223D02*
X0079778Y0070223D01*
X0078766Y0070223D02*
X0078766Y0073126D01*
X0077799Y0072158D01*
X0076831Y0073126D01*
X0076831Y0070223D01*
X0075820Y0070707D02*
X0075820Y0073126D01*
X0075820Y0075023D02*
X0075820Y0077926D01*
X0073885Y0075023D01*
X0073885Y0077926D01*
X0072873Y0077442D02*
X0072873Y0075507D01*
X0072390Y0075023D01*
X0071422Y0075023D01*
X0070938Y0075507D01*
X0070938Y0077442D01*
X0071422Y0077926D01*
X0072390Y0077926D01*
X0072873Y0077442D01*
X0073885Y0079823D02*
X0075820Y0079823D01*
X0075820Y0082726D01*
X0073885Y0082726D01*
X0074852Y0081274D02*
X0075820Y0081274D01*
X0076831Y0081274D02*
X0077315Y0080791D01*
X0078766Y0080791D01*
X0077799Y0080791D02*
X0076831Y0079823D01*
X0076831Y0081274D02*
X0076831Y0082242D01*
X0077315Y0082726D01*
X0078766Y0082726D01*
X0078766Y0079823D01*
X0079778Y0080307D02*
X0079778Y0082726D01*
X0081713Y0082726D02*
X0081713Y0080307D01*
X0081229Y0079823D01*
X0080262Y0079823D01*
X0079778Y0080307D01*
X0080262Y0077926D02*
X0079778Y0077442D01*
X0080262Y0077926D02*
X0081229Y0077926D01*
X0081713Y0077442D01*
X0081713Y0075507D01*
X0081229Y0075023D01*
X0080262Y0075023D01*
X0079778Y0075507D01*
X0078766Y0075023D02*
X0078766Y0077926D01*
X0078766Y0076474D02*
X0076831Y0076474D01*
X0076831Y0075023D02*
X0076831Y0077926D01*
X0073885Y0073126D02*
X0073885Y0070707D01*
X0074369Y0070223D01*
X0075336Y0070223D01*
X0075820Y0070707D01*
X0072873Y0070707D02*
X0072390Y0070707D01*
X0072390Y0070223D01*
X0072873Y0070223D01*
X0072873Y0070707D01*
X0071400Y0070707D02*
X0071400Y0072642D01*
X0070916Y0073126D01*
X0069949Y0073126D01*
X0069465Y0072642D01*
X0068454Y0072642D02*
X0068454Y0070707D01*
X0067970Y0070223D01*
X0067002Y0070223D01*
X0066519Y0070707D01*
X0066519Y0072642D01*
X0067002Y0073126D01*
X0067970Y0073126D01*
X0068454Y0072642D01*
X0069465Y0070707D02*
X0069949Y0070223D01*
X0070916Y0070223D01*
X0071400Y0070707D01*
X0069927Y0075023D02*
X0067992Y0075023D01*
X0066980Y0075507D02*
X0066980Y0077442D01*
X0066497Y0077926D01*
X0065529Y0077926D01*
X0065045Y0077442D01*
X0065045Y0075507D01*
X0065529Y0075023D01*
X0066497Y0075023D01*
X0066980Y0075507D01*
X0065507Y0073126D02*
X0064540Y0072158D01*
X0063572Y0073126D01*
X0063572Y0070223D01*
X0065507Y0070223D02*
X0065507Y0073126D01*
X0063550Y0075023D02*
X0064034Y0075507D01*
X0064034Y0077442D01*
X0063550Y0077926D01*
X0062583Y0077926D01*
X0062099Y0077442D01*
X0062099Y0076474D02*
X0063066Y0076474D01*
X0062099Y0076474D02*
X0062099Y0075507D01*
X0062583Y0075023D01*
X0063550Y0075023D01*
X0061087Y0075023D02*
X0060120Y0075023D01*
X0060604Y0075023D02*
X0060604Y0077926D01*
X0061087Y0077926D02*
X0060120Y0077926D01*
X0059123Y0077926D02*
X0059123Y0075023D01*
X0057188Y0075023D01*
X0056176Y0075507D02*
X0055693Y0075023D01*
X0054725Y0075023D01*
X0054241Y0075507D01*
X0054241Y0075991D01*
X0054725Y0076474D01*
X0055693Y0076474D01*
X0056176Y0076958D01*
X0056176Y0077442D01*
X0055693Y0077926D01*
X0054725Y0077926D01*
X0054241Y0077442D01*
X0057188Y0077926D02*
X0059123Y0077926D01*
X0059123Y0076474D02*
X0058155Y0076474D01*
X0058163Y0073126D02*
X0059130Y0073126D01*
X0059614Y0072642D01*
X0058163Y0073126D02*
X0057679Y0072642D01*
X0057679Y0072158D01*
X0059614Y0070223D01*
X0057679Y0070223D01*
X0056667Y0070707D02*
X0054732Y0072642D01*
X0054732Y0070707D01*
X0055216Y0070223D01*
X0056184Y0070223D01*
X0056667Y0070707D01*
X0056667Y0072642D01*
X0056184Y0073126D01*
X0055216Y0073126D01*
X0054732Y0072642D01*
X0053721Y0072158D02*
X0052753Y0073126D01*
X0052753Y0070223D01*
X0051786Y0070223D02*
X0053721Y0070223D01*
X0050774Y0070707D02*
X0050291Y0070223D01*
X0049323Y0070223D01*
X0048839Y0070707D01*
X0048839Y0071674D01*
X0049323Y0072158D01*
X0049807Y0072158D01*
X0050774Y0071674D01*
X0050774Y0073126D01*
X0048839Y0073126D01*
X0059152Y0079823D02*
X0059152Y0082726D01*
X0059152Y0084623D02*
X0059152Y0087526D01*
X0058141Y0087042D02*
X0058141Y0085107D01*
X0057657Y0084623D01*
X0056689Y0084623D01*
X0056206Y0085107D01*
X0056206Y0087042D01*
X0056689Y0087526D01*
X0057657Y0087526D01*
X0058141Y0087042D01*
X0059022Y0089453D02*
X0059022Y0089937D01*
X0057087Y0091872D01*
X0057087Y0092356D01*
X0057087Y0089453D02*
X0059022Y0089453D01*
X0061087Y0087526D02*
X0059152Y0084623D01*
X0061087Y0084623D02*
X0061087Y0087526D01*
X0065045Y0087042D02*
X0065529Y0087526D01*
X0066497Y0087526D01*
X0066980Y0087042D01*
X0066980Y0085107D01*
X0066497Y0084623D01*
X0065529Y0084623D01*
X0065045Y0085107D01*
X0065045Y0087042D01*
X0067992Y0087042D02*
X0068476Y0087526D01*
X0069927Y0087526D01*
X0069927Y0084623D01*
X0068476Y0084623D01*
X0067992Y0085107D01*
X0067992Y0087042D01*
X0069022Y0089453D02*
X0068054Y0089937D01*
X0067087Y0090904D01*
X0068538Y0090904D01*
X0069022Y0091388D01*
X0069022Y0091872D01*
X0068538Y0092356D01*
X0067571Y0092356D01*
X0067087Y0091872D01*
X0067087Y0090904D01*
X0070938Y0086558D02*
X0070938Y0084623D01*
X0070938Y0086074D02*
X0072873Y0086074D01*
X0072873Y0086558D02*
X0071906Y0087526D01*
X0070938Y0086558D01*
X0072873Y0086558D02*
X0072873Y0084623D01*
X0073885Y0085107D02*
X0074369Y0084623D01*
X0075336Y0084623D01*
X0075820Y0085107D01*
X0075820Y0087042D01*
X0075336Y0087526D01*
X0074369Y0087526D01*
X0073885Y0087042D01*
X0076831Y0087042D02*
X0077315Y0087526D01*
X0078283Y0087526D01*
X0078766Y0087042D01*
X0078766Y0085107D01*
X0078283Y0084623D01*
X0077315Y0084623D01*
X0076831Y0085107D01*
X0079778Y0085107D02*
X0079778Y0087042D01*
X0080262Y0087526D01*
X0081229Y0087526D01*
X0081713Y0087042D01*
X0081713Y0085107D01*
X0081229Y0084623D01*
X0080262Y0084623D01*
X0079778Y0085107D01*
X0082724Y0085591D02*
X0082724Y0087526D01*
X0082724Y0085591D02*
X0083692Y0084623D01*
X0084659Y0085591D01*
X0084659Y0087526D01*
X0085671Y0086558D02*
X0085671Y0084623D01*
X0085671Y0086074D02*
X0087606Y0086074D01*
X0087606Y0086558D02*
X0086638Y0087526D01*
X0085671Y0086558D01*
X0087606Y0086558D02*
X0087606Y0084623D01*
X0087122Y0082726D02*
X0087606Y0082242D01*
X0087606Y0081758D01*
X0087122Y0081274D01*
X0086155Y0081274D01*
X0085671Y0080791D01*
X0085671Y0080307D01*
X0086155Y0079823D01*
X0087122Y0079823D01*
X0087606Y0080307D01*
X0087606Y0077926D02*
X0085671Y0077926D01*
X0086638Y0077926D02*
X0086638Y0075023D01*
X0084659Y0075023D02*
X0082724Y0075023D01*
X0083692Y0076474D02*
X0084659Y0076474D01*
X0084659Y0075023D02*
X0084659Y0077926D01*
X0082724Y0077926D01*
X0082724Y0079823D02*
X0082724Y0082726D01*
X0082724Y0081274D02*
X0084659Y0081274D01*
X0085671Y0082242D02*
X0086155Y0082726D01*
X0087122Y0082726D01*
X0084659Y0082726D02*
X0084659Y0079823D01*
X0081713Y0073126D02*
X0081713Y0070223D01*
X0081713Y0071674D02*
X0080745Y0071674D01*
X0079778Y0073126D02*
X0081713Y0073126D01*
X0074561Y0064932D02*
X0073593Y0064932D01*
X0073109Y0064448D01*
X0073109Y0063965D01*
X0073593Y0063481D01*
X0073109Y0062997D01*
X0073109Y0062513D01*
X0073593Y0062030D01*
X0074561Y0062030D01*
X0075044Y0062513D01*
X0076034Y0062513D02*
X0076034Y0062030D01*
X0076518Y0062030D01*
X0076518Y0062513D01*
X0076034Y0062513D01*
X0075044Y0064448D02*
X0074561Y0064932D01*
X0074077Y0063481D02*
X0073593Y0063481D01*
X0072098Y0062997D02*
X0071130Y0062030D01*
X0070163Y0062997D01*
X0070163Y0064932D01*
X0072098Y0064932D02*
X0072098Y0062997D01*
X0073109Y0060132D02*
X0074077Y0059648D01*
X0075044Y0058681D01*
X0073593Y0058681D01*
X0073109Y0058197D01*
X0073109Y0057713D01*
X0073593Y0057230D01*
X0074561Y0057230D01*
X0075044Y0057713D01*
X0075044Y0058681D01*
X0076034Y0057713D02*
X0076034Y0057230D01*
X0076518Y0057230D01*
X0076518Y0057713D01*
X0076034Y0057713D01*
X0077529Y0057713D02*
X0078013Y0057230D01*
X0078980Y0057230D01*
X0079464Y0057713D01*
X0078497Y0058681D02*
X0078013Y0058681D01*
X0077529Y0058197D01*
X0077529Y0057713D01*
X0078013Y0058681D02*
X0077529Y0059165D01*
X0077529Y0059648D01*
X0078013Y0060132D01*
X0078980Y0060132D01*
X0079464Y0059648D01*
X0083828Y0055332D02*
X0083828Y0053397D01*
X0084796Y0052430D01*
X0085763Y0053397D01*
X0085763Y0055332D01*
X0088487Y0055160D02*
X0089454Y0054193D01*
X0089454Y0054677D02*
X0089454Y0053225D01*
X0088487Y0053225D02*
X0091389Y0053225D01*
X0091389Y0054677D01*
X0090906Y0055160D01*
X0089938Y0055160D01*
X0089454Y0054677D01*
X0088487Y0056172D02*
X0091389Y0058107D01*
X0091389Y0056172D02*
X0088487Y0058107D01*
X0088487Y0048107D02*
X0091389Y0046172D01*
X0091389Y0045160D02*
X0091389Y0043225D01*
X0091389Y0044193D02*
X0088487Y0044193D01*
X0088487Y0046172D02*
X0091389Y0048107D01*
X0091389Y0038107D02*
X0091389Y0036172D01*
X0091389Y0037139D02*
X0088487Y0037139D01*
X0088971Y0035160D02*
X0090906Y0035160D01*
X0091389Y0034677D01*
X0091389Y0033225D01*
X0088487Y0033225D01*
X0088487Y0034677D01*
X0088971Y0035160D01*
X0088487Y0028107D02*
X0088487Y0026656D01*
X0088971Y0026172D01*
X0089938Y0026172D01*
X0090422Y0026656D01*
X0090422Y0028107D01*
X0089454Y0025160D02*
X0091389Y0025160D01*
X0089454Y0025160D02*
X0088487Y0024193D01*
X0089454Y0023225D01*
X0091389Y0023225D01*
X0069151Y0055332D02*
X0067216Y0055332D01*
X0066205Y0055332D02*
X0066205Y0053397D01*
X0065237Y0052430D01*
X0064270Y0053397D01*
X0064270Y0055332D01*
X0064732Y0057230D02*
X0062797Y0059165D01*
X0062797Y0059648D01*
X0063280Y0060132D01*
X0064248Y0060132D01*
X0064732Y0059648D01*
X0065721Y0057713D02*
X0065721Y0057230D01*
X0066205Y0057230D01*
X0066205Y0057713D01*
X0065721Y0057713D01*
X0064732Y0057230D02*
X0062797Y0057230D01*
X0061785Y0058197D02*
X0060818Y0057230D01*
X0059850Y0058197D01*
X0059850Y0060132D01*
X0061785Y0060132D02*
X0061785Y0058197D01*
X0067216Y0058681D02*
X0069151Y0058681D01*
X0067700Y0060132D01*
X0067700Y0057230D01*
X0070163Y0058681D02*
X0072098Y0058681D01*
X0069927Y0075023D02*
X0069927Y0077926D01*
X0069443Y0079823D02*
X0068476Y0079823D01*
X0067992Y0080307D01*
X0067992Y0082242D01*
X0068476Y0082726D01*
X0069443Y0082726D01*
X0069927Y0082242D01*
X0069927Y0080307D01*
X0069443Y0079823D01*
X0066980Y0079823D02*
X0066980Y0082726D01*
X0065529Y0082726D01*
X0065045Y0082242D01*
X0065045Y0081274D01*
X0065529Y0080791D01*
X0066980Y0080791D01*
X0064034Y0081274D02*
X0063066Y0081274D01*
X0062099Y0079823D02*
X0064034Y0079823D01*
X0064034Y0082726D01*
X0062099Y0082726D01*
X0061087Y0082726D02*
X0059152Y0079823D01*
X0061087Y0079823D02*
X0061087Y0082726D01*
X0055194Y0084623D02*
X0055194Y0087526D01*
X0053743Y0087526D01*
X0053259Y0087042D01*
X0053259Y0086074D01*
X0053743Y0085591D01*
X0055194Y0085591D01*
X0054227Y0085591D02*
X0053259Y0084623D01*
X0052248Y0084623D02*
X0052248Y0086558D01*
X0051280Y0087526D01*
X0050313Y0086558D01*
X0050313Y0084623D01*
X0050313Y0086074D02*
X0052248Y0086074D01*
X0048538Y0089453D02*
X0049022Y0089937D01*
X0049022Y0090421D01*
X0048538Y0090904D01*
X0047571Y0090904D01*
X0047087Y0090421D01*
X0047087Y0089937D01*
X0047571Y0089453D01*
X0048538Y0089453D01*
X0048538Y0090904D02*
X0049022Y0091388D01*
X0049022Y0091872D01*
X0048538Y0092356D01*
X0047571Y0092356D01*
X0047087Y0091872D01*
X0047087Y0091388D01*
X0047571Y0090904D01*
X0045871Y0087526D02*
X0046355Y0087042D01*
X0045871Y0087526D02*
X0044903Y0087526D01*
X0044420Y0087042D01*
X0044420Y0086558D01*
X0046355Y0084623D01*
X0044420Y0084623D01*
X0032787Y0085421D02*
X0032787Y0082519D01*
X0030852Y0082519D02*
X0030852Y0085421D01*
X0031820Y0084453D01*
X0032787Y0085421D01*
X0029840Y0085421D02*
X0028873Y0085421D01*
X0029357Y0085421D02*
X0029357Y0082519D01*
X0029840Y0082519D02*
X0028873Y0082519D01*
X0027906Y0075421D02*
X0029840Y0073486D01*
X0029357Y0073970D02*
X0027906Y0072519D01*
X0029840Y0072519D02*
X0029840Y0075421D01*
X0030852Y0074937D02*
X0031336Y0075421D01*
X0032303Y0075421D01*
X0032787Y0074937D01*
X0032787Y0073002D01*
X0032303Y0072519D01*
X0031336Y0072519D01*
X0030852Y0073002D01*
X0030852Y0065421D02*
X0030852Y0062519D01*
X0029840Y0063002D02*
X0029357Y0062519D01*
X0028389Y0062519D01*
X0027906Y0063002D01*
X0027906Y0064937D01*
X0028389Y0065421D01*
X0029357Y0065421D01*
X0029840Y0064937D01*
X0029840Y0063002D01*
X0031820Y0064453D02*
X0030852Y0065421D01*
X0031820Y0064453D02*
X0032787Y0065421D01*
X0032787Y0062519D01*
X0032787Y0055421D02*
X0031336Y0055421D01*
X0030852Y0054937D01*
X0030852Y0053970D01*
X0031336Y0053486D01*
X0032787Y0053486D01*
X0031820Y0053486D02*
X0030852Y0052519D01*
X0029840Y0053002D02*
X0029357Y0052519D01*
X0028389Y0052519D01*
X0027906Y0053002D01*
X0027906Y0053486D01*
X0028389Y0053970D01*
X0029357Y0053970D01*
X0029840Y0054453D01*
X0029840Y0054937D01*
X0029357Y0055421D01*
X0028389Y0055421D01*
X0027906Y0054937D01*
X0032787Y0055421D02*
X0032787Y0052519D01*
X0077087Y0089453D02*
X0077087Y0090904D01*
X0078054Y0090421D01*
X0078538Y0090421D01*
X0079022Y0090904D01*
X0079022Y0091872D01*
X0078538Y0092356D01*
X0077571Y0092356D01*
X0077087Y0091872D01*
X0077087Y0089453D02*
X0079022Y0089453D01*
X0089454Y0119682D02*
X0088487Y0120650D01*
X0089454Y0121617D01*
X0091389Y0121617D01*
X0089938Y0122629D02*
X0088971Y0122629D01*
X0088487Y0123112D01*
X0088487Y0124564D01*
X0090422Y0124564D02*
X0090422Y0123112D01*
X0089938Y0122629D01*
X0089454Y0119682D02*
X0091389Y0119682D01*
X0091389Y0129682D02*
X0091389Y0131133D01*
X0090906Y0131617D01*
X0088971Y0131617D01*
X0088487Y0131133D01*
X0088487Y0129682D01*
X0091389Y0129682D01*
X0091389Y0132629D02*
X0091389Y0134564D01*
X0091389Y0133596D02*
X0088487Y0133596D01*
X0091389Y0139682D02*
X0091389Y0141617D01*
X0091389Y0140650D02*
X0088487Y0140650D01*
X0088487Y0142629D02*
X0091389Y0144564D01*
X0091389Y0142629D02*
X0088487Y0144564D01*
X0088487Y0149682D02*
X0091389Y0149682D01*
X0091389Y0151133D01*
X0090906Y0151617D01*
X0089938Y0151617D01*
X0089454Y0151133D01*
X0089454Y0149682D01*
X0089454Y0150650D02*
X0088487Y0151617D01*
X0088487Y0152629D02*
X0091389Y0154564D01*
X0091389Y0152629D02*
X0088487Y0154564D01*
X0085763Y0154654D02*
X0085763Y0156589D01*
X0083828Y0156589D02*
X0083828Y0154654D01*
X0084796Y0153686D01*
X0085763Y0154654D01*
X0085763Y0151789D02*
X0085763Y0149854D01*
X0084796Y0148886D01*
X0083828Y0149854D01*
X0083828Y0151789D01*
X0082817Y0150821D02*
X0082333Y0150821D01*
X0082333Y0148886D01*
X0082817Y0148886D02*
X0081849Y0148886D01*
X0079464Y0149370D02*
X0078980Y0148886D01*
X0078013Y0148886D01*
X0077529Y0149370D01*
X0077529Y0150337D01*
X0078013Y0150821D01*
X0078497Y0150821D01*
X0079464Y0150337D01*
X0079464Y0151789D01*
X0077529Y0151789D01*
X0076518Y0150337D02*
X0074583Y0150337D01*
X0073571Y0150337D02*
X0072604Y0150821D01*
X0072120Y0150821D01*
X0071636Y0150337D01*
X0071636Y0149370D01*
X0072120Y0148886D01*
X0073087Y0148886D01*
X0073571Y0149370D01*
X0073571Y0150337D02*
X0073571Y0151789D01*
X0071636Y0151789D01*
X0069151Y0151789D02*
X0069151Y0150337D01*
X0068184Y0150821D01*
X0067700Y0150821D01*
X0067216Y0150337D01*
X0067216Y0149370D01*
X0067700Y0148886D01*
X0068668Y0148886D01*
X0069151Y0149370D01*
X0070141Y0149370D02*
X0070141Y0148886D01*
X0070625Y0148886D01*
X0070625Y0149370D01*
X0070141Y0149370D01*
X0069151Y0151789D02*
X0067216Y0151789D01*
X0066205Y0151789D02*
X0066205Y0149854D01*
X0065237Y0148886D01*
X0064270Y0149854D01*
X0064270Y0151789D01*
X0064732Y0153686D02*
X0062797Y0155621D01*
X0062797Y0156105D01*
X0063280Y0156589D01*
X0064248Y0156589D01*
X0064732Y0156105D01*
X0065721Y0154170D02*
X0065721Y0153686D01*
X0066205Y0153686D01*
X0066205Y0154170D01*
X0065721Y0154170D01*
X0064732Y0153686D02*
X0062797Y0153686D01*
X0061785Y0154654D02*
X0060818Y0153686D01*
X0059850Y0154654D01*
X0059850Y0156589D01*
X0061785Y0156589D02*
X0061785Y0154654D01*
X0067216Y0155137D02*
X0069151Y0155137D01*
X0067700Y0156589D01*
X0067700Y0153686D01*
X0070163Y0155137D02*
X0072098Y0155137D01*
X0073109Y0154654D02*
X0073593Y0155137D01*
X0075044Y0155137D01*
X0075044Y0154170D01*
X0074561Y0153686D01*
X0073593Y0153686D01*
X0073109Y0154170D01*
X0073109Y0154654D01*
X0074077Y0156105D02*
X0075044Y0155137D01*
X0074077Y0156105D02*
X0073109Y0156589D01*
X0073593Y0158486D02*
X0074561Y0158486D01*
X0075044Y0158970D01*
X0076034Y0158970D02*
X0076034Y0158486D01*
X0076518Y0158486D01*
X0076518Y0158970D01*
X0076034Y0158970D01*
X0077529Y0158970D02*
X0078013Y0158486D01*
X0078980Y0158486D01*
X0079464Y0158970D01*
X0078497Y0159937D02*
X0078013Y0159937D01*
X0077529Y0159454D01*
X0077529Y0158970D01*
X0078013Y0159937D02*
X0077529Y0160421D01*
X0077529Y0160905D01*
X0078013Y0161389D01*
X0078980Y0161389D01*
X0079464Y0160905D01*
X0080882Y0160421D02*
X0082333Y0160421D01*
X0082817Y0159937D01*
X0082817Y0158970D01*
X0082333Y0158486D01*
X0080882Y0158486D01*
X0078980Y0156589D02*
X0078013Y0156589D01*
X0077529Y0156105D01*
X0077529Y0155621D01*
X0078013Y0155137D01*
X0077529Y0154654D01*
X0077529Y0154170D01*
X0078013Y0153686D01*
X0078980Y0153686D01*
X0079464Y0154170D01*
X0078497Y0155137D02*
X0078013Y0155137D01*
X0079464Y0156105D02*
X0078980Y0156589D01*
X0080882Y0155137D02*
X0081366Y0155621D01*
X0082817Y0155621D01*
X0082817Y0156589D02*
X0082817Y0153686D01*
X0081366Y0153686D01*
X0080882Y0154170D01*
X0080882Y0155137D01*
X0082333Y0152272D02*
X0082333Y0151789D01*
X0076518Y0153686D02*
X0076034Y0153686D01*
X0076034Y0154170D01*
X0076518Y0154170D01*
X0076518Y0153686D01*
X0073593Y0158486D02*
X0073109Y0158970D01*
X0073109Y0159454D01*
X0073593Y0159937D01*
X0074077Y0159937D01*
X0073593Y0159937D02*
X0073109Y0160421D01*
X0073109Y0160905D01*
X0073593Y0161389D01*
X0074561Y0161389D01*
X0075044Y0160905D01*
X0072098Y0161389D02*
X0072098Y0159454D01*
X0071130Y0158486D01*
X0070163Y0159454D01*
X0070163Y0161389D01*
X0069949Y0166680D02*
X0069465Y0167164D01*
X0069949Y0166680D02*
X0070916Y0166680D01*
X0071400Y0167164D01*
X0071400Y0169099D01*
X0070916Y0169582D01*
X0069949Y0169582D01*
X0069465Y0169099D01*
X0068454Y0169099D02*
X0068454Y0167164D01*
X0067970Y0166680D01*
X0067002Y0166680D01*
X0066519Y0167164D01*
X0066519Y0169099D01*
X0067002Y0169582D01*
X0067970Y0169582D01*
X0068454Y0169099D01*
X0067992Y0171480D02*
X0069927Y0171480D01*
X0069927Y0174382D01*
X0070938Y0173899D02*
X0071422Y0174382D01*
X0072390Y0174382D01*
X0072873Y0173899D01*
X0072873Y0171964D01*
X0072390Y0171480D01*
X0071422Y0171480D01*
X0070938Y0171964D01*
X0070938Y0173899D01*
X0069443Y0176280D02*
X0068476Y0176280D01*
X0067992Y0176764D01*
X0067992Y0178699D01*
X0068476Y0179182D01*
X0069443Y0179182D01*
X0069927Y0178699D01*
X0069927Y0176764D01*
X0069443Y0176280D01*
X0066980Y0176280D02*
X0066980Y0179182D01*
X0065529Y0179182D01*
X0065045Y0178699D01*
X0065045Y0177731D01*
X0065529Y0177247D01*
X0066980Y0177247D01*
X0066497Y0174382D02*
X0066980Y0173899D01*
X0066980Y0171964D01*
X0066497Y0171480D01*
X0065529Y0171480D01*
X0065045Y0171964D01*
X0065045Y0173899D01*
X0065529Y0174382D01*
X0066497Y0174382D01*
X0064034Y0173899D02*
X0064034Y0171964D01*
X0063550Y0171480D01*
X0062583Y0171480D01*
X0062099Y0171964D01*
X0062099Y0172931D01*
X0063066Y0172931D01*
X0062099Y0173899D02*
X0062583Y0174382D01*
X0063550Y0174382D01*
X0064034Y0173899D01*
X0064034Y0176280D02*
X0062099Y0176280D01*
X0061087Y0176280D02*
X0061087Y0179182D01*
X0059152Y0176280D01*
X0059152Y0179182D01*
X0059152Y0181080D02*
X0059152Y0183982D01*
X0058141Y0183499D02*
X0057657Y0183982D01*
X0056689Y0183982D01*
X0056206Y0183499D01*
X0056206Y0181564D01*
X0056689Y0181080D01*
X0057657Y0181080D01*
X0058141Y0181564D01*
X0058141Y0183499D01*
X0059022Y0185910D02*
X0059022Y0186393D01*
X0057087Y0188328D01*
X0057087Y0188812D01*
X0057087Y0185910D02*
X0059022Y0185910D01*
X0061087Y0183982D02*
X0059152Y0181080D01*
X0061087Y0181080D02*
X0061087Y0183982D01*
X0065045Y0183499D02*
X0065529Y0183982D01*
X0066497Y0183982D01*
X0066980Y0183499D01*
X0066980Y0181564D01*
X0066497Y0181080D01*
X0065529Y0181080D01*
X0065045Y0181564D01*
X0065045Y0183499D01*
X0067992Y0183499D02*
X0068476Y0183982D01*
X0069927Y0183982D01*
X0069927Y0181080D01*
X0068476Y0181080D01*
X0067992Y0181564D01*
X0067992Y0183499D01*
X0069022Y0185910D02*
X0068054Y0186393D01*
X0067087Y0187361D01*
X0068538Y0187361D01*
X0069022Y0187845D01*
X0069022Y0188328D01*
X0068538Y0188812D01*
X0067571Y0188812D01*
X0067087Y0188328D01*
X0067087Y0187361D01*
X0070938Y0183015D02*
X0070938Y0181080D01*
X0070938Y0182531D02*
X0072873Y0182531D01*
X0072873Y0183015D02*
X0071906Y0183982D01*
X0070938Y0183015D01*
X0072873Y0183015D02*
X0072873Y0181080D01*
X0073885Y0181564D02*
X0074369Y0181080D01*
X0075336Y0181080D01*
X0075820Y0181564D01*
X0075820Y0183499D01*
X0075336Y0183982D01*
X0074369Y0183982D01*
X0073885Y0183499D01*
X0076831Y0183499D02*
X0077315Y0183982D01*
X0078283Y0183982D01*
X0078766Y0183499D01*
X0078766Y0181564D01*
X0078283Y0181080D01*
X0077315Y0181080D01*
X0076831Y0181564D01*
X0077315Y0179182D02*
X0076831Y0178699D01*
X0076831Y0177731D01*
X0077315Y0177247D01*
X0078766Y0177247D01*
X0078766Y0176280D02*
X0078766Y0179182D01*
X0077315Y0179182D01*
X0075820Y0179182D02*
X0075820Y0176280D01*
X0073885Y0176280D01*
X0074852Y0177731D02*
X0075820Y0177731D01*
X0075820Y0179182D02*
X0073885Y0179182D01*
X0076831Y0176280D02*
X0077799Y0177247D01*
X0079778Y0176764D02*
X0079778Y0179182D01*
X0081713Y0179182D02*
X0081713Y0176764D01*
X0081229Y0176280D01*
X0080262Y0176280D01*
X0079778Y0176764D01*
X0080262Y0174382D02*
X0079778Y0173899D01*
X0080262Y0174382D02*
X0081229Y0174382D01*
X0081713Y0173899D01*
X0081713Y0171964D01*
X0081229Y0171480D01*
X0080262Y0171480D01*
X0079778Y0171964D01*
X0078766Y0171480D02*
X0078766Y0174382D01*
X0078766Y0172931D02*
X0076831Y0172931D01*
X0076831Y0174382D02*
X0076831Y0171480D01*
X0075820Y0171480D02*
X0075820Y0174382D01*
X0073885Y0171480D01*
X0073885Y0174382D01*
X0073885Y0169582D02*
X0073885Y0167164D01*
X0074369Y0166680D01*
X0075336Y0166680D01*
X0075820Y0167164D01*
X0075820Y0169582D01*
X0076831Y0169582D02*
X0076831Y0166680D01*
X0078766Y0166680D02*
X0078766Y0169582D01*
X0077799Y0168615D01*
X0076831Y0169582D01*
X0079778Y0169582D02*
X0081713Y0169582D01*
X0081713Y0166680D01*
X0079778Y0166680D01*
X0080745Y0168131D02*
X0081713Y0168131D01*
X0082724Y0169582D02*
X0084659Y0169582D01*
X0083692Y0169582D02*
X0083692Y0166680D01*
X0085671Y0166680D02*
X0087606Y0166680D01*
X0087606Y0169582D01*
X0085671Y0169582D01*
X0086638Y0168131D02*
X0087606Y0168131D01*
X0086638Y0171480D02*
X0086638Y0174382D01*
X0085671Y0174382D02*
X0087606Y0174382D01*
X0087122Y0176280D02*
X0087606Y0176764D01*
X0087122Y0176280D02*
X0086155Y0176280D01*
X0085671Y0176764D01*
X0085671Y0177247D01*
X0086155Y0177731D01*
X0087122Y0177731D01*
X0087606Y0178215D01*
X0087606Y0178699D01*
X0087122Y0179182D01*
X0086155Y0179182D01*
X0085671Y0178699D01*
X0084659Y0179182D02*
X0084659Y0176280D01*
X0084659Y0177731D02*
X0082724Y0177731D01*
X0082724Y0179182D02*
X0082724Y0176280D01*
X0082724Y0174382D02*
X0084659Y0174382D01*
X0084659Y0171480D01*
X0082724Y0171480D01*
X0083692Y0172931D02*
X0084659Y0172931D01*
X0083692Y0181080D02*
X0082724Y0182047D01*
X0082724Y0183982D01*
X0081713Y0183499D02*
X0081229Y0183982D01*
X0080262Y0183982D01*
X0079778Y0183499D01*
X0079778Y0181564D01*
X0080262Y0181080D01*
X0081229Y0181080D01*
X0081713Y0181564D01*
X0081713Y0183499D01*
X0084659Y0183982D02*
X0084659Y0182047D01*
X0083692Y0181080D01*
X0085671Y0181080D02*
X0085671Y0183015D01*
X0086638Y0183982D01*
X0087606Y0183015D01*
X0087606Y0181080D01*
X0087606Y0182531D02*
X0085671Y0182531D01*
X0079022Y0185910D02*
X0077087Y0185910D01*
X0077087Y0187361D01*
X0078054Y0186877D01*
X0078538Y0186877D01*
X0079022Y0187361D01*
X0079022Y0188328D01*
X0078538Y0188812D01*
X0077571Y0188812D01*
X0077087Y0188328D01*
X0064034Y0179182D02*
X0064034Y0176280D01*
X0064034Y0177731D02*
X0063066Y0177731D01*
X0062099Y0179182D02*
X0064034Y0179182D01*
X0061087Y0174382D02*
X0060120Y0174382D01*
X0060604Y0174382D02*
X0060604Y0171480D01*
X0061087Y0171480D02*
X0060120Y0171480D01*
X0059123Y0171480D02*
X0059123Y0174382D01*
X0057188Y0174382D01*
X0056176Y0173899D02*
X0056176Y0173415D01*
X0055693Y0172931D01*
X0054725Y0172931D01*
X0054241Y0172447D01*
X0054241Y0171964D01*
X0054725Y0171480D01*
X0055693Y0171480D01*
X0056176Y0171964D01*
X0057188Y0171480D02*
X0059123Y0171480D01*
X0059123Y0172931D02*
X0058155Y0172931D01*
X0056176Y0173899D02*
X0055693Y0174382D01*
X0054725Y0174382D01*
X0054241Y0173899D01*
X0055216Y0169582D02*
X0054732Y0169099D01*
X0056667Y0167164D01*
X0056184Y0166680D01*
X0055216Y0166680D01*
X0054732Y0167164D01*
X0054732Y0169099D01*
X0055216Y0169582D02*
X0056184Y0169582D01*
X0056667Y0169099D01*
X0056667Y0167164D01*
X0057679Y0166680D02*
X0059614Y0166680D01*
X0057679Y0168615D01*
X0057679Y0169099D01*
X0058163Y0169582D01*
X0059130Y0169582D01*
X0059614Y0169099D01*
X0063572Y0169582D02*
X0063572Y0166680D01*
X0065507Y0166680D02*
X0065507Y0169582D01*
X0064540Y0168615D01*
X0063572Y0169582D01*
X0053721Y0168615D02*
X0052753Y0169582D01*
X0052753Y0166680D01*
X0051786Y0166680D02*
X0053721Y0166680D01*
X0050774Y0167164D02*
X0050291Y0166680D01*
X0049323Y0166680D01*
X0048839Y0167164D01*
X0048839Y0168131D01*
X0049323Y0168615D01*
X0049807Y0168615D01*
X0050774Y0168131D01*
X0050774Y0169582D01*
X0048839Y0169582D01*
X0050313Y0181080D02*
X0050313Y0183015D01*
X0051280Y0183982D01*
X0052248Y0183015D01*
X0052248Y0181080D01*
X0053259Y0181080D02*
X0054227Y0182047D01*
X0053743Y0182047D02*
X0055194Y0182047D01*
X0055194Y0181080D02*
X0055194Y0183982D01*
X0053743Y0183982D01*
X0053259Y0183499D01*
X0053259Y0182531D01*
X0053743Y0182047D01*
X0052248Y0182531D02*
X0050313Y0182531D01*
X0048538Y0185910D02*
X0047571Y0185910D01*
X0047087Y0186393D01*
X0047087Y0186877D01*
X0047571Y0187361D01*
X0048538Y0187361D01*
X0049022Y0187845D01*
X0049022Y0188328D01*
X0048538Y0188812D01*
X0047571Y0188812D01*
X0047087Y0188328D01*
X0047087Y0187845D01*
X0047571Y0187361D01*
X0048538Y0187361D02*
X0049022Y0186877D01*
X0049022Y0186393D01*
X0048538Y0185910D01*
X0046355Y0183499D02*
X0045871Y0183982D01*
X0044903Y0183982D01*
X0044420Y0183499D01*
X0044420Y0183015D01*
X0046355Y0181080D01*
X0044420Y0181080D01*
X0032787Y0181878D02*
X0032787Y0178975D01*
X0030852Y0178975D02*
X0030852Y0181878D01*
X0031820Y0180910D01*
X0032787Y0181878D01*
X0029840Y0181878D02*
X0028873Y0181878D01*
X0029357Y0181878D02*
X0029357Y0178975D01*
X0029840Y0178975D02*
X0028873Y0178975D01*
X0027906Y0171878D02*
X0029840Y0169943D01*
X0029357Y0170426D02*
X0027906Y0168975D01*
X0029840Y0168975D02*
X0029840Y0171878D01*
X0030852Y0171394D02*
X0031336Y0171878D01*
X0032303Y0171878D01*
X0032787Y0171394D01*
X0032787Y0169459D01*
X0032303Y0168975D01*
X0031336Y0168975D01*
X0030852Y0169459D01*
X0030852Y0161878D02*
X0030852Y0158975D01*
X0029840Y0159459D02*
X0029357Y0158975D01*
X0028389Y0158975D01*
X0027906Y0159459D01*
X0027906Y0161394D01*
X0028389Y0161878D01*
X0029357Y0161878D01*
X0029840Y0161394D01*
X0029840Y0159459D01*
X0031820Y0160910D02*
X0030852Y0161878D01*
X0031820Y0160910D02*
X0032787Y0161878D01*
X0032787Y0158975D01*
X0032787Y0151878D02*
X0031336Y0151878D01*
X0030852Y0151394D01*
X0030852Y0150426D01*
X0031336Y0149943D01*
X0032787Y0149943D01*
X0031820Y0149943D02*
X0030852Y0148975D01*
X0029840Y0149459D02*
X0029357Y0148975D01*
X0028389Y0148975D01*
X0027906Y0149459D01*
X0027906Y0149943D01*
X0028389Y0150426D01*
X0029357Y0150426D01*
X0029840Y0150910D01*
X0029840Y0151394D01*
X0029357Y0151878D01*
X0028389Y0151878D01*
X0027906Y0151394D01*
X0032787Y0151878D02*
X0032787Y0148975D01*
X0044023Y0149009D02*
X0045391Y0147641D01*
X0045391Y0150377D01*
X0045733Y0150719D01*
X0046417Y0150719D01*
X0047101Y0150035D01*
X0047101Y0149351D01*
X0047474Y0148294D02*
X0046106Y0146926D01*
X0047132Y0147952D02*
X0048501Y0146584D01*
X0048843Y0146926D02*
X0048843Y0148294D01*
X0047474Y0148294D01*
X0048843Y0146926D02*
X0047474Y0145557D01*
X0053905Y0143181D02*
X0055840Y0141246D01*
X0055356Y0140763D01*
X0054389Y0140763D01*
X0053905Y0141246D01*
X0053905Y0143181D01*
X0054389Y0143665D01*
X0055356Y0143665D01*
X0055840Y0143181D01*
X0055840Y0141246D01*
X0056851Y0141246D02*
X0057335Y0140763D01*
X0058303Y0140763D01*
X0058786Y0141246D01*
X0058786Y0142214D02*
X0057819Y0142698D01*
X0057335Y0142698D01*
X0056851Y0142214D01*
X0056851Y0141246D01*
X0058786Y0142214D02*
X0058786Y0143665D01*
X0056851Y0143665D01*
X0059798Y0143181D02*
X0061733Y0141246D01*
X0061249Y0140763D01*
X0060282Y0140763D01*
X0059798Y0141246D01*
X0059798Y0143181D01*
X0060282Y0143665D01*
X0061249Y0143665D01*
X0061733Y0143181D01*
X0061733Y0141246D01*
X0062744Y0141246D02*
X0062744Y0141730D01*
X0063228Y0142214D01*
X0064679Y0142214D01*
X0064679Y0141246D01*
X0064196Y0140763D01*
X0063228Y0140763D01*
X0062744Y0141246D01*
X0063712Y0143181D02*
X0064679Y0142214D01*
X0063712Y0143181D02*
X0062744Y0143665D01*
X0065691Y0143665D02*
X0065691Y0141246D01*
X0066175Y0140763D01*
X0067142Y0140763D01*
X0067626Y0141246D01*
X0067626Y0143665D01*
X0068637Y0143181D02*
X0068637Y0142214D01*
X0069121Y0141730D01*
X0070572Y0141730D01*
X0070572Y0140763D02*
X0070572Y0143665D01*
X0069121Y0143665D01*
X0068637Y0143181D01*
X0071584Y0143665D02*
X0071584Y0140763D01*
X0073519Y0140763D02*
X0073519Y0143665D01*
X0072551Y0142698D01*
X0071584Y0143665D01*
X0084796Y0158486D02*
X0083828Y0159454D01*
X0083828Y0161389D01*
X0085763Y0161389D02*
X0085763Y0159454D01*
X0084796Y0158486D01*
X0088487Y0160650D02*
X0089454Y0161617D01*
X0091389Y0161617D01*
X0089938Y0162629D02*
X0088971Y0162629D01*
X0088487Y0163112D01*
X0088487Y0164564D01*
X0090422Y0164564D02*
X0090422Y0163112D01*
X0089938Y0162629D01*
X0088487Y0160650D02*
X0089454Y0159682D01*
X0091389Y0159682D01*
X0072873Y0166680D02*
X0072390Y0166680D01*
X0072390Y0167164D01*
X0072873Y0167164D01*
X0072873Y0166680D01*
X0089454Y0216139D02*
X0088487Y0217106D01*
X0089454Y0218074D01*
X0091389Y0218074D01*
X0089938Y0219085D02*
X0088971Y0219085D01*
X0088487Y0219569D01*
X0088487Y0221020D01*
X0090422Y0221020D02*
X0090422Y0219569D01*
X0089938Y0219085D01*
X0089454Y0216139D02*
X0091389Y0216139D01*
M02*
